
<svg version="1.0" xmlns="http://www.w3.org/2000/svg"
 width="370.000000pt" height="370.000000pt" viewBox="0 0 370.000000 370.000000"
 preserveAspectRatio="xMidYMid meet">
<g transform="translate(0.000000,370.000000) scale(0.100000,-0.100000)"
fill="#000000" stroke="none"><path fill="#ffffff" stroke="none" d="M0 1850 l0 -1850 1850 0 1850 0 0 1850
0 1850 -1850 0 -1850 0 0 -1850z"/>
<path fill="#000000" stroke="none" d="M3204 1238 c3 -376 9 -736 13 -800 l6
-118 -152 0 -151 0 0 115 0 115 -1115 0 -1115 0 0 -105 0 -105 -142 0 -143 0
0 790 0 790 1396 0 1396 0 7 -682z"/>
<path fill="#ffffff" stroke="none" d="M690 1515 l0 -175 1115 0 1115 0 0 175
0 175 -1115 0 -1115 0 0 -175z"/>
<path fill="#ffffff" stroke="none" d="M690 950 l0 -160 1115 0 1115 0 0 160
0 160 -1115 0 -1115 0 0 -160z"/>
<path fill="#ff0000" stroke="none" d="M2955 2855 l0 -635 -1123 0 -1122 0 7
28 c10 35 10 1179 0 1215 l-7 27 1122 0 1123 0 0 -635z"/>
<path fill="#ff0000" stroke="none" d="M407 1683 c-3 -10 -5 -2 -5 17 0 19 2
27 5 18 2 -10 2 -26 0 -35z"/>
<path fill="#ff0000" stroke="none" d="M407 543 c-3 -10 -5 -4 -5 12 0 17 2
24 5 18 2 -7 2 -21 0 -30z"/>
<path fill="#ffffff" stroke="none" d="M990 3100 l0 -160 855 0 855 0 0 160 0
160 -855 0 -855 0 0 -160z"/>
<path fill="#ffffff" stroke="none" d="M990 2590 l0 -140 855 0 855 0 0 140 0
140 -855 0 -855 0 0 -140z"/>
</g>
</svg>