
<svg version="1.0" xmlns="http://www.w3.org/2000/svg"
 width="370.000000pt" height="370.000000pt" viewBox="0 0 370.000000 370.000000"
 preserveAspectRatio="xMidYMid meet">
<g transform="translate(0.000000,370.000000) scale(0.100000,-0.100000)"
fill="#000000" stroke="none"><path fill="#ffffff" stroke="none" d="M0 1850 l0 -1850 1850 0 1850 0 0 1850
0 1850 -1850 0 -1850 0 0 -1850z"/>
<path fill="#000000" stroke="none" d="M3242 3410 c-1 -25 -5 -661 -8 -1415
-6 -1507 -2 -1438 -67 -1512 -34 -38 -95 -70 -187 -96 -88 -26 -304 -66 -311
-59 -3 4 -14 37 -23 73 -10 36 -39 109 -66 162 l-48 95 166 4 c188 4 222 14
241 69 7 21 11 165 11 430 l0 399 -415 0 c-228 0 -415 -3 -415 -7 0 -5 -11
-73 -25 -153 -68 -402 -205 -763 -412 -1082 l-43 -68 -62 50 c-34 27 -98 68
-142 91 -45 23 -83 43 -85 45 -1 1 24 35 58 75 223 265 347 583 418 1069 16
113 18 207 18 1003 l0 877 700 -2 700 -3 -3 -45z"/>
<path fill="#ffffff" stroke="none" d="M2130 2915 l0 -295 410 0 410 0 0 295
0 295 -410 0 -410 0 0 -295z"/>
<path fill="#ffffff" stroke="none" d="M2130 2095 l0 -285 410 0 410 0 0 285
0 285 -410 0 -410 0 0 -285z"/>
<path fill="#ff0000" stroke="none" d="M2893 3453 c-194 -2 -512 -2 -705 0
-194 1 -36 2 352 2 388 0 546 -1 353 -2z"/>
<path fill="#ff0000" stroke="none" d="M1432 3293 c-9 -63 -9 -2093 0 -2155
l8 -48 -130 0 -130 0 0 105 0 105 -300 0 -300 0 0 -195 0 -195 -140 0 -139 0
7 33 c9 42 9 2288 0 2350 l-8 47 570 0 570 0 -8 -47z"/>
<path fill="#ff0000" stroke="none" d="M2753 3213 c-111 -2 -295 -2 -410 0
-114 1 -23 2 202 2 226 0 319 -1 208 -2z"/>
<path fill="#ff0000" stroke="none" d="M2753 1803 c-111 -2 -295 -2 -410 0
-114 1 -23 2 202 2 226 0 319 -1 208 -2z"/>
<path fill="#ff0000" stroke="none" d="M2748 1563 c-114 -2 -303 -2 -420 0
-117 1 -24 2 207 2 231 0 327 -1 213 -2z"/>
<path fill="#ffffff" stroke="none" d="M580 2785 l0 -325 300 0 300 0 0 325 0
325 -300 0 -300 0 0 -325z"/>
<path fill="#ffffff" stroke="none" d="M580 1900 l0 -350 300 0 300 0 0 350 0
350 -300 0 -300 0 0 -350z"/>
</g>
</svg>