
<svg version="1.0" xmlns="http://www.w3.org/2000/svg"
 width="370.000000pt" height="370.000000pt" viewBox="0 0 370.000000 370.000000"
 preserveAspectRatio="xMidYMid meet">
<g transform="translate(0.000000,370.000000) scale(0.100000,-0.100000)"
fill="#000000" stroke="none"><path fill="#ffffff" stroke="none" d="M0 1850 l0 -1850 1850 0 1850 0 0 1850
0 1850 -1850 0 -1850 0 0 -1850z"/>
<path fill="#000000" stroke="none" d="M2896 1240 l1 -890 -133 0 -134 0 0 65
0 65 -820 0 -820 0 0 -80 0 -80 -136 0 -136 0 8 113 c10 146 11 1461 0 1595
l-8 102 1089 0 1088 0 1 -890z"/>
<path fill="#ffffff" stroke="none" d="M990 1760 l0 -140 820 0 820 0 0 140 0
140 -820 0 -820 0 0 -140z"/>
<path fill="#ffffff" stroke="none" d="M990 1280 l0 -110 820 0 820 0 0 110 0
110 -820 0 -820 0 0 -110z"/>
<path fill="#ffffff" stroke="none" d="M990 825 l0 -135 820 0 820 0 0 135 0
135 -820 0 -820 0 0 -135z"/>
<path fill="#ff0000" stroke="none" d="M3265 2975 l0 -545 -142 0 -143 0 0
430 0 430 -1145 0 -1145 0 0 -430 0 -430 -145 0 -145 0 7 28 c10 35 10 964 0
1020 l-7 42 1432 0 1433 0 0 -545z"/>
<path fill="#ff0000" stroke="none" d="M2680 2978 l0 -127 -32 7 c-18 4 -379
7 -803 7 -424 0 -785 -3 -802 -7 l-33 -7 0 127 0 127 835 0 835 0 0 -127z"/>
<path fill="#ff0000" stroke="none" d="M1845 2635 c424 0 785 3 803 7 l32 8 0
-139 0 -139 -42 11 c-61 17 -1526 17 -1585 1 l-43 -12 0 139 0 139 33 -8 c17
-4 378 -7 802 -7z"/>
<path fill="#ff0000" stroke="none" d="M2897 2098 c-3 -7 -5 -2 -5 12 0 14 2
19 5 13 2 -7 2 -19 0 -25z"/>
<path fill="#ff0000" stroke="none" d="M2897 452 c-1 -59 -3 -10 -3 108 0 118
2 167 3 108 2 -60 2 -156 0 -216z"/>
</g>
</svg>