
<svg version="1.0" xmlns="http://www.w3.org/2000/svg"
 width="370.000000pt" height="370.000000pt" viewBox="0 0 370.000000 370.000000"
 preserveAspectRatio="xMidYMid meet">
<g transform="translate(0.000000,370.000000) scale(0.100000,-0.100000)"
fill="#000000" stroke="none"><path fill="#ffffff" stroke="none" d="M0 1850 l0 -1850 1850 0 1850 0 0 1850
0 1850 -1850 0 -1850 0 0 -1850z"/>
<path fill="#000000" stroke="none" d="M1080 1945 l0 -85 715 0 715 0 0 85 0
85 145 0 145 0 0 -122 c0 -68 3 -160 7 -205 l6 -83 -257 0 -256 0 0 -396 c0
-262 4 -410 11 -440 15 -57 62 -108 114 -123 53 -15 526 -15 580 0 63 18 98
62 123 154 11 44 26 118 33 165 7 47 13 86 14 88 1 1 26 -14 56 -34 72 -48
132 -78 202 -100 37 -11 56 -22 53 -30 -3 -7 -10 -32 -16 -56 -28 -108 -93
-289 -120 -331 -17 -27 -48 -57 -77 -74 l-48 -28 -495 0 -495 0 -57 28 c-64
31 -101 70 -132 137 -20 43 -21 62 -24 543 l-3 497 -218 0 -218 0 -6 -62 c-9
-94 -44 -262 -74 -353 -120 -370 -418 -666 -858 -852 -60 -25 -125 -52 -143
-60 l-33 -13 -20 46 c-28 67 -84 140 -141 185 -31 24 -45 41 -36 43 7 3 49 15
93 27 182 49 366 129 490 212 219 147 400 471 422 755 l6 72 -252 0 -251 0 0
53 c0 30 3 122 7 205 l6 152 144 0 143 0 0 -85z"/>
<path fill="#ff0000" stroke="none" d="M2799 3448 c-4 -57 -7 -399 -8 -760
l-1 -658 -135 0 -135 0 0 85 0 85 -726 0 -726 0 4 -162 c3 -90 3 -128 1 -85
l-4 77 -133 0 -134 0 -5 738 c-2 405 -8 747 -12 760 l-7 22 1013 0 1014 0 -6
-102z"/>
<path fill="#ffffff" stroke="none" d="M1070 3150 l0 -170 725 0 725 0 0 170
0 170 -725 0 -725 0 0 -170z"/>
<path fill="#ffffff" stroke="none" d="M1070 2595 l0 -175 725 0 725 0 0 175
0 175 -725 0 -725 0 0 -175z"/>
</g>
</svg>