
<svg version="1.0" xmlns="http://www.w3.org/2000/svg"
 width="370.000000pt" height="370.000000pt" viewBox="0 0 370.000000 370.000000"
 preserveAspectRatio="xMidYMid meet">
<g transform="translate(0.000000,370.000000) scale(0.100000,-0.100000)"
fill="#000000" stroke="none"><path fill="#ffffff" stroke="none" d="M0 1850 l0 -1850 1850 0 1850 0 0 1850
0 1850 -1850 0 -1850 0 0 -1850z"/>
<path fill="#000000" stroke="none" d="M3350 3234 l0 -137 -67 8 c-187 22
-2750 12 -2950 -11 l-53 -7 0 142 0 141 1535 0 1535 0 0 -136z"/>
<path fill="#000000" stroke="none" d="M375 699 c238 -12 3034 -8 3073 6 l22
7 0 -136 0 -136 -1675 0 -1675 0 0 141 0 141 22 -6 c13 -3 117 -10 233 -17z"/>
<path fill="#ff0000" stroke="none" d="M287 3158 c-1 -40 -3 -8 -3 72 0 80 2
112 3 73 2 -40 2 -106 0 -145z"/>
<path fill="#ff0000" stroke="none" d="M863 3113 c-34 -2 -93 -2 -130 0 -37 2
-9 3 62 3 72 0 102 -1 68 -3z"/>
<path fill="#ff0000" stroke="none" d="M1439 3068 c-5 -29 -13 -82 -19 -118
-6 -36 -15 -92 -20 -125 -6 -33 -13 -75 -16 -92 l-6 -33 716 0 716 0 0 -27 c0
-15 -7 -61 -15 -103 -8 -41 -19 -109 -26 -150 -6 -41 -17 -109 -24 -150 -14
-79 -29 -175 -45 -287 -5 -38 -16 -111 -24 -163 -8 -52 -20 -131 -26 -175 -6
-44 -18 -123 -26 -175 -19 -124 -30 -197 -44 -295 -6 -44 -17 -118 -25 -165
-16 -96 -32 -202 -40 -272 l-6 -48 -141 0 -140 0 6 57 c4 32 11 85 16 118 25
158 42 266 50 325 5 36 16 110 25 165 18 112 29 183 45 300 6 44 17 118 25
165 8 47 19 121 25 165 6 44 18 123 26 175 24 151 33 212 39 263 l6 47 -569 0
-569 0 -16 -57 c-14 -52 -41 -173 -54 -243 -3 -14 -11 -45 -18 -70 -7 -25 -18
-72 -24 -105 -7 -33 -16 -74 -21 -90 -6 -17 -14 -53 -20 -80 -11 -53 -33 -158
-73 -345 -21 -93 -71 -336 -93 -447 -4 -23 -6 -23 -179 -23 l-174 0 15 48 c9
26 19 56 24 67 8 17 23 66 70 220 12 40 80 301 90 345 4 19 13 59 19 88 6 30
13 57 15 60 2 4 18 77 36 162 17 85 35 173 40 195 5 22 13 67 19 100 6 33 22
116 35 185 13 69 29 159 36 200 7 41 18 107 25 145 16 86 32 185 40 248 l6 47
148 0 148 0 -8 -52z"/>
<path fill="#ff0000" stroke="none" d="M2988 3113 c-26 -2 -71 -2 -100 0 -29
2 -8 3 47 3 55 0 79 -1 53 -3z"/>
<path fill="#ff0000" stroke="none" d="M1760 2193 c36 -15 82 -37 102 -50 21
-13 40 -23 42 -23 3 0 43 -25 88 -55 114 -76 127 -85 179 -126 l46 -35 -31
-35 c-17 -19 -52 -58 -78 -87 -25 -28 -56 -64 -67 -78 l-21 -27 -53 50 c-51
49 -246 183 -265 183 -6 0 -12 4 -14 8 -3 8 -59 43 -137 84 -19 10 -39 22 -43
26 -5 5 22 51 63 106 82 110 71 107 189 59z"/>
<path fill="#ff0000" stroke="none" d="M1536 1551 c21 -15 109 -68 194 -116
154 -87 340 -209 340 -223 0 -4 -16 -18 -36 -31 -37 -26 -134 -127 -134 -141
0 -4 -7 -11 -16 -14 -15 -6 -117 57 -352 215 -23 16 -47 29 -52 29 -6 0 -10 4
-10 9 0 5 -8 11 -17 15 -10 3 -36 18 -58 31 -22 14 -46 29 -54 34 -15 9 -4 30
59 112 19 25 46 60 59 77 13 18 27 32 31 32 3 0 24 -13 46 -29z"/>
<path fill="#ff0000" stroke="none" d="M453 693 c-7 -2 -21 -2 -30 0 -10 3 -4
5 12 5 17 0 24 -2 18 -5z"/>
<path fill="#ff0000" stroke="none" d="M3228 693 c-10 -2 -28 -2 -40 0 -13 2
-5 4 17 4 22 1 32 -1 23 -4z"/>
</g>
</svg>