
<svg version="1.0" xmlns="http://www.w3.org/2000/svg"
 width="370.000000pt" height="370.000000pt" viewBox="0 0 370.000000 370.000000"
 preserveAspectRatio="xMidYMid meet">
<g transform="translate(0.000000,370.000000) scale(0.100000,-0.100000)"
fill="#000000" stroke="none"><path fill="#ffffff" stroke="none" d="M0 1850 l0 -1850 1850 0 1850 0 0 1850
0 1850 -1850 0 -1850 0 0 -1850z"/>
<path fill="#000000" stroke="none" d="M3271 2676 c2 -3 1 -61 -4 -130 -5 -69
-5 -177 0 -240 l8 -116 -127 0 -128 0 0 140 0 140 -1225 0 -1225 0 0 -150 0
-150 -131 0 -130 0 8 48 c10 57 9 349 -1 415 l-7 47 1479 0 c813 0 1481 -2
1483 -4z"/>
<path fill="#000000" stroke="none" d="M1979 2235 c67 -77 121 -143 121 -146
0 -4 -24 -20 -52 -37 -29 -16 -74 -46 -101 -66 -26 -20 -51 -36 -55 -36 -4 0
-16 15 -28 33 -12 17 -68 90 -125 161 -56 71 -98 131 -93 133 6 2 50 30 100
62 67 44 92 56 101 47 6 -6 66 -74 132 -151z"/>
<path fill="#000000" stroke="none" d="M1456 2283 c-26 -83 -35 -276 -16 -344
6 -23 19 -40 36 -47 40 -19 661 -16 706 2 46 20 99 80 133 152 15 32 29 60 30
62 2 2 29 -10 61 -26 33 -16 91 -40 129 -52 39 -13 72 -25 74 -26 6 -5 -65
-125 -117 -200 -87 -124 -101 -126 -712 -122 l-465 3 -48 24 c-26 13 -54 33
-62 45 -18 27 -32 170 -39 384 l-5 162 150 0 c139 0 150 -1 145 -17z"/>
<path fill="#000000" stroke="none" d="M980 2159 c30 -12 57 -24 59 -25 2 -2
-17 -27 -41 -56 -25 -29 -78 -102 -119 -163 -104 -154 -163 -234 -171 -235 -5
0 -225 126 -237 136 -2 2 23 32 55 66 80 83 132 156 199 276 l56 99 72 -37
c40 -21 97 -48 127 -61z"/>
<path fill="#000000" stroke="none" d="M3024 2049 c92 -111 165 -202 164 -203
-2 -1 -28 -13 -58 -26 -30 -13 -86 -43 -123 -67 -37 -24 -69 -43 -71 -43 -2 0
-19 24 -37 52 -41 64 -131 179 -212 271 -33 37 -58 69 -56 71 2 2 45 32 96 65
51 34 95 66 98 71 4 6 12 10 19 10 7 0 88 -91 180 -201z"/>
<path fill="#000000" stroke="none" d="M1136 1689 c53 -36 159 -85 227 -106
27 -8 46 -17 43 -21 -4 -3 -39 -25 -79 -49 l-72 -43 828 -2 829 -3 -68 -80
c-103 -121 -338 -353 -437 -429 -48 -37 -143 -103 -212 -146 l-124 -78 92 -25
c51 -14 173 -42 272 -61 343 -68 603 -96 879 -96 l148 0 -35 -40 c-49 -54 -81
-106 -103 -165 -9 -27 -20 -54 -24 -58 -12 -14 -321 22 -585 68 -320 54 -593
125 -803 207 l-103 40 -127 -45 c-351 -125 -633 -193 -1047 -252 -93 -13 -204
-27 -245 -31 l-75 -6 -30 62 c-17 35 -49 92 -72 127 l-41 63 31 0 c18 0 115 4
217 10 364 19 555 49 925 145 244 63 232 48 107 131 -123 82 -244 185 -354
302 -42 45 -79 82 -82 82 -4 0 -39 -26 -79 -58 -85 -69 -324 -247 -384 -287
l-43 -27 -57 52 c-32 29 -88 73 -125 98 -38 25 -68 46 -68 48 0 2 32 20 72 40
100 50 219 126 318 202 109 84 298 275 375 380 33 44 61 81 63 82 2 0 24 -14
48 -31z"/>
<path fill="#ffffff" stroke="none" d="M1270 1261 c0 -10 134 -131 220 -198
82 -63 154 -109 254 -162 l78 -40 76 38 c142 71 379 245 471 345 l24 26 -561
0 c-309 0 -562 -4 -562 -9z"/>
<path fill="#ff0000" stroke="none" d="M2965 3543 c21 -48 54 -108 72 -135 18
-26 33 -50 33 -53 0 -3 -125 -5 -277 -5 -154 0 -367 -7 -478 -15 -217 -17
-384 -29 -625 -45 -85 -6 -234 -17 -330 -25 -96 -8 -249 -19 -340 -25 -91 -6
-215 -15 -276 -20 -185 -17 -181 -17 -195 33 -21 75 -39 128 -53 155 l-14 27
302 2 c165 1 378 7 471 13 423 26 509 32 640 45 77 7 194 19 260 25 66 6 167
18 225 26 58 8 137 18 175 23 161 22 243 34 295 46 30 7 60 13 65 14 6 1 28
-38 50 -86z"/>
<path fill="#ff0000" stroke="none" d="M2780 3178 c52 -25 105 -49 117 -54 22
-9 21 -11 -27 -63 -28 -29 -50 -57 -50 -61 0 -5 -6 -15 -13 -22 -7 -7 -44 -60
-82 -118 -78 -117 -90 -132 -99 -123 -9 10 -128 59 -178 73 l-44 13 78 110
c43 60 104 152 135 203 30 52 58 92 62 90 3 -1 49 -23 101 -48z"/>
<path fill="#ff0000" stroke="none" d="M1833 3048 c88 -180 107 -221 104 -223
-1 -1 -24 -9 -52 -18 -27 -9 -87 -29 -132 -45 l-81 -29 -5 26 c-8 41 -27 87
-92 217 l-61 121 40 12 c23 7 77 27 121 45 44 18 83 31 86 29 4 -1 36 -62 72
-135z"/>
<path fill="#ff0000" stroke="none" d="M1028 2998 c44 -90 82 -171 84 -182 2
-14 -7 -22 -42 -34 -101 -34 -156 -56 -169 -68 -12 -11 -25 8 -81 119 -36 73
-81 156 -98 185 -28 47 -30 53 -14 58 9 4 58 21 107 39 102 38 117 43 127 44
3 1 42 -72 86 -161z"/>
<path fill="#ff0000" stroke="none" d="M3267 2518 c-3 -8 -6 -5 -6 6 -1 11 2
17 5 13 3 -3 4 -12 1 -19z"/>
<path fill="#ff0000" stroke="none" d="M3267 2318 c-3 -8 -6 -5 -6 6 -1 11 2
17 5 13 3 -3 4 -12 1 -19z"/>
</g>
</svg>