
<svg version="1.0" xmlns="http://www.w3.org/2000/svg"
 width="370.000000pt" height="370.000000pt" viewBox="0 0 370.000000 370.000000"
 preserveAspectRatio="xMidYMid meet">
<g transform="translate(0.000000,370.000000) scale(0.100000,-0.100000)"
fill="#000000" stroke="none"><path fill="#ffffff" stroke="none" d="M0 1850 l0 -1850 1850 0 1850 0 0 1850
0 1850 -1850 0 -1850 0 0 -1850z"/>
<path fill="#000000" stroke="none" d="M2401 1695 c-2 -432 0 -806 4 -831 15
-99 88 -134 287 -134 155 0 217 21 247 83 24 50 48 148 56 237 4 36 8 70 10
77 3 8 35 -2 97 -32 51 -24 123 -52 161 -61 l67 -18 -6 -36 c-11 -62 -71 -235
-104 -301 -58 -116 -104 -147 -255 -169 -125 -18 -392 -24 -518 -11 -204 21
-260 49 -296 147 -21 53 -21 72 -21 809 l0 755 -369 0 -369 0 -6 -157 c-10
-247 -37 -524 -61 -638 -77 -358 -155 -505 -392 -736 -135 -133 -297 -249
-447 -321 -41 -19 -50 -21 -54 -8 -9 29 -118 127 -182 163 -54 30 -61 37 -45
43 244 88 412 190 560 339 185 188 271 393 321 770 13 100 18 208 18 472 l1
343 650 0 650 0 -4 -785z"/>
<path fill="#ff0000" stroke="none" d="M3183 3253 c-5 -16 -8 -162 -8 -325 l0
-298 -137 0 -138 0 0 205 0 205 -1120 0 -1120 0 0 -220 0 -220 -137 0 -138 0
0 340 0 340 1403 0 1402 0 -7 -27z"/>
</g>
</svg>