
<svg version="1.0" xmlns="http://www.w3.org/2000/svg"
 width="370.000000pt" height="370.000000pt" viewBox="0 0 370.000000 370.000000"
 preserveAspectRatio="xMidYMid meet">
<g transform="translate(0.000000,370.000000) scale(0.100000,-0.100000)"
fill="#000000" stroke="none"><path fill="#ffffff" stroke="none" d="M0 1850 l0 -1850 1850 0 1850 0 0 1850
0 1850 -1850 0 -1850 0 0 -1850z"/>
<path fill="#000000" stroke="none" d="M2362 3478 l140 -12 -6 -30 c-8 -53
-29 -783 -22 -801 6 -16 29 -17 319 -11 171 4 345 9 385 12 l72 6 0 -121 0
-122 -352 7 -351 7 6 -33 c12 -56 85 -230 138 -325 91 -166 231 -331 384 -454
81 -65 255 -172 320 -197 25 -9 45 -19 45 -23 -1 -3 -37 -31 -81 -61 -44 -30
-107 -83 -141 -118 l-60 -63 -77 57 c-237 178 -390 343 -532 577 -45 73 -140
259 -166 326 -9 23 -12 18 -42 -55 -72 -173 -221 -425 -340 -574 -65 -82 -215
-235 -304 -312 l-68 -59 -57 52 c-50 46 -174 139 -205 153 -9 5 -9 7 0 12 54
26 208 139 278 205 197 188 347 411 453 680 28 70 72 197 72 207 0 3 -110 1
-245 -3 l-245 -7 0 122 0 122 83 -6 c45 -3 161 -8 258 -12 l176 -6 8 206 c6
193 2 433 -11 605 -5 66 -4 73 11 68 9 -4 79 -12 157 -19z"/>
<path fill="#000000" stroke="none" d="M2979 3244 c132 -127 291 -304 291
-323 0 -5 -17 -21 -37 -37 -21 -15 -64 -53 -96 -83 -31 -30 -59 -52 -61 -50
-2 2 -41 51 -87 109 -46 58 -139 161 -206 230 -68 68 -123 125 -123 126 0 7
158 162 166 163 7 1 75 -60 153 -135z"/>
<path fill="#000000" stroke="none" d="M2924 1126 c200 -251 486 -661 470
-675 -5 -4 -25 -14 -44 -21 -45 -18 -138 -75 -172 -108 -15 -14 -30 -24 -32
-21 -2 2 -25 42 -51 89 -84 149 -203 320 -344 495 -36 44 -69 85 -73 91 -6 8
15 25 64 53 40 22 93 56 118 75 52 41 49 40 64 22z"/>
<path fill="#000000" stroke="none" d="M2198 998 c149 -212 319 -501 310 -528
-2 -6 -58 -37 -125 -69 l-122 -59 -61 126 c-69 142 -121 231 -223 375 -38 54
-66 101 -62 105 14 15 201 130 212 131 7 1 38 -36 71 -81z"/>
<path fill="#000000" stroke="none" d="M661 1025 c33 -24 88 -61 122 -81 34
-21 63 -38 65 -39 1 -1 -47 -74 -108 -163 -60 -88 -153 -227 -206 -308 -52
-82 -99 -152 -103 -157 -4 -4 -25 7 -47 24 -34 27 -138 82 -197 102 -17 6 -15
11 16 49 74 91 303 453 371 586 9 17 19 32 21 32 3 0 32 -20 66 -45z"/>
<path fill="#000000" stroke="none" d="M1472 891 c81 -171 178 -428 178 -471
0 -10 -25 -22 -81 -39 -44 -13 -103 -35 -131 -48 -28 -13 -52 -22 -53 -21 0 2
-22 66 -48 143 -25 77 -78 214 -117 304 -39 90 -67 167 -63 171 4 4 38 15 74
24 36 10 88 30 115 46 60 35 56 38 126 -109z"/>
<path fill="#ff0000" stroke="none" d="M965 3480 c28 -10 71 -23 98 -30 26 -7
47 -15 47 -19 -1 -3 -21 -37 -46 -76 -24 -38 -47 -78 -50 -87 -4 -10 -10 -18
-15 -18 -5 0 -9 -6 -9 -12 0 -7 -16 -39 -35 -71 -19 -32 -35 -65 -35 -73 0
-12 58 -14 406 -14 l407 0 -7 -32 c-4 -18 -12 -60 -17 -92 -6 -33 -12 -63 -15
-67 -2 -4 -9 -31 -15 -61 -31 -152 -91 -374 -132 -488 -32 -89 -123 -276 -165
-338 -11 -15 -39 -56 -63 -92 -50 -75 -42 -64 -155 -200 -97 -115 -243 -264
-344 -350 -36 -30 -67 -57 -70 -60 -3 -3 -30 -23 -60 -45 -30 -22 -57 -42 -60
-45 -3 -4 -33 -24 -68 -45 l-62 -38 -38 38 c-45 45 -103 86 -160 112 l-42 19
46 25 c25 13 53 29 62 34 59 35 99 61 110 72 7 7 17 13 21 13 4 0 16 8 27 18
10 9 44 36 74 58 30 23 95 80 144 127 l89 86 -17 26 c-36 55 -195 204 -302
281 l-29 21 55 60 c30 33 66 74 80 92 24 32 25 32 45 14 12 -10 50 -43 85 -73
36 -30 108 -96 160 -147 52 -51 97 -93 100 -93 15 2 180 237 180 258 0 16 -34
51 -140 142 -41 36 -77 67 -80 70 -3 3 -30 23 -60 45 -30 22 -57 42 -60 46 -3
3 -15 11 -27 18 -13 6 -23 16 -23 22 0 9 46 77 61 89 3 3 19 26 35 52 l30 48
24 -23 c14 -12 38 -30 53 -40 35 -23 46 -31 173 -140 57 -49 106 -92 109 -98
4 -5 10 -9 15 -9 13 0 63 136 88 240 35 148 42 182 42 210 l0 30 -307 0 -308
0 -45 -78 c-43 -74 -81 -136 -98 -157 -4 -5 -23 -35 -42 -65 -19 -30 -40 -61
-48 -68 -7 -8 -20 -28 -29 -45 -8 -17 -22 -37 -29 -45 -8 -7 -19 -23 -25 -34
-12 -22 -62 -91 -106 -145 l-26 -33 -32 24 c-39 30 -168 96 -187 96 -31 0 -25
15 30 79 32 36 79 93 105 126 26 33 51 65 55 70 89 112 305 514 387 720 9 22
20 49 25 60 4 11 21 52 36 92 l27 72 51 -21 c28 -11 74 -28 101 -38z"/>
<path fill="#ff0000" stroke="none" d="M2477 2933 c-2 -16 -4 -5 -4 22 0 28 2
40 4 28 2 -13 2 -35 0 -50z"/>
<path fill="#ff0000" stroke="none" d="M1903 2403 c-7 -2 -21 -2 -30 0 -10 3
-4 5 12 5 17 0 24 -2 18 -5z"/>
<path fill="#ff0000" stroke="none" d="M3028 2403 c-10 -2 -28 -2 -40 0 -13 2
-5 4 17 4 22 1 32 -1 23 -4z"/>
</g>
</svg>