
<svg version="1.0" xmlns="http://www.w3.org/2000/svg"
 width="370.000000pt" height="370.000000pt" viewBox="0 0 370.000000 370.000000"
 preserveAspectRatio="xMidYMid meet">
<g transform="translate(0.000000,370.000000) scale(0.100000,-0.100000)"
fill="#000000" stroke="none"><path fill="#ffffff" stroke="none" d="M0 1850 l0 -1850 1850 0 1850 0 0 1850
0 1850 -1850 0 -1850 0 0 -1850z"/>
<path fill="#000000" stroke="none" d="M3278 3235 l-3 -130 -40 1 c-22 0 -172
4 -332 8 l-293 8 0 -502 0 -502 380 4 380 3 0 -137 0 -136 -381 5 -381 6 6
-754 c3 -415 8 -771 12 -791 l6 -38 -148 0 -149 0 3 792 3 791 -360 -6 -361
-6 0 137 0 137 360 -4 360 -3 0 502 0 502 -227 -6 c-126 -4 -261 -9 -300 -12
l-73 -6 0 134 0 133 770 0 771 0 -3 -130z"/>
<path fill="#ff0000" stroke="none" d="M1473 2053 c-2 -826 -7 -1363 -13
-1404 -29 -191 -66 -231 -285 -309 -153 -54 -174 -54 -175 -3 0 44 -78 218
-118 266 -14 16 -8 17 107 17 150 0 181 11 204 69 15 36 17 94 17 466 l0 425
-290 0 -290 0 0 -37 c0 -20 -5 -87 -11 -148 -9 -102 -18 -166 -50 -395 -10
-75 -37 -205 -71 -340 -6 -25 -31 -103 -55 -175 -24 -72 -47 -140 -50 -152 -6
-25 -18 -30 -26 -10 -6 15 -148 118 -205 147 -23 12 -42 26 -42 31 0 4 11 32
24 61 13 29 34 78 46 108 12 30 26 64 31 75 57 132 101 351 139 695 20 183 32
740 28 1343 l-4 607 545 0 546 0 -2 -1337z"/>
<path fill="#ff0000" stroke="none" d="M3277 3173 c-2 -38 -3 -7 -3 67 0 74 1
105 3 68 2 -38 2 -98 0 -135z"/>
<path fill="#ff0000" stroke="none" d="M2098 3113 c-21 -2 -55 -2 -75 0 -21 2
-4 4 37 4 41 0 58 -2 38 -4z"/>
<path fill="#ff0000" stroke="none" d="M2998 3113 c-21 -2 -57 -2 -80 0 -24 2
-7 4 37 4 44 0 63 -2 43 -4z"/>
<path fill="#ff0000" stroke="none" d="M1823 1853 c-7 -2 -19 -2 -25 0 -7 3
-2 5 12 5 14 0 19 -2 13 -5z"/>
<path fill="#ff0000" stroke="none" d="M3203 1853 c-7 -2 -19 -2 -25 0 -7 3
-2 5 12 5 14 0 19 -2 13 -5z"/>
<path fill="#ffffff" stroke="none" d="M650 2880 l0 -280 280 0 280 0 0 280 0
280 -280 0 -280 0 0 -280z"/>
<path fill="#ffffff" stroke="none" d="M650 2100 l0 -290 280 0 280 0 0 290 0
290 -280 0 -280 0 0 -290z"/>
</g>
</svg>