
<svg version="1.0" xmlns="http://www.w3.org/2000/svg"
 width="370.000000pt" height="370.000000pt" viewBox="0 0 370.000000 370.000000"
 preserveAspectRatio="xMidYMid meet">
<g transform="translate(0.000000,370.000000) scale(0.100000,-0.100000)"
fill="#000000" stroke="none"><path fill="#ffffff" stroke="none" d="M0 1850 l0 -1850 1850 0 1850 0 0 1850
0 1850 -1850 0 -1850 0 0 -1850z"/>
<path fill="#000000" stroke="none" d="M1820 2765 c421 0 793 4 828 8 l62 8 0
-138 0 -138 -910 0 -910 0 0 138 0 138 83 -7 c45 -5 426 -8 847 -9z"/>
<path fill="#000000" stroke="none" d="M2455 2063 c-11 -46 -24 -282 -25 -448
0 -165 15 -479 26 -527 l6 -28 -664 0 -663 0 0 515 0 515 664 0 663 0 -7 -27z"/>
<path fill="#ffffff" stroke="none" d="M1410 1580 l0 -280 380 0 380 0 0 280
0 280 -380 0 -380 0 0 -280z"/>
<path fill="#ff0000" stroke="none" d="M3255 3343 c-3 -43 -9 -694 -13 -1448
-7 -1272 -8 -1373 -24 -1407 -35 -73 -87 -108 -191 -129 -153 -31 -209 -41
-284 -47 l-81 -7 -6 48 c-8 55 -25 105 -67 192 l-29 60 142 12 c148 12 177 17
216 36 54 26 52 -31 52 1287 l0 1220 -1170 0 -1170 0 0 -1425 0 -1425 -152 0
-153 0 3 87 c1 49 7 141 12 205 11 129 12 2575 2 2726 l-7 92 1463 0 1464 0
-7 -77z"/>
<path fill="#ff0000" stroke="none" d="M1333 2763 c-29 -2 -77 -2 -105 0 -29
2 -6 3 52 3 58 0 81 -1 53 -3z"/>
<path fill="#ff0000" stroke="none" d="M2443 2763 c-23 -2 -64 -2 -90 0 -26 2
-7 3 42 3 50 0 71 -1 48 -3z"/>
<path fill="#ff0000" stroke="none" d="M2437 1828 c-3 -8 -6 -5 -6 6 -1 11 2
17 5 13 3 -3 4 -12 1 -19z"/>
<path fill="#ff0000" stroke="none" d="M2437 1368 c-3 -8 -6 -5 -6 6 -1 11 2
17 5 13 3 -3 4 -12 1 -19z"/>
</g>
</svg>