
<svg version="1.0" xmlns="http://www.w3.org/2000/svg"
 width="370.000000pt" height="370.000000pt" viewBox="0 0 370.000000 370.000000"
 preserveAspectRatio="xMidYMid meet">
<g transform="translate(0.000000,370.000000) scale(0.100000,-0.100000)"
fill="#000000" stroke="none"><path fill="#ffffff" stroke="none" d="M0 1850 l0 -1850 1850 0 1850 0 0 1850
0 1850 -1850 0 -1850 0 0 -1850z"/>
<path fill="#000000" stroke="none" d="M3214 2973 c-10 -105 -10 -886 0 -995
l8 -88 -1442 0 -1441 0 6 78 c10 131 10 645 1 870 l-9 212 1442 0 1443 0 -8
-77z"/>
<path fill="#000000" stroke="none" d="M2933 1593 c-10 -89 -10 -1162 0 -1230
l8 -53 -151 0 -150 0 0 90 0 90 -840 0 -840 0 0 -95 0 -95 -137 0 -138 0 0
680 0 680 1128 0 1128 0 -8 -67z"/>
<path fill="#ffffff" stroke="none" d="M640 2470 l0 -350 500 0 500 0 0 350 0
350 -500 0 -500 0 0 -350z"/>
<path fill="#000000" stroke="none" d="M1178 2619 c102 -146 202 -308 202
-327 0 -6 -30 -25 -66 -42 -37 -16 -89 -44 -117 -61 -27 -16 -50 -29 -51 -27
-2 2 -24 43 -49 91 -44 83 -115 187 -208 305 -23 29 -40 54 -38 56 40 33 216
145 223 143 6 -2 53 -64 104 -138z"/>
<path fill="#ffffff" stroke="none" d="M1920 2470 l0 -350 500 0 500 0 0 350
0 350 -500 0 -500 0 0 -350z"/>
<path fill="#000000" stroke="none" d="M2523 2691 c57 -39 109 -77 116 -85 10
-12 -2 -32 -71 -118 -69 -86 -137 -184 -224 -325 l-14 -23 -53 34 c-28 18 -80
47 -114 65 l-62 31 57 92 c32 51 98 162 147 245 50 84 95 153 102 153 7 0 59
-31 116 -69z"/>
<path fill="#ffffff" stroke="none" d="M960 1310 l0 -110 840 0 840 0 0 110 0
110 -840 0 -840 0 0 -110z"/>
<path fill="#ffffff" stroke="none" d="M960 845 l0 -125 840 0 840 0 0 125 0
125 -840 0 -840 0 0 -125z"/>
<path fill="#ff0000" stroke="none" d="M1175 3510 c42 -52 82 -102 88 -110 7
-8 32 -44 56 -80 24 -36 53 -77 63 -92 10 -15 18 -31 17 -35 0 -4 -51 -33
-113 -64 l-112 -57 -35 52 c-19 28 -36 53 -39 56 -3 3 -27 39 -54 80 -44 67
-100 140 -148 194 -19 21 -23 36 -10 36 4 0 51 27 103 60 51 32 97 58 101 57
4 -1 41 -45 83 -97z"/>
<path fill="#ff0000" stroke="none" d="M2406 3595 c22 -9 48 -20 59 -24 58
-24 84 -34 125 -48 25 -8 46 -17 48 -18 2 -2 -13 -27 -32 -55 -20 -29 -36 -58
-36 -66 0 -8 -4 -14 -8 -14 -4 0 -15 -15 -23 -32 -9 -18 -44 -88 -79 -155
l-63 -123 -124 0 c-117 0 -134 4 -115 26 13 14 121 286 177 447 15 42 29 77
30 77 1 0 20 -7 41 -15z"/>
<path fill="#ff0000" stroke="none" d="M347 2828 c-3 -8 -6 -5 -6 6 -1 11 2
17 5 13 3 -3 4 -12 1 -19z"/>
</g>
</svg>