
<svg version="1.0" xmlns="http://www.w3.org/2000/svg"
 width="370.000000pt" height="370.000000pt" viewBox="0 0 370.000000 370.000000"
 preserveAspectRatio="xMidYMid meet">
<g transform="translate(0.000000,370.000000) scale(0.100000,-0.100000)"
fill="#000000" stroke="none"><path fill="#ffffff" stroke="none" d="M0 1850 l0 -1850 1850 0 1850 0 0 1850
0 1850 -1850 0 -1850 0 0 -1850z"/>
<path fill="#000000" stroke="none" d="M3006 3438 c-26 -181 -31 -1798 -6
-2073 4 -54 6 -103 4 -107 -3 -4 -528 -8 -1167 -8 l-1162 0 0 1115 0 1115
1169 0 1169 0 -7 -42z"/>
<path fill="#ffffff" stroke="none" d="M990 3030 l0 -210 845 0 845 0 0 210 0
210 -845 0 -845 0 0 -210z"/>
<path fill="#ffffff" stroke="none" d="M990 2375 l0 -215 845 0 845 0 0 215 0
215 -845 0 -845 0 0 -215z"/>
<path fill="#ffffff" stroke="none" d="M990 1705 l0 -225 845 0 845 0 0 225 0
225 -845 0 -845 0 0 -225z"/>
<path fill="#ff0000" stroke="none" d="M2987 2823 c-2 -16 -4 -5 -4 22 0 28 2
40 4 28 2 -13 2 -35 0 -50z"/>
<path fill="#ff0000" stroke="none" d="M2987 1758 c-2 -13 -4 -3 -4 22 0 25 2
35 4 23 2 -13 2 -33 0 -45z"/>
<path fill="#ff0000" stroke="none" d="M1405 1085 c7 -5 44 -39 85 -75 40 -36
77 -67 82 -68 10 -5 -10 -32 -24 -32 -5 0 -43 -22 -85 -50 -42 -27 -77 -50
-79 -50 -8 0 -166 -112 -319 -225 -98 -73 -371 -256 -419 -282 -15 -9 -31 3
-100 71 -45 45 -96 92 -113 106 l-31 24 136 76 c113 62 328 192 367 222 6 5
48 36 95 70 47 33 137 114 200 178 l115 117 39 -36 c22 -20 45 -40 51 -46z"/>
<path fill="#ff0000" stroke="none" d="M2554 1083 c72 -49 133 -90 136 -93 3
-3 66 -45 140 -95 74 -49 137 -93 140 -96 3 -3 23 -18 45 -32 67 -43 190 -129
195 -137 3 -3 26 -21 53 -39 26 -17 47 -35 47 -40 0 -4 -26 -29 -57 -56 -32
-27 -85 -77 -117 -111 l-59 -63 -40 32 c-23 18 -89 70 -148 117 -59 47 -139
110 -179 140 -39 30 -77 60 -83 66 -30 27 -276 208 -355 261 l-53 36 98 98
c54 54 100 98 102 99 2 0 63 -39 135 -87z"/>
</g>
</svg>