
<svg version="1.0" xmlns="http://www.w3.org/2000/svg"
 width="370.000000pt" height="370.000000pt" viewBox="0 0 370.000000 370.000000"
 preserveAspectRatio="xMidYMid meet">
<g transform="translate(0.000000,370.000000) scale(0.100000,-0.100000)"
fill="#000000" stroke="none"><path fill="#ffffff" stroke="none" d="M0 1850 l0 -1850 1850 0 1850 0 0 1850
0 1850 -1850 0 -1850 0 0 -1850z"/>
<path fill="#000000" stroke="none" d="M3260 3183 l0 -128 -1290 3 -1290 3 0
-1186 0 -1187 1313 5 c721 2 1321 6 1332 8 19 4 20 -2 23 -126 l3 -130 -1473
3 c-810 2 -1475 5 -1477 7 -2 3 2 71 9 152 28 335 23 2337 -7 2635 l-5 58
1333 3 c734 1 1378 3 1432 5 l97 2 0 -127z"/>
<path fill="#ff0000" stroke="none" d="M1706 2773 c-8 -324 -22 -579 -38 -678
-6 -38 -24 -115 -40 -170 -17 -55 -32 -109 -35 -120 -3 -11 -11 -33 -18 -50
-7 -16 -17 -41 -23 -55 -31 -78 -71 -151 -120 -222 -17 -26 -32 -51 -32 -57 0
-6 -4 -11 -9 -11 -5 0 -17 -13 -28 -29 -25 -40 -145 -174 -212 -238 l-55 -52
-40 43 c-45 48 -81 69 -162 95 l-54 17 48 36 c176 135 358 368 438 561 40 98
48 124 84 282 23 100 40 365 40 643 l0 282 131 0 132 0 -7 -277z"/>
<path fill="#ff0000" stroke="none" d="M2450 2343 c0 -769 1 -778 54 -818 25
-18 42 -20 214 -20 132 0 196 4 218 13 34 14 64 66 82 142 26 110 32 141 32
170 0 18 3 30 8 28 65 -34 155 -72 209 -90 38 -11 71 -24 75 -27 11 -10 -44
-202 -83 -288 -10 -24 -19 -46 -19 -49 0 -19 -65 -83 -105 -103 -70 -35 -175
-43 -489 -39 l-281 3 -51 28 c-58 33 -85 73 -109 162 -13 51 -15 170 -15 827
l0 768 130 0 130 0 0 -707z"/>
<path fill="#ff0000" stroke="none" d="M427 2773 c-2 -21 -4 -4 -4 37 0 41 2
58 4 38 2 -21 2 -55 0 -75z"/>
<path fill="#ff0000" stroke="none" d="M427 928 c-2 -18 -4 -6 -4 27 0 33 2
48 4 33 2 -15 2 -42 0 -60z"/>
<path fill="#ff0000" stroke="none" d="M3098 693 c-10 -2 -26 -2 -35 0 -10 3
-2 5 17 5 19 0 27 -2 18 -5z"/>
</g>
</svg>