
<svg version="1.0" xmlns="http://www.w3.org/2000/svg"
 width="370.000000pt" height="370.000000pt" viewBox="0 0 370.000000 370.000000"
 preserveAspectRatio="xMidYMid meet">
<g transform="translate(0.000000,370.000000) scale(0.100000,-0.100000)"
fill="#000000" stroke="none"><path fill="#ffffff" stroke="none" d="M0 1850 l0 -1850 1850 0 1850 0 0 1850
0 1850 -1850 0 -1850 0 0 -1850z"/>
<path fill="#000000" stroke="none" d="M1851 3499 c15 -74 33 -154 41 -179
l14 -45 689 -3 690 -2 0 -240 0 -240 -137 0 -138 0 0 155 0 155 -1240 0 -1239
0 -3 -152 -3 -153 -143 -3 -143 -3 8 38 c9 49 9 357 0 406 l-8 37 692 0 c654
0 691 1 686 18 -17 54 -77 267 -77 273 0 9 74 33 170 54 41 10 80 18 85 20 24
8 30 -8 56 -136z"/>
<path fill="#000000" stroke="none" d="M1888 2934 c2 -1 -14 -28 -36 -61 -22
-32 -47 -73 -57 -92 l-17 -34 606 6 606 6 0 -109 0 -110 -422 7 -423 6 51 -59
c109 -125 279 -279 384 -348 58 -37 114 -76 125 -86 49 -42 287 -154 435 -203
84 -28 221 -62 293 -72 26 -4 47 -9 47 -11 0 -2 -21 -25 -46 -51 -26 -27 -69
-82 -96 -123 -27 -41 -51 -76 -52 -77 -1 -2 -49 15 -107 38 -113 44 -271 125
-381 195 l-70 45 4 -345 3 -346 -392 0 -392 0 -3 -327 c-3 -318 -4 -329 -25
-370 -13 -23 -37 -53 -55 -66 -64 -48 -208 -80 -332 -75 l-68 3 -22 70 c-23
70 -57 142 -96 201 l-21 32 160 -2 c226 -2 221 -8 221 322 l0 212 -450 0 -450
0 7 332 c5 284 4 330 -8 323 -8 -5 -39 -25 -69 -45 -96 -63 -374 -210 -397
-210 -4 0 -24 23 -43 51 -19 28 -65 85 -103 125 -45 49 -64 76 -55 79 7 2 74
20 148 39 214 55 401 122 510 183 210 120 299 185 427 316 117 119 193 214
193 241 0 6 -160 7 -440 3 l-440 -6 0 109 0 110 486 -2 486 -3 24 64 c13 35
31 92 40 125 9 33 18 64 20 67 3 5 275 -67 292 -77z"/>
<path fill="#000000" stroke="none" d="M1122 958 c51 -42 104 -85 117 -95 l23
-19 -148 -115 c-82 -64 -221 -167 -309 -229 -88 -63 -180 -128 -204 -145 l-44
-32 -81 82 c-45 45 -96 93 -115 106 l-34 25 94 53 c182 104 365 239 529 390
36 33 68 59 72 58 3 -1 48 -36 100 -79z"/>
<path fill="#000000" stroke="none" d="M2624 911 c240 -133 297 -164 461 -247
83 -42 152 -78 154 -80 2 -2 -18 -23 -44 -46 -48 -42 -88 -83 -137 -142 l-24
-28 -199 119 c-110 66 -256 150 -325 188 -69 37 -144 79 -168 92 l-42 24 32
47 c47 70 118 162 125 162 3 0 78 -40 167 -89z"/>
<path fill="#ffffff" stroke="none" d="M1667 2505 c-54 -85 -175 -241 -266
-343 l-92 -102 488 0 487 0 -59 62 c-33 34 -63 65 -66 68 -23 21 -175 210
-224 278 l-59 82 -90 0 -91 0 -28 -45z"/>
<path fill="#ffffff" stroke="none" d="M1060 1790 l0 -110 710 0 710 0 0 110
0 110 -710 0 -710 0 0 -110z"/>
<path fill="#ffffff" stroke="none" d="M1060 1405 l0 -105 710 0 710 0 0 105
0 105 -710 0 -710 0 0 -105z"/>
<path fill="#ff0000" stroke="none" d="M527 2873 c-1 -43 -3 -8 -3 77 0 85 2
120 3 78 2 -43 2 -113 0 -155z"/>
<path fill="#ff0000" stroke="none" d="M793 2543 c-7 -2 -21 -2 -30 0 -10 3
-4 5 12 5 17 0 24 -2 18 -5z"/>
<path fill="#ff0000" stroke="none" d="M2758 2543 c-10 -2 -26 -2 -35 0 -10 3
-2 5 17 5 19 0 27 -2 18 -5z"/>
<path fill="#ff0000" stroke="none" d="M2808 2452 c11 -10 55 -45 97 -78 l75
-59 -27 -20 c-16 -11 -75 -60 -131 -110 -113 -98 -151 -127 -138 -107 7 11 -5
17 -27 13 -5 -1 -6 3 -2 9 6 9 -8 14 -28 11 -5 -1 -6 3 -2 9 6 9 -8 14 -28 11
-5 -1 -6 3 -2 9 6 9 -7 14 -27 11 -5 0 -7 5 -5 12 1 6 -6 11 -15 11 -25 -2
-15 12 82 113 47 48 101 109 119 136 19 26 35 47 36 47 1 0 11 -8 23 -18z"/>
<path fill="#ff0000" stroke="none" d="M860 2350 c36 -41 67 -77 70 -80 3 -3
27 -33 53 -67 44 -58 57 -85 40 -82 -19 3 -34 -2 -29 -9 3 -5 0 -9 -7 -9 -17
0 -67 -33 -67 -44 0 -5 -3 -8 -7 -8 -19 3 -34 -2 -29 -10 3 -4 -5 -8 -18 -7
-15 1 -37 18 -61 46 -21 25 -59 68 -85 95 -27 28 -66 70 -88 95 l-40 44 52 50
c28 27 66 59 85 71 40 25 29 32 131 -85z"/>
<path fill="#ff0000" stroke="none" d="M2341 2343 c13 -16 12 -17 -3 -4 -10 7
-18 15 -18 17 0 8 8 3 21 -13z"/>
<path fill="#ff0000" stroke="none" d="M2727 1623 c-2 -32 -3 -6 -3 57 0 63 1
89 3 58 2 -32 2 -84 0 -115z"/>
<path fill="#ff0000" stroke="none" d="M1433 573 c-7 -2 -19 -2 -25 0 -7 3 -2
5 12 5 14 0 19 -2 13 -5z"/>
</g>
</svg>