
<svg version="1.0" xmlns="http://www.w3.org/2000/svg"
 width="370.000000pt" height="370.000000pt" viewBox="0 0 370.000000 370.000000"
 preserveAspectRatio="xMidYMid meet">
<g transform="translate(0.000000,370.000000) scale(0.100000,-0.100000)"
fill="#000000" stroke="none"><path fill="#ffffff" stroke="none" d="M0 1850 l0 -1850 1850 0 1850 0 0 1850
0 1850 -1850 0 -1850 0 0 -1850z"/>
<path fill="#000000" stroke="none" d="M1786 2205 c86 -30 158 -56 159 -57 2
-2 5 -409 7 -905 l4 -903 -169 0 -169 0 6 32 c3 18 8 328 12 688 6 609 -2
1002 -23 1156 -4 28 -2 44 5 44 6 0 81 -25 168 -55z"/>
<path fill="#ff0000" stroke="none" d="M2970 3309 c46 -44 101 -92 122 -107
l40 -26 -34 -30 c-18 -17 -49 -43 -68 -57 -19 -15 -49 -40 -67 -55 -17 -16
-51 -45 -75 -64 -23 -19 -55 -46 -70 -60 -14 -14 -37 -34 -50 -44 -57 -47
-145 -123 -169 -146 -15 -14 -48 -43 -75 -65 -26 -22 -57 -49 -70 -60 -39 -36
-78 -70 -159 -140 -44 -38 -82 -72 -85 -75 -3 -3 -34 -30 -70 -60 -36 -30 -77
-66 -91 -80 -56 -54 -142 -109 -123 -78 5 7 0 9 -14 6 -12 -4 -20 -2 -16 3 4
8 -17 12 -42 8 -4 0 -10 5 -14 11 -4 7 -19 13 -34 13 -14 1 -26 6 -26 11 0 4
-7 6 -15 3 -8 -4 -17 -2 -20 4 -4 5 -11 7 -16 4 -5 -4 -9 -1 -9 5 0 7 -7 9
-16 6 -10 -4 -13 -2 -8 6 5 7 1 9 -12 6 -23 -6 -51 17 -30 25 25 10 231 171
322 252 6 6 42 37 80 70 72 62 168 149 194 175 8 8 67 62 130 120 135 123 363
350 439 438 30 34 57 62 61 62 4 0 45 -36 90 -81z"/>
<path fill="#ff0000" stroke="none" d="M820 3260 c9 -9 75 -65 114 -95 21 -16
48 -38 60 -49 11 -10 41 -35 66 -55 25 -20 47 -38 50 -41 3 -3 34 -30 70 -60
36 -30 67 -57 70 -60 3 -3 57 -51 121 -107 64 -56 135 -121 158 -144 l42 -43
-78 -80 c-95 -97 -101 -103 -119 -131 -14 -22 -19 -19 -212 174 -108 108 -220
217 -247 241 -28 25 -86 77 -130 116 -44 39 -111 98 -150 130 -38 32 -76 64
-83 71 -7 7 -22 19 -34 27 -20 15 -18 18 73 114 l94 99 65 -51 c36 -28 67 -53
70 -56z"/>
<path fill="#ff0000" stroke="none" d="M1637 1863 c-3 -10 -5 -4 -5 12 0 17 2
24 5 18 2 -7 2 -21 0 -30z"/>
<path fill="#ff0000" stroke="none" d="M1637 698 c-2 -13 -4 -3 -4 22 0 25 2
35 4 23 2 -13 2 -33 0 -45z"/>
</g>
</svg>