
<svg version="1.0" xmlns="http://www.w3.org/2000/svg"
 width="370.000000pt" height="370.000000pt" viewBox="0 0 370.000000 370.000000"
 preserveAspectRatio="xMidYMid meet">
<g transform="translate(0.000000,370.000000) scale(0.100000,-0.100000)"
fill="#000000" stroke="none"><path fill="#ffffff" stroke="none" d="M0 1850 l0 -1850 1850 0 1850 0 0 1850
0 1850 -1850 0 -1850 0 0 -1850z"/>
<path fill="#000000" stroke="none" d="M1911 3179 l-3 -392 663 7 c365 3 683
9 707 12 l42 6 0 -134 0 -133 -706 4 -705 3 3 -1121 3 -1121 -150 0 -150 0 3
1121 3 1121 -671 -3 -671 -4 3 130 3 130 40 -2 c22 -2 323 -5 668 -9 l629 -7
-4 392 -3 391 150 0 150 0 -4 -391z"/>
<path fill="#000000" stroke="none" d="M2636 3412 c71 -53 178 -135 237 -182
l108 -84 -43 -35 c-24 -19 -75 -67 -114 -106 l-71 -72 -109 109 c-60 60 -155
146 -211 191 -66 52 -100 85 -95 93 14 25 153 184 161 184 5 0 66 -44 137 -98z"/>
<path fill="#ff0000" stroke="none" d="M287 2603 c-2 -38 -3 -7 -3 67 0 74 1
105 3 68 2 -38 2 -98 0 -135z"/>
<path fill="#ff0000" stroke="none" d="M453 2543 c-7 -2 -19 -2 -25 0 -7 3 -2
5 12 5 14 0 19 -2 13 -5z"/>
<path fill="#ff0000" stroke="none" d="M3153 2543 c-7 -2 -19 -2 -25 0 -7 3
-2 5 12 5 14 0 19 -2 13 -5z"/>
<path fill="#ff0000" stroke="none" d="M1005 2326 c45 -16 89 -28 190 -52 39
-9 76 -18 83 -20 8 -2 4 -20 -17 -61 -29 -59 -51 -137 -71 -253 -13 -74 -22
-115 -45 -215 -9 -38 -21 -90 -27 -115 -72 -309 -239 -628 -431 -824 -51 -51
-114 -111 -142 -132 -27 -22 -52 -41 -55 -44 -17 -18 -80 -60 -89 -60 -6 0
-11 -4 -11 -9 0 -5 -7 -12 -17 -15 -11 -5 -40 16 -97 71 -45 43 -95 88 -111
101 -19 15 -26 25 -18 28 19 8 185 127 224 160 43 37 176 170 209 209 85 102
179 272 238 430 11 28 44 147 63 225 29 118 69 420 69 518 0 39 3 72 7 72 4 0
25 -6 48 -14z"/>
<path fill="#ff0000" stroke="none" d="M2604 2323 c-14 -31 -18 -1338 -4
-1418 14 -80 32 -120 59 -135 33 -17 403 -13 467 6 29 8 56 20 59 25 4 5 29 9
56 9 83 0 159 -71 183 -171 7 -31 -30 -75 -73 -87 -14 -4 -208 -7 -431 -7
-384 0 -407 1 -445 20 -87 43 -123 91 -144 195 -7 37 -12 303 -14 818 l-2 762
149 0 c137 0 148 -1 140 -17z"/>
</g>
</svg>