
<svg version="1.0" xmlns="http://www.w3.org/2000/svg"
 width="370.000000pt" height="370.000000pt" viewBox="0 0 370.000000 370.000000"
 preserveAspectRatio="xMidYMid meet">
<g transform="translate(0.000000,370.000000) scale(0.100000,-0.100000)"
fill="#000000" stroke="none"><path fill="#ffffff" stroke="none" d="M0 1850 l0 -1850 1850 0 1850 0 0 1850
0 1850 -1850 0 -1850 0 0 -1850z"/>
<path fill="#000000" stroke="none" d="M1652 2260 c51 -28 123 -63 160 -77 65
-25 67 -28 54 -47 -48 -73 -210 -352 -306 -526 -200 -364 -321 -573 -389 -675
-36 -55 -68 -104 -70 -108 -2 -5 21 -6 50 -3 30 3 104 10 164 16 228 21 633
61 720 70 50 6 155 17 235 25 185 20 220 25 220 34 0 12 -175 272 -244 364
-32 43 -57 79 -55 80 2 2 31 20 64 41 33 22 86 59 117 83 l57 44 63 -93 c208
-308 608 -968 608 -1002 0 -10 -228 -147 -256 -154 -6 -2 -28 30 -49 70 -59
114 -175 317 -185 323 -8 5 -184 -17 -825 -106 -658 -90 -820 -118 -977 -169
l-86 -27 -18 46 c-23 61 -80 175 -111 223 -14 21 -24 40 -22 42 2 2 24 14 49
26 25 12 75 46 111 76 107 86 187 190 326 424 227 385 380 700 468 968 15 45
29 82 31 82 1 0 45 -23 96 -50z"/>
<path fill="#ff0000" stroke="none" d="M2370 3285 c86 -194 109 -242 245 -496
5 -11 13 -19 17 -19 5 0 8 -5 8 -11 0 -17 107 -174 180 -264 127 -156 394
-410 481 -455 13 -7 26 -16 29 -20 3 -3 25 -18 49 -33 l45 -26 -32 -18 c-18
-10 -32 -21 -32 -25 0 -5 -6 -8 -13 -8 -19 0 -122 -95 -147 -135 -12 -19 -25
-35 -28 -35 -20 0 -257 228 -372 356 -94 105 -223 274 -297 389 -28 44 -56 85
-62 92 -6 7 -11 14 -11 16 0 3 -117 204 -150 257 -13 22 -175 347 -198 400
-40 90 -93 222 -90 225 3 2 53 16 124 34 18 5 56 20 85 34 l53 25 49 -121 c27
-67 57 -140 67 -162z"/>
<path fill="#ff0000" stroke="none" d="M1400 3377 c19 -9 53 -21 76 -28 l41
-13 -107 -210 c-59 -116 -116 -227 -127 -246 -11 -19 -35 -62 -53 -95 -62
-112 -70 -126 -89 -153 -25 -37 -165 -264 -170 -276 -4 -10 -15 -24 -38 -51
-7 -7 -13 -18 -13 -24 0 -6 -4 -11 -9 -11 -5 0 -12 -8 -15 -18 -4 -10 -14 -27
-24 -38 -9 -10 -49 -62 -88 -114 -39 -53 -77 -102 -85 -110 -8 -8 -32 -37 -54
-65 -22 -27 -51 -61 -65 -76 -124 -130 -173 -179 -180 -179 -4 0 -19 15 -33
33 -36 48 -93 103 -142 138 l-43 31 157 157 c161 160 194 196 246 266 17 22
33 42 36 45 7 5 95 121 119 157 41 59 176 262 187 279 93 151 186 333 246 479
21 50 37 93 37 96 0 4 9 27 21 53 l20 47 57 -30 c31 -16 73 -36 92 -44z"/>
</g>
</svg>