
<svg version="1.0" xmlns="http://www.w3.org/2000/svg"
 width="370.000000pt" height="370.000000pt" viewBox="0 0 370.000000 370.000000"
 preserveAspectRatio="xMidYMid meet">
<g transform="translate(0.000000,370.000000) scale(0.100000,-0.100000)"
fill="#000000" stroke="none"><path fill="#ffffff" stroke="none" d="M0 1850 l0 -1850 1850 0 1850 0 0 1850
0 1850 -1850 0 -1850 0 0 -1850z"/>
<path fill="#000000" stroke="none" d="M2793 3584 c-18 -96 -23 -253 -23 -657
l0 -479 298 6 c163 4 318 9 345 12 l47 6 0 -132 0 -132 -27 6 c-16 3 -171 9
-346 12 l-318 7 3 -976 3 -977 -149 0 c-137 0 -148 1 -140 18 4 9 10 449 12
976 l4 959 -314 -7 c-172 -3 -325 -9 -340 -12 l-28 -6 0 132 0 133 123 -7 c67
-3 220 -9 340 -13 l217 -6 0 374 c0 206 -5 461 -10 567 -6 106 -8 198 -4 203
8 14 310 7 307 -7z"/>
<path fill="#ff0000" stroke="none" d="M1085 3574 c55 -19 121 -42 148 -50 26
-8 47 -17 47 -19 0 -3 -25 -39 -55 -81 -30 -42 -55 -81 -55 -86 0 -5 8 -12 18
-15 9 -4 31 -17 48 -30 17 -13 34 -23 37 -23 12 0 280 -173 480 -310 47 -32
87 -64 87 -70 0 -3 -26 -24 -57 -47 -32 -23 -76 -65 -98 -93 -22 -27 -43 -50
-46 -50 -4 0 -33 25 -66 56 -70 67 -170 150 -278 230 -44 32 -82 62 -85 65 -3
3 -25 19 -49 35 -24 16 -55 37 -70 46 -14 10 -28 18 -31 18 -3 0 -21 -24 -40
-53 -19 -28 -38 -53 -42 -55 -5 -2 -8 -10 -8 -18 0 -8 -3 -14 -8 -14 -4 0 -16
-16 -26 -35 -11 -19 -23 -35 -27 -35 -4 0 -10 -8 -13 -18 -4 -10 -14 -27 -24
-38 -9 -10 -26 -32 -36 -49 -24 -37 -187 -268 -195 -275 -3 -3 -28 -34 -56
-70 -27 -36 -52 -67 -55 -70 -6 -4 -98 -111 -154 -176 l-18 -21 -31 31 c-28
28 -95 86 -174 152 -21 17 -22 19 -5 33 10 9 51 45 92 81 200 174 328 338 514
658 85 146 216 400 216 420 0 17 3 16 115 -24z"/>
<path fill="#ff0000" stroke="none" d="M1630 2411 c0 -93 -3 -112 -14 -108 -8
3 -111 9 -230 13 l-216 7 0 -193 0 -193 260 7 260 7 0 -115 0 -116 -260 0
-260 0 0 -395 0 -395 40 0 c21 0 61 4 87 9 26 5 86 14 133 21 47 6 123 18 170
26 106 18 191 31 253 39 44 6 48 5 43 -12 -13 -41 -26 -129 -26 -174 0 -48 -1
-49 -31 -49 -18 0 -61 -5 -98 -11 -204 -33 -243 -39 -316 -49 -44 -6 -116 -17
-160 -25 -44 -7 -114 -19 -155 -25 -159 -24 -207 -32 -270 -45 -36 -8 -94 -19
-130 -25 -67 -12 -269 -55 -330 -70 -19 -5 -51 -12 -71 -15 l-35 -5 -31 82
c-17 46 -38 104 -46 130 l-15 46 31 5 c35 6 156 22 275 37 149 18 248 32 342
49 l95 16 3 418 2 418 -270 -3 -270 -3 0 117 0 116 268 -1 267 -2 0 185 0 185
-60 3 c-34 2 -93 -1 -133 -6 l-72 -8 0 110 0 111 485 0 485 0 0 -114z"/>
<path fill="#ff0000" stroke="none" d="M2207 2454 c-3 -3 -12 -4 -19 -1 -8 3
-5 6 6 6 11 1 17 -2 13 -5z"/>
<path fill="#ff0000" stroke="none" d="M3188 2453 c-21 -2 -57 -2 -80 0 -24 2
-7 4 37 4 44 0 63 -2 43 -4z"/>
<path fill="#ff0000" stroke="none" d="M1550 1534 c62 -22 80 -29 116 -45 l32
-14 -30 -65 c-39 -83 -155 -319 -171 -345 -7 -11 -13 -21 -14 -23 0 -2 -25 8
-55 21 -29 14 -70 32 -90 41 -34 13 -37 18 -29 38 5 13 19 48 30 78 12 30 25
64 30 75 18 40 39 92 71 173 35 90 38 91 110 66z"/>
<path fill="#ff0000" stroke="none" d="M639 1386 c82 -168 126 -263 135 -292
6 -18 -3 -26 -65 -58 -39 -20 -78 -44 -86 -52 -14 -14 -33 -11 -33 6 0 8 -36
89 -105 235 -18 39 -46 99 -63 135 -17 36 -32 71 -34 79 -3 14 160 103 174 94
4 -2 39 -68 77 -147z"/>
</g>
</svg>