
<svg version="1.0" xmlns="http://www.w3.org/2000/svg"
 width="370.000000pt" height="370.000000pt" viewBox="0 0 370.000000 370.000000"
 preserveAspectRatio="xMidYMid meet">
<g transform="translate(0.000000,370.000000) scale(0.100000,-0.100000)"
fill="#000000" stroke="none"><path fill="#ffffff" stroke="none" d="M0 1850 l0 -1850 1850 0 1850 0 0 1850
0 1850 -1850 0 -1850 0 0 -1850z"/>
<path fill="#000000" stroke="none" d="M984 2005 c107 -141 249 -358 365 -556
50 -86 91 -159 91 -162 0 -4 -21 -18 -47 -33 -27 -15 -91 -57 -143 -92 -52
-36 -96 -60 -97 -55 -2 6 -54 97 -114 204 -114 198 -275 451 -375 586 -30 41
-53 77 -50 80 2 3 60 45 128 94 l123 89 18 -23 c10 -12 56 -71 101 -132z"/>
<path fill="#ff0000" stroke="none" d="M2565 3533 c-5 -10 -10 -193 -13 -407
l-4 -389 388 6 c214 3 399 9 412 13 l22 6 0 -135 0 -135 -409 6 -410 5 -3
-899 -4 -899 -25 -70 c-52 -150 -93 -182 -304 -238 -86 -23 -275 -53 -372 -60
l-41 -2 -7 45 c-9 67 -34 147 -66 216 -16 34 -29 63 -29 65 0 2 71 4 159 5
164 1 307 17 351 39 49 25 50 40 50 951 l0 846 -1005 -4 -1005 -3 0 130 0 130
92 -7 c51 -3 504 -7 1006 -7 l913 -1 -3 405 -3 405 159 0 c147 0 158 -1 151
-17z"/>
</g>
</svg>