
<svg version="1.0" xmlns="http://www.w3.org/2000/svg"
 width="370.000000pt" height="370.000000pt" viewBox="0 0 370.000000 370.000000"
 preserveAspectRatio="xMidYMid meet">
<g transform="translate(0.000000,370.000000) scale(0.100000,-0.100000)"
fill="#000000" stroke="none"><path fill="#ffffff" stroke="none" d="M0 1850 l0 -1850 1850 0 1850 0 0 1850
0 1850 -1850 0 -1850 0 0 -1850z"/>
<path fill="#000000" stroke="none" d="M1745 3415 c605 0 1139 3 1188 8 l87 7
0 -145 0 -145 -57 7 c-76 10 -2365 10 -2420 0 l-43 -7 0 145 0 145 73 -7 c39
-5 567 -8 1172 -8z"/>
<path fill="#ff0000" stroke="none" d="M1920 2704 l0 -446 723 4 c397 3 730 8
740 13 16 7 17 -3 17 -126 l0 -134 -740 4 -740 3 0 -666 c0 -426 -4 -684 -11
-718 -22 -115 -72 -184 -153 -212 -87 -30 -329 -66 -445 -66 l-51 0 0 35 c0
53 -49 224 -85 295 l-13 26 191 -4 c209 -5 242 2 266 54 8 18 11 208 11 640
l0 616 -740 -4 -740 -3 0 134 c0 123 1 133 17 125 10 -4 343 -9 741 -12 l722
-4 0 446 0 446 145 0 145 0 0 -446z"/>
</g>
</svg>