
<svg version="1.0" xmlns="http://www.w3.org/2000/svg"
 width="370.000000pt" height="370.000000pt" viewBox="0 0 370.000000 370.000000"
 preserveAspectRatio="xMidYMid meet">
<g transform="translate(0.000000,370.000000) scale(0.100000,-0.100000)"
fill="#000000" stroke="none"><path fill="#ffffff" stroke="none" d="M0 1850 l0 -1850 1850 0 1850 0 0 1850
0 1850 -1850 0 -1850 0 0 -1850z"/>
<path fill="#000000" stroke="none" d="M2502 3194 l-5 -386 364 6 c200 3 388
8 417 12 l52 6 0 -130 0 -130 -395 6 -394 5 34 -101 c120 -352 295 -641 535
-883 99 -99 150 -142 248 -204 67 -43 122 -82 122 -86 0 -5 -34 -48 -76 -96
-42 -48 -92 -111 -112 -140 -21 -29 -42 -52 -47 -53 -15 0 -268 259 -352 360
-158 192 -313 451 -377 630 -15 42 -16 -13 -14 -797 l3 -843 -153 0 -154 0 6
48 c7 57 20 1649 13 1642 -2 -3 -32 -68 -67 -145 -143 -322 -304 -618 -440
-810 -63 -88 -137 -178 -151 -183 -5 -2 -46 23 -91 56 -46 32 -109 76 -141 97
l-57 38 98 101 c54 56 127 139 164 186 113 146 301 447 391 626 55 108 217
518 217 547 0 7 -79 8 -250 4 l-250 -7 0 122 0 123 290 -4 290 -3 0 233 c0
212 -10 402 -26 502 l-6 37 159 0 159 0 -4 -386z"/>
<path fill="#ff0000" stroke="none" d="M992 3178 l-2 -381 230 7 230 7 0 -118
0 -118 -230 3 -230 3 0 -240 c0 -133 2 -241 5 -241 3 0 22 11 43 23 48 31 175
98 177 95 6 -8 152 -255 158 -268 4 -8 11 -22 17 -30 5 -8 29 -49 53 -90 l44
-76 -125 -72 c-69 -40 -126 -71 -127 -70 -1 2 -28 57 -60 123 -31 66 -85 167
-119 225 l-61 105 -3 -195 c-1 -107 -1 -489 0 -848 l3 -652 -150 0 -150 0 3
775 c3 566 1 775 -7 775 -6 0 -11 -6 -11 -13 0 -12 -59 -170 -98 -262 -17 -40
-168 -342 -187 -374 -5 -9 -23 -38 -39 -65 l-28 -48 -31 48 c-17 27 -60 93
-95 147 l-63 98 34 42 c66 82 146 204 211 320 36 65 66 120 66 123 0 2 16 38
35 80 19 41 35 80 35 85 0 5 4 17 10 27 19 34 140 418 140 444 0 5 -94 8 -230
6 l-230 -3 0 118 0 118 246 -7 247 -7 -5 381 -4 382 150 0 151 0 -3 -382z"/>
</g>
</svg>