
<svg version="1.0" xmlns="http://www.w3.org/2000/svg"
 width="370.000000pt" height="370.000000pt" viewBox="0 0 370.000000 370.000000"
 preserveAspectRatio="xMidYMid meet">
<g transform="translate(0.000000,370.000000) scale(0.100000,-0.100000)"
fill="#000000" stroke="none"><path fill="#ffffff" stroke="none" d="M0 1850 l0 -1850 1850 0 1850 0 0 1850
0 1850 -1850 0 -1850 0 0 -1850z"/>
<path fill="#000000" stroke="none" d="M1046 3093 c-3 -60 -8 -242 -12 -405
-5 -248 -4 -298 7 -298 8 0 86 20 174 45 88 25 166 45 173 45 9 0 12 -33 12
-133 l0 -132 -182 -51 -183 -50 0 -605 c0 -454 3 -614 12 -645 21 -69 53 -107
118 -139 l60 -30 833 -3 c589 -2 845 1 874 9 87 23 114 85 138 314 19 182 21
196 28 193 90 -48 211 -101 262 -114 36 -10 69 -21 74 -25 20 -18 -60 -348
-111 -455 -39 -83 -77 -116 -164 -145 l-74 -24 -1025 0 -1025 0 -55 26 c-104
49 -161 116 -204 242 -20 60 -21 84 -26 688 l-5 626 -110 -32 c-60 -18 -159
-49 -220 -69 -60 -19 -112 -32 -116 -28 -12 14 -70 265 -62 272 4 4 46 17 93
29 47 11 161 42 254 68 l168 47 -7 443 -7 443 157 0 157 0 -6 -107z"/>
<path fill="#ff0000" stroke="none" d="M1992 3100 c-2 -406 -1 -450 13 -450 9
0 163 43 343 95 180 52 345 100 367 106 22 6 58 17 80 24 22 7 58 18 80 24 22
6 70 19 108 30 l67 19 0 -33 c0 -19 -6 -76 -14 -127 -8 -51 -20 -154 -26 -228
-19 -241 -52 -615 -71 -815 -16 -156 -50 -260 -106 -324 -25 -28 -57 -58 -72
-65 -40 -20 -169 -63 -231 -76 -30 -7 -80 -18 -111 -26 -30 -8 -71 -14 -90
-14 l-34 0 -44 136 c-25 74 -49 138 -53 140 -4 3 -8 12 -8 20 0 11 24 14 133
14 288 1 325 35 347 320 5 63 16 192 25 285 16 169 34 389 35 413 0 14 -32 16
-74 3 -17 -5 -51 -15 -76 -21 -25 -7 -65 -18 -90 -26 -25 -7 -72 -20 -105 -28
-64 -17 -335 -90 -373 -102 l-23 -7 3 -678 3 -679 -151 0 -151 0 5 637 5 636
-34 -6 c-19 -4 -56 -13 -84 -21 -27 -8 -72 -21 -100 -29 -27 -8 -58 -18 -67
-22 -17 -7 -18 3 -18 121 l0 129 103 29 c56 15 118 33 137 39 19 5 41 12 49
14 12 3 13 81 9 498 l-5 495 151 0 151 0 -3 -450z"/>
</g>
</svg>