
<svg version="1.0" xmlns="http://www.w3.org/2000/svg"
 width="370.000000pt" height="370.000000pt" viewBox="0 0 370.000000 370.000000"
 preserveAspectRatio="xMidYMid meet">
<g transform="translate(0.000000,370.000000) scale(0.100000,-0.100000)"
fill="#000000" stroke="none"><path fill="#ffffff" stroke="none" d="M0 1850 l0 -1850 1850 0 1850 0 0 1850
0 1850 -1850 0 -1850 0 0 -1850z"/>
<path fill="#000000" stroke="none" d="M1810 3245 c652 0 1227 3 1278 7 l92 8
0 -130 0 -130 -77 8 c-102 9 -2450 9 -2570 0 l-93 -8 0 130 0 130 93 -8 c50
-4 625 -7 1277 -7z"/>
<path fill="#000000" stroke="none" d="M3370 685 l0 -140 -1352 3 c-1264 4
-1652 -2 -1760 -25 l-28 -5 0 153 0 154 1570 0 1570 0 0 -140z"/>
<path fill="#ff0000" stroke="none" d="M1748 2933 c-4 -43 -12 -118 -17 -168
-6 -49 -15 -135 -20 -190 -6 -55 -15 -127 -21 -160 -5 -33 -10 -81 -10 -107
l0 -48 546 0 546 0 -6 -37 c-9 -53 -36 -779 -36 -954 0 -80 -3 -214 -7 -297
l-6 -152 -137 0 -136 0 7 53 c4 28 8 111 8 184 1 73 5 221 10 330 6 109 13
303 16 431 l6 232 -420 0 c-393 0 -420 -1 -425 -18 -6 -19 -13 -64 -56 -402
-4 -36 -12 -94 -18 -130 -6 -36 -15 -103 -21 -150 -21 -155 -31 -234 -46 -335
-8 -55 -17 -121 -20 -148 l-6 -47 -138 0 -138 0 18 98 c9 53 22 138 29 187 18
143 30 233 45 330 7 50 19 131 25 180 15 120 39 287 51 354 5 30 9 60 9 68 0
10 -57 13 -302 12 -167 0 -336 -4 -375 -8 l-73 -7 0 121 0 120 102 -6 c193
-13 673 -10 686 3 7 7 12 34 12 61 0 26 4 78 10 115 5 37 16 130 25 207 9 77
20 173 25 213 6 40 10 88 10 107 l0 35 128 0 128 0 -8 -77z"/>
<path fill="#ff0000" stroke="none" d="M397 824 c-3 -3 -12 -4 -19 -1 -8 3 -5
6 6 6 11 1 17 -2 13 -5z"/>
<path fill="#ff0000" stroke="none" d="M3223 823 c-7 -2 -21 -2 -30 0 -10 3
-4 5 12 5 17 0 24 -2 18 -5z"/>
</g>
</svg>