
<svg version="1.0" xmlns="http://www.w3.org/2000/svg"
 width="370.000000pt" height="370.000000pt" viewBox="0 0 370.000000 370.000000"
 preserveAspectRatio="xMidYMid meet">
<g transform="translate(0.000000,370.000000) scale(0.100000,-0.100000)"
fill="#000000" stroke="none"><path fill="#ffffff" stroke="none" d="M0 1850 l0 -1850 1850 0 1850 0 0 1850
0 1850 -1850 0 -1850 0 0 -1850z"/>
<path fill="#000000" stroke="none" d="M810 2703 c0 -192 -5 -503 -10 -693
-20 -683 -57 -913 -212 -1305 -45 -115 -147 -346 -157 -358 -4 -4 -23 5 -42
19 -73 55 -131 77 -210 82 l-77 4 34 45 c196 257 342 740 395 1313 13 136 13
696 0 1025 -4 110 -6 203 -4 208 2 4 67 7 144 7 l139 0 0 -347z"/>
<path fill="#000000" stroke="none" d="M2918 2125 c8 -7 -128 -325 -209 -490
-134 -275 -274 -493 -414 -643 -69 -75 -79 -63 120 -162 249 -124 507 -193
825 -222 69 -6 128 -14 132 -17 4 -3 -16 -33 -43 -66 -48 -58 -129 -203 -129
-231 0 -24 -24 -26 -86 -9 -386 109 -733 249 -1005 406 l-88 51 -118 -72
c-110 -68 -295 -166 -388 -205 -118 -50 -644 -221 -651 -212 0 1 -18 35 -39
75 -23 44 -64 99 -105 141 l-67 69 91 12 c195 25 526 105 676 163 135 51 380
184 380 205 0 4 -23 30 -51 57 -199 194 -369 484 -512 875 l-24 65 -59 -3
c-32 -1 -96 -5 -141 -8 l-83 -6 0 120 0 119 992 -4 c546 -2 994 -6 996 -8z"/>
<path fill="#ffffff" stroke="none" d="M1480 1908 c0 -47 136 -330 218 -453
33 -49 89 -124 124 -165 66 -77 178 -180 196 -180 24 0 205 218 306 368 99
149 227 417 209 436 -4 3 -242 6 -530 6 -412 0 -523 -3 -523 -12z"/>
<path fill="#ff0000" stroke="none" d="M2033 3320 l-6 -280 646 0 c611 0 646
-1 641 -17 -4 -10 -22 -58 -41 -108 -19 -49 -41 -106 -48 -125 -8 -19 -35
-102 -61 -185 -26 -82 -48 -151 -49 -153 -4 -4 -137 14 -202 28 -53 12 -68 31
-44 56 10 10 101 274 101 293 0 8 -132 11 -470 11 l-470 0 0 -350 0 -350 -130
0 -130 0 0 350 0 350 -479 0 -480 0 -3 103 -3 102 484 -3 484 -2 -6 280 -6
280 139 0 139 0 -6 -280z"/>
<path fill="#ff0000" stroke="none" d="M537 2723 c-3 -10 -5 -2 -5 17 0 19 2
27 5 18 2 -10 2 -26 0 -35z"/>
<path fill="#ff0000" stroke="none" d="M547 2248 c-2 -18 -4 -4 -4 32 0 36 2
50 4 33 2 -18 2 -48 0 -65z"/>
<path fill="#ff0000" stroke="none" d="M547 2048 c-2 -13 -4 -5 -4 17 -1 22 1
32 4 23 2 -10 2 -28 0 -40z"/>
</g>
</svg>