
<svg version="1.0" xmlns="http://www.w3.org/2000/svg"
 width="370.000000pt" height="370.000000pt" viewBox="0 0 370.000000 370.000000"
 preserveAspectRatio="xMidYMid meet">
<g transform="translate(0.000000,370.000000) scale(0.100000,-0.100000)"
fill="#000000" stroke="none"><path fill="#ffffff" stroke="none" d="M0 1850 l0 -1850 1850 0 1850 0 0 1850
0 1850 -1850 0 -1850 0 0 -1850z"/>
<path fill="#000000" stroke="none" d="M2294 3413 l-7 -186 457 5 456 6 0
-120 0 -121 -47 7 c-27 3 -231 9 -455 13 l-408 6 0 -236 0 -237 -130 0 -130 0
0 186 0 187 -52 -69 c-67 -89 -231 -258 -331 -342 -84 -69 -353 -252 -371
-252 -6 0 -23 18 -39 39 -24 35 -93 94 -166 141 -23 15 -21 17 77 54 168 63
351 176 484 298 62 56 178 197 178 216 0 12 -35 13 -242 8 -134 -4 -273 -9
-310 -12 l-68 -6 0 120 0 121 422 -6 421 -6 -6 186 -6 187 140 0 141 0 -8
-187z"/>
<path fill="#000000" stroke="none" d="M669 3368 c179 -126 361 -261 361 -269
0 -4 -15 -18 -34 -32 -18 -15 -62 -60 -96 -101 l-63 -74 -106 106 c-59 59
-154 145 -211 191 -58 46 -109 87 -114 92 -5 4 14 33 44 65 28 32 59 68 67 81
9 13 20 23 25 23 6 0 62 -37 127 -82z"/>
<path fill="#000000" stroke="none" d="M3028 2663 c206 -113 242 -134 242
-142 0 -4 -19 -34 -43 -67 -24 -32 -56 -79 -72 -104 -15 -25 -29 -47 -31 -48
-1 -2 -56 34 -121 81 -123 88 -336 220 -485 301 -49 26 -88 50 -88 52 0 3 17
31 39 62 21 31 46 72 55 90 l17 33 165 -86 c91 -47 236 -125 322 -172z"/>
<path fill="#000000" stroke="none" d="M585 2490 l227 -152 -34 -36 c-19 -21
-61 -70 -93 -109 -31 -40 -59 -73 -61 -73 -3 0 -44 35 -93 78 -48 43 -142 118
-207 166 -65 49 -123 92 -128 96 -4 5 24 45 63 90 39 45 71 87 71 92 0 17 20
5 255 -152z"/>
<path fill="#000000" stroke="none" d="M2157 2481 c37 -21 92 -49 121 -61 l53
-23 -45 -46 c-25 -26 -46 -50 -46 -53 0 -11 286 -199 400 -263 215 -121 499
-235 710 -285 52 -12 101 -24 107 -26 8 -2 -7 -31 -40 -76 -28 -41 -63 -97
-76 -126 -14 -29 -30 -52 -37 -52 -17 0 -309 118 -414 168 -233 110 -523 292
-740 465 l-44 36 -66 -63 c-118 -112 -288 -238 -535 -393 -140 -88 -345 -207
-348 -202 -2 2 -16 24 -31 49 -16 25 -49 71 -74 103 -25 31 -43 59 -41 61 2 1
72 37 154 78 174 86 318 172 460 272 132 93 336 297 400 399 27 42 52 77 56
77 4 0 38 -17 76 -39z"/>
<path fill="#000000" stroke="none" d="M988 1861 c22 -14 47 -30 56 -36 14 -9
8 -22 -42 -100 -191 -296 -337 -539 -519 -865 -64 -113 -119 -209 -123 -213
-4 -5 -30 13 -56 39 -49 48 -153 128 -176 137 -16 5 -17 4 84 135 176 228 417
616 548 879 l74 151 58 -51 c31 -28 75 -62 96 -76z"/>
<path fill="#ff0000" stroke="none" d="M2297 3448 c-3 -8 -6 -5 -6 6 -1 11 2
17 5 13 3 -3 4 -12 1 -19z"/>
<path fill="#ff0000" stroke="none" d="M2295 1843 c-4 -10 -9 -127 -12 -259
l-6 -242 34 -7 c19 -4 39 -10 44 -14 6 -4 28 -13 50 -20 l39 -14 39 44 c36 40
57 67 149 188 15 20 32 45 37 56 5 11 18 32 28 47 l18 27 71 -47 c39 -26 95
-61 123 -77 l52 -31 -55 -38 c-31 -21 -104 -85 -162 -143 -106 -104 -117 -125
-77 -140 62 -23 443 -256 581 -356 l84 -60 -49 -50 c-70 -74 -72 -77 -99 -119
l-24 -38 -68 56 c-37 31 -76 63 -87 72 -34 27 -249 178 -265 185 -8 4 -44 25
-80 48 -36 23 -85 52 -110 66 -161 92 -256 143 -262 143 -5 0 -8 -141 -8 -314
0 -336 -3 -358 -52 -402 -23 -22 -80 -44 -175 -70 -53 -14 -193 -44 -204 -44
-4 0 -12 27 -18 60 -7 34 -28 90 -47 127 -19 36 -34 67 -34 69 0 1 37 2 83 1
94 -2 166 15 196 47 21 22 21 31 19 240 l-3 217 -50 -33 c-68 -44 -111 -68
-240 -133 -186 -95 -444 -232 -488 -259 -12 -7 -43 -25 -69 -39 l-46 -27 -32
53 c-18 28 -35 54 -39 57 -3 3 -30 31 -60 62 l-54 56 74 22 c80 24 223 78 307
116 29 13 55 24 58 24 18 0 408 201 509 263 l120 73 -2 287 -2 287 136 0 c125
0 135 -1 128 -17z"/>
<path fill="#ff0000" stroke="none" d="M1668 1551 c100 -60 232 -155 232 -168
0 -6 -19 -31 -43 -55 -23 -23 -56 -61 -72 -83 -15 -22 -30 -42 -31 -44 -2 -2
-24 16 -49 40 -42 39 -189 149 -200 149 -4 0 -112 67 -124 76 -2 1 28 41 65
87 l69 84 45 -24 c25 -14 73 -42 108 -62z"/>
</g>
</svg>