
<svg version="1.0" xmlns="http://www.w3.org/2000/svg"
 width="370.000000pt" height="370.000000pt" viewBox="0 0 370.000000 370.000000"
 preserveAspectRatio="xMidYMid meet">
<g transform="translate(0.000000,370.000000) scale(0.100000,-0.100000)"
fill="#000000" stroke="none"><path fill="#ffffff" stroke="none" d="M0 1850 l0 -1850 1850 0 1850 0 0 1850
0 1850 -1850 0 -1850 0 0 -1850z"/>
<path fill="#000000" stroke="none" d="M2726 2078 c-3 -13 -8 -84 -11 -158
l-6 -135 34 -98 c36 -98 81 -187 96 -187 16 0 268 266 308 326 l42 62 126
-126 c69 -69 124 -126 123 -127 -2 -1 -39 -21 -83 -44 -100 -53 -289 -192
-403 -296 -12 -11 -6 -25 31 -81 112 -169 261 -332 408 -446 l80 -62 -66 -65
c-36 -36 -81 -88 -100 -115 -19 -27 -37 -51 -40 -54 -8 -8 -153 136 -229 228
-85 100 -124 164 -231 367 l-90 172 -5 -362 c-5 -349 -6 -363 -27 -403 -50
-94 -150 -151 -311 -179 -133 -23 -126 -26 -141 56 -7 39 -25 108 -41 153
l-27 82 104 -1 104 0 35 38 35 38 -3 720 -3 719 148 0 147 0 -4 -22z"/>
<path fill="#000000" stroke="none" d="M1194 1794 l-7 -235 54 -55 c29 -30 57
-54 61 -54 17 0 148 212 212 343 20 42 38 77 39 77 1 0 53 -50 114 -111 l112
-111 -32 -26 c-61 -51 -139 -137 -213 -236 l-73 -99 105 -114 c128 -141 160
-182 148 -192 -5 -4 -42 -33 -82 -66 -40 -32 -83 -72 -96 -88 l-24 -30 -17 34
c-41 80 -154 237 -224 311 l-76 81 -6 -349 c-5 -380 -11 -419 -66 -484 -52
-62 -172 -100 -327 -103 l-89 -2 -22 70 c-12 39 -36 98 -53 132 -18 34 -32 64
-32 67 0 2 58 6 128 7 141 4 174 16 193 67 7 17 9 265 7 714 l-3 688 138 0
137 0 -6 -236z"/>
<path fill="#000000" stroke="none" d="M878 1635 c6 -6 -79 -317 -113 -409
-64 -176 -159 -350 -273 -501 -79 -105 -184 -226 -191 -223 -5 2 -42 44 -84
95 -42 51 -86 97 -97 103 -18 10 -12 19 83 113 111 110 169 191 253 351 51 98
104 224 104 248 0 8 -51 9 -185 6 l-185 -6 0 117 0 116 342 -3 c189 -2 344 -5
346 -7z"/>
<path fill="#000000" stroke="none" d="M2409 1634 c13 -13 -71 -329 -126 -474
-80 -211 -156 -337 -348 -576 -70 -88 -133 -165 -141 -173 -10 -11 -28 -1
-112 61 -54 41 -113 83 -131 94 -17 10 -31 21 -31 25 0 4 17 18 38 30 122 74
252 201 337 329 91 135 215 401 215 458 0 13 -21 14 -150 10 l-150 -6 0 117 0
116 297 -3 c164 -2 300 -6 302 -8z"/>
<path fill="#ff0000" stroke="none" d="M1922 3419 c-3 -184 -2 -202 15 -218
65 -58 123 -101 138 -101 29 0 298 178 365 241 9 8 51 46 95 84 l80 70 116
-118 c64 -65 112 -120 105 -122 -6 -1 -31 -8 -56 -14 -25 -7 -54 -16 -65 -21
-11 -5 -42 -19 -70 -31 -46 -20 -284 -156 -295 -168 -3 -3 -23 -15 -45 -26
-22 -12 -41 -27 -42 -35 -2 -19 82 -85 212 -168 110 -69 210 -119 355 -176 52
-21 102 -41 110 -45 8 -4 42 -16 75 -25 33 -10 80 -24 105 -32 47 -14 116 -27
238 -45 39 -6 72 -15 72 -20 0 -5 -4 -9 -9 -9 -20 0 -122 -172 -141 -240 -8
-29 -34 -30 -110 -3 -25 8 -58 19 -75 23 -37 10 -139 47 -180 65 -16 7 -41 17
-55 23 -31 12 -328 159 -355 175 -138 83 -324 225 -470 359 -22 20 -56 50 -75
67 l-35 30 -6 -297 c-4 -163 -10 -313 -14 -332 -9 -41 -48 -107 -79 -133 -35
-31 -106 -59 -195 -78 -129 -29 -135 -28 -156 29 -24 63 -43 107 -71 165 -13
27 -24 53 -24 57 0 5 52 10 116 12 l116 3 29 33 29 33 -2 594 -3 595 130 0
130 0 -3 -201z"/>
<path fill="#ff0000" stroke="none" d="M941 3200 l559 0 -11 -27 c-13 -35 -72
-156 -79 -163 -3 -3 -21 -34 -39 -70 -19 -36 -42 -77 -53 -92 -10 -14 -18 -31
-18 -37 0 -6 -4 -11 -10 -11 -5 0 -10 -5 -10 -11 0 -36 -214 -277 -281 -316
-16 -10 -29 -21 -29 -25 0 -4 -6 -8 -14 -8 -8 0 -16 -4 -18 -9 -3 -7 -144 -91
-154 -91 -5 0 -187 -85 -217 -101 -9 -5 -50 -22 -90 -38 -39 -16 -88 -36 -108
-45 l-35 -15 -32 62 c-17 34 -54 89 -81 122 -27 33 -47 63 -45 67 3 4 21 10
42 13 234 38 479 135 615 243 111 89 256 257 284 329 5 11 -58 13 -381 11
l-386 -3 0 114 c0 99 2 112 16 107 9 -3 267 -6 575 -6z"/>
<path fill="#ff0000" stroke="none" d="M2717 1908 c-3 -7 -5 -2 -5 12 0 14 2
19 5 13 2 -7 2 -19 0 -25z"/>
<path fill="#ff0000" stroke="none" d="M1197 1868 c-3 -7 -5 -2 -5 12 0 14 2
19 5 13 2 -7 2 -19 0 -25z"/>
<path fill="#ff0000" stroke="none" d="M3420 656 c0 -2 -8 -10 -17 -17 -16
-13 -17 -12 -4 4 13 16 21 21 21 13z"/>
</g>
</svg>