
<svg version="1.0" xmlns="http://www.w3.org/2000/svg"
 width="370.000000pt" height="370.000000pt" viewBox="0 0 370.000000 370.000000"
 preserveAspectRatio="xMidYMid meet">
<g transform="translate(0.000000,370.000000) scale(0.100000,-0.100000)"
fill="#000000" stroke="none"><path fill="#ffffff" stroke="none" d="M0 1850 l0 -1850 1850 0 1850 0 0 1850
0 1850 -1850 0 -1850 0 0 -1850z"/>
<path fill="#000000" stroke="none" d="M2352 3403 l-5 -166 384 6 c211 4 410
10 442 13 l57 7 0 -121 0 -120 -445 6 -445 5 0 -113 0 -113 425 5 425 5 0
-117 0 -117 -425 5 -425 5 0 -118 0 -117 515 4 515 3 0 -115 0 -115 -1155 0
-1155 0 0 115 0 115 500 -3 500 -4 0 117 0 117 -385 -3 -385 -4 0 115 0 115
385 -4 385 -3 0 112 0 113 -435 -6 -435 -5 0 120 0 121 61 -6 c33 -4 229 -10
436 -14 l376 -6 -7 166 -7 167 155 0 154 0 -6 -167z"/>
<path fill="#000000" stroke="none" d="M3103 1905 c-1 -22 -5 -341 -8 -710
l-7 -670 -24 -51 c-16 -35 -35 -56 -61 -71 -43 -24 -273 -103 -301 -103 -13 0
-23 14 -35 54 -16 48 -63 129 -116 197 l-21 26 90 6 c96 7 165 29 180 58 6 10
10 63 10 118 l0 101 -585 0 -585 0 0 -275 0 -275 -137 0 -138 0 0 820 0 820
870 -2 870 -3 -2 -40z"/>
<path fill="#ffffff" stroke="none" d="M1640 1615 l0 -115 585 0 585 0 0 115
0 115 -585 0 -585 0 0 -115z"/>
<path fill="#ffffff" stroke="none" d="M1640 1175 l0 -105 585 0 585 0 0 105
0 105 -585 0 -585 0 0 -105z"/>
<path fill="#ff0000" stroke="none" d="M645 3316 c55 -39 109 -79 119 -88 11
-10 23 -18 27 -18 4 0 14 -6 21 -13 7 -7 60 -48 118 -92 58 -43 110 -84 117
-90 8 -9 -11 -36 -81 -109 l-93 -97 -29 28 c-16 15 -63 57 -104 93 -41 36 -77
68 -80 71 -10 12 -208 165 -253 196 l-46 32 82 84 c45 46 87 81 92 78 6 -2 55
-36 110 -75z"/>
<path fill="#ff0000" stroke="none" d="M511 2452 c101 -60 191 -112 199 -116
8 -4 24 -12 35 -19 11 -7 50 -29 88 -50 37 -21 67 -41 67 -45 0 -4 -32 -49
-70 -101 -38 -52 -75 -103 -83 -114 -13 -19 -17 -18 -103 50 -49 38 -102 78
-119 89 -16 10 -34 22 -40 27 -28 22 -266 167 -274 167 -25 0 -19 26 22 88 24
37 52 82 61 100 9 17 20 32 25 32 5 0 91 -49 192 -108z"/>
<path fill="#ff0000" stroke="none" d="M1983 2353 c-46 -2 -120 -2 -165 0 -46
1 -9 3 82 3 91 0 128 -2 83 -3z"/>
<path fill="#ff0000" stroke="none" d="M2683 2353 c-62 -2 -164 -2 -225 0 -62
1 -12 3 112 3 124 0 174 -2 113 -3z"/>
<path fill="#ff0000" stroke="none" d="M1233 2133 c-7 -2 -19 -2 -25 0 -7 3
-2 5 12 5 14 0 19 -2 13 -5z"/>
<path fill="#ff0000" stroke="none" d="M3233 2133 c-7 -2 -21 -2 -30 0 -10 3
-4 5 12 5 17 0 24 -2 18 -5z"/>
<path fill="#ff0000" stroke="none" d="M3107 1888 c-3 -8 -6 -5 -6 6 -1 11 2
17 5 13 3 -3 4 -12 1 -19z"/>
<path fill="#ff0000" stroke="none" d="M899 1602 c44 -39 103 -84 140 -109 2
-1 -2 -10 -9 -19 -24 -28 -136 -240 -307 -582 -92 -186 -170 -339 -173 -342
-3 -3 -25 -44 -50 -93 -24 -48 -47 -87 -51 -87 -5 0 -14 8 -21 18 -13 18 -104
94 -148 122 -70 46 -69 38 -3 126 78 102 194 280 271 416 56 99 232 449 232
462 0 4 11 29 25 58 14 28 25 58 25 65 0 21 9 16 69 -35z"/>
<path fill="#ff0000" stroke="none" d="M2523 1493 c-160 -2 -426 -2 -590 0
-164 1 -32 2 292 2 325 0 459 -1 298 -2z"/>
</g>
</svg>