
<svg version="1.0" xmlns="http://www.w3.org/2000/svg"
 width="370.000000pt" height="370.000000pt" viewBox="0 0 370.000000 370.000000"
 preserveAspectRatio="xMidYMid meet">
<g transform="translate(0.000000,370.000000) scale(0.100000,-0.100000)"
fill="#000000" stroke="none"><path fill="#ffffff" stroke="none" d="M0 1850 l0 -1850 1850 0 1850 0 0 1850
0 1850 -1850 0 -1850 0 0 -1850z"/>
<path fill="#000000" stroke="none" d="M3014 3475 c27 -52 71 -122 97 -154
l48 -60 -32 -5 c-18 -3 -93 -8 -167 -11 -214 -9 -656 -39 -960 -65 -177 -15
-443 -39 -560 -50 -58 -5 -235 -21 -395 -35 -159 -14 -334 -30 -388 -35 -54
-6 -114 -10 -135 -10 l-37 0 -28 81 c-15 45 -44 106 -63 135 -18 30 -34 56
-34 58 0 1 150 6 333 10 645 13 1232 56 1731 127 193 27 460 79 510 99 11 5
23 9 26 9 3 1 27 -42 54 -94z"/>
<path fill="#000000" stroke="none" d="M2715 3100 c46 -22 117 -52 157 -66 40
-15 83 -30 96 -35 22 -8 18 -14 -69 -111 -78 -88 -359 -465 -359 -482 0 -3
168 -6 373 -6 l372 0 0 -320 0 -320 -137 0 -138 0 0 190 0 190 -1205 0 -1205
0 0 -210 0 -210 -146 0 -145 0 7 58 c10 73 10 466 0 555 l-8 67 950 0 949 0
76 108 c100 143 200 319 277 491 36 77 66 141 68 141 2 0 41 -18 87 -40z"/>
<path fill="#000000" stroke="none" d="M1903 2865 c64 -129 117 -237 117 -239
0 -3 -37 -17 -82 -32 -46 -15 -109 -40 -140 -55 -32 -16 -59 -29 -61 -29 -2 0
-9 19 -16 43 -15 49 -111 251 -170 353 l-40 71 67 28 c37 16 94 43 127 61 33
18 65 33 70 33 6 1 63 -105 128 -234z"/>
<path fill="#000000" stroke="none" d="M1155 2642 c35 -84 35 -101 0 -102 -15
0 -153 -45 -197 -64 -52 -22 -53 -21 -67 27 -22 73 -62 168 -123 291 -32 65
-55 122 -51 126 4 3 28 13 53 20 25 8 81 29 125 47 l80 32 72 -146 c40 -81 88
-185 108 -231z"/>
<path fill="#ff0000" stroke="none" d="M838 3333 c-10 -2 -26 -2 -35 0 -10 3
-2 5 17 5 19 0 27 -2 18 -5z"/>
<path fill="#ff0000" stroke="none" d="M1777 1813 l892 -5 -15 -41 c-24 -64
-28 -73 -95 -212 -75 -157 -143 -268 -250 -411 -92 -122 -80 -108 -178 -208
-41 -42 -79 -76 -83 -76 -4 0 -8 -4 -8 -10 0 -12 96 -55 198 -89 225 -73 518
-116 864 -127 l207 -7 -37 -46 c-20 -25 -40 -48 -43 -51 -9 -7 -84 -132 -92
-152 -8 -21 -29 -22 -165 -8 -88 10 -158 20 -352 52 -68 11 -249 52 -310 71
-53 16 -123 38 -145 47 -11 4 -63 24 -116 44 -53 20 -127 53 -164 71 -37 19
-78 35 -90 35 -12 0 -53 -15 -91 -34 -38 -18 -85 -40 -104 -49 -19 -8 -55 -24
-80 -35 -161 -70 -335 -126 -484 -157 -44 -9 -83 -18 -88 -21 -5 -3 -34 -10
-66 -14 -31 -5 -86 -14 -122 -20 -36 -6 -92 -15 -125 -20 -33 -4 -78 -11 -101
-15 l-40 -7 -14 43 c-16 48 -67 127 -112 175 l-29 31 48 6 c26 4 82 9 123 12
191 15 436 54 600 97 41 11 89 23 105 28 118 30 355 129 355 148 0 4 -42 50
-93 102 -51 53 -128 145 -170 205 -42 61 -80 115 -84 121 -11 14 -33 53 -52
89 -9 16 -18 32 -21 35 -3 3 -23 40 -45 84 l-40 79 -112 -7 -113 -7 0 137 0
136 23 -7 c12 -4 423 -10 914 -12z"/>
<path fill="#ffffff" stroke="none" d="M1350 1562 c0 -17 95 -193 148 -272 59
-90 229 -267 281 -295 32 -16 33 -16 80 19 124 91 243 244 374 479 47 83 83
77 -428 77 -250 0 -455 -3 -455 -8z"/>
</g>
</svg>