
<svg version="1.0" xmlns="http://www.w3.org/2000/svg"
 width="370.000000pt" height="370.000000pt" viewBox="0 0 370.000000 370.000000"
 preserveAspectRatio="xMidYMid meet">
<g transform="translate(0.000000,370.000000) scale(0.100000,-0.100000)"
fill="#000000" stroke="none"><path fill="#ffffff" stroke="none" d="M0 1850 l0 -1850 1850 0 1850 0 0 1850
0 1850 -1850 0 -1850 0 0 -1850z"/>
<path fill="#000000" stroke="none" d="M1319 3576 c48 -24 115 -54 151 -67 36
-12 67 -24 69 -26 2 -1 -14 -22 -36 -46 -40 -43 -125 -165 -161 -228 -10 -19
-40 -74 -67 -124 -27 -49 -95 -150 -150 -225 -120 -158 -215 -269 -473 -543
l-82 -89 -61 56 c-33 31 -88 75 -121 98 l-61 41 79 70 c248 222 469 484 640
759 63 102 148 272 166 330 6 21 14 38 17 38 3 0 43 -20 90 -44z"/>
<path fill="#000000" stroke="none" d="M1536 1665 c223 -45 445 -105 752 -206
100 -34 182 -62 182 -63 0 -2 -18 -51 -40 -110 -22 -58 -40 -110 -40 -115 0
-6 -4 -21 -9 -34 l-10 -25 -153 50 c-307 99 -646 191 -896 244 -18 4 -22 9
-17 22 12 32 54 187 60 225 7 45 3 45 171 12z"/>
<path fill="#000000" stroke="none" d="M1290 1014 c102 -25 333 -87 515 -138
181 -52 429 -120 550 -152 121 -31 222 -59 224 -61 2 -1 -10 -33 -27 -70 -17
-38 -40 -102 -52 -143 -12 -41 -23 -81 -25 -87 -3 -9 -16 -7 -50 7 -187 80
-688 219 -1378 381 -78 19 -97 26 -93 39 46 132 65 195 71 234 l8 48 36 -7
c20 -3 119 -26 221 -51z"/>
<path fill="#ff0000" stroke="none" d="M2950 3205 c0 -9 -54 -90 -62 -93 -5
-2 -8 -8 -8 -13 0 -9 -96 -149 -109 -159 -4 -3 -24 -30 -46 -60 -22 -30 -42
-57 -45 -60 -3 -3 -16 -18 -28 -34 -101 -131 -258 -297 -422 -445 -47 -42
-101 -91 -120 -108 -19 -18 -38 -33 -42 -33 -5 0 -8 -6 -8 -12 0 -13 33 -30
155 -83 33 -15 74 -33 90 -40 131 -59 419 -152 575 -185 236 -51 466 -90 529
-90 27 0 30 -2 22 -17 -5 -10 -18 -27 -28 -38 -30 -33 -88 -126 -119 -192 -32
-69 -39 -72 -113 -48 -25 9 -118 36 -206 61 -159 45 -343 104 -400 128 -16 7
-46 19 -65 26 -19 6 -48 18 -65 25 -16 7 -41 17 -55 23 -131 53 -376 177 -474
240 -59 38 -73 39 -123 10 -48 -27 -252 -128 -318 -158 -27 -12 -78 -35 -112
-51 -34 -16 -67 -29 -73 -29 -6 0 -18 -4 -28 -9 -33 -16 -87 -39 -122 -51 -19
-7 -48 -19 -65 -26 -79 -33 -496 -170 -650 -212 -83 -23 -79 -24 -98 21 -31
71 -59 120 -99 175 -22 29 -36 57 -33 62 3 6 19 10 35 10 17 0 51 5 77 11 27
6 75 17 108 24 196 44 255 58 295 69 25 8 65 19 90 26 25 7 63 18 85 25 22 7
60 18 85 25 102 30 370 132 470 180 113 54 190 94 190 98 0 2 -60 65 -132 139
-73 75 -142 145 -153 157 -17 18 -163 188 -227 264 -13 16 -17 30 -11 45 4 12
6 25 5 30 -1 4 4 6 10 5 7 -2 13 6 13 17 0 11 6 20 13 20 15 0 33 26 26 37 -3
5 0 7 8 6 7 -2 13 5 13 14 0 9 4 20 9 25 5 5 6 2 2 -7 -4 -8 -1 -6 8 4 8 10
13 24 10 30 -9 17 58 -54 84 -88 78 -105 455 -485 530 -534 21 -14 25 -13 57
10 42 30 213 185 274 248 105 109 213 230 266 298 l56 72 -624 0 c-539 0 -624
2 -624 15 0 8 5 11 10 8 6 -4 8 1 4 11 -4 9 -3 15 2 12 11 -7 42 55 34 68 -4
5 -1 6 7 1 10 -6 12 -4 7 9 -4 9 -3 15 2 12 9 -6 38 53 33 67 -1 5 2 6 8 2 5
-3 10 -1 10 4 0 8 244 11 800 11 440 0 800 -2 800 -5z"/>
</g>
</svg>