
<svg version="1.0" xmlns="http://www.w3.org/2000/svg"
 width="370.000000pt" height="370.000000pt" viewBox="0 0 370.000000 370.000000"
 preserveAspectRatio="xMidYMid meet">
<g transform="translate(0.000000,370.000000) scale(0.100000,-0.100000)"
fill="#000000" stroke="none"><path fill="#ffffff" stroke="none" d="M0 1850 l0 -1850 1850 0 1850 0 0 1850
0 1850 -1850 0 -1850 0 0 -1850z"/>
<path fill="#000000" stroke="none" d="M1906 3478 c-3 -35 -8 -177 -12 -316
l-7 -253 722 3 721 3 0 -127 0 -128 -47 8 c-63 9 -2913 9 -2976 0 l-47 -8 0
128 0 127 676 -3 677 -3 -7 315 -8 316 157 0 157 0 -6 -62z"/>
<path fill="#000000" stroke="none" d="M2640 3444 c89 -68 299 -251 328 -286
11 -14 8 -19 -19 -39 -18 -13 -67 -54 -108 -91 l-75 -67 -116 112 c-63 62
-162 152 -220 200 -58 49 -105 93 -105 99 0 15 198 157 210 150 6 -3 53 -38
105 -78z"/>
<path fill="#ff0000" stroke="none" d="M1388 2903 c-120 -2 -316 -2 -435 0
-120 1 -22 2 217 2 239 0 337 -1 218 -2z"/>
<path fill="#ff0000" stroke="none" d="M2648 2903 c-136 -2 -361 -2 -500 0
-139 1 -28 2 247 2 275 0 389 -1 253 -2z"/>
<path fill="#ff0000" stroke="none" d="M548 2673 c-10 -2 -26 -2 -35 0 -10 3
-2 5 17 5 19 0 27 -2 18 -5z"/>
<path fill="#ff0000" stroke="none" d="M3083 2673 c-7 -2 -21 -2 -30 0 -10 3
-4 5 12 5 17 0 24 -2 18 -5z"/>
<path fill="#ff0000" stroke="none" d="M287 2664 c-3 -3 -12 -4 -19 -1 -8 3
-5 6 6 6 11 1 17 -2 13 -5z"/>
<path fill="#ff0000" stroke="none" d="M1895 2613 c21 -195 109 -418 266 -680
76 -126 101 -162 112 -163 30 -1 347 324 442 454 16 23 35 47 43 55 7 7 31 40
53 73 l41 59 57 -53 c70 -65 84 -76 150 -119 28 -19 51 -36 51 -39 -1 -3 -27
-22 -60 -43 -48 -31 -282 -219 -326 -261 -6 -6 -39 -36 -74 -66 -34 -30 -94
-85 -134 -121 -39 -37 -86 -80 -105 -96 -25 -22 -32 -33 -25 -45 28 -49 248
-281 369 -389 58 -52 193 -153 245 -183 76 -45 221 -112 302 -141 l77 -27 -58
-39 c-69 -46 -131 -106 -173 -166 -16 -24 -32 -43 -36 -43 -22 0 -319 200
-379 254 -6 6 -33 29 -60 51 -103 85 -239 217 -303 295 -25 30 -48 57 -52 58
-5 2 -8 10 -8 18 0 8 -4 14 -9 14 -5 0 -12 8 -15 18 -4 10 -14 27 -24 38 -25
27 -127 191 -178 287 -41 76 -81 157 -158 317 l-31 65 -5 -685 c-6 -700 -6
-712 -46 -778 -43 -74 -215 -136 -466 -169 -41 -5 -48 -3 -48 11 0 30 -30 112
-73 198 l-42 83 94 -4 c52 -1 128 0 170 4 67 6 79 11 108 40 l33 33 0 436 c0
240 -3 436 -7 436 -5 0 -160 -116 -173 -130 -3 -3 -23 -18 -45 -35 -22 -16
-42 -32 -45 -35 -5 -6 -53 -43 -147 -113 -24 -17 -43 -34 -43 -39 0 -4 -7 -8
-15 -8 -8 0 -15 -3 -15 -7 0 -5 -17 -19 -37 -33 -20 -14 -41 -30 -47 -36 -6
-5 -42 -34 -81 -64 -38 -29 -72 -56 -75 -60 -3 -3 -23 -19 -45 -35 -22 -17
-42 -32 -45 -36 -3 -3 -27 -23 -55 -45 -27 -22 -59 -47 -70 -56 -132 -109
-165 -138 -197 -167 -83 -75 -68 -79 -190 50 -59 63 -108 117 -108 120 0 3 15
13 32 22 51 26 163 90 229 132 9 5 32 19 50 29 89 50 448 303 564 397 11 9 92
74 180 145 88 70 166 134 173 141 7 6 34 29 60 50 26 21 49 40 52 43 3 3 26
23 53 44 l47 38 0 379 0 379 134 0 135 0 6 -57z"/>
<path fill="#ff0000" stroke="none" d="M3327 2664 c-3 -3 -12 -4 -19 -1 -8 3
-5 6 6 6 11 1 17 -2 13 -5z"/>
<path fill="#ff0000" stroke="none" d="M741 2378 c29 -23 62 -50 74 -59 11
-10 65 -55 120 -100 195 -160 298 -248 303 -259 1 -3 -12 -20 -30 -36 -121
-107 -177 -154 -184 -154 -5 0 -56 46 -114 103 -102 99 -243 222 -325 282 -22
16 -42 32 -45 35 -3 3 -20 17 -39 30 l-34 23 24 20 c13 10 42 35 64 55 74 68
116 102 124 102 5 0 33 -19 62 -42z"/>
</g>
</svg>