
<svg version="1.0" xmlns="http://www.w3.org/2000/svg"
 width="370.000000pt" height="370.000000pt" viewBox="0 0 370.000000 370.000000"
 preserveAspectRatio="xMidYMid meet">
<g transform="translate(0.000000,370.000000) scale(0.100000,-0.100000)"
fill="#000000" stroke="none"><path fill="#ffffff" stroke="none" d="M0 1850 l0 -1850 1850 0 1850 0 0 1850
0 1850 -1850 0 -1850 0 0 -1850z"/>
<path fill="#000000" stroke="none" d="M1936 3523 c-2 -10 -8 -94 -11 -187
l-7 -169 633 7 c349 3 651 9 672 12 l37 6 0 -133 0 -134 -670 3 -670 4 0 -156
0 -156 560 0 560 0 -7 -27 c-10 -36 -10 -997 0 -1045 l8 -38 -421 0 c-231 0
-420 -3 -420 -7 0 -16 165 -208 265 -308 199 -200 436 -335 783 -445 72 -23
132 -44 132 -47 0 -3 -24 -31 -53 -63 -29 -31 -72 -94 -95 -138 l-43 -81 -62
26 c-473 201 -859 522 -1169 974 l-38 54 0 -562 0 -563 -136 0 -137 0 7 48 c3
26 9 287 13 579 l6 533 -24 0 c-14 0 -30 -9 -38 -23 -37 -60 -279 -373 -354
-458 -96 -108 -246 -241 -401 -353 -100 -73 -409 -266 -426 -266 -9 0 -240
241 -240 250 0 3 53 28 118 55 176 73 328 148 412 202 194 127 472 394 564
540 14 24 26 45 26 48 0 3 -165 5 -366 5 l-367 0 6 38 c21 129 29 388 24 715
l-6 357 535 0 534 0 0 156 0 156 -685 -4 -685 -3 0 132 0 133 108 -8 c59 -4
366 -7 682 -7 l575 0 -3 140 c-1 77 -5 159 -8 183 l-5 42 146 0 c135 0 146 -1
141 -17z"/>
<path fill="#ffffff" stroke="none" d="M880 2071 l0 -340 935 0 935 0 0 340 0
339 -935 0 -935 0 0 -339z"/>
<path fill="#ff0000" stroke="none" d="M1927 3343 c-3 -10 -5 -4 -5 12 0 17 2
24 5 18 2 -7 2 -21 0 -30z"/>
<path fill="#ff0000" stroke="none" d="M3027 2383 c-3 -10 -5 -4 -5 12 0 17 2
24 5 18 2 -7 2 -21 0 -30z"/>
<path fill="#ff0000" stroke="none" d="M1920 2070 l0 -340 -125 0 -125 0 0
340 0 340 125 0 125 0 0 -340z"/>
<path fill="#ff0000" stroke="none" d="M2334 2331 c3 -4 27 -16 53 -25 26 -10
71 -29 100 -43 l52 -26 -29 -36 c-24 -30 -91 -153 -178 -326 -28 -55 -29 -55
-87 -20 -50 30 -79 43 -128 59 -16 5 -16 9 7 53 40 80 112 236 125 273 25 67
46 100 63 100 9 0 19 -4 22 -9z"/>
<path fill="#ff0000" stroke="none" d="M1318 2207 c68 -133 119 -226 133 -243
9 -11 -12 -30 -66 -60 -18 -10 -60 -35 -106 -63 -14 -9 -25 3 -66 72 -27 45
-73 131 -103 191 l-55 108 35 29 c28 24 143 87 160 89 3 0 33 -55 68 -123z"/>
<path fill="#ff0000" stroke="none" d="M3027 1753 c-3 -10 -5 -2 -5 17 0 19 2
27 5 18 2 -10 2 -26 0 -35z"/>
</g>
</svg>