
<svg version="1.0" xmlns="http://www.w3.org/2000/svg"
 width="370.000000pt" height="370.000000pt" viewBox="0 0 370.000000 370.000000"
 preserveAspectRatio="xMidYMid meet">
<g transform="translate(0.000000,370.000000) scale(0.100000,-0.100000)"
fill="#000000" stroke="none"><path fill="#ffffff" stroke="none" d="M0 1850 l0 -1850 1850 0 1850 0 0 1850
0 1850 -1850 0 -1850 0 0 -1850z"/>
<path fill="#000000" stroke="none" d="M2913 3188 c-5 -313 5 -623 23 -695 l6
-23 -1143 0 -1144 0 0 530 0 530 1132 0 1132 0 -6 -342z"/>
<path fill="#000000" stroke="none" d="M1883 2402 c8 -26 29 -83 47 -125 l32
-77 536 0 c484 0 758 8 865 26 l37 6 0 -131 0 -131 -87 7 c-115 10 -2887 10
-3020 0 l-103 -7 0 118 0 118 715 -4 c606 -4 715 -3 715 9 0 8 -11 54 -25 104
-13 49 -22 92 -19 95 7 7 201 37 251 39 42 1 42 1 56 -47z"/>
<path fill="#000000" stroke="none" d="M2875 1491 l0 -329 -514 -3 c-283 -2
-760 -2 -1060 0 l-546 3 0 329 0 329 1060 0 1060 0 0 -329z"/>
<path fill="#ffffff" stroke="none" d="M932 3188 l3 -113 853 -3 852 -2 0 115
0 115 -855 0 -856 0 3 -112z"/>
<path fill="#ffffff" stroke="none" d="M930 2770 l0 -90 855 0 855 0 0 90 0
90 -855 0 -855 0 0 -90z"/>
<path fill="#ffffff" stroke="none" d="M1020 1480 l0 -130 795 0 795 0 0 130
0 130 -795 0 -795 0 0 -130z"/>
<path fill="#ff0000" stroke="none" d="M657 3438 c-3 -8 -6 -5 -6 6 -1 11 2
17 5 13 3 -3 4 -12 1 -19z"/>
<path fill="#ff0000" stroke="none" d="M657 2538 c-3 -8 -6 -5 -6 6 -1 11 2
17 5 13 3 -3 4 -12 1 -19z"/>
<path fill="#ff0000" stroke="none" d="M1912 1153 c-40 -2 -103 -2 -140 0 -37
2 -4 3 73 3 77 0 107 -2 67 -3z"/>
<path fill="#ff0000" stroke="none" d="M1970 813 c0 -349 -3 -372 -50 -427
-32 -36 -86 -71 -125 -79 -86 -19 -265 -47 -301 -47 l-41 0 -12 58 c-12 59
-20 81 -65 191 -14 35 -25 65 -23 67 1 1 43 -2 92 -8 128 -14 221 -6 248 21
21 21 22 31 25 286 l3 265 125 0 124 0 0 -327z"/>
<path fill="#ff0000" stroke="none" d="M2720 899 c135 -66 320 -159 467 -234
l91 -47 -33 -52 c-42 -65 -81 -132 -102 -173 -9 -18 -20 -33 -24 -33 -5 0 -38
23 -76 51 -37 28 -77 56 -90 62 -13 6 -23 13 -23 17 0 4 -8 10 -17 14 -10 3
-47 24 -83 46 -90 56 -435 226 -497 244 -13 4 -23 13 -23 21 0 11 51 110 80
155 5 8 17 29 25 46 l16 32 82 -44 c45 -24 138 -71 207 -105z"/>
<path fill="#ff0000" stroke="none" d="M1260 914 c47 -57 86 -108 88 -112 1
-5 -39 -29 -90 -55 -51 -25 -158 -89 -238 -141 -80 -52 -188 -120 -240 -152
-52 -31 -97 -60 -100 -63 -3 -3 -33 -21 -67 -39 -59 -31 -62 -31 -68 -12 -3
11 -10 20 -15 20 -5 0 -11 8 -14 18 -3 9 -17 30 -31 46 -14 16 -25 32 -25 35
0 3 -14 22 -30 41 -16 19 -29 39 -27 45 2 5 26 21 53 35 50 26 62 33 264 148
147 83 339 214 409 278 13 12 29 20 35 17 6 -2 49 -51 96 -109z"/>
</g>
</svg>