
<svg version="1.0" xmlns="http://www.w3.org/2000/svg"
 width="370.000000pt" height="370.000000pt" viewBox="0 0 370.000000 370.000000"
 preserveAspectRatio="xMidYMid meet">
<g transform="translate(0.000000,370.000000) scale(0.100000,-0.100000)"
fill="#000000" stroke="none"><path fill="#ffffff" stroke="none" d="M0 1850 l0 -1850 1850 0 1850 0 0 1850
0 1850 -1850 0 -1850 0 0 -1850z"/>
<path fill="#000000" stroke="none" d="M1769 2163 c173 -19 165 -16 157 -56
-44 -207 -46 -393 -7 -542 109 -410 503 -719 1101 -865 129 -31 345 -70 392
-70 60 0 61 -8 3 -82 -31 -39 -72 -101 -92 -137 -51 -93 -48 -90 -91 -80 -378
88 -515 134 -737 246 -299 151 -536 387 -674 673 -31 64 -42 79 -47 64 -22
-60 -108 -232 -149 -295 -167 -260 -554 -499 -1108 -685 l-117 -39 -58 65
c-31 36 -88 95 -126 132 -38 37 -68 69 -65 71 2 2 55 14 117 26 623 122 1059
381 1217 724 83 180 115 367 115 673 0 190 1 206 17 200 9 -4 78 -14 152 -23z"/>
<path fill="#000000" stroke="none" d="M2795 1795 c72 -32 132 -59 134 -61 2
-2 -19 -28 -47 -58 -48 -53 -91 -122 -182 -291 -92 -172 -88 -167 -125 -142
-11 8 -62 36 -113 62 l-92 48 17 26 c79 119 185 318 237 445 10 23 21 36 28
33 7 -3 72 -31 143 -62z"/>
<path fill="#000000" stroke="none" d="M876 1737 c32 -13 96 -34 142 -47 45
-13 82 -26 82 -29 0 -3 -9 -19 -20 -36 -30 -44 -82 -155 -133 -285 -25 -63
-57 -140 -71 -171 l-26 -55 -85 43 c-47 23 -104 48 -125 54 -22 7 -40 16 -40
20 0 4 15 33 33 66 64 112 145 325 163 426 3 20 9 37 13 37 4 0 34 -10 67 -23z"/>
<path fill="#ff0000" stroke="none" d="M1786 3558 l122 -11 -23 -61 c-25 -67
-45 -145 -70 -281 -26 -139 -35 -185 -52 -246 -21 -76 -16 -90 37 -109 25 -9
52 -20 60 -23 26 -12 268 -96 510 -177 295 -100 452 -156 555 -200 11 -5 61
-25 110 -45 50 -20 104 -43 120 -50 17 -7 57 -25 90 -39 33 -15 77 -35 99 -44
l38 -18 -26 -24 c-27 -25 -116 -143 -116 -153 0 -3 -9 -22 -21 -41 l-21 -36
-61 35 c-60 34 -371 189 -492 245 -71 34 -329 140 -412 171 -181 66 -281 102
-308 109 -16 4 -50 15 -75 24 -25 10 -76 26 -114 38 l-70 20 -19 -23 c-10 -13
-35 -44 -55 -69 -35 -45 -191 -201 -228 -230 -149 -116 -361 -237 -584 -335
-47 -20 -103 -45 -125 -55 -81 -35 -248 -101 -250 -98 -1 2 -18 27 -38 57 -41
59 -56 76 -141 161 -41 40 -55 61 -45 63 8 3 46 10 84 17 61 11 143 31 250 59
220 59 459 169 611 282 129 95 242 233 312 380 60 127 116 372 137 599 3 36 8
80 12 98 5 33 7 34 42 28 20 -3 91 -11 157 -18z"/>
<path fill="#ff0000" stroke="none" d="M2833 3375 l117 -49 -33 -35 c-19 -20
-46 -52 -61 -72 -27 -37 -118 -201 -139 -251 -6 -16 -15 -28 -19 -28 -4 0 -8
-6 -8 -14 0 -8 -6 -21 -14 -28 -7 -8 -21 -29 -30 -47 -10 -18 -20 -31 -24 -29
-34 16 -228 112 -230 114 -2 1 31 59 73 127 65 108 155 291 155 316 0 5 7 25
15 45 l15 36 33 -18 c17 -10 85 -40 150 -67z"/>
<path fill="#ff0000" stroke="none" d="M860 3318 c53 -20 116 -37 193 -52 4
-1 0 -10 -10 -21 -38 -42 -84 -142 -113 -245 -18 -63 -56 -164 -90 -237 -24
-51 -34 -63 -53 -63 -13 0 -28 5 -33 10 -6 6 -48 24 -93 39 -45 15 -84 30 -87
33 -4 5 4 25 63 158 48 107 103 274 128 393 4 21 9 26 18 19 7 -5 41 -20 77
-34z"/>
</g>
</svg>