
<svg version="1.0" xmlns="http://www.w3.org/2000/svg"
 width="370.000000pt" height="370.000000pt" viewBox="0 0 370.000000 370.000000"
 preserveAspectRatio="xMidYMid meet">
<g transform="translate(0.000000,370.000000) scale(0.100000,-0.100000)"
fill="#000000" stroke="none"><path fill="#ffffff" stroke="none" d="M0 1850 l0 -1850 1850 0 1850 0 0 1850
0 1850 -1850 0 -1850 0 0 -1850z"/>
<path fill="#000000" stroke="none" d="M2107 3524 c43 -50 114 -130 157 -178
43 -48 77 -88 75 -90 -2 -2 -41 -22 -86 -45 -45 -24 -103 -58 -129 -76 l-47
-33 -85 116 c-46 65 -109 148 -138 186 -30 37 -54 72 -54 77 0 5 21 20 48 33
26 13 72 42 102 64 30 22 60 40 67 39 6 -1 47 -43 90 -93z"/>
<path fill="#000000" stroke="none" d="M1037 3565 c12 -9 83 -47 157 -85 l135
-69 -35 -43 c-78 -92 -184 -261 -184 -292 0 -9 2038 0 2148 10 l62 6 0 -134 0
-133 -570 3 -570 4 0 -163 0 -162 485 5 485 6 0 -121 0 -122 -485 3 -485 4 0
-163 0 -162 485 6 485 5 0 -121 0 -122 -485 3 -485 4 0 -147 0 -148 585 5 586
4 -3 -130 -3 -131 -30 2 c-16 2 -84 7 -150 13 -70 6 -547 10 -1152 10 l-1033
0 0 -90 0 -90 -154 0 -154 0 5 673 c4 647 3 671 -14 647 -128 -177 -226 -301
-301 -382 l-35 -37 -41 46 c-55 63 -136 142 -164 161 l-23 15 104 106 c209
213 355 406 501 664 130 228 222 427 287 620 15 42 16 43 46 22z"/>
<path fill="#ffffff" stroke="none" d="M980 2670 l0 -160 450 0 450 0 0 160 0
160 -450 0 -450 0 0 -160z"/>
<path fill="#ffffff" stroke="none" d="M980 2120 l0 -160 450 0 450 0 0 160 0
160 -450 0 -450 0 0 -160z"/>
<path fill="#ffffff" stroke="none" d="M980 1585 l0 -145 450 0 450 0 0 145 0
145 -450 0 -450 0 0 -145z"/>
<path fill="#ff0000" stroke="none" d="M3237 3084 c-3 -3 -12 -4 -19 -1 -8 3
-5 6 6 6 11 1 17 -2 13 -5z"/>
<path fill="#ff0000" stroke="none" d="M2177 2588 c-1 -46 -3 -9 -3 82 0 91 2
128 3 83 2 -46 2 -120 0 -165z"/>
<path fill="#ff0000" stroke="none" d="M2177 2038 c-1 -46 -3 -9 -3 82 0 91 2
128 3 83 2 -46 2 -120 0 -165z"/>
<path fill="#ff0000" stroke="none" d="M2177 1513 c-1 -43 -3 -10 -3 72 0 83
2 118 3 78 2 -40 2 -107 0 -150z"/>
<path fill="#ff0000" stroke="none" d="M3151 973 c18 -32 38 -67 44 -78 53
-93 172 -271 222 -329 18 -22 33 -45 33 -51 0 -6 -27 -24 -60 -39 -33 -16 -60
-33 -60 -37 0 -5 -6 -9 -13 -9 -6 0 -37 -20 -67 -45 -30 -24 -55 -43 -56 -42
-3 4 -46 80 -84 152 -21 39 -46 86 -57 105 -11 19 -35 62 -53 95 -18 33 -48
85 -66 116 -19 31 -34 61 -34 67 0 6 19 20 43 32 24 12 72 43 108 70 35 27 65
49 66 49 0 1 16 -25 34 -56z"/>
<path fill="#ff0000" stroke="none" d="M2353 948 c3 -13 24 -75 46 -138 23
-63 46 -128 50 -145 5 -16 16 -50 25 -75 21 -54 57 -173 53 -175 -1 -1 -31 -9
-67 -19 -36 -10 -76 -22 -90 -26 -128 -39 -120 -42 -139 38 -15 59 -63 212
-81 257 -17 40 -26 64 -41 105 -6 19 -21 55 -31 78 -11 24 -18 45 -16 46 3 2
101 31 163 47 22 6 49 15 60 19 38 16 62 11 68 -12z"/>
<path fill="#ff0000" stroke="none" d="M649 905 c47 -14 104 -31 126 -37 22
-7 41 -13 43 -14 2 -1 -53 -100 -97 -174 -18 -30 -126 -237 -169 -326 l-44
-90 -47 22 c-57 28 -197 74 -222 74 -34 0 -29 18 22 81 43 54 113 156 166 244
16 27 86 171 102 213 8 17 18 32 23 32 6 0 49 -11 97 -25z"/>
<path fill="#ff0000" stroke="none" d="M1555 903 c3 -16 13 -57 21 -93 18 -76
28 -123 44 -205 7 -33 18 -85 25 -115 7 -30 16 -71 19 -91 l7 -37 -48 -10
c-27 -6 -59 -13 -73 -15 -30 -5 -128 -32 -152 -42 -13 -5 -18 4 -28 52 -39
195 -64 304 -99 439 -18 69 -19 68 87 94 53 13 111 30 127 37 47 19 64 16 70
-14z"/>
</g>
</svg>