
<svg version="1.0" xmlns="http://www.w3.org/2000/svg"
 width="370.000000pt" height="370.000000pt" viewBox="0 0 370.000000 370.000000"
 preserveAspectRatio="xMidYMid meet">
<g transform="translate(0.000000,370.000000) scale(0.100000,-0.100000)"
fill="#000000" stroke="none"><path fill="#ffffff" stroke="none" d="M0 1850 l0 -1850 1850 0 1850 0 0 1850
0 1850 -1850 0 -1850 0 0 -1850z"/>
<path fill="#000000" stroke="none" d="M1789 2070 c69 -6 127 -12 129 -14 2
-3 -3 -35 -11 -73 -8 -37 -18 -106 -22 -152 l-7 -83 786 3 786 4 0 -135 0
-135 -706 4 -706 3 18 -33 c33 -65 117 -182 186 -261 161 -182 366 -322 588
-402 81 -30 409 -123 530 -151 106 -25 104 -23 68 -80 -17 -27 -57 -98 -90
-157 -33 -59 -65 -108 -71 -108 -16 0 -139 40 -247 79 -249 92 -457 194 -630
309 -226 149 -520 476 -580 644 l-14 37 -42 -84 c-183 -365 -556 -677 -1063
-890 -150 -62 -313 -117 -322 -108 -4 5 -55 71 -114 147 -106 138 -113 155
-65 156 32 0 331 81 465 125 156 51 350 141 447 206 86 58 214 191 289 302 58
84 129 224 129 256 0 11 -113 12 -680 10 l-680 -4 0 135 0 136 703 -4 704 -4
6 62 c4 35 7 112 7 172 l0 109 43 -5 c23 -4 98 -11 166 -16z"/>
<path fill="#ff0000" stroke="none" d="M1955 2965 l0 -645 -160 0 -160 0 0
645 0 645 160 0 160 0 0 -645z"/>
<path fill="#ff0000" stroke="none" d="M974 3236 c39 -24 101 -58 138 -77 l67
-33 -27 -48 c-15 -26 -30 -48 -34 -48 -5 0 -8 -4 -8 -9 0 -4 -25 -48 -55 -97
-30 -49 -68 -113 -85 -143 -18 -29 -36 -59 -41 -65 -9 -10 -30 -43 -158 -250
-25 -39 -48 -72 -53 -74 -4 -2 -8 -7 -8 -12 0 -9 -77 -126 -97 -148 -7 -7 -13
-16 -13 -20 0 -4 -4 -13 -8 -20 -7 -10 -24 -4 -73 26 -35 21 -91 54 -124 72
-33 18 -62 34 -64 36 -2 2 12 22 30 45 41 52 176 245 204 291 11 18 27 44 35
58 25 41 74 123 86 145 25 43 173 342 188 378 8 20 18 37 22 37 3 0 38 -20 78
-44z"/>
<path fill="#ff0000" stroke="none" d="M2668 3180 c14 -19 31 -39 37 -45 6 -5
25 -30 42 -55 17 -25 41 -56 53 -70 12 -14 36 -45 53 -70 17 -25 36 -49 42
-55 6 -5 24 -28 40 -50 16 -22 32 -42 35 -45 3 -3 19 -23 36 -45 16 -22 34
-45 39 -51 6 -6 24 -29 40 -50 17 -21 37 -45 45 -54 31 -33 110 -139 110 -147
0 -6 -12 -16 -27 -24 -32 -16 -106 -61 -113 -69 -3 -3 -28 -22 -56 -42 l-51
-37 -20 27 c-10 15 -30 46 -43 70 -13 23 -26 42 -30 42 -3 0 -14 16 -24 35
-11 19 -23 35 -27 35 -4 0 -10 8 -13 18 -4 10 -14 27 -24 38 -9 10 -53 66 -96
124 -44 58 -82 107 -85 110 -3 3 -24 28 -46 55 -42 54 -53 66 -115 135 -63 69
-103 120 -93 120 4 0 31 22 59 48 28 26 75 69 104 95 l54 49 24 -29 c13 -15
35 -44 50 -63z"/>
<path fill="#ff0000" stroke="none" d="M383 1753 c-7 -2 -21 -2 -30 0 -10 3
-4 5 12 5 17 0 24 -2 18 -5z"/>
<path fill="#ff0000" stroke="none" d="M3263 1753 c-7 -2 -21 -2 -30 0 -10 3
-4 5 12 5 17 0 24 -2 18 -5z"/>
<path fill="#ff0000" stroke="none" d="M3447 1558 c-1 -40 -3 -10 -3 67 0 77
1 110 3 73 2 -37 2 -100 0 -140z"/>
<path fill="#ff0000" stroke="none" d="M323 1483 c-7 -2 -19 -2 -25 0 -7 3 -2
5 12 5 14 0 19 -2 13 -5z"/>
<path fill="#ff0000" stroke="none" d="M3313 1483 c-7 -2 -19 -2 -25 0 -7 3
-2 5 12 5 14 0 19 -2 13 -5z"/>
</g>
</svg>