
<svg version="1.0" xmlns="http://www.w3.org/2000/svg"
 width="370.000000pt" height="370.000000pt" viewBox="0 0 370.000000 370.000000"
 preserveAspectRatio="xMidYMid meet">
<g transform="translate(0.000000,370.000000) scale(0.100000,-0.100000)"
fill="#000000" stroke="none"><path fill="#ffffff" stroke="none" d="M0 1850 l0 -1850 1850 0 1850 0 0 1850
0 1850 -1850 0 -1850 0 0 -1850z"/>
<path fill="#000000" stroke="none" d="M3060 3250 l0 -125 -1290 0 -1290 0 0
125 0 125 1290 0 1290 0 0 -125z"/>
<path fill="#000000" stroke="none" d="M1700 1795 c773 0 1468 2 1545 5 l140
4 3 -130 3 -131 -722 5 -722 5 5 -622 6 -621 -157 0 -156 0 4 621 3 621 -726
-4 -726 -3 0 132 0 133 48 -8 c26 -4 679 -7 1452 -7z"/>
<path fill="#ff0000" stroke="none" d="M1950 2455 l0 -665 -145 0 -145 0 0
665 0 665 145 0 145 0 0 -665z"/>
<path fill="#ff0000" stroke="none" d="M2827 2917 c38 -24 95 -59 128 -77 33
-18 61 -34 63 -35 4 -4 -16 -44 -30 -59 -5 -6 -43 -63 -83 -126 -41 -63 -79
-120 -85 -127 -5 -7 -10 -15 -10 -18 0 -3 -5 -11 -10 -18 -6 -7 -77 -107 -158
-223 -81 -116 -160 -225 -174 -243 l-27 -31 -73 56 c-40 31 -80 59 -88 62 -8
3 -21 11 -27 18 -7 7 -18 14 -25 16 -7 3 10 32 43 74 152 192 327 465 439 686
25 49 46 88 47 88 2 0 33 -19 70 -43z"/>
<path fill="#ff0000" stroke="none" d="M867 2848 c32 -40 60 -75 63 -78 10
-10 117 -148 175 -225 33 -44 63 -82 66 -85 3 -3 40 -54 82 -115 42 -60 80
-114 85 -120 19 -24 24 -38 15 -44 -6 -3 -25 -18 -44 -33 -19 -14 -72 -56
-118 -92 l-83 -66 -44 77 c-24 42 -44 78 -44 80 0 2 -16 29 -35 59 -19 30 -35
57 -35 60 0 8 -115 178 -164 243 -23 30 -50 66 -61 80 -10 14 -43 54 -72 89
-32 38 -50 68 -47 77 4 8 9 15 13 15 4 0 48 34 97 75 49 41 90 75 91 75 1 0
28 -33 60 -72z"/>
<path fill="#ff0000" stroke="none" d="M227 1804 c-3 -3 -12 -4 -19 -1 -8 3
-5 6 6 6 11 1 17 -2 13 -5z"/>
<path fill="#ff0000" stroke="none" d="M3377 1804 c-3 -3 -12 -4 -19 -1 -8 3
-5 6 6 6 11 1 17 -2 13 -5z"/>
<path fill="#ff0000" stroke="none" d="M1647 443 c-3 -10 -5 -4 -5 12 0 17 2
24 5 18 2 -7 2 -21 0 -30z"/>
</g>
</svg>