
<svg version="1.0" xmlns="http://www.w3.org/2000/svg"
 width="370.000000pt" height="370.000000pt" viewBox="0 0 370.000000 370.000000"
 preserveAspectRatio="xMidYMid meet">
<g transform="translate(0.000000,370.000000) scale(0.100000,-0.100000)"
fill="#000000" stroke="none"><path fill="#ffffff" stroke="none" d="M0 1850 l0 -1850 1850 0 1850 0 0 1850
0 1850 -1850 0 -1850 0 0 -1850z"/>
<path fill="#000000" stroke="none" d="M882 3549 l166 -53 -33 -40 c-64 -80
-127 -191 -259 -454 -73 -147 -158 -311 -189 -364 -32 -54 -57 -100 -57 -103
0 -7 300 -4 380 4 l65 6 72 144 c40 79 88 185 108 236 l36 93 156 -73 c85 -41
157 -76 160 -79 3 -3 -21 -35 -55 -70 -68 -73 -152 -189 -261 -362 -83 -130
-258 -382 -421 -604 -147 -201 -153 -210 -138 -205 7 2 128 18 268 36 140 17
256 33 258 34 5 4 -24 87 -58 167 -17 39 -30 73 -30 77 0 4 17 13 38 20 20 7
76 28 125 48 48 20 89 34 91 32 5 -6 118 -322 175 -492 l50 -148 -32 -14 c-66
-29 -219 -87 -222 -83 -2 1 -14 37 -28 78 -47 141 -36 128 -109 118 -164 -22
-393 -62 -488 -84 -93 -22 -308 -82 -351 -99 -12 -5 -20 4 -32 32 -8 21 -36
82 -61 136 -51 109 -53 117 -29 117 65 0 208 123 340 293 82 104 293 409 293
422 0 9 -191 -2 -300 -16 -41 -6 -115 -24 -163 -40 -49 -16 -90 -29 -92 -29
-2 0 -9 17 -16 38 -6 20 -34 86 -60 146 -27 60 -49 111 -49 112 0 1 12 5 26 8
37 10 108 79 160 157 87 131 211 419 316 731 35 104 68 186 73 184 6 -2 85
-27 177 -57z"/>
<path fill="#000000" stroke="none" d="M3355 1940 l0 -1460 -137 0 -138 0 0
170 0 170 -585 0 -585 0 -2 -177 -3 -178 -130 -3 -130 -3 0 1471 0 1470 855 0
855 0 0 -1460z"/>
<path fill="#ffffff" stroke="none" d="M1910 2695 l0 -495 230 0 230 0 0 495
0 495 -230 0 -230 0 0 -495z"/>
<path fill="#ffffff" stroke="none" d="M2630 2695 l0 -495 225 0 225 0 0 495
0 495 -225 0 -225 0 0 -495z"/>
<path fill="#ffffff" stroke="none" d="M1910 1510 l0 -480 230 0 230 0 0 480
0 480 -230 0 -230 0 0 -480z"/>
<path fill="#ffffff" stroke="none" d="M2630 1510 l0 -480 225 0 225 0 0 480
0 480 -225 0 -225 0 0 -480z"/>
<path fill="#ff0000" stroke="none" d="M1647 3193 c-3 -10 -5 -4 -5 12 0 17 2
24 5 18 2 -7 2 -21 0 -30z"/>
<path fill="#ff0000" stroke="none" d="M867 2534 c-3 -3 -12 -4 -19 -1 -8 3
-5 6 6 6 11 1 17 -2 13 -5z"/>
<path fill="#ff0000" stroke="none" d="M1429 1139 c6 -18 11 -44 11 -59 0 -14
6 -49 14 -76 7 -27 19 -80 25 -119 11 -65 22 -116 50 -238 16 -70 14 -97 -6
-97 -19 0 -156 -34 -185 -45 -14 -5 -18 2 -23 42 -5 47 -18 117 -51 293 -27
144 -34 174 -43 200 -5 14 -12 42 -16 63 -6 36 -5 37 27 37 18 1 60 7 93 14
88 20 92 20 104 -15z"/>
<path fill="#ff0000" stroke="none" d="M419 1114 c97 -6 111 -9 105 -23 -3 -9
-12 -43 -20 -76 -8 -33 -21 -85 -29 -115 -8 -30 -19 -84 -25 -120 -16 -89 -26
-137 -58 -265 l-27 -110 -87 7 c-48 3 -101 9 -118 13 -32 7 -33 16 -10 85 4
14 13 48 20 75 6 28 17 75 25 105 7 30 18 87 24 125 6 39 17 111 26 160 8 50
15 105 15 124 0 30 2 33 23 27 13 -3 74 -8 136 -12z"/>
<path fill="#ff0000" stroke="none" d="M949 1058 c7 -40 16 -118 21 -173 14
-145 27 -282 35 -346 l7 -56 -98 -6 c-55 -3 -109 -9 -120 -12 -21 -7 -22 -3
-28 92 -5 88 -25 304 -44 483 l-7 65 100 11 c55 6 105 12 111 12 6 1 16 -29
23 -70z"/>
<path fill="#ff0000" stroke="none" d="M1647 688 c-2 -13 -4 -5 -4 17 -1 22 1
32 4 23 2 -10 2 -28 0 -40z"/>
<path fill="#ff0000" stroke="none" d="M1838 463 c-38 -2 -98 -2 -135 0 -38 2
-7 3 67 3 74 0 105 -1 68 -3z"/>
</g>
</svg>