
<svg version="1.0" xmlns="http://www.w3.org/2000/svg"
 width="370.000000pt" height="370.000000pt" viewBox="0 0 370.000000 370.000000"
 preserveAspectRatio="xMidYMid meet">
<g transform="translate(0.000000,370.000000) scale(0.100000,-0.100000)"
fill="#000000" stroke="none"><path fill="#ffffff" stroke="none" d="M0 1850 l0 -1850 1850 0 1850 0 0 1850
0 1850 -1850 0 -1850 0 0 -1850z"/>
<path fill="#000000" stroke="none" d="M3360 3300 l0 -135 -1540 0 -1540 0 0
135 0 135 1540 0 1540 0 0 -135z"/>
<path fill="#ff0000" stroke="none" d="M287 3228 c-1 -40 -3 -8 -3 72 0 80 2
112 3 73 2 -40 2 -106 0 -145z"/>
<path fill="#ff0000" stroke="none" d="M503 3433 c-7 -2 -21 -2 -30 0 -10 3
-4 5 12 5 17 0 24 -2 18 -5z"/>
<path fill="#ff0000" stroke="none" d="M3243 3433 c-7 -2 -19 -2 -25 0 -7 3
-2 5 12 5 14 0 19 -2 13 -5z"/>
<path fill="#ff0000" stroke="none" d="M2073 3153 c-4 -10 -23 -47 -44 -83
-20 -36 -52 -94 -71 -130 -50 -94 -89 -163 -100 -176 -5 -7 -7 -528 -6 -1218
l3 -1206 -145 0 -145 0 3 812 c1 447 1 903 0 1013 l-3 199 -39 -54 c-22 -30
-43 -56 -48 -58 -4 -2 -8 -10 -8 -17 0 -7 -4 -15 -9 -17 -4 -1 -32 -32 -62
-68 -151 -184 -412 -441 -594 -584 -27 -22 -52 -43 -55 -46 -8 -10 -109 -86
-244 -182 -104 -74 -122 -84 -130 -70 -5 10 -12 19 -16 22 -3 3 -17 21 -30 40
-13 19 -49 61 -79 93 -30 31 -52 59 -50 61 2 2 28 16 57 30 93 47 368 241 457
323 11 10 45 38 75 63 159 130 365 338 491 495 176 220 372 517 476 723 l27
52 148 0 c136 0 147 -1 141 -17z"/>
<path fill="#ff0000" stroke="none" d="M2359 2448 c37 -35 122 -115 191 -178
165 -152 661 -642 712 -703 l41 -48 -24 -17 c-13 -9 -68 -59 -122 -112 l-97
-96 -24 36 c-13 19 -35 46 -48 60 -12 14 -52 59 -88 100 -63 73 -81 93 -206
230 -87 96 -306 327 -531 561 l-45 46 54 51 c29 28 67 69 83 91 17 22 32 41
34 41 3 0 34 -28 70 -62z"/>
</g>
</svg>