
<svg version="1.0" xmlns="http://www.w3.org/2000/svg"
 width="370.000000pt" height="370.000000pt" viewBox="0 0 370.000000 370.000000"
 preserveAspectRatio="xMidYMid meet">
<g transform="translate(0.000000,370.000000) scale(0.100000,-0.100000)"
fill="#000000" stroke="none"><path fill="#ffffff" stroke="none" d="M0 1850 l0 -1850 1850 0 1850 0 0 1850
0 1850 -1850 0 -1850 0 0 -1850z"/>
<path fill="#000000" stroke="none" d="M3252 1698 c-3 -1085 -3 -1062 -31
-1125 -30 -68 -92 -125 -167 -153 -67 -25 -258 -66 -356 -76 l-66 -7 -11 59
c-15 73 -35 131 -74 211 -17 35 -29 64 -26 66 2 2 45 0 94 -5 112 -12 231 -6
270 13 16 8 40 29 52 48 l23 34 0 743 0 744 -1165 0 -1165 0 0 -940 0 -940
-147 0 -148 0 0 1055 0 1055 1460 0 1460 0 -3 -782z"/>
<path fill="#000000" stroke="none" d="M2465 1390 l0 -460 -685 0 -685 0 0
460 0 460 685 0 685 0 0 -460z"/>
<path fill="#ffffff" stroke="none" d="M1390 1380 l0 -240 395 0 395 0 0 240
0 240 -395 0 -395 0 0 -240z"/>
<path fill="#ff0000" stroke="none" d="M1944 3493 c-4 -10 -10 -240 -12 -510
l-4 -493 -134 0 -134 0 0 510 0 510 146 0 c136 0 146 -1 138 -17z"/>
<path fill="#ff0000" stroke="none" d="M3010 3319 c104 -61 121 -69 135 -69
21 0 18 -14 -10 -46 -13 -16 -32 -38 -42 -50 -68 -80 -111 -130 -133 -153 -14
-14 -59 -64 -100 -111 -41 -47 -86 -97 -100 -111 -14 -14 -71 -75 -128 -136
l-104 -110 -64 43 c-60 40 -90 56 -153 81 -22 8 -21 10 39 68 53 51 204 204
289 292 38 40 130 154 164 203 17 25 36 50 42 56 5 7 23 33 38 59 27 45 28 46
50 31 12 -8 47 -30 77 -47z"/>
<path fill="#ff0000" stroke="none" d="M725 3256 c152 -133 507 -485 500 -496
-2 -3 -22 -15 -44 -26 -23 -10 -41 -22 -41 -26 0 -5 -6 -8 -13 -8 -7 0 -24
-11 -39 -25 -15 -14 -31 -25 -37 -25 -5 0 -11 -3 -13 -8 -1 -4 -16 -17 -31
-29 l-29 -22 -46 62 c-46 61 -67 87 -87 111 -5 6 -35 41 -65 76 -80 94 -236
247 -315 308 -26 21 -28 25 -13 33 9 5 23 15 30 22 7 7 33 28 58 47 25 19 55
45 68 58 27 26 26 27 117 -52z"/>
<path fill="#ff0000" stroke="none" d="M2965 1525 l0 -730 -2 728 -3 727
-1165 0 -1165 0 -2 -942 -3 -943 -3 935 c-1 514 0 941 3 948 3 10 243 12 1172
10 l1168 -3 0 -730z"/>
<path fill="#ff0000" stroke="none" d="M2467 1678 c-3 -7 -5 -2 -5 12 0 14 2
19 5 13 2 -7 2 -19 0 -25z"/>
<path fill="#ff0000" stroke="none" d="M2467 1068 c-3 -7 -5 -2 -5 12 0 14 2
19 5 13 2 -7 2 -19 0 -25z"/>
</g>
</svg>