
<svg version="1.0" xmlns="http://www.w3.org/2000/svg"
 width="370.000000pt" height="370.000000pt" viewBox="0 0 370.000000 370.000000"
 preserveAspectRatio="xMidYMid meet">
<g transform="translate(0.000000,370.000000) scale(0.100000,-0.100000)"
fill="#000000" stroke="none"><path fill="#ffffff" stroke="none" d="M0 1850 l0 -1850 1850 0 1850 0 0 1850
0 1850 -1850 0 -1850 0 0 -1850z"/>
<path fill="#000000" stroke="none" d="M2904 1603 c-10 -114 -10 -1017 0
-1150 l8 -103 -141 0 -141 0 0 115 0 115 -850 0 -850 0 0 -135 0 -135 -141 0
-141 0 8 103 c10 132 10 1064 0 1185 l-8 92 1132 0 1132 0 -8 -87z"/>
<path fill="#ffffff" stroke="none" d="M935 1457 c-3 -6 -4 -156 -3 -332 l3
-320 845 0 845 0 0 330 0 330 -843 3 c-672 2 -844 0 -847 -11z"/>
<path fill="#ff0000" stroke="none" d="M1938 3463 c-3 -49 -7 -171 -7 -271
l-1 -184 698 5 c383 2 707 8 720 12 l22 7 0 -127 c0 -117 -1 -127 -17 -119
-10 4 -334 10 -720 12 l-703 4 0 -272 0 -273 578 5 c317 3 585 9 595 13 16 7
17 -3 17 -119 l0 -126 -32 8 c-43 9 -2519 9 -2581 0 l-47 -8 0 125 0 125 42
-7 c24 -3 293 -7 598 -7 l555 -1 3 269 2 268 -707 -4 c-390 -3 -716 -8 -725
-12 -17 -8 -18 2 -18 119 l0 127 23 -7 c12 -4 338 -10 725 -12 l702 -5 -1 183
c0 101 -4 223 -7 272 l-7 87 150 0 150 0 -7 -87z"/>
</g>
</svg>