
<svg version="1.0" xmlns="http://www.w3.org/2000/svg"
 width="370.000000pt" height="370.000000pt" viewBox="0 0 370.000000 370.000000"
 preserveAspectRatio="xMidYMid meet">
<g transform="translate(0.000000,370.000000) scale(0.100000,-0.100000)"
fill="#000000" stroke="none"><path fill="#ffffff" stroke="none" d="M0 1850 l0 -1850 1850 0 1850 0 0 1850
0 1850 -1850 0 -1850 0 0 -1850z"/>
<path fill="#000000" stroke="none" d="M1955 1714 l-7 -237 544 6 c298 4 552
8 563 9 19 3 20 -4 23 -141 l3 -144 -53 6 c-29 4 -284 10 -565 13 l-513 7 0
-288 0 -288 688 6 c378 4 711 10 740 13 l52 7 0 -134 0 -134 -1630 0 -1630 0
0 134 0 133 48 -6 c26 -3 363 -8 750 -12 l702 -7 0 288 0 288 -477 -6 c-263
-4 -504 -10 -535 -13 l-58 -7 0 148 c0 136 1 147 18 140 9 -4 250 -9 536 -12
l518 -6 -6 154 c-4 85 -9 191 -12 237 l-6 82 157 0 158 0 -8 -236z"/>
<path fill="#ff0000" stroke="none" d="M1952 3330 l-3 -231 555 3 556 3 0
-129 0 -128 -22 7 c-13 4 -263 9 -555 12 l-533 5 0 -292 0 -292 638 5 c350 2
647 8 660 12 l22 7 0 -128 0 -129 -1490 0 -1490 0 0 125 0 125 82 -7 c46 -3
356 -7 691 -7 l607 -1 0 291 0 291 -512 -5 c-282 -3 -523 -8 -535 -12 l-23 -7
0 128 0 129 536 -3 535 -3 -3 231 -3 230 145 0 145 0 -3 -230z"/>
</g>
</svg>