
<svg version="1.0" xmlns="http://www.w3.org/2000/svg"
 width="370.000000pt" height="370.000000pt" viewBox="0 0 370.000000 370.000000"
 preserveAspectRatio="xMidYMid meet">
<g transform="translate(0.000000,370.000000) scale(0.100000,-0.100000)"
fill="#000000" stroke="none"><path fill="#ffffff" stroke="none" d="M0 1850 l0 -1850 1850 0 1850 0 0 1850
0 1850 -1850 0 -1850 0 0 -1850z"/>
<path fill="#000000" stroke="none" d="M1870 3562 c52 -23 123 -48 158 -58 34
-10 61 -20 60 -23 -93 -184 -228 -494 -228 -524 0 -5 338 -7 765 -5 l765 3 0
-134 0 -134 -52 6 c-29 4 -185 9 -345 13 l-293 7 0 -228 0 -228 295 5 295 4 0
-131 0 -131 -295 4 -295 4 0 -232 0 -232 272 7 c149 4 278 8 287 9 14 1 16
-18 19 -132 l3 -133 -291 7 -290 7 0 -232 0 -233 370 3 370 4 0 -133 0 -133
-107 7 c-59 4 -413 8 -788 8 l-680 1 -3 -167 -2 -168 -141 0 -141 0 6 53 c4
28 9 500 12 1047 l5 995 -83 -150 c-83 -148 -137 -235 -145 -235 -2 0 -39 28
-82 63 -42 34 -90 71 -104 82 l-27 20 51 75 c212 314 424 818 503 1200 13 63
27 132 31 153 4 24 11 37 18 34 7 -3 55 -23 107 -45z"/>
<path fill="#000000" stroke="none" d="M2669 3430 c78 -149 151 -302 151 -318
0 -5 -35 -22 -77 -37 -42 -15 -99 -37 -127 -50 -28 -13 -57 -25 -64 -27 -8 -2
-31 41 -61 113 -45 107 -93 204 -152 303 -13 22 -19 41 -14 43 6 2 64 30 130
62 66 33 124 58 129 57 5 -1 43 -67 85 -146z"/>
<path fill="#ffffff" stroke="none" d="M1867 2703 c-4 -3 -7 -105 -7 -225 l0
-218 290 0 290 0 0 225 0 225 -283 0 c-156 0 -287 -3 -290 -7z"/>
<path fill="#ffffff" stroke="none" d="M1864 2007 c-2 -7 -3 -111 -2 -232 l3
-220 288 -3 287 -2 0 235 0 235 -285 0 c-222 0 -287 -3 -291 -13z"/>
<path fill="#ffffff" stroke="none" d="M1860 1080 l0 -230 290 0 290 0 0 230
0 230 -290 0 -290 0 0 -230z"/>
<path fill="#ff0000" stroke="none" d="M862 3048 l-5 -461 212 6 211 6 0 -117
0 -117 -210 3 -210 3 0 -566 c0 -445 3 -565 13 -565 15 0 68 19 242 85 77 29
150 56 161 59 21 7 22 5 20 -113 l-1 -121 -85 -26 c-185 -58 -481 -159 -535
-183 -11 -5 -36 -15 -55 -22 -19 -7 -69 -28 -110 -46 -74 -33 -111 -52 -221
-111 l-56 -30 -12 37 c-18 52 -60 158 -86 216 l-23 50 47 8 c99 17 231 50 334
84 l107 35 0 604 0 605 -220 -3 -220 -3 0 118 0 117 221 -6 222 -7 -5 461 -4
462 136 0 136 0 -4 -462z"/>
<path fill="#ff0000" stroke="none" d="M2883 2013 c-35 -2 -91 -2 -125 0 -35
2 -7 3 62 3 69 0 97 -1 63 -3z"/>
<path fill="#ff0000" stroke="none" d="M3013 1553 c-13 -2 -33 -2 -45 0 -13 2
-3 4 22 4 25 0 35 -2 23 -4z"/>
<path fill="#ff0000" stroke="none" d="M3277 1363 c-2 -38 -3 -7 -3 67 0 74 1
105 3 68 2 -38 2 -98 0 -135z"/>
<path fill="#ff0000" stroke="none" d="M3093 1303 c-7 -2 -21 -2 -30 0 -10 3
-4 5 12 5 17 0 24 -2 18 -5z"/>
<path fill="#ff0000" stroke="none" d="M3098 603 c-26 -2 -71 -2 -100 0 -29 2
-8 3 47 3 55 0 79 -1 53 -3z"/>
</g>
</svg>