
<svg version="1.0" xmlns="http://www.w3.org/2000/svg"
 width="370.000000pt" height="370.000000pt" viewBox="0 0 370.000000 370.000000"
 preserveAspectRatio="xMidYMid meet">
<g transform="translate(0.000000,370.000000) scale(0.100000,-0.100000)"
fill="#000000" stroke="none"><path fill="#ffffff" stroke="none" d="M0 1850 l0 -1850 1850 0 1850 0 0 1850
0 1850 -1850 0 -1850 0 0 -1850z"/>
<path fill="#000000" stroke="none" d="M1934 2695 c-1 -5 -5 -59 -9 -119 l-6
-108 705 3 706 4 0 -120 0 -120 -705 3 -705 4 0 -141 0 -141 563 0 564 0 -4
-187 c-6 -274 -19 -454 -39 -502 -33 -83 -130 -138 -322 -182 -51 -12 -94 -19
-96 -18 -1 2 -15 34 -30 71 -15 37 -49 102 -76 145 l-48 78 114 6 c150 9 176
14 205 45 23 24 24 33 27 180 l3 154 -430 0 -431 0 0 -106 0 -106 47 -67 c179
-251 553 -513 938 -656 107 -40 303 -92 456 -120 l96 -18 -57 -56 c-62 -62
-131 -158 -161 -227 -11 -24 -22 -44 -24 -44 -2 0 -75 30 -162 66 -436 181
-870 462 -1073 697 l-63 72 7 -428 c3 -235 9 -441 13 -457 l6 -30 -148 0 -148
0 7 63 c3 34 8 265 11 512 6 435 5 449 -12 425 -147 -203 -390 -438 -658 -639
-49 -37 -190 -131 -313 -209 l-224 -141 -63 67 c-35 37 -95 90 -134 117 -38
28 -70 52 -71 55 0 4 48 25 108 49 244 98 542 273 750 440 181 146 377 355
477 511 44 67 125 213 125 224 0 3 -182 6 -405 6 l-405 0 -2 -317 -3 -318
-143 -3 -144 -3 8 93 c10 125 10 629 0 701 l-7 57 560 0 561 0 0 141 0 141
-685 -3 -685 -4 0 120 0 120 686 -4 686 -3 -6 93 c-4 52 -9 107 -12 122 l-6
28 144 -3 c88 -2 142 -7 142 -13z"/>
<path fill="#ff0000" stroke="none" d="M2359 3555 c55 -25 109 -45 119 -45 9
0 24 -5 32 -10 12 -8 4 -21 -46 -72 -60 -63 -114 -130 -114 -144 0 -3 239 -5
530 -2 l530 4 0 -115 0 -116 -341 3 c-277 2 -341 1 -337 -10 9 -24 27 -82 54
-173 14 -49 30 -100 35 -113 5 -13 9 -25 9 -27 0 -4 -75 -25 -170 -48 -36 -8
-73 -18 -82 -22 -14 -5 -18 2 -23 42 -16 128 -32 203 -67 321 l-10 32 -139 0
c-76 0 -139 -4 -139 -8 0 -5 -8 -17 -18 -28 -10 -10 -45 -58 -79 -105 -34 -48
-68 -95 -77 -105 -8 -11 -23 -30 -34 -43 l-18 -24 -40 25 c-43 28 -136 72
-172 83 -22 6 -20 10 36 73 159 179 316 428 398 629 26 65 30 70 45 57 9 -8
62 -35 118 -59z"/>
<path fill="#ff0000" stroke="none" d="M872 3592 c35 -16 93 -41 130 -57 l67
-28 -104 -104 c-58 -57 -105 -109 -105 -115 0 -8 129 -9 445 -6 l445 5 0 -116
0 -116 -260 3 c-300 4 -274 17 -235 -117 14 -48 30 -104 36 -126 6 -22 15 -53
20 -69 10 -31 0 -46 -30 -46 -19 0 -73 -17 -143 -45 l-58 -24 -4 22 c-2 12
-15 72 -29 132 -14 61 -33 147 -43 193 l-18 82 -143 0 c-79 0 -143 -4 -143 -9
0 -14 -223 -251 -307 -325 -40 -36 -42 -36 -60 -18 -10 10 -49 40 -88 66 -117
77 -113 73 -87 92 191 133 425 405 596 692 21 34 42 62 46 62 5 0 38 -13 72
-28z"/>
<path fill="#ff0000" stroke="none" d="M483 2473 c-7 -2 -19 -2 -25 0 -7 3 -2
5 12 5 14 0 19 -2 13 -5z"/>
<path fill="#ff0000" stroke="none" d="M3187 2474 c-3 -3 -12 -4 -19 -1 -8 3
-5 6 6 6 11 1 17 -2 13 -5z"/>
<path fill="#ff0000" stroke="none" d="M1927 588 c-2 -13 -4 -5 -4 17 -1 22 1
32 4 23 2 -10 2 -28 0 -40z"/>
</g>
</svg>