
<svg version="1.0" xmlns="http://www.w3.org/2000/svg"
 width="370.000000pt" height="370.000000pt" viewBox="0 0 370.000000 370.000000"
 preserveAspectRatio="xMidYMid meet">
<g transform="translate(0.000000,370.000000) scale(0.100000,-0.100000)"
fill="#000000" stroke="none"><path fill="#ffffff" stroke="none" d="M0 1850 l0 -1850 1850 0 1850 0 0 1850
0 1850 -1850 0 -1850 0 0 -1850z"/>
<path fill="#000000" stroke="none" d="M2560 3086 c0 -82 26 -439 45 -627 29
-277 94 -614 156 -801 133 -405 332 -727 587 -949 l53 -46 -67 -39 c-65 -38
-156 -126 -191 -184 -9 -16 -20 -30 -24 -30 -13 0 -109 112 -167 194 -175 247
-335 554 -424 816 -91 270 -157 621 -192 1025 -22 259 -40 645 -30 655 5 5 54
16 109 25 55 10 102 19 104 21 2 2 13 4 23 4 16 0 18 -9 18 -64z"/>
<path fill="#000000" stroke="none" d="M1871 3061 c-11 -7 -12 -208 -7 -1257
4 -687 9 -1282 12 -1321 l6 -73 -167 0 -167 0 7 38 c3 20 9 612 12 1314 l5
1277 51 5 c52 6 219 22 247 24 12 1 12 0 1 -7z"/>
<path fill="#ff0000" stroke="none" d="M2931 3427 c40 -56 75 -104 79 -107 11
-9 60 -77 60 -83 0 -4 -17 -7 -37 -7 -21 0 -99 -9 -173 -20 -74 -11 -167 -24
-207 -30 -40 -5 -85 -13 -100 -16 -25 -7 -26 -8 -8 -16 14 -6 9 -7 -16 -3 -19
3 -39 2 -42 -2 -9 -8 -42 -14 -84 -13 -17 0 -34 -4 -38 -10 -3 -6 -11 -8 -16
-4 -5 3 -16 0 -24 -6 -12 -10 -15 -10 -15 0 0 18 -182 3 -375 -32 -75 -13
-132 -18 -212 -17 -35 0 -68 -3 -75 -8 -7 -4 -29 -8 -48 -8 -19 -1 -96 -9
-170 -18 -74 -9 -201 -20 -282 -25 -81 -4 -149 -10 -151 -12 -2 -3 -9 -243
-16 -535 -7 -302 -18 -590 -26 -670 -29 -276 -37 -341 -51 -410 -8 -38 -19
-90 -24 -115 -14 -73 -41 -181 -50 -204 -4 -11 -13 -41 -20 -66 -7 -25 -18
-58 -25 -75 -7 -16 -26 -61 -41 -100 -30 -76 -120 -253 -160 -316 -13 -21 -24
-41 -24 -43 0 -5 -62 -106 -65 -106 -1 0 -14 11 -30 24 -38 33 -160 93 -217
107 -27 6 -48 13 -48 15 0 2 38 54 84 115 152 200 260 456 345 814 59 249 67
310 86 620 17 278 19 690 5 902 -5 82 -11 180 -13 219 l-3 71 321 6 c176 3
376 10 445 16 69 6 177 16 240 22 63 6 156 16 205 24 50 7 128 19 175 25 74
10 189 32 325 61 82 17 253 74 370 122 33 14 63 23 67 21 3 -2 39 -50 79 -107z"/>
<path fill="#ff0000" stroke="none" d="M2307 2948 c-3 -7 -5 -2 -5 12 0 14 2
19 5 13 2 -7 2 -19 0 -25z"/>
</g>
</svg>