
<svg version="1.0" xmlns="http://www.w3.org/2000/svg"
 width="370.000000pt" height="370.000000pt" viewBox="0 0 370.000000 370.000000"
 preserveAspectRatio="xMidYMid meet">
<g transform="translate(0.000000,370.000000) scale(0.100000,-0.100000)"
fill="#000000" stroke="none"><path fill="#ffffff" stroke="none" d="M0 1850 l0 -1850 1850 0 1850 0 0 1850
0 1850 -1850 0 -1850 0 0 -1850z"/>
<path fill="#000000" stroke="none" d="M2988 2413 c-44 -149 -203 -528 -301
-718 -105 -204 -260 -445 -390 -604 l-61 -74 29 -23 c47 -37 168 -103 276
-150 205 -89 598 -211 739 -230 l49 -6 -57 -58 c-54 -54 -112 -150 -128 -214
-3 -14 -10 -26 -14 -26 -4 0 -54 14 -111 31 -401 118 -752 285 -951 451 l-47
39 -68 -49 c-196 -139 -483 -284 -773 -389 -96 -35 -353 -115 -355 -110 -1 1
-16 32 -34 70 -18 37 -57 93 -86 125 l-53 58 116 28 c381 92 837 285 1001 424
l34 28 -71 88 c-233 284 -410 609 -547 1001 l-41 120 -92 3 -92 3 0 124 0 125
1024 0 1024 0 -20 -67z"/>
<path fill="#ffffff" stroke="none" d="M1430 2226 c0 -15 117 -291 163 -386
108 -221 251 -438 375 -570 l52 -55 26 30 c129 151 274 372 373 568 72 143
151 327 166 390 l7 27 -581 0 c-320 0 -581 -2 -581 -4z"/>
<path fill="#ff0000" stroke="none" d="M2950 3398 c18 -35 40 -74 49 -88 33
-51 41 -66 58 -97 9 -18 20 -33 25 -33 4 0 8 -4 8 -10 0 -6 -27 -10 -62 -10
-35 0 -133 -7 -218 -15 -85 -8 -220 -19 -300 -25 -186 -14 -356 -27 -550 -45
-251 -23 -824 -55 -972 -55 l-28 0 0 -382 c0 -357 -5 -476 -31 -733 -20 -202
-71 -513 -97 -600 -6 -16 -15 -50 -22 -75 -37 -135 -141 -391 -221 -545 -76
-147 -166 -299 -170 -288 -6 14 -98 77 -171 117 -38 21 -68 40 -68 43 0 4 26
47 58 97 115 178 227 419 282 606 12 41 26 85 30 96 24 61 84 353 99 484 6 52
16 140 23 195 6 57 13 337 15 655 l5 555 281 0 c155 0 350 6 432 13 83 7 215
17 295 22 316 23 646 61 825 95 39 7 108 21 155 30 47 9 114 24 150 34 36 11
70 19 76 20 7 1 27 -27 44 -61z"/>
</g>
</svg>