
<svg version="1.0" xmlns="http://www.w3.org/2000/svg"
 width="370.000000pt" height="370.000000pt" viewBox="0 0 370.000000 370.000000"
 preserveAspectRatio="xMidYMid meet">
<g transform="translate(0.000000,370.000000) scale(0.100000,-0.100000)"
fill="#000000" stroke="none"><path fill="#ffffff" stroke="none" d="M0 1850 l0 -1850 1850 0 1850 0 0 1850
0 1850 -1850 0 -1850 0 0 -1850z"/>
<path fill="#000000" stroke="none" d="M2404 3290 c26 -615 174 -1367 347
-1764 136 -310 318 -576 560 -818 l117 -117 -56 -17 c-61 -20 -142 -70 -217
-136 l-48 -42 -38 44 c-111 128 -314 430 -428 635 -166 298 -299 708 -391
1203 -62 339 -170 1065 -170 1152 l0 25 159 0 159 0 6 -165z"/>
<path fill="#ff0000" stroke="none" d="M1186 3261 c10 -10 172 -61 195 -61 7
0 31 -5 53 -11 32 -9 37 -14 33 -32 -10 -43 -47 -223 -56 -272 -6 -27 -17 -88
-26 -135 -9 -47 -20 -107 -25 -135 -5 -27 -16 -86 -24 -130 -8 -44 -19 -108
-25 -142 -28 -160 -34 -191 -46 -233 -7 -25 -18 -70 -25 -100 -6 -30 -23 -93
-36 -140 -14 -47 -30 -103 -36 -125 -24 -86 -91 -280 -99 -289 -5 -6 -9 -16
-9 -24 0 -26 -100 -234 -174 -362 -70 -120 -264 -396 -321 -456 -5 -6 -23 -29
-40 -50 -16 -21 -47 -56 -67 -79 -21 -22 -38 -43 -38 -46 0 -3 -19 13 -43 35
-42 40 -161 126 -175 126 -4 0 -17 8 -30 18 l-23 18 58 50 c216 184 402 430
544 720 44 88 79 168 79 176 0 8 3 18 7 22 11 11 94 259 125 371 5 22 14 51
19 65 4 14 15 54 23 90 8 36 21 94 30 130 58 254 100 577 112 858 6 149 12
170 40 143z"/>
</g>
</svg>