
<svg version="1.0" xmlns="http://www.w3.org/2000/svg"
 width="370.000000pt" height="370.000000pt" viewBox="0 0 370.000000 370.000000"
 preserveAspectRatio="xMidYMid meet">
<g transform="translate(0.000000,370.000000) scale(0.100000,-0.100000)"
fill="#000000" stroke="none"><path fill="#ffffff" stroke="none" d="M0 1850 l0 -1850 1850 0 1850 0 0 1850
0 1850 -1850 0 -1850 0 0 -1850z"/>
<path fill="#000000" stroke="none" d="M2814 3130 l411 0 0 -1375 0 -1375
-152 0 -153 0 0 175 0 175 -1105 0 -1105 0 0 -170 0 -170 -152 0 -153 0 3
1247 3 1248 147 0 147 0 3 -397 2 -398 435 0 435 0 0 -120 0 -120 -435 0 -435
0 0 -445 0 -445 1105 0 1105 0 0 445 0 445 -455 0 -455 0 0 120 0 120 455 0
455 0 0 406 0 406 -470 -3 -470 -4 0 124 0 124 212 -6 c116 -4 396 -7 622 -7z"/>
<path fill="#ff0000" stroke="none" d="M1645 3265 c31 -73 90 -185 98 -185 4
0 7 -4 7 -8 0 -5 -30 -14 -67 -21 -38 -7 -97 -18 -133 -26 -36 -7 -99 -19
-140 -25 -122 -18 -180 -28 -270 -44 -47 -8 -125 -20 -175 -26 -49 -6 -128
-19 -175 -27 -47 -9 -151 -18 -232 -20 l-147 -4 -3 -27 c-2 -15 -3 35 -3 110
l0 138 100 0 c93 0 249 16 388 40 150 26 190 34 296 62 123 32 263 81 357 127
l59 28 12 -26 c6 -14 19 -44 28 -66z"/>
<path fill="#ff0000" stroke="none" d="M407 583 c-3 -10 -5 -4 -5 12 0 17 2
24 5 18 2 -7 2 -21 0 -30z"/>
</g>
</svg>