
<svg version="1.0" xmlns="http://www.w3.org/2000/svg"
 width="370.000000pt" height="370.000000pt" viewBox="0 0 370.000000 370.000000"
 preserveAspectRatio="xMidYMid meet">
<g transform="translate(0.000000,370.000000) scale(0.100000,-0.100000)"
fill="#000000" stroke="none"><path fill="#ffffff" stroke="none" d="M0 1850 l0 -1850 1850 0 1850 0 0 1850
0 1850 -1850 0 -1850 0 0 -1850z"/>
<path fill="#000000" stroke="none" d="M1980 2724 l0 -326 690 3 690 4 0 -147
0 -147 -32 5 c-177 23 -1128 36 -1128 15 0 -5 45 -76 99 -159 230 -346 459
-586 732 -767 114 -76 302 -177 392 -210 26 -10 47 -21 47 -25 0 -3 -12 -17
-26 -31 -35 -32 -102 -129 -148 -211 l-37 -68 -42 27 c-389 243 -643 459 -846
717 -108 138 -187 265 -298 481 l-94 180 3 -893 3 -892 -150 0 -150 0 2 902 3
903 -21 -40 c-156 -297 -331 -567 -502 -775 -96 -116 -291 -309 -412 -406
-162 -130 -423 -320 -429 -312 -2 1 -18 30 -36 63 -18 33 -64 102 -103 153
-38 51 -68 94 -66 95 2 1 47 23 100 49 470 233 851 617 1154 1161 l38 69 -587
-4 -586 -3 0 135 0 135 725 -3 725 -3 0 300 c0 276 1 301 18 310 9 5 69 14
132 21 63 7 117 14 119 16 18 17 21 -35 21 -322z"/>
<path fill="#ff0000" stroke="none" d="M2900 3426 c19 -37 58 -98 87 -136 l52
-68 -37 -6 c-20 -3 -64 -8 -97 -11 -33 -3 -82 -10 -110 -14 -27 -5 -84 -14
-125 -21 -41 -6 -102 -17 -135 -25 -33 -7 -94 -19 -135 -25 -153 -24 -207 -32
-279 -46 -40 -8 -88 -14 -107 -14 -19 0 -34 -4 -34 -8 0 -9 -14 -10 -125 -12
-45 -1 -55 -3 -40 -10 14 -6 3 -7 -32 -3 -29 3 -53 2 -53 -3 0 -5 -42 -10 -93
-11 -50 -2 -130 -7 -177 -12 -47 -6 -150 -15 -230 -21 -80 -6 -207 -18 -283
-26 -207 -21 -203 -22 -226 29 -11 23 -37 80 -59 127 l-40 85 252 7 c354 9
559 26 956 79 365 49 802 140 978 203 20 7 41 13 47 11 5 -1 25 -32 45 -69z"/>
<path fill="#ff0000" stroke="none" d="M1697 2548 c-1 -84 -3 -16 -3 152 0
168 2 236 3 153 2 -84 2 -222 0 -305z"/>
<path fill="#ff0000" stroke="none" d="M347 2134 c-3 -3 -12 -4 -19 -1 -8 3
-5 6 6 6 11 1 17 -2 13 -5z"/>
<path fill="#ff0000" stroke="none" d="M3097 2134 c-3 -3 -12 -4 -19 -1 -8 3
-5 6 6 6 11 1 17 -2 13 -5z"/>
<path fill="#ff0000" stroke="none" d="M1697 1198 c-1 -167 -2 -33 -2 297 0
330 1 466 2 303 2 -163 2 -433 0 -600z"/>
</g>
</svg>