
<svg version="1.0" xmlns="http://www.w3.org/2000/svg"
 width="370.000000pt" height="370.000000pt" viewBox="0 0 370.000000 370.000000"
 preserveAspectRatio="xMidYMid meet">
<g transform="translate(0.000000,370.000000) scale(0.100000,-0.100000)"
fill="#000000" stroke="none"><path fill="#ffffff" stroke="none" d="M0 1850 l0 -1850 1850 0 1850 0 0 1850
0 1850 -1850 0 -1850 0 0 -1850z"/>
<path fill="#000000" stroke="none" d="M2456 3378 c-19 -69 -27 -546 -24
-1495 l3 -1042 30 -31 c46 -48 104 -60 299 -60 271 0 276 5 327 310 10 63 19
126 19 140 0 51 15 56 60 20 57 -45 202 -119 250 -126 46 -8 47 6 -7 -174 -37
-123 -92 -263 -125 -320 -72 -121 -132 -135 -568 -135 -260 0 -313 3 -360 17
-122 38 -188 107 -216 227 -11 45 -14 290 -14 1239 l0 1182 -580 0 -580 0 0
68 c0 37 -3 97 -7 135 l-6 67 753 0 752 0 -6 -22z"/>
<path fill="#ff0000" stroke="none" d="M967 3318 c-3 -8 -6 -5 -6 6 -1 11 2
17 5 13 3 -3 4 -12 1 -19z"/>
<path fill="#ff0000" stroke="none" d="M1270 2878 c-1 -351 -18 -931 -30
-1018 -56 -386 -109 -576 -227 -815 -37 -75 -134 -237 -153 -255 -3 -3 -25
-30 -50 -60 -45 -55 -108 -123 -295 -318 l-101 -104 -54 54 c-31 30 -82 74
-115 98 -80 61 -112 92 -99 97 14 5 177 113 184 121 3 4 21 19 40 33 50 38
138 125 192 189 118 143 267 429 324 625 44 149 43 148 75 395 6 47 13 336 16
643 l6 557 143 0 144 0 0 -242z"/>
<path fill="#ff0000" stroke="none" d="M2437 3058 c-3 -7 -5 -2 -5 12 0 14 2
19 5 13 2 -7 2 -19 0 -25z"/>
<path fill="#ff0000" stroke="none" d="M2852 463 c-73 -2 -190 -2 -260 0 -70
1 -10 3 133 3 143 0 200 -2 127 -3z"/>
</g>
</svg>