
<svg version="1.0" xmlns="http://www.w3.org/2000/svg"
 width="370.000000pt" height="370.000000pt" viewBox="0 0 370.000000 370.000000"
 preserveAspectRatio="xMidYMid meet">
<g transform="translate(0.000000,370.000000) scale(0.100000,-0.100000)"
fill="#000000" stroke="none"><path fill="#ffffff" stroke="none" d="M0 1850 l0 -1850 1850 0 1850 0 0 1850
0 1850 -1850 0 -1850 0 0 -1850z"/>
<path fill="#000000" stroke="none" d="M2223 2528 l-6 -291 459 6 c252 4 480
10 507 13 l47 7 0 -135 0 -135 -462 5 c-421 4 -461 3 -455 -11 14 -36 137
-225 212 -325 85 -115 302 -338 427 -440 95 -77 201 -143 346 -216 62 -31 112
-60 112 -64 0 -4 -18 -26 -41 -47 -49 -49 -102 -118 -138 -185 l-27 -50 -145
107 c-372 275 -574 478 -772 778 -43 66 -81 122 -84 125 -7 7 5 -1206 13
-1292 l7 -68 -149 0 -149 0 3 732 3 733 -64 -121 c-203 -383 -390 -636 -695
-942 l-122 -123 -56 60 c-30 33 -86 84 -125 113 -38 29 -69 55 -69 58 1 3 42
33 93 67 182 121 308 247 482 478 138 183 254 380 323 547 18 42 32 80 32 84
0 4 -169 5 -375 2 l-375 -5 0 135 0 134 32 -6 c18 -3 233 -9 477 -12 l444 -7
-5 291 -5 292 154 0 153 0 -7 -292z"/>
<path fill="#ff0000" stroke="none" d="M1988 3538 c16 -35 37 -85 47 -113 10
-27 21 -54 25 -60 3 -5 12 -28 18 -50 7 -22 20 -67 30 -100 l19 -60 494 0
c272 1 515 4 542 8 l47 7 0 -128 0 -127 -1205 3 -1205 2 0 -372 c0 -493 -24
-917 -69 -1253 -22 -162 -97 -464 -140 -560 -5 -11 -26 -63 -47 -115 -31 -78
-120 -275 -130 -289 -2 -2 -34 20 -72 48 -38 28 -72 51 -76 51 -3 0 -26 13
-51 28 -41 25 -44 30 -31 47 33 48 109 200 149 301 93 228 138 427 174 764 15
141 18 268 18 873 l0 707 639 0 638 0 -7 38 c-8 42 -50 166 -88 257 l-25 60
52 12 c71 18 167 52 206 74 8 4 16 8 17 8 1 1 15 -27 31 -61z"/>
<path fill="#ff0000" stroke="none" d="M1133 1993 c-7 -2 -19 -2 -25 0 -7 3
-2 5 12 5 14 0 19 -2 13 -5z"/>
<path fill="#ff0000" stroke="none" d="M3073 1993 c-7 -2 -19 -2 -25 0 -7 3
-2 5 12 5 14 0 19 -2 13 -5z"/>
<path fill="#ff0000" stroke="none" d="M1937 1193 c-1 -109 -2 -22 -2 192 0
215 1 304 2 198 2 -105 2 -281 0 -390z"/>
</g>
</svg>