
<svg version="1.0" xmlns="http://www.w3.org/2000/svg"
 width="370.000000pt" height="370.000000pt" viewBox="0 0 370.000000 370.000000"
 preserveAspectRatio="xMidYMid meet">
<g transform="translate(0.000000,370.000000) scale(0.100000,-0.100000)"
fill="#000000" stroke="none"><path fill="#ffffff" stroke="none" d="M0 1850 l0 -1850 1850 0 1850 0 0 1850
0 1850 -1850 0 -1850 0 0 -1850z"/>
<path fill="#000000" stroke="none" d="M866 2475 c157 -21 158 -21 150 -42
-15 -37 -36 -277 -36 -401 l0 -132 188 2 187 3 -2 210 c-2 116 -5 245 -9 288
l-5 77 146 0 146 0 -5 -32 c-3 -18 -8 -147 -11 -287 l-7 -254 166 5 166 4 0
-139 0 -139 -57 6 c-32 3 -106 9 -165 12 l-108 7 1 -329 c1 -181 4 -386 7
-457 l7 -127 -144 0 -143 0 6 28 c4 15 9 219 13 455 l6 427 -190 0 -189 0 -12
-147 c-17 -211 -51 -388 -109 -563 -49 -150 -228 -487 -316 -594 l-24 -30 -49
36 c-56 41 -131 80 -189 98 -22 7 -44 15 -48 17 -4 3 16 30 44 61 100 110 235
320 293 458 38 89 78 223 100 334 15 76 46 287 46 317 0 14 -24 15 -245 11
l-245 -5 0 131 0 131 247 -4 246 -3 -7 297 c-5 249 -4 296 7 292 8 -3 72 -13
143 -22z"/>
<path fill="#ff0000" stroke="none" d="M2162 3583 l118 -5 -7 -320 -6 -320
539 4 c296 3 547 8 557 12 16 8 17 -2 17 -121 l0 -129 -550 4 -550 4 0 -28 c0
-16 5 -90 10 -164 9 -118 16 -182 45 -425 18 -149 66 -427 89 -515 47 -183 63
-230 77 -230 24 0 177 375 229 560 7 25 16 56 21 70 13 37 78 294 95 375 8 39
17 80 20 93 l5 23 32 -20 c43 -26 205 -91 229 -91 31 0 30 -21 -2 -111 -17
-46 -45 -121 -61 -167 -16 -45 -33 -90 -39 -100 -5 -9 -30 -73 -55 -142 -43
-115 -64 -166 -86 -212 -5 -10 -9 -22 -9 -28 0 -5 -12 -35 -26 -67 -14 -32
-30 -67 -34 -78 -4 -11 -46 -99 -94 -196 -47 -97 -86 -182 -86 -189 0 -11 63
-106 80 -120 3 -3 19 -23 36 -44 52 -70 87 -109 167 -189 72 -72 81 -78 114
-75 35 3 37 6 59 66 12 35 30 98 40 140 9 42 21 93 25 112 l9 36 87 -43 c49
-24 105 -48 126 -54 21 -5 40 -16 43 -24 10 -26 -59 -221 -123 -346 -56 -109
-120 -177 -189 -202 -54 -19 -73 -16 -156 22 -100 45 -290 228 -414 396 -16
22 -35 46 -42 53 -6 8 -17 22 -22 33 -6 10 -14 19 -18 19 -5 0 -75 -67 -158
-148 -82 -82 -176 -171 -209 -198 -33 -27 -69 -57 -80 -66 -51 -43 -178 -138
-185 -138 -4 0 -15 11 -24 25 -9 14 -53 61 -97 105 l-81 79 48 25 c218 116
431 290 607 495 38 45 42 72 16 121 -21 41 -87 268 -119 415 -15 68 -58 307
-69 380 -33 234 -42 300 -50 390 -6 55 -15 147 -21 205 -5 58 -10 120 -10 139
l0 33 -842 -6 c-464 -3 -864 -8 -890 -12 l-48 -6 0 137 c0 127 1 137 18 129 9
-4 404 -10 877 -12 l861 -4 -4 333 -4 332 23 -7 c13 -5 77 -10 141 -13z"/>
<path fill="#ff0000" stroke="none" d="M2939 3455 c82 -123 174 -292 166 -306
-3 -4 -17 -10 -32 -13 -16 -4 -70 -28 -122 -54 -75 -37 -95 -44 -99 -32 -11
32 -132 264 -147 280 -8 9 -15 22 -15 28 0 7 -4 12 -9 12 -5 0 -12 8 -15 18
-4 10 -15 28 -26 39 -19 21 -19 21 18 41 59 31 108 59 149 86 21 14 40 25 43
25 3 1 43 -55 89 -124z"/>
<path fill="#ff0000" stroke="none" d="M1627 2458 c-3 -8 -6 -5 -6 6 -1 11 2
17 5 13 3 -3 4 -12 1 -19z"/>
<path fill="#ff0000" stroke="none" d="M717 2303 c-3 -10 -5 -4 -5 12 0 17 2
24 5 18 2 -7 2 -21 0 -30z"/>
<path fill="#ff0000" stroke="none" d="M1617 2148 c-2 -13 -4 -3 -4 22 0 25 2
35 4 23 2 -13 2 -33 0 -45z"/>
<path fill="#ff0000" stroke="none" d="M673 1903 c-24 -2 -62 -2 -85 0 -24 2
-5 4 42 4 47 0 66 -2 43 -4z"/>
<path fill="#ff0000" stroke="none" d="M1693 1903 c-13 -2 -35 -2 -50 0 -16 2
-5 4 22 4 28 0 40 -2 28 -4z"/>
<path fill="#ff0000" stroke="none" d="M1617 933 c-3 -10 -5 -4 -5 12 0 17 2
24 5 18 2 -7 2 -21 0 -30z"/>
</g>
</svg>