
<svg version="1.0" xmlns="http://www.w3.org/2000/svg"
 width="370.000000pt" height="370.000000pt" viewBox="0 0 370.000000 370.000000"
 preserveAspectRatio="xMidYMid meet">
<g transform="translate(0.000000,370.000000) scale(0.100000,-0.100000)"
fill="#000000" stroke="none"><path fill="#ffffff" stroke="none" d="M0 1850 l0 -1850 1850 0 1850 0 0 1850
0 1850 -1850 0 -1850 0 0 -1850z"/>
<path fill="#000000" stroke="none" d="M2009 3523 c18 -65 41 -149 52 -187
l20 -69 567 7 c312 3 584 9 605 12 l37 6 0 -112 0 -112 -42 7 c-24 3 -602 9
-1286 11 l-1242 6 6 -564 c9 -763 -4 -980 -82 -1408 -42 -226 -100 -426 -201
-693 l-56 -147 -26 17 c-14 10 -73 46 -131 80 -58 35 -110 66 -117 70 -8 6 1
30 32 83 101 171 214 455 253 640 68 314 86 564 87 1180 0 289 -4 614 -8 723
l-8 197 661 0 c393 0 660 4 660 9 0 5 -18 71 -40 147 -21 76 -38 139 -37 140
1 1 52 14 112 29 61 15 117 31 125 36 8 4 18 9 21 9 4 0 21 -53 38 -117z"/>
<path fill="#000000" stroke="none" d="M1625 2958 c-2 -18 -7 -74 -9 -125 l-6
-91 140 5 140 6 0 -92 0 -91 -142 0 -141 0 7 -342 c4 -189 8 -354 9 -368 l2
-25 -125 -3 -126 -3 4 283 3 283 -41 -75 c-55 -99 -154 -242 -252 -363 l-79
-98 -47 39 c-26 22 -75 57 -109 79 l-62 40 79 62 c108 85 221 206 284 304 52
80 96 159 96 173 0 4 -81 4 -180 1 l-180 -5 0 97 0 98 247 -5 246 -5 -6 127
-6 126 129 0 129 0 -4 -32z"/>
<path fill="#000000" stroke="none" d="M2720 2968 c0 -7 -6 -44 -14 -83 -8
-38 -17 -87 -21 -109 l-6 -38 290 3 291 4 0 -98 0 -98 -97 5 c-250 14 -373 16
-373 8 0 -25 91 -145 168 -222 117 -115 233 -190 441 -281 l33 -15 -58 -44
c-33 -24 -85 -68 -116 -98 l-57 -54 -43 37 c-24 21 -95 82 -158 136 -111 95
-196 187 -274 297 -21 28 -40 52 -44 52 -7 0 6 -463 14 -512 l7 -38 -122 0
-121 0 6 248 7 247 -81 -122 c-83 -124 -178 -229 -291 -322 l-63 -52 -67 63
c-36 35 -79 73 -94 84 l-29 20 129 96 c207 155 292 247 372 405 17 34 31 65
31 69 0 4 -81 4 -180 1 l-180 -5 0 98 0 97 226 -5 225 -5 -7 122 -7 121 132 0
c98 0 131 -3 131 -12z"/>
<path fill="#000000" stroke="none" d="M1862 2388 c134 -178 127 -152 50 -214
-37 -30 -71 -52 -77 -51 -11 4 -195 237 -195 247 0 13 122 140 130 135 4 -3
46 -56 92 -117z"/>
<path fill="#000000" stroke="none" d="M1861 1843 c8 -9 63 -56 122 -105 60
-49 103 -90 95 -92 -135 -42 -260 -107 -378 -196 -110 -83 -161 -116 -253
-166 l-82 -44 58 0 c32 0 204 5 383 11 179 6 328 8 331 6 3 -3 -49 -46 -116
-95 l-120 -89 -218 -6 c-232 -7 -478 -29 -602 -52 -41 -8 -75 -14 -77 -12 -2
3 -84 276 -84 282 0 3 7 5 15 5 28 0 192 68 317 130 194 98 340 203 508 367
41 40 78 73 81 73 4 0 13 -7 20 -17z"/>
<path fill="#ff0000" stroke="none" d="M3028 3273 c-10 -2 -26 -2 -35 0 -10 3
-2 5 17 5 19 0 27 -2 18 -5z"/>
<path fill="#ff0000" stroke="none" d="M1617 2808 c-3 -8 -6 -5 -6 6 -1 11 2
17 5 13 3 -3 4 -12 1 -19z"/>
<path fill="#ff0000" stroke="none" d="M1228 2563 c-16 -2 -40 -2 -55 0 -16 2
-3 4 27 4 30 0 43 -2 28 -4z"/>
<path fill="#ff0000" stroke="none" d="M2358 2563 c-16 -2 -40 -2 -55 0 -16 2
-3 4 27 4 30 0 43 -2 28 -4z"/>
<path fill="#ff0000" stroke="none" d="M2988 2563 c-15 -2 -42 -2 -60 0 -18 2
-6 4 27 4 33 0 48 -2 33 -4z"/>
<path fill="#ff0000" stroke="none" d="M2107 2554 c-3 -3 -12 -4 -19 -1 -8 3
-5 6 6 6 11 1 17 -2 13 -5z"/>
<path fill="#ff0000" stroke="none" d="M1387 2193 c-2 -38 -3 -7 -3 67 0 74 1
105 3 68 2 -38 2 -98 0 -135z"/>
<path fill="#ff0000" stroke="none" d="M2881 2133 c13 -16 12 -17 -3 -4 -17
13 -22 21 -14 21 2 0 10 -8 17 -17z"/>
<path fill="#ff0000" stroke="none" d="M1617 2058 c-3 -8 -6 -5 -6 6 -1 11 2
17 5 13 3 -3 4 -12 1 -19z"/>
<path fill="#ff0000" stroke="none" d="M1627 1848 c-3 -8 -6 -5 -6 6 -1 11 2
17 5 13 3 -3 4 -12 1 -19z"/>
<path fill="#ff0000" stroke="none" d="M2770 1374 c-14 -6 -43 -17 -65 -24
-57 -17 -115 -43 -115 -50 0 -4 -12 -12 -27 -19 -16 -7 -35 -19 -43 -27 -50
-47 -372 -263 -504 -338 -22 -13 -87 -51 -144 -85 -56 -33 -105 -61 -109 -61
-3 0 -14 -6 -22 -14 -9 -7 -47 -30 -86 -51 -112 -59 -114 -71 -9 -56 313 45
675 77 967 87 145 5 197 10 197 19 0 7 -35 66 -78 131 -43 66 -81 124 -85 130
-6 11 69 61 161 108 39 20 48 15 77 -41 10 -21 24 -45 31 -53 6 -8 24 -37 38
-65 15 -27 31 -57 37 -65 25 -40 169 -292 169 -296 0 -2 23 -45 51 -95 28 -50
49 -92 48 -93 -9 -8 -120 -56 -129 -56 -6 0 -10 -4 -10 -10 0 -5 -5 -10 -12
-10 -6 0 -20 -8 -30 -17 -11 -10 -22 -13 -28 -7 -4 5 -37 63 -71 129 -34 66
-64 122 -65 124 -2 2 -79 -2 -171 -8 -92 -6 -240 -16 -328 -22 -88 -5 -232
-16 -320 -25 -88 -8 -209 -19 -270 -25 -171 -15 -291 -29 -395 -45 -52 -8
-126 -19 -165 -25 -38 -5 -99 -16 -135 -24 -36 -8 -79 -16 -96 -19 -18 -3 -43
-8 -58 -12 -22 -5 -26 -3 -26 14 0 12 -4 31 -9 44 -5 13 -21 63 -36 112 -30
97 -28 106 29 106 16 0 47 5 70 11 22 6 66 17 96 25 108 27 206 56 240 71 47
20 244 117 250 123 3 3 30 18 60 34 30 16 78 44 105 61 28 18 76 49 108 69 32
20 55 41 52 46 -4 6 -3 10 2 9 17 -4 43 14 36 25 -3 6 -3 8 2 4 11 -11 47 11
39 24 -4 6 -3 8 3 5 6 -4 19 1 29 9 10 9 12 12 4 8 -9 -4 -12 -3 -7 2 5 5 16
9 25 9 9 0 16 6 14 13 -1 6 1 11 5 10 14 -2 43 14 38 21 -2 4 1 8 8 8 7 0 61
33 120 73 77 53 139 106 218 188 60 63 109 118 109 122 0 5 53 -44 118 -108
116 -116 117 -117 92 -128z"/>
</g>
</svg>