
<svg version="1.0" xmlns="http://www.w3.org/2000/svg"
 width="370.000000pt" height="370.000000pt" viewBox="0 0 370.000000 370.000000"
 preserveAspectRatio="xMidYMid meet">
<g transform="translate(0.000000,370.000000) scale(0.100000,-0.100000)"
fill="#000000" stroke="none"><path fill="#ffffff" stroke="none" d="M0 1850 l0 -1850 1850 0 1850 0 0 1850
0 1850 -1850 0 -1850 0 0 -1850z"/>
<path fill="#000000" stroke="none" d="M1190 3504 c69 -25 135 -50 148 -55
l23 -9 -26 -27 c-51 -54 -90 -119 -151 -253 l-62 -135 1039 -3 1039 -2 0 -47
c0 -27 -5 -131 -10 -233 -6 -102 -17 -313 -25 -470 -8 -157 -20 -359 -25 -450
-5 -91 -14 -248 -20 -350 -45 -817 -44 -805 -91 -905 -48 -100 -103 -148 -217
-189 -83 -29 -226 -67 -355 -92 -101 -20 -101 -20 -112 55 -8 53 -64 179 -100
227 -14 18 -25 35 -25 38 0 3 57 6 128 6 144 0 295 16 332 35 35 18 54 42 83
100 38 77 45 130 57 400 12 281 36 809 50 1110 5 110 12 269 16 353 l7 152
-945 0 -944 0 -49 -87 c-120 -216 -304 -507 -416 -660 l-39 -52 -77 39 c-42
22 -106 49 -142 61 -36 12 -68 23 -70 25 -2 2 27 36 64 76 293 314 639 941
720 1303 24 108 23 105 48 95 12 -5 78 -30 147 -56z"/>
<path fill="#ff0000" stroke="none" d="M1314 2158 c108 -90 325 -304 506 -499
58 -62 137 -146 175 -187 39 -41 71 -79 73 -86 1 -6 -14 -20 -35 -31 -21 -11
-43 -24 -49 -30 -7 -5 -24 -19 -40 -30 -15 -11 -45 -37 -66 -59 -22 -21 -40
-36 -42 -35 -1 2 -16 22 -32 44 -194 264 -546 640 -719 769 -19 15 -19 16 20
48 22 18 64 56 95 85 30 29 57 53 59 53 2 0 26 -19 55 -42z"/>
<path fill="#ff0000" stroke="none" d="M2857 1918 c-3 -8 -6 -5 -6 6 -1 11 2
17 5 13 3 -3 4 -12 1 -19z"/>
<path fill="#ff0000" stroke="none" d="M3137 1748 c-3 -8 -6 -5 -6 6 -1 11 2
17 5 13 3 -3 4 -12 1 -19z"/>
<path fill="#ff0000" stroke="none" d="M2817 1018 c-3 -8 -6 -5 -6 6 -1 11 2
17 5 13 3 -3 4 -12 1 -19z"/>
</g>
</svg>