
<svg version="1.0" xmlns="http://www.w3.org/2000/svg"
 width="370.000000pt" height="370.000000pt" viewBox="0 0 370.000000 370.000000"
 preserveAspectRatio="xMidYMid meet">
<g transform="translate(0.000000,370.000000) scale(0.100000,-0.100000)"
fill="#000000" stroke="none"><path fill="#ffffff" stroke="none" d="M0 1850 l0 -1850 1850 0 1850 0 0 1850
0 1850 -1850 0 -1850 0 0 -1850z"/>
<path fill="#000000" stroke="none" d="M3180 3180 l0 -125 -1375 0 -1375 0 0
125 0 125 1375 0 1375 0 0 -125z"/>
<path fill="#000000" stroke="none" d="M1950 1734 l0 -266 500 4 500 3 0 -134
0 -134 -57 7 c-32 3 -257 9 -500 13 l-443 6 0 -262 0 -262 705 3 705 3 0 -130
0 -130 -1560 0 -1560 0 0 130 0 130 715 -3 715 -3 0 262 0 262 -477 -7 c-263
-4 -495 -9 -515 -12 l-38 -6 0 133 0 134 515 -4 515 -3 0 256 c0 141 1 257 3
257 1 1 61 5 132 8 72 4 133 8 138 9 4 1 7 -118 7 -264z"/>
<path fill="#ff0000" stroke="none" d="M1572 3052 c2 -5 38 -35 82 -68 43 -32
93 -70 110 -83 l32 -25 -79 -69 c-43 -38 -142 -135 -220 -215 -208 -214 -264
-271 -339 -339 -38 -34 -68 -65 -68 -69 0 -11 805 5 1060 21 124 8 258 15 298
15 39 0 72 4 72 8 0 4 -72 82 -159 173 -139 143 -158 166 -143 176 8 7 50 47
93 88 l76 75 214 -218 c261 -266 483 -500 505 -530 14 -21 14 -23 -8 -31 -28
-11 -65 -40 -136 -106 l-54 -50 -117 124 -117 124 -164 -11 c-381 -26 -477
-32 -517 -32 -24 0 -43 -3 -43 -7 0 -8 -56 -10 -310 -11 -69 -1 -199 -8 -290
-17 -91 -9 -217 -20 -280 -26 -111 -10 -236 -30 -311 -50 -48 -12 -69 -11 -69
2 0 6 -7 27 -16 47 -9 21 -20 46 -24 57 -5 11 -20 45 -34 75 l-25 55 22 9 c12
4 31 12 42 16 11 4 47 20 80 36 264 123 635 541 710 798 15 50 19 55 48 59 60
7 75 7 79 -1z"/>
<path fill="#ff0000" stroke="none" d="M773 1473 c-7 -2 -19 -2 -25 0 -7 3 -2
5 12 5 14 0 19 -2 13 -5z"/>
<path fill="#ff0000" stroke="none" d="M2833 1473 c-7 -2 -19 -2 -25 0 -7 3
-2 5 12 5 14 0 19 -2 13 -5z"/>
<path fill="#ff0000" stroke="none" d="M2283 463 c-281 -2 -745 -2 -1030 0
-285 1 -54 2 512 2 567 0 800 -1 518 -2z"/>
</g>
</svg>