
<svg version="1.0" xmlns="http://www.w3.org/2000/svg"
 width="370.000000pt" height="370.000000pt" viewBox="0 0 370.000000 370.000000"
 preserveAspectRatio="xMidYMid meet">
<g transform="translate(0.000000,370.000000) scale(0.100000,-0.100000)"
fill="#000000" stroke="none"><path fill="#ffffff" stroke="none" d="M0 1850 l0 -1850 1850 0 1850 0 0 1850
0 1850 -1850 0 -1850 0 0 -1850z"/>
<path fill="#000000" stroke="none" d="M1828 3546 c37 -18 105 -46 152 -61 47
-16 86 -29 88 -30 1 -1 -11 -24 -28 -51 -29 -47 -191 -389 -205 -433 l-6 -21
710 0 710 0 -40 -117 c-22 -65 -53 -167 -70 -228 -38 -135 -168 -545 -173
-545 -3 0 -56 11 -120 25 -64 14 -127 25 -142 25 -19 0 -25 4 -20 15 29 78
176 554 176 574 0 8 -147 11 -559 11 l-559 0 -85 -162 c-94 -182 -162 -300
-244 -431 l-55 -87 -36 29 c-34 26 -161 92 -205 105 -16 5 -13 12 23 54 111
125 265 400 386 687 59 140 194 528 194 557 0 16 31 118 36 118 2 0 35 -15 72
-34z"/>
<path fill="#000000" stroke="none" d="M2055 2395 c33 -7 108 -20 168 -27 88
-10 106 -15 102 -28 -51 -168 -68 -371 -41 -512 33 -176 113 -375 204 -511
161 -237 512 -526 840 -689 67 -34 122 -62 122 -63 0 -2 -35 -38 -78 -81 -43
-44 -92 -103 -108 -131 -16 -29 -32 -53 -37 -53 -15 0 -236 146 -363 241 -305
227 -506 465 -656 775 -56 116 -63 125 -71 103 -6 -13 -38 -82 -73 -154 -70
-148 -145 -263 -246 -382 -142 -168 -487 -439 -722 -569 l-63 -34 -42 55 c-23
30 -69 84 -103 120 -33 36 -59 67 -57 68 2 2 69 35 149 75 243 119 451 270
623 452 193 206 308 458 362 792 10 68 15 169 15 333 0 129 3 235 8 235 4 0
34 -7 67 -15z"/>
<path fill="#000000" stroke="none" d="M943 1912 c34 -27 90 -68 125 -91 34
-23 62 -43 62 -45 0 -2 -92 -156 -203 -342 -210 -350 -502 -849 -513 -878 -3
-9 -10 -16 -15 -16 -7 0 -83 57 -252 191 -20 16 -19 17 34 80 231 273 414 559
590 924 48 99 90 190 93 203 4 12 9 22 12 22 2 0 32 -22 67 -48z"/>
<path fill="#ff0000" stroke="none" d="M545 3255 c64 -81 119 -150 125 -155 3
-3 19 -23 35 -45 16 -22 35 -47 41 -55 79 -99 103 -131 129 -165 16 -22 35
-47 42 -55 7 -8 46 -62 87 -120 l73 -104 -96 -67 c-53 -37 -103 -74 -110 -83
-23 -27 -35 -19 -76 50 -35 60 -182 275 -219 321 -8 10 -70 88 -137 173 -68
85 -131 164 -141 174 -16 18 -16 20 25 49 23 17 44 33 47 36 3 4 30 26 60 51
30 25 57 49 59 54 2 5 9 3 15 -6 6 -8 25 -32 41 -53z"/>
<path fill="#ff0000" stroke="none" d="M1987 2078 c-2 -18 -4 -6 -4 27 0 33 2
48 4 33 2 -15 2 -42 0 -60z"/>
<path fill="#ff0000" stroke="none" d="M2641 1133 c13 -16 12 -17 -3 -4 -10 7
-18 15 -18 17 0 8 8 3 21 -13z"/>
<path fill="#ff0000" stroke="none" d="M2685 1090 c10 -11 16 -20 13 -20 -3 0
-13 9 -23 20 -10 11 -16 20 -13 20 3 0 13 -9 23 -20z"/>
</g>
</svg>