
<svg version="1.0" xmlns="http://www.w3.org/2000/svg"
 width="370.000000pt" height="370.000000pt" viewBox="0 0 370.000000 370.000000"
 preserveAspectRatio="xMidYMid meet">
<g transform="translate(0.000000,370.000000) scale(0.100000,-0.100000)"
fill="#000000" stroke="none"><path fill="#ffffff" stroke="none" d="M0 1850 l0 -1850 1850 0 1850 0 0 1850
0 1850 -1850 0 -1850 0 0 -1850z"/>
<path fill="#000000" stroke="none" d="M2976 1852 c-8 -102 -8 -1251 0 -1382
l7 -100 -166 0 -167 0 0 130 0 130 -860 0 -860 0 0 -155 0 -155 -157 0 -158 0
0 805 0 805 1184 0 1184 0 -7 -78z"/>
<path fill="#ffffff" stroke="none" d="M930 1285 l0 -395 860 0 860 0 0 395 0
395 -860 0 -860 0 0 -395z"/>
<path fill="#ff0000" stroke="none" d="M1986 3498 c-19 -158 -25 -273 -26
-456 l0 -204 658 6 c361 3 701 9 755 13 l97 8 0 -145 0 -145 -92 8 c-51 4
-391 10 -755 13 l-663 6 0 -331 0 -331 -145 0 -145 0 0 331 0 331 -667 -6
c-368 -4 -712 -9 -765 -12 l-98 -5 0 143 0 143 107 -8 c60 -4 404 -10 766 -13
l657 -6 0 269 c0 198 -4 286 -15 338 -25 115 -41 105 161 105 l177 0 -7 -52z"/>
</g>
</svg>