
<svg version="1.0" xmlns="http://www.w3.org/2000/svg"
 width="370.000000pt" height="370.000000pt" viewBox="0 0 370.000000 370.000000"
 preserveAspectRatio="xMidYMid meet">
<g transform="translate(0.000000,370.000000) scale(0.100000,-0.100000)"
fill="#000000" stroke="none"><path fill="#ffffff" stroke="none" d="M0 1850 l0 -1850 1850 0 1850 0 0 1850
0 1850 -1850 0 -1850 0 0 -1850z"/>
<path fill="#000000" stroke="none" d="M1947 2503 c-11 -70 -29 -432 -23 -449
6 -16 49 -17 594 -10 323 3 629 9 680 13 l92 6 0 -134 0 -134 -576 4 c-482 2
-575 1 -568 -10 128 -217 359 -474 540 -601 179 -126 433 -254 629 -318 55
-18 103 -35 107 -37 4 -2 -20 -36 -53 -76 -33 -39 -79 -102 -102 -139 -23 -37
-47 -67 -53 -68 -6 0 -105 47 -220 104 -303 152 -519 299 -665 454 -113 119
-324 404 -378 510 -12 23 -24 42 -28 42 -8 0 5 -1220 13 -1313 l7 -67 -156 0
-155 0 5 702 c6 697 5 703 -14 678 -10 -14 -50 -70 -88 -125 -110 -159 -260
-340 -385 -465 -183 -183 -454 -392 -684 -526 l-90 -53 -60 66 c-33 36 -88 87
-122 113 l-63 47 145 71 c435 215 736 473 1030 885 46 64 84 120 84 123 0 3
-248 4 -550 2 l-550 -3 0 133 0 133 153 -7 c83 -4 386 -7 672 -8 l520 -1 -3
248 -4 247 162 0 163 0 -6 -37z"/>
<path fill="#ff0000" stroke="none" d="M1792 3493 c35 -49 85 -119 111 -158
26 -38 50 -74 55 -80 4 -5 18 -26 30 -46 l22 -36 -48 -24 c-26 -13 -76 -44
-112 -69 l-65 -45 725 -3 725 -2 0 -380 0 -380 -142 0 -143 0 0 260 0 260
-1165 0 -1165 0 0 -230 0 -230 -143 0 -143 0 9 103 c10 113 4 552 -8 580 -7
16 31 17 709 17 404 0 716 4 716 9 0 5 -7 14 -15 21 -8 7 -15 19 -15 26 0 8
-3 14 -7 14 -5 0 -17 18 -27 40 -11 22 -22 40 -26 40 -4 0 -12 11 -18 25 -7
14 -46 73 -87 131 -74 105 -84 124 -66 124 18 0 136 60 176 90 22 16 43 29 46
30 4 0 35 -39 71 -87z"/>
<path fill="#ff0000" stroke="none" d="M403 2053 c-7 -2 -19 -2 -25 0 -7 3 -2
5 12 5 14 0 19 -2 13 -5z"/>
<path fill="#ff0000" stroke="none" d="M3197 2054 c-3 -3 -12 -4 -19 -1 -8 3
-5 6 6 6 11 1 17 -2 13 -5z"/>
<path fill="#ff0000" stroke="none" d="M793 2043 c-23 -2 -64 -2 -90 0 -26 2
-7 3 42 3 50 0 71 -1 48 -3z"/>
<path fill="#ff0000" stroke="none" d="M2833 2043 c-29 -2 -78 -2 -110 0 -32
2 -8 3 52 3 61 0 87 -1 58 -3z"/>
<path fill="#ff0000" stroke="none" d="M1937 343 c-3 -10 -5 -4 -5 12 0 17 2
24 5 18 2 -7 2 -21 0 -30z"/>
</g>
</svg>