
<svg version="1.0" xmlns="http://www.w3.org/2000/svg"
 width="370.000000pt" height="370.000000pt" viewBox="0 0 370.000000 370.000000"
 preserveAspectRatio="xMidYMid meet">
<g transform="translate(0.000000,370.000000) scale(0.100000,-0.100000)"
fill="#000000" stroke="none"><path fill="#ffffff" stroke="none" d="M0 1850 l0 -1850 1850 0 1850 0 0 1850
0 1850 -1850 0 -1850 0 0 -1850z"/>
<path fill="#000000" stroke="none" d="M3300 2085 l0 -120 -572 3 c-315 2
-593 2 -617 0 l-44 -3 87 -118 c126 -173 214 -276 360 -423 264 -265 489 -391
945 -530 8 -3 -12 -21 -46 -43 -33 -21 -76 -58 -95 -82 -36 -43 -88 -137 -88
-157 0 -23 -22 -20 -100 13 -202 86 -433 228 -594 364 -211 178 -405 411 -567
682 -34 57 -66 109 -72 114 -10 11 -2 -1347 9 -1422 l6 -43 -167 0 -167 0 6
33 c17 92 26 387 26 911 l0 579 -64 -100 c-126 -199 -261 -379 -415 -552 -114
-127 -449 -411 -673 -569 l-88 -62 -14 28 c-23 44 -101 127 -167 176 -33 25
-60 48 -59 51 0 3 46 29 102 58 402 206 842 618 1111 1040 l38 58 -591 -3
-590 -3 0 120 0 120 1550 0 1550 0 0 -120z"/>
<path fill="#ff0000" stroke="none" d="M1893 3284 l-6 -306 549 4 c302 3 557
8 567 12 16 8 17 -2 17 -119 0 -117 -1 -127 -17 -119 -10 4 -264 9 -565 12
l-548 4 0 -286 0 -286 -135 0 -135 0 0 286 0 286 -557 -4 c-307 -3 -566 -8
-575 -12 -17 -8 -18 2 -18 118 l0 126 33 -8 c17 -4 275 -7 572 -7 l540 0 3
180 c1 99 -1 235 -5 303 l-8 122 147 0 146 0 -5 -306z"/>
</g>
</svg>