
<svg version="1.0" xmlns="http://www.w3.org/2000/svg"
 width="370.000000pt" height="370.000000pt" viewBox="0 0 370.000000 370.000000"
 preserveAspectRatio="xMidYMid meet">
<g transform="translate(0.000000,370.000000) scale(0.100000,-0.100000)"
fill="#000000" stroke="none"><path fill="#ffffff" stroke="none" d="M0 1850 l0 -1850 1850 0 1850 0 0 1850
0 1850 -1850 0 -1850 0 0 -1850z"/>
<path fill="#000000" stroke="none" d="M3075 2413 c-4 -49 -11 -479 -14 -958
l-6 -870 -28 -57 c-34 -69 -88 -118 -163 -147 -66 -25 -219 -57 -321 -66 l-72
-7 -6 39 c-9 58 -44 182 -70 245 l-23 58 61 -8 c34 -4 108 -7 164 -7 167 0
182 22 182 273 l1 162 -735 0 -735 0 0 -375 0 -376 -152 3 -153 3 2 50 c1 28
5 388 9 801 l7 751 111 129 c61 72 125 148 143 169 l32 40 1 -192 0 -193 735
0 735 0 0 195 0 195 -734 0 -735 0 39 58 c21 31 54 83 74 115 l36 57 811 0
812 0 -8 -87z"/>
<path fill="#ffffff" stroke="none" d="M1317 1643 c-4 -3 -7 -82 -7 -175 l0
-168 735 0 735 0 0 175 0 175 -728 0 c-401 0 -732 -3 -735 -7z"/>
<path fill="#ff0000" stroke="none" d="M1665 3560 c39 -11 102 -28 141 -37
l71 -17 -22 -50 c-12 -28 -34 -91 -49 -141 -15 -49 -33 -110 -41 -135 -8 -25
-15 -53 -15 -63 0 -16 41 -17 815 -15 l815 3 0 -129 c0 -118 -1 -128 -17 -120
-10 5 -396 10 -858 12 -802 3 -840 2 -851 -15 -6 -10 -23 -40 -39 -68 -63
-115 -149 -261 -163 -277 -8 -9 -11 -22 -6 -29 4 -8 3 -10 -4 -5 -11 6 -16 -6
-13 -26 0 -5 -3 -8 -8 -8 -4 0 -21 -19 -36 -42 -16 -24 -37 -55 -47 -71 -10
-15 -16 -32 -13 -37 3 -5 0 -12 -6 -16 -8 -5 -10 -2 -5 7 4 8 -1 3 -12 -11
-11 -13 -18 -28 -16 -32 2 -3 -5 -9 -16 -13 -18 -6 -25 -17 -21 -38 1 -5 -3
-6 -8 -3 -11 7 -62 -59 -53 -69 4 -5 2 -5 -4 -2 -10 6 -48 -37 -49 -55 0 -3
-4 -10 -9 -15 -5 -5 -6 -2 -1 7 4 8 -6 0 -23 -19 -17 -19 -30 -39 -29 -45 1
-6 -3 -10 -9 -11 -7 0 -40 -31 -75 -69 -123 -133 -339 -345 -431 -423 -51 -43
-104 -88 -118 -100 -14 -13 -28 -23 -31 -23 -4 0 -36 28 -71 63 -34 35 -89 81
-121 102 l-58 38 33 21 c18 11 35 23 38 26 3 3 34 25 70 49 194 132 451 364
600 541 30 36 57 67 60 70 4 3 19 23 35 45 17 22 33 42 36 45 41 35 319 476
319 507 0 8 -961 -3 -982 -12 -17 -7 -18 3 -18 121 l0 129 542 -3 543 -3 33
103 c34 108 77 276 87 341 7 44 12 44 110 17z"/>
<path fill="#ff0000" stroke="none" d="M1017 678 c-2 -13 -4 -3 -4 22 0 25 2
35 4 23 2 -13 2 -33 0 -45z"/>
<path fill="#ff0000" stroke="none" d="M1007 378 c-3 -7 -5 -2 -5 12 0 14 2
19 5 13 2 -7 2 -19 0 -25z"/>
</g>
</svg>