
<svg version="1.0" xmlns="http://www.w3.org/2000/svg"
 width="370.000000pt" height="370.000000pt" viewBox="0 0 370.000000 370.000000"
 preserveAspectRatio="xMidYMid meet">
<g transform="translate(0.000000,370.000000) scale(0.100000,-0.100000)"
fill="#000000" stroke="none"><path fill="#ffffff" stroke="none" d="M0 1850 l0 -1850 1850 0 1850 0 0 1850
0 1850 -1850 0 -1850 0 0 -1850z"/>
<path fill="#000000" stroke="none" d="M3275 2723 c-2 -16 -6 -66 -9 -113 -3
-47 -12 -177 -20 -290 -9 -113 -22 -322 -31 -465 -31 -534 -62 -885 -90 -1021
-38 -183 -111 -306 -215 -359 -54 -27 -186 -68 -289 -89 -99 -21 -349 -51
-357 -44 -3 3 -12 37 -20 75 -10 52 -74 200 -121 283 -2 3 75 6 170 6 213 2
313 16 393 55 69 33 110 78 130 145 22 74 55 400 74 729 31 567 40 735 40 797
l0 68 -270 0 -270 0 0 125 0 125 445 0 445 0 -5 -27z"/>
<path fill="#ff0000" stroke="none" d="M1738 3544 c127 -17 133 -18 127 -38
-12 -42 -25 -247 -31 -503 l-7 -263 281 0 282 0 0 -120 0 -120 -280 0 -280 0
0 -27 c0 -16 -7 -80 -15 -143 -8 -63 -20 -153 -27 -200 -9 -71 -31 -184 -78
-400 -4 -19 -12 -46 -17 -60 -6 -14 -16 -43 -23 -65 -35 -115 -176 -421 -210
-455 -3 -3 -27 -39 -55 -80 -27 -41 -74 -104 -104 -140 -65 -79 -254 -267
-308 -306 -21 -16 -63 -49 -93 -75 -30 -25 -111 -85 -180 -132 -69 -48 -130
-90 -135 -94 -6 -5 -24 -16 -41 -25 l-31 -17 -36 44 c-41 49 -204 175 -227
175 -8 1 1 9 20 19 129 66 369 208 390 231 3 3 18 14 33 23 16 10 36 24 45 32
158 125 304 270 393 390 32 44 62 85 67 90 85 115 204 391 240 560 6 28 17 79
25 115 26 118 52 304 63 454 l6 89 -576 -5 -576 -6 0 134 0 134 47 -7 c27 -4
289 -7 583 -7 l535 -1 3 306 c1 168 -1 354 -6 413 l-8 107 36 -5 c19 -3 95
-13 168 -22z"/>
<path fill="#ff0000" stroke="none" d="M2937 2468 c-3 -8 -6 -5 -6 6 -1 11 2
17 5 13 3 -3 4 -12 1 -19z"/>
<path fill="#ff0000" stroke="none" d="M2917 2078 c-3 -8 -6 -5 -6 6 -1 11 2
17 5 13 3 -3 4 -12 1 -19z"/>
</g>
</svg>