
<svg version="1.0" xmlns="http://www.w3.org/2000/svg"
 width="370.000000pt" height="370.000000pt" viewBox="0 0 370.000000 370.000000"
 preserveAspectRatio="xMidYMid meet">
<g transform="translate(0.000000,370.000000) scale(0.100000,-0.100000)"
fill="#000000" stroke="none"><path fill="#ffffff" stroke="none" d="M0 1850 l0 -1850 1850 0 1850 0 0 1850
0 1850 -1850 0 -1850 0 0 -1850z"/>
<path fill="#000000" stroke="none" d="M3400 2484 l0 -136 -22 6 c-13 4 -247
9 -520 13 l-498 6 0 -84 c0 -46 -3 -141 -7 -211 l-6 -128 476 0 475 0 -4 -557
c-2 -307 -6 -610 -8 -673 -7 -191 -46 -261 -187 -327 -68 -32 -240 -93 -264
-93 -8 0 -20 24 -30 58 -22 75 -71 175 -112 229 -18 24 -33 45 -33 47 0 2 51
6 113 9 173 8 219 33 238 128 4 24 8 245 9 492 l0 447 -350 0 c-192 0 -350 -3
-350 -7 -1 -5 -5 -27 -9 -50 l-8 -43 56 -47 c119 -99 276 -249 471 -447 67
-69 82 -89 70 -96 -8 -4 -70 -49 -137 -99 l-122 -90 -74 107 c-142 206 -324
429 -337 415 -4 -4 -13 -26 -20 -48 -37 -117 -163 -323 -329 -537 l-83 -108
-53 46 c-58 49 -210 144 -232 144 -24 0 -13 15 58 75 249 212 404 471 442 738
l6 37 -305 0 -304 0 0 -665 0 -665 -137 0 -138 0 0 790 0 790 456 0 456 0 6
122 c4 66 7 162 7 211 l0 90 -477 -8 c-263 -4 -494 -8 -513 -9 l-35 -1 -3 128
-3 128 188 -8 c280 -12 1912 -9 2008 4 44 6 101 11 128 12 l47 1 0 -136z"/>
<path fill="#ff0000" stroke="none" d="M2142 3594 c34 -123 68 -260 68 -278 0
-11 5 -38 11 -58 l10 -38 442 1 c243 0 479 4 525 7 l82 7 0 -125 0 -125 -1170
3 -1170 2 0 -571 c0 -606 -10 -902 -36 -1064 -24 -154 -54 -315 -69 -365 -7
-25 -18 -65 -25 -90 -29 -101 -71 -223 -106 -306 -36 -88 -133 -294 -138 -294
-2 0 -14 9 -27 21 -42 37 -104 77 -162 105 -32 14 -57 28 -57 30 0 2 23 37 50
77 126 186 238 486 279 752 35 221 49 395 32 395 -10 0 -101 -46 -171 -87 -69
-40 -202 -134 -227 -160 l-22 -23 -17 32 c-65 126 -117 225 -124 233 -5 6 50
34 148 74 86 35 217 92 290 127 l132 63 0 433 c-1 393 -4 510 -26 766 l-7 82
627 0 626 0 0 36 c0 53 -42 225 -75 307 -6 15 -1 17 37 17 44 0 226 35 237 45
10 11 25 -2 33 -31z"/>
<path fill="#ff0000" stroke="none" d="M311 2853 c18 -27 44 -62 58 -78 14
-17 40 -48 56 -69 17 -22 67 -86 113 -144 46 -57 82 -106 80 -107 -2 -2 -30
-23 -63 -48 -33 -24 -75 -59 -93 -76 -19 -18 -35 -31 -36 -29 -4 4 -107 154
-126 182 -32 48 -94 132 -104 141 -6 6 -30 35 -53 66 l-42 57 62 52 c34 29 71
63 81 76 11 13 23 24 27 24 5 0 23 -21 40 -47z"/>
<path fill="#ff0000" stroke="none" d="M1473 2363 c-13 -2 -33 -2 -45 0 -13 2
-3 4 22 4 25 0 35 -2 23 -4z"/>
<path fill="#ff0000" stroke="none" d="M3138 2363 c-10 -2 -26 -2 -35 0 -10 3
-2 5 17 5 19 0 27 -2 18 -5z"/>
<path fill="#ff0000" stroke="none" d="M2357 2128 c-3 -7 -5 -2 -5 12 0 14 2
19 5 13 2 -7 2 -19 0 -25z"/>
<path fill="#ff0000" stroke="none" d="M1868 1703 c-81 -2 -216 -2 -300 0 -84
1 -18 3 147 3 165 0 234 -2 153 -3z"/>
</g>
</svg>