
<svg version="1.0" xmlns="http://www.w3.org/2000/svg"
 width="370.000000pt" height="370.000000pt" viewBox="0 0 370.000000 370.000000"
 preserveAspectRatio="xMidYMid meet">
<g transform="translate(0.000000,370.000000) scale(0.100000,-0.100000)"
fill="#000000" stroke="none"><path fill="#ffffff" stroke="none" d="M0 1850 l0 -1850 1850 0 1850 0 0 1850
0 1850 -1850 0 -1850 0 0 -1850z"/>
<path fill="#000000" stroke="none" d="M1561 1013 c85 -87 178 -185 205 -218
70 -83 164 -206 164 -214 0 -4 -26 -25 -57 -48 -32 -22 -82 -62 -111 -88 -45
-40 -55 -46 -66 -34 -7 8 -48 59 -92 114 -43 55 -154 175 -245 267 l-166 168
101 103 c56 57 103 105 106 105 3 1 76 -69 161 -155z"/>
<path fill="#ff0000" stroke="none" d="M1720 3551 c47 -6 115 -13 151 -16 l66
-6 -7 -37 c-4 -20 -12 -55 -17 -77 -21 -78 -53 -506 -53 -694 l0 -103 690 3
690 4 0 -130 0 -130 -655 4 c-460 2 -655 0 -655 -7 0 -6 4 -21 9 -34 5 -13 17
-50 26 -83 10 -33 21 -64 25 -70 4 -5 10 -23 14 -40 10 -39 88 -217 125 -286
17 -30 38 -70 47 -89 10 -19 20 -37 23 -40 7 -6 24 -34 47 -73 30 -55 138
-203 213 -292 227 -270 474 -468 766 -615 76 -39 146 -70 156 -70 11 0 19 -3
19 -7 0 -3 -26 -34 -57 -68 -72 -76 -101 -112 -132 -164 -27 -45 -20 -46 -121
17 -25 15 -60 36 -78 47 -44 27 -284 195 -300 211 -7 7 -34 30 -60 51 -140
113 -300 276 -415 423 -42 53 -146 199 -157 220 -7 14 -16 27 -19 30 -7 6 -16
20 -68 110 -49 85 -80 141 -89 160 -3 8 -13 30 -21 49 -36 80 -71 170 -89 228
-10 35 -22 63 -25 63 -4 0 -11 -12 -17 -27 -5 -16 -21 -60 -36 -98 -14 -39
-26 -74 -26 -77 0 -4 -12 -33 -26 -65 -14 -32 -30 -67 -34 -78 -27 -67 -128
-258 -161 -307 -11 -14 -19 -29 -19 -32 0 -6 -119 -177 -129 -186 -3 -3 -31
-34 -61 -70 -69 -83 -184 -197 -280 -280 -41 -36 -77 -67 -80 -70 -11 -11 -77
-66 -114 -95 -21 -16 -50 -40 -65 -52 -14 -13 -29 -23 -32 -23 -3 0 -19 -11
-35 -25 -16 -14 -32 -25 -36 -25 -4 0 -13 -6 -20 -13 -19 -19 -156 -101 -219
-132 -47 -22 -54 -23 -62 -9 -15 26 -69 86 -132 147 -33 31 -54 57 -47 57 16
0 206 92 210 102 2 5 8 8 13 8 8 0 169 99 179 110 3 3 30 23 60 45 30 22 57
42 60 45 3 3 28 23 55 45 77 60 366 350 400 401 17 24 33 44 38 44 4 0 7 7 7
15 0 8 4 15 8 15 4 0 16 15 27 33 10 17 21 34 25 37 4 3 23 34 43 70 21 36 42
72 47 80 6 8 14 25 20 37 5 12 22 50 38 85 16 35 35 81 42 103 7 22 19 56 26
75 17 43 54 179 65 240 11 55 28 170 29 189 0 11 -102 13 -625 10 l-625 -4 0
130 0 130 629 -3 628 -4 6 23 c11 48 29 560 26 741 l-4 187 35 -4 c19 -2 73
-9 120 -14z"/>
</g>
</svg>