
<svg version="1.0" xmlns="http://www.w3.org/2000/svg"
 width="370.000000pt" height="370.000000pt" viewBox="0 0 370.000000 370.000000"
 preserveAspectRatio="xMidYMid meet">
<g transform="translate(0.000000,370.000000) scale(0.100000,-0.100000)"
fill="#000000" stroke="none"><path fill="#ffffff" stroke="none" d="M0 1850 l0 -1850 1850 0 1850 0 0 1850
0 1850 -1850 0 -1850 0 0 -1850z"/>
<path fill="#000000" stroke="none" d="M2638 1841 c40 -19 71 -38 70 -42 -3
-6 -56 -63 -389 -419 -75 -80 -184 -188 -243 -240 -123 -110 -128 -92 44 -180
384 -195 771 -281 1190 -264 l164 7 -19 -29 c-38 -57 -126 -206 -150 -255 -30
-59 -21 -58 -240 -24 -547 85 -872 195 -1203 405 -78 50 -116 69 -125 62 -28
-22 -292 -170 -408 -228 -191 -96 -266 -122 -673 -240 -314 -92 -336 -98 -339
-93 -2 2 -19 38 -40 80 -21 45 -61 102 -97 141 -68 75 -69 72 40 83 244 24
535 91 795 181 103 37 384 171 467 224 l48 30 -153 152 c-149 148 -269 293
-445 537 l-83 114 83 24 c46 13 109 36 141 50 31 14 59 24 61 22 2 -2 34 -49
71 -104 128 -190 367 -468 496 -576 60 -50 50 -55 208 102 182 182 347 389
450 566 l42 72 82 -61 c45 -33 115 -77 155 -97z"/>
<path fill="#ff0000" stroke="none" d="M2675 3480 c43 -22 86 -40 95 -40 8 0
21 -4 28 -9 10 -6 -2 -16 -40 -36 -72 -38 -178 -119 -293 -224 -39 -36 -181
-160 -218 -191 -11 -8 -33 -28 -50 -43 -18 -16 -42 -35 -54 -44 -13 -8 -23
-21 -23 -28 0 -11 142 -84 623 -321 38 -19 74 -34 80 -34 6 0 18 -6 26 -13 9
-8 36 -22 61 -31 25 -10 68 -28 95 -41 28 -13 67 -30 88 -39 l39 -16 -65 -65
c-41 -42 -77 -90 -98 -133 -18 -37 -34 -68 -35 -70 -2 -4 -46 19 -54 28 -8 9
-139 90 -145 90 -3 0 -24 12 -48 27 -23 14 -141 77 -262 138 -121 62 -267 137
-325 168 -58 30 -125 66 -150 79 -25 12 -48 27 -52 33 -7 10 -45 -7 -75 -34
-48 -43 -252 -187 -318 -226 -27 -15 -52 -31 -55 -35 -5 -7 -259 -132 -370
-183 -30 -13 -85 -39 -122 -56 -37 -17 -70 -31 -73 -31 -3 0 -40 -16 -82 -36
-67 -31 -80 -34 -100 -23 -13 7 -23 16 -23 20 0 22 -190 178 -217 179 -24 0
-13 20 15 26 15 3 65 19 112 36 47 16 99 33 115 37 17 5 55 18 85 31 76 31 84
34 175 70 91 36 237 106 307 147 101 60 193 116 198 122 3 4 26 22 53 41 26
18 47 37 47 42 0 7 -64 39 -252 126 -66 31 -385 162 -503 207 -172 67 -253 98
-283 111 -18 8 -39 14 -47 14 -25 0 -17 14 25 43 22 16 63 55 92 88 29 32 59
59 68 59 8 0 40 -9 70 -21 30 -11 64 -23 75 -26 19 -5 134 -45 180 -63 11 -4
36 -13 55 -20 57 -20 161 -61 217 -87 28 -12 54 -23 57 -23 3 0 39 -16 80 -35
41 -19 77 -35 80 -35 4 0 57 -24 191 -85 86 -39 127 -55 145 -55 32 0 420 376
525 510 33 41 67 84 77 94 10 11 18 24 18 28 0 5 35 -16 78 -47 42 -30 113
-73 157 -95z"/>
</g>
</svg>