
<svg version="1.0" xmlns="http://www.w3.org/2000/svg"
 width="370.000000pt" height="370.000000pt" viewBox="0 0 370.000000 370.000000"
 preserveAspectRatio="xMidYMid meet">
<g transform="translate(0.000000,370.000000) scale(0.100000,-0.100000)"
fill="#000000" stroke="none"><path fill="#ffffff" stroke="none" d="M0 1850 l0 -1850 1850 0 1850 0 0 1850
0 1850 -1850 0 -1850 0 0 -1850z"/>
<path fill="#000000" stroke="none" d="M2230 3509 c36 -12 67 -24 69 -25 2 -2
-19 -28 -47 -59 -41 -47 -212 -327 -212 -348 0 -4 304 -7 676 -7 l677 0 -7
-77 c-4 -43 -11 -364 -16 -713 -9 -613 -17 -854 -40 -1270 -16 -281 -33 -381
-83 -470 -41 -74 -81 -102 -202 -139 -73 -23 -406 -83 -414 -75 -2 2 -14 43
-27 91 -12 49 -40 129 -62 180 l-40 92 156 -6 c319 -12 359 22 381 323 28 380
42 753 48 1267 l6 557 -586 0 -586 0 -146 -217 c-81 -119 -173 -252 -205 -295
l-58 -79 -33 29 c-44 38 -177 124 -217 141 l-31 13 100 112 c276 304 497 680
610 1032 l22 72 101 -53 c56 -29 130 -63 166 -76z"/>
<path fill="#000000" stroke="none" d="M2675 1675 l0 -685 -132 0 -133 0 0
120 0 120 -235 0 -235 0 -2 -162 -3 -163 -130 -3 -130 -3 0 731 0 730 500 0
500 0 0 -685z"/>
<path fill="#000000" stroke="none" d="M943 2128 c3 -29 15 -113 27 -186 11
-74 20 -136 20 -138 0 -11 -179 -205 -309 -334 -132 -131 -334 -310 -351 -310
-3 0 -25 28 -48 63 -22 34 -63 87 -90 117 l-49 54 76 49 c195 128 468 407 648
662 32 45 61 81 64 79 3 -2 9 -27 12 -56z"/>
<path fill="#ffffff" stroke="none" d="M1940 1790 l0 -320 235 0 235 0 0 320
0 320 -235 0 -235 0 0 -320z"/>
<path fill="#ff0000" stroke="none" d="M1327 3548 c10 -16 83 -80 156 -137
l56 -43 -32 -26 c-18 -15 -34 -29 -37 -32 -4 -4 -80 -72 -196 -175 -58 -51
-244 -238 -244 -245 0 -4 18 -66 40 -137 22 -70 45 -144 49 -163 5 -19 16 -62
25 -95 33 -126 81 -407 96 -560 34 -358 38 -581 15 -825 -19 -211 -34 -293
-67 -370 -28 -65 -35 -78 -69 -126 -33 -45 -64 -75 -120 -117 -16 -13 -116
-62 -159 -79 -14 -6 -38 -16 -55 -23 -31 -14 -122 -42 -208 -65 -28 -8 -52 -9
-57 -4 -4 5 -20 38 -35 74 -15 36 -42 95 -61 132 -37 74 -39 69 36 83 44 9
210 55 230 65 8 4 40 19 70 32 68 32 142 96 176 153 63 108 95 358 76 585 -7
74 -12 194 -12 265 0 83 -4 125 -9 116 -6 -10 -8 0 -4 27 4 27 2 42 -5 42 -6
0 -9 7 -6 15 4 8 3 23 -1 33 -4 9 -7 35 -6 57 1 31 -1 37 -9 25 -8 -11 -9 -6
-4 23 3 20 2 37 -3 37 -5 0 -7 19 -5 43 2 33 1 39 -8 27 -9 -12 -10 -8 -5 17
6 29 -1 66 -47 253 -6 25 -19 70 -28 100 -10 30 -23 74 -29 98 -13 47 -19 50
-47 25 -10 -10 -48 -43 -84 -73 -36 -30 -74 -64 -85 -75 -12 -11 -44 -38 -73
-60 -29 -21 -52 -43 -52 -47 0 -4 -6 -8 -14 -8 -8 0 -16 -3 -18 -7 -3 -9 -145
-123 -151 -123 -3 0 -32 38 -65 83 -34 46 -72 95 -86 108 l-25 24 45 27 c24
16 46 28 49 28 4 0 69 42 135 87 42 29 252 199 293 237 l39 35 -45 58 c-60 78
-175 191 -264 257 l-72 54 50 58 c28 31 69 81 91 111 22 29 43 53 47 53 6 0
189 -191 278 -290 22 -25 54 -61 71 -80 l32 -34 32 29 c127 113 336 358 371
433 11 24 32 29 44 10z"/>
<path fill="#ff0000" stroke="none" d="M3377 2683 c-2 -21 -4 -6 -4 32 0 39 2
55 4 38 2 -18 2 -50 0 -70z"/>
<path fill="#ff0000" stroke="none" d="M2433 2353 c-138 -2 -368 -2 -510 0
-142 1 -28 2 252 2 281 0 397 -1 258 -2z"/>
<path fill="#ff0000" stroke="none" d="M1677 2108 c-2 -13 -4 -5 -4 17 -1 22
1 32 4 23 2 -10 2 -28 0 -40z"/>
<path fill="#ff0000" stroke="none" d="M2298 2113 c-64 -2 -172 -2 -240 0 -68
1 -15 3 117 3 132 0 187 -2 123 -3z"/>
<path fill="#ff0000" stroke="none" d="M3087 1963 c-3 -10 -5 -2 -5 17 0 19 2
27 5 18 2 -10 2 -26 0 -35z"/>
<path fill="#ff0000" stroke="none" d="M3057 1218 c-3 -8 -6 -5 -6 6 -1 11 2
17 5 13 3 -3 4 -12 1 -19z"/>
<path fill="#ff0000" stroke="none" d="M1677 1128 c-2 -13 -4 -5 -4 17 -1 22
1 32 4 23 2 -10 2 -28 0 -40z"/>
</g>
</svg>