
<svg version="1.0" xmlns="http://www.w3.org/2000/svg"
 width="370.000000pt" height="370.000000pt" viewBox="0 0 370.000000 370.000000"
 preserveAspectRatio="xMidYMid meet">
<g transform="translate(0.000000,370.000000) scale(0.100000,-0.100000)"
fill="#000000" stroke="none"><path fill="#ffffff" stroke="none" d="M0 1850 l0 -1850 1850 0 1850 0 0 1850
0 1850 -1850 0 -1850 0 0 -1850z"/>
<path fill="#000000" stroke="none" d="M918 3509 l144 -12 -5 -36 c-9 -66 -30
-838 -23 -856 6 -17 53 -18 1009 -11 551 3 1057 9 1125 13 l122 6 0 -133 0
-132 -27 7 c-16 4 -524 9 -1130 12 l-1103 5 0 -220 c0 -120 -3 -247 -6 -281
l-7 -61 859 0 859 0 0 -750 0 -750 -151 0 -151 0 5 625 5 625 -726 0 -726 0
-6 -37 c-16 -99 -62 -282 -102 -408 -99 -308 -208 -541 -341 -727 l-55 -78
-47 44 c-54 51 -100 76 -185 102 -33 10 -62 19 -64 21 -2 1 23 38 57 81 114
147 212 315 272 467 187 471 239 920 225 1968 -7 522 -6 539 11 534 11 -3 84
-11 162 -18z"/>
<path fill="#ff0000" stroke="none" d="M2446 3090 l-1 -500 -150 0 -150 0 0
500 0 500 151 0 151 0 -1 -500z"/>
<path fill="#ff0000" stroke="none" d="M3003 2363 c-7 -2 -21 -2 -30 0 -10 3
-4 5 12 5 17 0 24 -2 18 -5z"/>
<path fill="#ff0000" stroke="none" d="M1027 1898 c-3 -8 -6 -5 -6 6 -1 11 2
17 5 13 3 -3 4 -12 1 -19z"/>
<path fill="#ff0000" stroke="none" d="M2318 1803 c-234 -2 -621 -2 -860 0
-238 1 -46 2 427 2 473 0 668 -1 433 -2z"/>
</g>
</svg>