
<svg version="1.0" xmlns="http://www.w3.org/2000/svg"
 width="370.000000pt" height="370.000000pt" viewBox="0 0 370.000000 370.000000"
 preserveAspectRatio="xMidYMid meet">
<g transform="translate(0.000000,370.000000) scale(0.100000,-0.100000)"
fill="#000000" stroke="none"><path fill="#ffffff" stroke="none" d="M0 1850 l0 -1850 1850 0 1850 0 0 1850
0 1850 -1850 0 -1850 0 0 -1850z"/>
<path fill="#000000" stroke="none" d="M3102 3388 c-9 -122 -9 -2809 1 -2960
l7 -118 -160 0 -160 0 8 63 c9 81 9 3032 0 3075 l-7 32 159 0 160 0 -8 -92z"/>
<path fill="#000000" stroke="none" d="M2043 3118 c-10 -109 -10 -2207 0
-2410 l8 -158 -153 0 -153 0 0 1325 0 1325 153 0 152 0 -7 -82z"/>
<path fill="#ff0000" stroke="none" d="M3107 3428 c-3 -8 -6 -5 -6 6 -1 11 2
17 5 13 3 -3 4 -12 1 -19z"/>
<path fill="#ff0000" stroke="none" d="M940 3385 l125 -7 -7 -72 c-10 -100
-26 -510 -38 -996 -6 -228 -15 -453 -20 -500 -6 -47 -15 -128 -21 -180 -5 -52
-17 -129 -24 -170 -8 -41 -19 -104 -25 -140 -7 -36 -18 -87 -26 -115 -32 -110
-58 -191 -65 -200 -4 -6 -17 -34 -28 -62 -22 -57 -112 -245 -121 -253 -5 -5
-25 -40 -53 -93 -49 -91 -147 -245 -147 -230 0 13 -143 105 -215 138 -33 16
-62 29 -64 31 -2 2 27 41 66 86 152 182 256 367 336 598 115 331 142 621 142
1525 0 303 -4 575 -8 606 l-7 57 38 -8 c20 -5 93 -11 162 -15z"/>
<path fill="#ff0000" stroke="none" d="M2037 2803 c-2 -27 -3 -5 -3 47 0 52 1
74 3 48 2 -27 2 -69 0 -95z"/>
<path fill="#ff0000" stroke="none" d="M2037 958 c-2 -24 -4 -5 -4 42 0 47 2
66 4 43 2 -24 2 -62 0 -85z"/>
<path fill="#ff0000" stroke="none" d="M2047 648 c-3 -8 -6 -5 -6 6 -1 11 2
17 5 13 3 -3 4 -12 1 -19z"/>
<path fill="#ff0000" stroke="none" d="M3107 358 c-3 -7 -5 -2 -5 12 0 14 2
19 5 13 2 -7 2 -19 0 -25z"/>
<path fill="#ff0000" stroke="none" d="M2797 318 c-3 -7 -5 -2 -5 12 0 14 2
19 5 13 2 -7 2 -19 0 -25z"/>
</g>
</svg>