
<svg version="1.0" xmlns="http://www.w3.org/2000/svg"
 width="370.000000pt" height="370.000000pt" viewBox="0 0 370.000000 370.000000"
 preserveAspectRatio="xMidYMid meet">
<g transform="translate(0.000000,370.000000) scale(0.100000,-0.100000)"
fill="#000000" stroke="none"><path fill="#ffffff" stroke="none" d="M0 1850 l0 -1850 1850 0 1850 0 0 1850
0 1850 -1850 0 -1850 0 0 -1850z"/>
<path fill="#000000" stroke="none" d="M1880 1674 l0 -87 543 7 c298 3 561 9
585 12 l42 6 0 -119 0 -119 -585 4 -585 4 0 -172 0 -173 678 6 c372 4 698 10
725 13 l47 7 0 -119 0 -119 -726 4 -727 3 8 -261 7 -261 -140 0 -139 0 5 261
5 261 -707 -3 -706 -4 0 119 0 119 52 -6 c29 -4 347 -10 706 -13 l652 -7 0
173 0 173 -555 -5 -555 -4 0 119 0 119 43 -6 c23 -3 273 -8 555 -12 l512 -7 0
87 0 86 130 0 130 0 0 -86z"/>
<path fill="#ff0000" stroke="none" d="M1879 3488 c-4 -40 -8 -126 -8 -190
l-1 -118 543 0 542 0 -3 -265 -3 -266 246 3 245 3 0 -110 0 -110 -245 3 -246
3 3 -261 3 -260 -542 0 -543 0 0 -75 0 -75 -120 0 -120 0 0 76 0 77 -550 -5
-550 -4 0 101 0 101 550 -4 550 -5 0 167 0 166 -725 -2 -725 -3 0 110 0 110
725 -3 725 -2 0 166 0 166 -535 -4 -535 -4 0 114 c0 105 1 114 18 106 9 -4
251 -9 536 -12 l519 -4 -6 191 -7 191 133 0 133 0 -7 -72z"/>
<path fill="#ff0000" stroke="none" d="M628 1043 c-21 -2 -55 -2 -75 0 -21 2
-4 4 37 4 41 0 58 -2 38 -4z"/>
<path fill="#ff0000" stroke="none" d="M3007 1043 c-20 -2 -52 -2 -70 0 -17 2
0 4 38 4 39 0 53 -2 32 -4z"/>
<path fill="#ff0000" stroke="none" d="M1887 523 c-3 -10 -5 -4 -5 12 0 17 2
24 5 18 2 -7 2 -21 0 -30z"/>
<path fill="#ffffff" stroke="none" d="M1870 2815 l0 -165 410 0 410 0 0 165
0 165 -410 0 -410 0 0 -165z"/>
<path fill="#ffffff" stroke="none" d="M1870 2275 l0 -165 410 0 410 0 0 165
0 165 -410 0 -410 0 0 -165z"/>
</g>
</svg>