
<svg version="1.0" xmlns="http://www.w3.org/2000/svg"
 width="370.000000pt" height="370.000000pt" viewBox="0 0 370.000000 370.000000"
 preserveAspectRatio="xMidYMid meet">
<g transform="translate(0.000000,370.000000) scale(0.100000,-0.100000)"
fill="#000000" stroke="none"><path fill="#ffffff" stroke="none" d="M0 1850 l0 -1850 1850 0 1850 0 0 1850
0 1850 -1850 0 -1850 0 0 -1850z"/>
<path fill="#000000" stroke="none" d="M3143 2943 c-10 -141 -10 -1643 0
-1795 l8 -118 -151 0 -150 0 0 100 0 100 -471 0 -472 0 5 -475 4 -475 -149 0
-149 0 6 28 c3 15 9 228 12 475 l7 447 -461 0 -462 0 0 -120 0 -120 -142 0
-143 0 0 1030 0 1030 1358 0 1358 0 -8 -107z"/>
<path fill="#ffffff" stroke="none" d="M722 2538 l3 -253 458 -3 457 -2 0 255
0 255 -460 0 -460 0 2 -252z"/>
<path fill="#ffffff" stroke="none" d="M1910 2535 l0 -255 470 0 470 0 0 255
0 255 -470 0 -470 0 0 -255z"/>
<path fill="#ffffff" stroke="none" d="M720 1755 l0 -275 460 0 460 0 0 275 0
275 -460 0 -460 0 0 -275z"/>
<path fill="#ffffff" stroke="none" d="M1910 1755 l0 -275 470 0 470 0 0 275
0 275 -470 0 -470 0 0 -275z"/>
<path fill="#ff0000" stroke="none" d="M1908 3518 c-3 -46 -7 -170 -7 -275
l-1 -193 -130 0 -129 0 -3 275 -3 275 140 0 140 0 -7 -82z"/>
<path fill="#ff0000" stroke="none" d="M3137 2683 c-2 -21 -4 -4 -4 37 0 41 2
58 4 38 2 -21 2 -55 0 -75z"/>
<path fill="#ff0000" stroke="none" d="M3137 1353 c-2 -21 -4 -6 -4 32 0 39 2
55 4 38 2 -18 2 -50 0 -70z"/>
<path fill="#ff0000" stroke="none" d="M1637 553 c-3 -10 -5 -4 -5 12 0 17 2
24 5 18 2 -7 2 -21 0 -30z"/>
</g>
</svg>