
<svg version="1.0" xmlns="http://www.w3.org/2000/svg"
 width="370.000000pt" height="370.000000pt" viewBox="0 0 370.000000 370.000000"
 preserveAspectRatio="xMidYMid meet">
<g transform="translate(0.000000,370.000000) scale(0.100000,-0.100000)"
fill="#000000" stroke="none"><path fill="#ffffff" stroke="none" d="M0 1850 l0 -1850 1850 0 1850 0 0 1850
0 1850 -1850 0 -1850 0 0 -1850z"/>
<path fill="#000000" stroke="none" d="M1920 1985 l0 -85 598 0 597 0 0 -520
0 -520 -147 0 -148 0 0 55 0 55 -450 0 -450 0 0 -325 0 -326 -147 3 -148 3 1
25 c1 14 5 159 9 323 l7 297 -436 0 -436 0 0 -55 0 -55 -147 0 -148 0 0 520 0
520 583 0 582 0 0 85 0 85 140 0 140 0 0 -85z"/>
<path fill="#ffffff" stroke="none" d="M770 1445 l0 -245 435 0 435 0 0 245 0
245 -435 0 -435 0 0 -245z"/>
<path fill="#ffffff" stroke="none" d="M1920 1445 l0 -245 450 0 450 0 0 245
0 245 -450 0 -450 0 0 -245z"/>
<path fill="#ff0000" stroke="none" d="M1922 3360 l-3 -220 538 0 538 0 0
-435 0 -435 -537 0 -538 0 0 -95 0 -95 -140 0 -140 0 0 95 0 95 -507 0 -508 0
0 435 0 435 508 0 508 0 -3 220 -3 220 145 0 145 0 -3 -220z"/>
<path fill="#ff0000" stroke="none" d="M767 1317 c-1 -67 -3 -9 -3 128 0 138
2 192 3 122 2 -71 2 -183 0 -250z"/>
<path fill="#ff0000" stroke="none" d="M767 883 c-2 -16 -4 -3 -4 27 0 30 2
43 4 28 2 -16 2 -40 0 -55z"/>
<path fill="#ff0000" stroke="none" d="M1637 623 c-2 -16 -4 -5 -4 22 0 28 2
40 4 28 2 -13 2 -35 0 -50z"/>
<path fill="#ffffff" stroke="none" d="M900 2710 l0 -230 370 0 370 0 0 230 0
230 -370 0 -370 0 0 -230z"/>
<path fill="#ffffff" stroke="none" d="M1920 2710 l0 -230 400 0 400 0 0 230
0 230 -400 0 -400 0 0 -230z"/>
</g>
</svg>