
<svg version="1.0" xmlns="http://www.w3.org/2000/svg"
 width="370.000000pt" height="370.000000pt" viewBox="0 0 370.000000 370.000000"
 preserveAspectRatio="xMidYMid meet">
<g transform="translate(0.000000,370.000000) scale(0.100000,-0.100000)"
fill="#000000" stroke="none"><path fill="#ffffff" stroke="none" d="M0 1850 l0 -1850 1850 0 1850 0 0 1850
0 1850 -1850 0 -1850 0 0 -1850z"/>
<path fill="#000000" stroke="none" d="M2977 2586 c1 0 -3 -170 -9 -376 -10
-370 -4 -1600 9 -1772 l6 -88 -142 0 -141 0 0 140 0 140 -895 0 -895 0 0 -160
0 -160 -145 0 -146 0 8 173 c10 223 10 1951 0 2039 l-8 68 418 2 c369 3 1935
-2 1940 -6z"/>
<path fill="#ffffff" stroke="none" d="M910 2060 l0 -310 895 0 895 0 0 310 0
310 -895 0 -895 0 0 -310z"/>
<path fill="#ffffff" stroke="none" d="M910 1190 l0 -320 893 2 892 3 3 318 2
317 -895 0 -895 0 0 -320z"/>
<path fill="#ff0000" stroke="none" d="M3340 3270 l0 -115 -718 3 -719 2 -16
-37 c-9 -21 -20 -54 -26 -73 -6 -19 -20 -62 -31 -95 -21 -60 -54 -163 -90
-284 -11 -35 -17 -68 -14 -72 3 -5 -59 -9 -138 -9 -83 0 -137 4 -130 9 16 9
87 241 132 429 17 67 30 125 30 128 0 2 -313 3 -695 2 l-695 -3 0 115 0 115
1555 0 1555 0 0 -115z"/>
</g>
</svg>