
<svg version="1.0" xmlns="http://www.w3.org/2000/svg"
 width="370.000000pt" height="370.000000pt" viewBox="0 0 370.000000 370.000000"
 preserveAspectRatio="xMidYMid meet">
<g transform="translate(0.000000,370.000000) scale(0.100000,-0.100000)"
fill="#000000" stroke="none"><path fill="#ffffff" stroke="none" d="M0 1850 l0 -1850 1850 0 1850 0 0 1850
0 1850 -1850 0 -1850 0 0 -1850z"/>
<path fill="#000000" stroke="none" d="M1755 3345 c512 0 976 3 1033 8 l102 7
0 -132 0 -133 -1110 0 -1110 0 0 132 0 133 78 -8 c42 -4 496 -7 1007 -7z"/>
<path fill="#000000" stroke="none" d="M2290 1505 c0 -578 2 -671 15 -703 42
-100 85 -112 390 -112 225 0 233 1 266 23 57 38 100 136 130 297 6 36 13 67
15 68 1 2 44 -17 96 -42 51 -25 120 -53 152 -61 32 -8 60 -16 62 -18 2 -1 -6
-43 -17 -92 -41 -193 -147 -345 -276 -396 -57 -24 -64 -24 -467 -27 -366 -2
-416 -1 -465 15 -73 23 -132 80 -160 156 -21 57 -21 67 -21 807 l0 750 140 0
140 0 0 -665z"/>
<path fill="#ff0000" stroke="none" d="M817 3094 c-3 -3 -12 -4 -19 -1 -8 3
-5 6 6 6 11 1 17 -2 13 -5z"/>
<path fill="#ff0000" stroke="none" d="M2743 3093 c-7 -2 -19 -2 -25 0 -7 3
-2 5 12 5 14 0 19 -2 13 -5z"/>
<path fill="#ff0000" stroke="none" d="M1780 2435 c729 0 1340 3 1358 7 l32 8
0 -146 c0 -136 -1 -146 -17 -138 -10 5 -388 10 -840 12 l-823 4 0 -182 c0
-209 -8 -278 -62 -525 -29 -134 -111 -334 -196 -479 -20 -33 -39 -65 -44 -71
-4 -5 -31 -41 -60 -80 -120 -161 -227 -261 -432 -404 -48 -34 -89 -61 -91 -61
-2 0 -27 -13 -54 -30 l-51 -29 -50 53 c-28 30 -86 80 -130 112 -43 32 -77 61
-75 65 3 3 26 14 52 24 194 73 432 235 555 377 91 107 215 308 241 394 3 10
14 44 25 74 57 157 92 386 92 609 l0 154 -402 -6 c-222 -3 -413 -9 -425 -12
l-23 -7 0 146 0 146 48 -8 c26 -4 643 -7 1372 -7z"/>
</g>
</svg>