
<svg version="1.0" xmlns="http://www.w3.org/2000/svg"
 width="370.000000pt" height="370.000000pt" viewBox="0 0 370.000000 370.000000"
 preserveAspectRatio="xMidYMid meet">
<g transform="translate(0.000000,370.000000) scale(0.100000,-0.100000)"
fill="#000000" stroke="none"><path fill="#ffffff" stroke="none" d="M0 1850 l0 -1850 1850 0 1850 0 0 1850
0 1850 -1850 0 -1850 0 0 -1850z"/>
<path fill="#000000" stroke="none" d="M2155 2630 l0 -360 -715 0 -715 0 0
360 0 360 715 0 715 0 0 -360z"/>
<path fill="#000000" stroke="none" d="M2818 1187 l-3 -643 -26 -49 c-31 -62
-91 -108 -166 -130 -107 -32 -247 -57 -321 -59 l-74 -1 -23 91 c-13 50 -37
124 -54 164 l-30 73 91 -5 c120 -7 221 6 259 33 66 46 64 28 67 627 l3 542
140 0 139 0 -2 -643z"/>
<path fill="#000000" stroke="none" d="M2095 1180 l0 -430 -127 0 -127 0 -3
48 -3 47 -462 3 -463 2 0 -95 0 -95 -146 0 -145 0 7 83 c10 106 10 678 0 785
l-7 82 738 0 739 0 -1 -430z"/>
<path fill="#ffffff" stroke="none" d="M990 2635 l0 -155 460 0 460 0 0 155 0
155 -460 0 -460 0 0 -155z"/>
<path fill="#ffffff" stroke="none" d="M910 1235 l0 -165 465 0 465 0 -2 163
-3 162 -462 3 -463 2 0 -165z"/>
<path fill="#ff0000" stroke="none" d="M3230 3297 l0 -119 -205 8 -205 7 0
-517 0 -516 -145 0 -145 0 0 516 0 516 -1065 -4 -1065 -3 0 115 0 115 1415 0
1415 0 0 -118z"/>
<path fill="#ff0000" stroke="none" d="M2157 2888 c-3 -8 -6 -5 -6 6 -1 11 2
17 5 13 3 -3 4 -12 1 -19z"/>
<path fill="#ff0000" stroke="none" d="M737 2588 c-2 -35 -3 -7 -3 62 0 69 1
97 3 63 2 -35 2 -91 0 -125z"/>
<path fill="#ff0000" stroke="none" d="M3380 1933 l0 -112 -32 7 c-43 9 -3053
9 -3095 0 l-33 -7 0 112 0 112 1580 0 1580 0 0 -112z"/>
</g>
</svg>