
<svg version="1.0" xmlns="http://www.w3.org/2000/svg"
 width="370.000000pt" height="370.000000pt" viewBox="0 0 370.000000 370.000000"
 preserveAspectRatio="xMidYMid meet">
<g transform="translate(0.000000,370.000000) scale(0.100000,-0.100000)"
fill="#000000" stroke="none"><path fill="#ffffff" stroke="none" d="M0 1850 l0 -1850 1850 0 1850 0 0 1850
0 1850 -1850 0 -1850 0 0 -1850z"/>
<path fill="#000000" stroke="none" d="M2865 3523 c10 -42 92 -213 120 -249
l24 -31 -82 -16 c-344 -66 -1302 -192 -1759 -232 l-78 -7 0 -1114 0 -1114
-150 0 -150 0 0 1093 c0 602 -3 1155 -7 1230 l-6 137 84 0 c177 0 600 40 919
85 380 55 827 155 995 223 69 28 82 27 90 -5z"/>
<path fill="#ff0000" stroke="none" d="M3210 2118 l0 -133 -365 3 -365 3 0
-616 0 -616 465 3 465 3 0 -130 0 -130 -1615 0 -1615 0 0 130 0 130 1005 -3
1005 -2 0 615 0 615 -550 0 -550 0 0 125 0 125 1048 3 c576 1 1053 3 1060 5 9
1 12 -30 12 -130z"/>
</g>
</svg>