
<svg version="1.0" xmlns="http://www.w3.org/2000/svg"
 width="370.000000pt" height="370.000000pt" viewBox="0 0 370.000000 370.000000"
 preserveAspectRatio="xMidYMid meet">
<g transform="translate(0.000000,370.000000) scale(0.100000,-0.100000)"
fill="#000000" stroke="none"><path fill="#ffffff" stroke="none" d="M0 1850 l0 -1850 1850 0 1850 0 0 1850
0 1850 -1850 0 -1850 0 0 -1850z"/>
<path fill="#000000" stroke="none" d="M1932 2145 c-4 -112 10 -172 69 -289
52 -103 110 -188 177 -258 l55 -57 71 49 c130 90 284 219 416 349 l130 128
118 -117 119 -118 -53 -22 c-29 -12 -109 -59 -179 -105 -149 -99 -475 -342
-475 -354 0 -11 101 -105 188 -175 192 -153 453 -294 720 -386 l122 -43 -58
-61 c-63 -66 -107 -126 -141 -193 l-21 -43 -98 49 c-462 233 -883 588 -1121
945 l-46 69 -5 -489 c-6 -548 -2 -520 -81 -588 -24 -20 -67 -45 -98 -57 -64
-24 -207 -54 -302 -64 l-67 -6 -17 53 c-10 29 -41 99 -70 155 l-53 102 67 5
c287 24 319 31 341 70 8 16 10 215 8 784 l-3 762 145 0 145 0 -3 -95z"/>
<path fill="#000000" stroke="none" d="M1469 1845 c7 -7 -64 -233 -102 -325
-164 -399 -494 -762 -963 -1060 l-62 -39 -45 59 c-25 32 -75 82 -111 111 -36
29 -66 55 -65 58 0 3 49 29 108 58 278 135 552 363 703 588 57 85 148 253 148
275 0 7 -136 10 -405 10 l-405 0 0 138 0 137 597 -3 c329 -2 600 -5 602 -7z"/>
<path fill="#ff0000" stroke="none" d="M2990 3256 l0 -128 -22 7 c-13 3 -251
9 -530 12 l-508 6 0 -278 0 -277 648 5 c356 2 657 8 670 12 l22 7 0 -141 0
-141 -47 8 c-63 9 -2763 9 -2825 0 l-48 -8 0 141 0 141 23 -7 c12 -4 309 -10
659 -12 l638 -5 0 277 0 278 -517 -6 c-285 -3 -528 -8 -540 -12 l-23 -7 0 128
0 129 1200 0 1200 0 0 -129z"/>
</g>
</svg>