
<svg version="1.0" xmlns="http://www.w3.org/2000/svg"
 width="370.000000pt" height="370.000000pt" viewBox="0 0 370.000000 370.000000"
 preserveAspectRatio="xMidYMid meet">
<g transform="translate(0.000000,370.000000) scale(0.100000,-0.100000)"
fill="#000000" stroke="none"><path fill="#ffffff" stroke="none" d="M0 1850 l0 -1850 1850 0 1850 0 0 1850
0 1850 -1850 0 -1850 0 0 -1850z"/>
<path fill="#000000" stroke="none" d="M3266 3356 c7 -3 8 -30 3 -82 -18 -188
-30 -417 -44 -824 -8 -239 -20 -556 -25 -705 -5 -148 -12 -373 -16 -500 -7
-259 -22 -381 -60 -484 -32 -86 -95 -161 -165 -197 -106 -53 -291 -100 -512
-129 -117 -16 -126 -14 -127 27 0 29 -57 177 -95 245 -19 35 -35 66 -35 68 0
2 101 4 224 4 303 1 362 15 401 98 43 90 49 160 75 953 6 179 15 433 20 565 5
132 13 343 16 469 l7 228 -1204 -6 c-662 -3 -1225 -9 -1251 -12 l-48 -6 0 148
0 149 1412 -3 c777 -1 1418 -4 1424 -6z"/>
<path fill="#ff0000" stroke="none" d="M2937 3048 c-3 -7 -5 -2 -5 12 0 14 2
19 5 13 2 -7 2 -19 0 -25z"/>
<path fill="#ff0000" stroke="none" d="M2280 2549 c0 -26 84 -182 117 -217 21
-22 15 -38 -24 -68 -21 -16 -43 -33 -49 -39 -7 -5 -20 -17 -31 -25 -63 -51
-130 -107 -143 -120 -8 -8 -49 -44 -90 -80 -41 -35 -84 -73 -95 -85 -17 -17
-125 -109 -175 -148 -25 -20 -125 -102 -130 -107 -3 -3 -52 -41 -110 -84 -58
-44 -107 -83 -110 -86 -3 -3 -35 -27 -72 -53 -36 -26 -72 -53 -80 -60 -7 -7
-34 -27 -60 -45 -25 -18 -52 -38 -60 -45 -7 -7 -53 -42 -103 -77 -49 -36 -97
-70 -105 -77 -8 -7 -30 -23 -47 -35 -61 -43 -208 -152 -213 -158 -3 -3 -23
-19 -45 -36 -22 -16 -46 -35 -53 -42 -36 -34 -49 -33 -74 6 -29 43 -104 128
-166 185 -23 23 -39 44 -35 48 7 6 51 31 165 92 77 42 122 68 213 125 104 64
258 164 265 173 3 3 20 14 38 24 17 11 32 23 32 27 0 4 5 8 10 8 9 0 147 95
160 110 3 3 46 35 95 70 50 35 92 67 95 70 3 3 23 19 45 35 206 151 446 358
665 572 85 84 158 152 163 153 4 0 7 -5 7 -11z"/>
<path fill="#ff0000" stroke="none" d="M2917 2508 c-3 -7 -5 -2 -5 12 0 14 2
19 5 13 2 -7 2 -19 0 -25z"/>
<path fill="#ff0000" stroke="none" d="M2347 773 c-20 -2 -52 -2 -70 0 -17 2
0 4 38 4 39 0 53 -2 32 -4z"/>
<path fill="#ff0000" stroke="none" d="M2488 773 c-15 -2 -42 -2 -60 0 -18 2
-6 4 27 4 33 0 48 -2 33 -4z"/>
</g>
</svg>