
<svg version="1.0" xmlns="http://www.w3.org/2000/svg"
 width="370.000000pt" height="370.000000pt" viewBox="0 0 370.000000 370.000000"
 preserveAspectRatio="xMidYMid meet">
<g transform="translate(0.000000,370.000000) scale(0.100000,-0.100000)"
fill="#000000" stroke="none"><path fill="#ffffff" stroke="none" d="M0 1850 l0 -1850 1850 0 1850 0 0 1850
0 1850 -1850 0 -1850 0 0 -1850z"/>
<path fill="#000000" stroke="none" d="M2798 2955 c15 -28 116 -127 159 -156
23 -16 62 -40 88 -53 l47 -23 -109 -61 c-211 -117 -463 -299 -463 -333 0 -56
99 -310 181 -464 194 -365 406 -598 706 -775 40 -23 71 -46 68 -50 -3 -5 -31
-23 -63 -41 -55 -32 -172 -139 -205 -188 l-16 -24 -69 62 c-222 196 -450 482
-576 724 -62 117 -174 400 -223 560 -9 31 -22 57 -28 57 -13 0 -156 -78 -174
-95 -11 -11 -10 -28 8 -106 68 -308 95 -525 94 -769 -1 -289 -29 -440 -108
-575 -64 -108 -208 -217 -382 -287 -104 -42 -303 -94 -326 -85 -8 3 -18 23
-22 44 -7 41 -70 177 -105 230 l-21 32 48 6 c321 42 518 145 586 306 49 117
70 342 55 589 -5 90 -11 166 -13 169 -3 2 -69 -57 -147 -130 -234 -220 -341
-308 -518 -426 -146 -97 -338 -206 -515 -292 -143 -70 -388 -181 -398 -181 -2
0 -24 30 -48 66 -23 36 -66 95 -95 132 -30 37 -50 69 -46 72 4 3 32 14 62 24
601 202 1244 592 1552 940 43 48 78 92 78 97 0 5 -28 72 -61 149 -61 139 -61
139 -83 122 -504 -407 -674 -521 -1078 -723 -98 -49 -180 -89 -182 -89 -2 0
-25 30 -51 66 -26 36 -69 92 -97 125 -27 33 -48 62 -46 64 1 2 68 31 148 65
245 103 557 263 690 351 112 75 348 258 454 351 l40 35 -22 35 c-12 20 -56 80
-98 135 l-75 98 68 63 c37 34 80 71 95 83 l27 20 106 -133 c58 -73 152 -197
207 -275 56 -79 107 -143 113 -143 21 0 191 103 280 170 126 95 274 229 385
348 52 56 98 102 102 102 4 0 11 -7 16 -15z"/>
<path fill="#ff0000" stroke="none" d="M1795 3465 c776 0 1431 3 1458 7 l47 8
0 -126 c0 -116 -1 -126 -17 -118 -28 12 -1363 18 -1363 6 0 -13 -243 -258
-295 -297 -21 -17 -55 -45 -74 -64 -20 -19 -25 -26 -11 -15 l25 19 -19 -22
c-10 -13 -22 -21 -25 -19 -4 3 -27 -14 -51 -36 -25 -23 -36 -35 -25 -27 18 13
19 13 6 -4 -8 -9 -16 -15 -19 -13 -3 3 -19 -6 -36 -19 -38 -31 -45 -36 -77
-55 -13 -8 -71 -43 -129 -78 -111 -68 -373 -199 -525 -263 l-90 -39 -20 24
c-11 12 -33 40 -50 62 -43 56 -108 127 -124 138 -15 10 9 19 129 52 61 16 186
60 212 75 10 5 23 9 28 9 24 0 231 106 330 169 159 101 510 379 510 404 0 11
-1244 3 -1277 -8 l-23 -7 0 126 0 126 48 -8 c26 -4 681 -7 1457 -7z"/>
<path fill="#ff0000" stroke="none" d="M1957 1373 c-3 -10 -5 -2 -5 17 0 19 2
27 5 18 2 -10 2 -26 0 -35z"/>
<path fill="#ff0000" stroke="none" d="M1957 1243 c-3 -10 -5 -4 -5 12 0 17 2
24 5 18 2 -7 2 -21 0 -30z"/>
</g>
</svg>