
<svg version="1.0" xmlns="http://www.w3.org/2000/svg"
 width="370.000000pt" height="370.000000pt" viewBox="0 0 370.000000 370.000000"
 preserveAspectRatio="xMidYMid meet">
<g transform="translate(0.000000,370.000000) scale(0.100000,-0.100000)"
fill="#000000" stroke="none"><path fill="#ffffff" stroke="none" d="M0 1850 l0 -1850 1850 0 1850 0 0 1850
0 1850 -1850 0 -1850 0 0 -1850z"/>
<path fill="#000000" stroke="none" d="M1837 3541 c44 -22 113 -49 154 -62 41
-12 76 -23 78 -25 2 -1 -13 -29 -33 -62 -19 -32 -54 -99 -77 -148 -49 -105
-129 -285 -129 -290 0 -2 320 -4 710 -4 391 0 710 -1 710 -3 0 -1 -11 -34 -25
-72 -15 -39 -57 -176 -95 -305 -65 -223 -154 -497 -164 -508 -3 -2 -34 2 -68
11 -35 8 -98 21 -141 28 -63 11 -76 16 -71 29 26 65 174 542 174 561 0 5 -251
9 -564 9 l-564 0 -21 -47 c-39 -89 -196 -377 -266 -488 -18 -27 -44 -69 -59
-93 l-27 -43 -38 30 c-38 30 -160 93 -202 104 -21 6 -21 8 20 52 185 201 450
769 581 1248 18 64 34 117 35 117 2 0 38 -18 82 -39z"/>
<path fill="#000000" stroke="none" d="M608 3193 c187 -237 323 -413 405 -528
l79 -110 -23 -17 c-13 -9 -71 -51 -127 -93 -57 -42 -105 -75 -107 -73 -1 2
-30 48 -64 103 -89 143 -205 302 -363 499 l-138 171 28 20 c15 11 65 52 112
92 47 39 86 72 87 72 1 1 51 -61 111 -136z"/>
<path fill="#000000" stroke="none" d="M2081 2390 c52 -10 129 -22 172 -26 42
-4 77 -10 77 -14 0 -3 -6 -29 -14 -56 -52 -176 -58 -379 -17 -539 28 -108 103
-297 147 -371 101 -170 275 -350 523 -539 86 -65 299 -192 403 -240 l85 -39
-77 -76 c-43 -41 -92 -101 -110 -132 -17 -32 -36 -58 -42 -58 -17 0 -230 141
-364 241 -306 229 -509 468 -656 776 l-61 128 -14 -35 c-98 -243 -222 -436
-388 -605 -162 -164 -452 -383 -646 -489 l-66 -36 -42 55 c-23 30 -70 85 -104
121 -45 49 -58 69 -47 72 8 3 76 36 150 73 227 113 425 255 587 420 104 106
168 193 231 317 131 256 188 547 175 905 -3 92 -4 167 -1 167 3 0 47 -9 99
-20z"/>
<path fill="#ff0000" stroke="none" d="M2583 2703 c-156 -2 -410 -2 -565 0
-156 1 -29 2 282 2 311 0 438 -1 283 -2z"/>
<path fill="#ff0000" stroke="none" d="M1987 2188 c-2 -13 -4 -5 -4 17 -1 22
1 32 4 23 2 -10 2 -28 0 -40z"/>
<path fill="#ff0000" stroke="none" d="M1987 2008 c-3 -7 -5 -2 -5 12 0 14 2
19 5 13 2 -7 2 -19 0 -25z"/>
<path fill="#ff0000" stroke="none" d="M926 1913 c24 -16 44 -31 44 -34 0 -3
34 -28 75 -54 41 -27 75 -51 75 -54 -1 -3 -15 -29 -33 -57 -52 -84 -182 -298
-186 -308 -2 -5 -30 -51 -62 -103 -33 -52 -59 -96 -59 -99 0 -3 -15 -28 -33
-57 -18 -29 -36 -59 -40 -67 -4 -8 -18 -33 -32 -55 -14 -22 -30 -49 -35 -60
-6 -11 -16 -29 -22 -39 -28 -43 -74 -123 -88 -151 -8 -16 -21 -36 -27 -43 -7
-7 -13 -20 -13 -28 0 -8 -4 -14 -9 -14 -5 0 -11 -8 -14 -17 -8 -23 -53 -103
-66 -116 -6 -6 -40 15 -93 57 -108 87 -108 87 -140 112 l-28 22 43 48 c23 27
56 67 72 89 16 22 32 42 35 45 3 3 23 30 45 60 22 30 48 64 57 74 10 11 18 23
18 27 0 4 6 14 13 21 17 18 100 145 123 188 11 19 22 37 25 40 20 17 299 564
299 587 0 18 7 17 56 -14z"/>
<path fill="#ff0000" stroke="none" d="M2665 1110 c10 -11 16 -20 13 -20 -3 0
-13 9 -23 20 -10 11 -16 20 -13 20 3 0 13 -9 23 -20z"/>
</g>
</svg>