
<svg version="1.0" xmlns="http://www.w3.org/2000/svg"
 width="370.000000pt" height="370.000000pt" viewBox="0 0 370.000000 370.000000"
 preserveAspectRatio="xMidYMid meet">
<g transform="translate(0.000000,370.000000) scale(0.100000,-0.100000)"
fill="#000000" stroke="none"><path fill="#ffffff" stroke="none" d="M0 1850 l0 -1850 1850 0 1850 0 0 1850
0 1850 -1850 0 -1850 0 0 -1850z"/>
<path fill="#000000" stroke="none" d="M1990 2866 c41 -8 106 -18 144 -22 l69
-7 -7 -76 c-40 -439 -45 -609 -21 -722 55 -259 375 -782 611 -998 150 -137
338 -265 522 -354 56 -27 102 -53 102 -56 0 -4 -15 -15 -32 -26 -53 -31 -161
-146 -188 -200 -14 -27 -26 -52 -27 -54 -1 -2 -53 30 -115 71 -400 263 -730
648 -938 1091 -30 64 -57 117 -60 117 -3 0 -18 -35 -34 -77 -42 -112 -155
-347 -217 -450 -186 -312 -426 -573 -715 -779 -39 -28 -69 -44 -71 -37 -8 22
-106 146 -168 211 l-62 66 96 48 c401 202 800 728 916 1207 22 90 30 142 56
336 6 44 13 227 16 407 5 328 5 328 27 323 11 -2 55 -11 96 -19z"/>
<path fill="#ff0000" stroke="none" d="M3200 3169 c0 -131 -1 -141 -17 -133
-10 5 -534 10 -1165 12 l-1148 3 0 -537 c0 -296 -4 -590 -10 -653 -24 -281
-37 -383 -69 -551 -5 -25 -14 -72 -21 -105 -6 -33 -17 -82 -25 -110 -7 -27
-19 -70 -25 -95 -7 -25 -23 -79 -36 -120 -14 -41 -29 -91 -35 -110 -6 -19 -16
-48 -24 -65 -7 -16 -18 -43 -25 -60 -45 -112 -140 -305 -149 -305 -5 0 -19 8
-32 18 -31 24 -172 92 -190 92 -8 0 -20 4 -28 9 -11 7 -4 25 33 91 25 45 46
84 46 85 0 2 20 46 45 98 25 53 45 102 45 109 0 8 4 18 9 24 12 12 85 232 101
304 7 30 16 66 21 80 11 31 33 150 48 250 6 41 19 125 28 185 16 98 18 194 18
862 l0 753 1290 3 c710 1 1296 3 1303 5 9 1 12 -32 12 -139z"/>
</g>
</svg>