
<svg version="1.0" xmlns="http://www.w3.org/2000/svg"
 width="370.000000pt" height="370.000000pt" viewBox="0 0 370.000000 370.000000"
 preserveAspectRatio="xMidYMid meet">
<g transform="translate(0.000000,370.000000) scale(0.100000,-0.100000)"
fill="#000000" stroke="none"><path fill="#ffffff" stroke="none" d="M0 1850 l0 -1850 1850 0 1850 0 0 1850
0 1850 -1850 0 -1850 0 0 -1850z"/>
<path fill="#000000" stroke="none" d="M817 2568 c-5 -895 -4 -876 -62 -1203
-56 -313 -167 -661 -290 -906 -25 -49 -50 -89 -55 -89 -11 0 -218 126 -238
144 -10 10 -2 31 43 107 138 231 260 533 305 756 52 261 55 318 55 1201 l-1
822 124 0 123 0 -4 -832z"/>
<path fill="#000000" stroke="none" d="M2326 2876 c13 -38 41 -104 63 -147
l40 -79 -67 0 c-100 0 -461 -19 -509 -26 l-43 -6 0 -159 0 -159 258 0 257 0 0
-440 0 -440 -257 0 -258 0 0 -211 0 -210 73 6 c124 11 218 23 224 28 3 3 -22
48 -55 99 -34 51 -60 93 -59 94 1 1 52 24 113 51 98 44 113 48 121 34 6 -9 68
-124 138 -256 71 -132 133 -248 139 -257 5 -9 8 -19 6 -21 -3 -2 -57 -29 -121
-59 l-116 -55 -42 84 -42 85 -62 -6 c-397 -41 -688 -81 -977 -132 -80 -15
-151 -27 -159 -28 -11 -1 -24 36 -47 134 -18 74 -33 141 -34 148 0 10 23 12
110 6 63 -4 210 -1 345 6 l235 14 0 223 0 223 -150 0 -150 0 0 -60 0 -60 -116
0 -116 0 7 51 c10 71 11 876 1 917 l-8 32 266 0 266 0 0 149 c0 83 -3 152 -7
154 -5 2 -82 -2 -173 -9 -91 -7 -207 -16 -257 -20 l-92 -7 -21 47 c-11 26 -38
78 -60 116 -22 38 -40 71 -40 74 0 3 73 6 163 6 213 0 549 24 756 55 160 23
399 70 410 80 13 13 26 -7 47 -69z"/>
<path fill="#ffffff" stroke="none" d="M1300 1855 l0 -235 150 0 150 0 0 235
0 235 -150 0 -150 0 0 -235z"/>
<path fill="#ffffff" stroke="none" d="M1810 1855 l0 -235 155 0 155 0 0 235
0 235 -155 0 -155 0 0 -235z"/>
<path fill="#ff0000" stroke="none" d="M2848 3283 c-4 -60 -12 -369 -17 -688
-18 -982 0 -1442 67 -1715 22 -88 100 -220 131 -220 15 0 49 46 59 80 22 74
31 117 38 185 11 110 12 111 64 64 25 -21 78 -61 118 -87 72 -46 73 -48 67
-82 -40 -222 -106 -413 -162 -472 -163 -170 -455 133 -576 597 -40 154 -40
162 -44 1213 l-4 1022 -880 0 -879 0 0 105 0 105 1013 0 1012 0 -7 -107z"/>
<path fill="#ff0000" stroke="none" d="M577 3038 c-2 -13 -4 -5 -4 17 -1 22 1
32 4 23 2 -10 2 -28 0 -40z"/>
<path fill="#ff0000" stroke="none" d="M1087 2043 c-3 -10 -5 -2 -5 17 0 19 2
27 5 18 2 -10 2 -26 0 -35z"/>
<path fill="#ff0000" stroke="none" d="M577 1898 c-3 -7 -5 -2 -5 12 0 14 2
19 5 13 2 -7 2 -19 0 -25z"/>
<path fill="#ff0000" stroke="none" d="M1087 1668 c-2 -13 -4 -5 -4 17 -1 22
1 32 4 23 2 -10 2 -28 0 -40z"/>
</g>
</svg>