
<svg version="1.0" xmlns="http://www.w3.org/2000/svg"
 width="370.000000pt" height="370.000000pt" viewBox="0 0 370.000000 370.000000"
 preserveAspectRatio="xMidYMid meet">
<g transform="translate(0.000000,370.000000) scale(0.100000,-0.100000)"
fill="#000000" stroke="none"><path fill="#ffffff" stroke="none" d="M0 1850 l0 -1850 1850 0 1850 0 0 1850
0 1850 -1850 0 -1850 0 0 -1850z"/>
<path fill="#000000" stroke="none" d="M1640 2035 c220 -145 666 -493 658
-515 -2 -4 -56 -56 -121 -114 l-119 -107 -122 118 c-147 142 -307 268 -520
410 l-158 105 34 37 c42 44 108 127 131 163 l17 27 38 -21 c20 -12 93 -58 162
-103z"/>
<path fill="#ff0000" stroke="none" d="M1607 3507 c37 -14 83 -28 101 -32 17
-4 32 -10 32 -14 0 -3 -13 -22 -28 -41 -16 -19 -50 -73 -76 -120 -26 -47 -52
-92 -57 -100 -5 -8 -21 -40 -35 -70 -14 -30 -30 -62 -35 -70 -14 -24 -39 -82
-39 -91 0 -5 374 -9 863 -9 l863 0 -7 -57 c-5 -32 -15 -96 -24 -143 -9 -47
-20 -107 -26 -135 -14 -74 -25 -124 -42 -185 -9 -30 -25 -89 -36 -130 -25 -89
-45 -147 -54 -156 -4 -4 -7 -13 -7 -20 0 -14 -30 -82 -79 -184 -66 -136 -225
-385 -310 -485 -14 -17 -39 -48 -56 -69 -74 -95 -268 -274 -415 -382 -30 -22
-104 -73 -165 -112 -60 -39 -115 -75 -121 -79 -28 -21 -280 -149 -355 -181
-30 -13 -63 -27 -74 -32 -68 -28 -245 -93 -320 -117 -27 -8 -81 -26 -120 -38
-76 -24 -152 -46 -290 -83 -74 -21 -217 -53 -219 -50 -2 2 -15 26 -31 53 -16
28 -35 56 -42 63 -7 7 -13 17 -13 20 0 4 -25 34 -55 67 l-55 60 38 3 c20 2 89
12 152 24 541 95 934 233 1280 451 167 105 331 230 327 249 -1 7 5 12 13 13 8
1 13 7 12 15 -2 8 0 12 3 8 9 -9 77 41 70 52 -6 9 19 32 27 25 8 -8 119 104
179 180 93 120 113 148 165 230 45 70 64 104 119 215 7 14 23 48 34 75 12 28
25 57 30 65 15 28 79 245 95 320 28 139 36 181 36 201 0 19 -17 19 -768 19
l-768 0 -24 -42 c-25 -45 -31 -56 -98 -155 -23 -33 -42 -64 -42 -67 0 -7 -191
-278 -205 -291 -6 -5 -24 -28 -40 -50 -29 -40 -43 -57 -78 -98 -11 -12 -33
-39 -50 -60 -18 -21 -62 -71 -99 -110 -59 -63 -69 -70 -80 -56 -30 37 -141
111 -216 145 -2 1 48 53 110 115 228 229 378 418 547 691 22 37 41 69 41 71 0
2 23 44 51 93 78 134 205 396 251 514 22 58 44 115 49 127 l8 23 45 -24 c25
-13 76 -35 113 -49z"/>
<path fill="#ff0000" stroke="none" d="M2300 1516 c0 -2 -8 -10 -17 -17 -16
-13 -17 -12 -4 4 13 16 21 21 21 13z"/>
<path fill="#ff0000" stroke="none" d="M1965 1400 c10 -11 16 -20 13 -20 -3 0
-13 9 -23 20 -10 11 -16 20 -13 20 3 0 13 -9 23 -20z"/>
<path fill="#ff0000" stroke="none" d="M2031 1333 c13 -16 12 -17 -3 -4 -10 7
-18 15 -18 17 0 8 8 3 21 -13z"/>
</g>
</svg>