
<svg version="1.0" xmlns="http://www.w3.org/2000/svg"
 width="370.000000pt" height="370.000000pt" viewBox="0 0 370.000000 370.000000"
 preserveAspectRatio="xMidYMid meet">
<g transform="translate(0.000000,370.000000) scale(0.100000,-0.100000)"
fill="#000000" stroke="none"><path fill="#ffffff" stroke="none" d="M0 1850 l0 -1850 1850 0 1850 0 0 1850
0 1850 -1850 0 -1850 0 0 -1850z"/>
<path fill="#000000" stroke="none" d="M1386 3528 c-3 -24 -8 -133 -11 -242
l-7 -199 416 5 416 5 0 -121 0 -122 -415 4 -415 4 0 -181 0 -181 376 0 377 0
-6 -62 c-4 -35 -9 -196 -12 -358 -3 -162 -11 -315 -17 -339 -22 -85 -95 -129
-285 -171 -105 -23 -113 -24 -113 -7 0 6 -27 67 -59 134 l-59 122 41 5 c23 3
74 8 112 12 39 3 78 10 87 15 29 15 38 76 38 252 l0 167 -241 0 -241 0 5 -952
c2 -524 6 -962 8 -973 4 -19 -2 -20 -141 -23 l-145 -3 3 528 4 528 -72 -95
c-172 -226 -402 -458 -700 -706 -13 -11 -23 -4 -63 46 -26 33 -74 82 -106 109
l-60 49 67 44 c111 72 260 195 390 322 190 186 323 350 468 578 l74 117 0 216
0 215 -240 0 -240 0 0 -340 0 -340 -137 0 -138 0 0 455 0 455 378 0 377 0 0
181 0 182 -445 -5 -445 -4 0 122 0 122 447 -6 446 -5 -6 241 -6 242 150 0 150
0 -5 -42z"/>
<path fill="#000000" stroke="none" d="M2693 2963 c-5 -54 -8 -435 -8 -848 0
-412 3 -794 8 -848 l7 -97 -145 0 -145 0 7 58 c5 31 8 431 8 887 0 457 -3 856
-8 888 l-7 57 145 0 145 0 -7 -97z"/>
<path fill="#000000" stroke="none" d="M1713 1413 c61 -54 201 -178 310 -276
l197 -179 -27 -21 c-16 -11 -67 -58 -115 -105 l-87 -85 -47 54 c-97 110 -342
353 -442 437 l-102 87 97 92 c54 51 99 92 101 93 1 0 53 -44 115 -97z"/>
<path fill="#ff0000" stroke="none" d="M3302 2413 c-3 -1556 -6 -1791 -21
-1836 -24 -74 -108 -142 -204 -168 -18 -4 -57 -15 -87 -24 -63 -18 -147 -33
-237 -44 l-62 -7 -26 79 c-25 75 -42 112 -85 182 l-19 30 62 -4 c34 -2 113 2
175 9 124 14 182 36 216 83 21 28 21 31 21 1403 l0 1374 135 0 135 0 -3 -1077z"/>
<path fill="#ff0000" stroke="none" d="M1097 3438 c-3 -7 -5 -2 -5 12 0 14 2
19 5 13 2 -7 2 -19 0 -25z"/>
<path fill="#ff0000" stroke="none" d="M1377 3273 c-3 -10 -5 -2 -5 17 0 19 2
27 5 18 2 -10 2 -26 0 -35z"/>
<path fill="#ff0000" stroke="none" d="M2427 2803 c-3 -10 -5 -4 -5 12 0 17 2
24 5 18 2 -7 2 -21 0 -30z"/>
<path fill="#ff0000" stroke="none" d="M347 1688 c-3 -8 -6 -5 -6 6 -1 11 2
17 5 13 3 -3 4 -12 1 -19z"/>
<path fill="#ff0000" stroke="none" d="M2427 1433 c-3 -10 -5 -2 -5 17 0 19 2
27 5 18 2 -10 2 -26 0 -35z"/>
<path fill="#ff0000" stroke="none" d="M1377 528 c-3 -7 -5 -2 -5 12 0 14 2
19 5 13 2 -7 2 -19 0 -25z"/>
</g>
</svg>