
<svg version="1.0" xmlns="http://www.w3.org/2000/svg"
 width="370.000000pt" height="370.000000pt" viewBox="0 0 370.000000 370.000000"
 preserveAspectRatio="xMidYMid meet">
<g transform="translate(0.000000,370.000000) scale(0.100000,-0.100000)"
fill="#000000" stroke="none"><path fill="#ffffff" stroke="none" d="M0 1850 l0 -1850 1850 0 1850 0 0 1850
0 1850 -1850 0 -1850 0 0 -1850z"/>
<path fill="#000000" stroke="none" d="M1770 2563 c25 -11 73 -33 108 -48 l62
-28 0 -184 0 -184 668 5 c367 3 700 8 740 12 l72 6 0 -126 0 -126 -739 0 -740
0 -4 -627 c-3 -560 -5 -633 -20 -678 -46 -134 -113 -173 -362 -214 -66 -11
-154 -23 -195 -27 l-75 -6 -18 71 c-10 39 -38 111 -62 161 l-44 90 142 0 c153
0 247 12 285 37 13 8 32 33 43 56 17 40 19 74 19 591 l0 549 -730 -5 -730 -5
0 121 0 121 732 -3 731 -3 -6 250 -7 250 43 -18 c23 -10 62 -27 87 -38z"/>
<path fill="#ff0000" stroke="none" d="M1947 3350 l1083 0 0 -121 0 -120 -52
-21 c-104 -42 -436 -216 -598 -313 -91 -54 -167 -101 -170 -105 -6 -6 -56 -39
-85 -55 -38 -20 -170 -110 -173 -117 -2 -5 -12 -3 -23 3 -11 5 -23 7 -28 5 -5
-3 -12 1 -15 10 -3 9 -12 14 -18 12 -7 -3 -19 2 -27 9 -7 8 -20 12 -28 9 -8
-3 -11 -1 -8 4 5 9 -15 15 -37 11 -5 0 -8 4 -8 10 0 6 -7 9 -15 5 -8 -3 -15
-1 -15 5 0 6 -4 8 -9 5 -5 -3 -11 1 -15 9 -3 8 -12 15 -21 15 -34 0 -9 18 97
70 61 30 149 79 195 108 46 28 86 52 88 52 8 0 420 262 435 276 13 12 -117 14
-963 12 l-977 -3 0 119 0 119 152 -6 c83 -4 639 -7 1235 -7z"/>
<path fill="#ff0000" stroke="none" d="M1647 2468 c-3 -7 -5 -2 -5 12 0 14 2
19 5 13 2 -7 2 -19 0 -25z"/>
<path fill="#ff0000" stroke="none" d="M3208 1893 c-38 -2 -98 -2 -135 0 -38
2 -7 3 67 3 74 0 105 -1 68 -3z"/>
<path fill="#ff0000" stroke="none" d="M488 1883 c-10 -2 -26 -2 -35 0 -10 3
-2 5 17 5 19 0 27 -2 18 -5z"/>
</g>
</svg>