
<svg version="1.0" xmlns="http://www.w3.org/2000/svg"
 width="370.000000pt" height="370.000000pt" viewBox="0 0 370.000000 370.000000"
 preserveAspectRatio="xMidYMid meet">
<g transform="translate(0.000000,370.000000) scale(0.100000,-0.100000)"
fill="#000000" stroke="none"><path fill="#ffffff" stroke="none" d="M0 1850 l0 -1850 1850 0 1850 0 0 1850
0 1850 -1850 0 -1850 0 0 -1850z"/>
<path fill="#000000" stroke="none" d="M1337 3492 c50 -23 96 -42 102 -42 18
0 14 -8 -43 -78 -49 -62 -142 -197 -195 -285 l-23 -38 931 3 932 3 -3 -145 -3
-145 -25 4 c-14 2 -464 5 -1000 7 l-975 4 -45 -62 c-142 -197 -517 -667 -533
-668 -4 0 -36 22 -71 48 -34 27 -92 66 -127 87 -35 21 -65 39 -67 40 -1 1 60
64 135 141 229 231 466 561 650 904 44 82 127 260 146 312 5 16 12 14 64 -15
32 -18 99 -51 150 -75z"/>
<path fill="#ff0000" stroke="none" d="M1686 2310 l864 0 0 -144 0 -144 -52
-17 c-46 -15 -121 -51 -183 -88 -80 -48 -378 -267 -410 -301 -5 -6 -39 -33
-75 -60 -36 -27 -69 -54 -75 -60 -5 -6 -32 -29 -60 -51 -27 -22 -62 -51 -77
-65 -14 -14 -48 -43 -75 -65 -161 -133 -307 -298 -363 -409 -32 -65 -36 -182
-6 -215 47 -51 53 -52 862 -49 583 3 758 6 788 16 21 8 58 33 81 57 35 35 49
59 70 127 14 45 30 115 36 154 15 100 18 102 70 67 53 -36 163 -88 208 -98 18
-4 35 -13 38 -21 5 -13 -51 -202 -76 -259 -95 -214 -137 -250 -333 -290 -118
-23 -1656 -23 -1760 1 -96 22 -131 38 -179 81 -146 132 -157 363 -26 568 87
137 248 308 466 495 35 30 69 60 75 65 6 6 32 27 58 48 26 21 53 43 60 50 16
15 152 124 189 152 89 67 145 110 155 119 6 6 27 22 47 36 20 14 37 29 37 34
0 10 -1225 1 -1257 -9 l-23 -7 0 147 0 148 31 -7 c17 -3 420 -6 895 -6z"/>
</g>
</svg>