
<svg version="1.0" xmlns="http://www.w3.org/2000/svg"
 width="370.000000pt" height="370.000000pt" viewBox="0 0 370.000000 370.000000"
 preserveAspectRatio="xMidYMid meet">
<g transform="translate(0.000000,370.000000) scale(0.100000,-0.100000)"
fill="#000000" stroke="none"><path fill="#ffffff" stroke="none" d="M0 1850 l0 -1850 1850 0 1850 0 0 1850
0 1850 -1850 0 -1850 0 0 -1850z"/>
<path fill="#000000" stroke="none" d="M1100 3518 c52 -20 103 -39 113 -42 11
-4 15 -11 11 -18 -4 -7 -22 -36 -40 -64 -46 -71 -170 -297 -239 -432 l-57
-114 6 -1216 c3 -670 7 -1237 9 -1262 l2 -45 -145 -3 -145 -3 3 1038 c2 1032
2 1038 -18 1015 -10 -13 -65 -96 -122 -185 -56 -89 -103 -164 -105 -166 -1 -2
-26 18 -55 46 -29 27 -80 69 -113 94 -33 24 -63 47 -65 50 -3 4 31 49 76 100
237 276 430 588 556 899 38 93 101 278 119 347 l13 53 50 -29 c28 -15 94 -44
146 -63z"/>
<path fill="#000000" stroke="none" d="M2393 1553 c-2 -616 -6 -945 -13 -980
-6 -28 -24 -70 -40 -92 -48 -66 -190 -123 -415 -166 -100 -19 -125 -19 -125 0
0 36 -61 184 -107 257 -13 21 -23 40 -23 43 0 3 24 5 53 5 28 0 102 5 162 10
126 12 181 33 210 82 19 32 20 54 20 838 0 443 -3 833 -7 868 l-8 62 148 0
147 0 -2 -927z"/>
<path fill="#000000" stroke="none" d="M3021 1705 c141 -201 409 -607 409
-618 0 -7 -256 -167 -266 -167 -5 0 -29 39 -54 87 -70 134 -255 442 -383 637
l-116 175 112 70 c105 66 113 69 128 53 10 -9 86 -116 170 -237z"/>
<path fill="#000000" stroke="none" d="M1769 1881 c131 -67 161 -84 161 -96 0
-16 -274 -434 -378 -578 -76 -104 -205 -269 -243 -311 -5 -6 -28 7 -56 30 -27
22 -75 62 -108 89 -33 26 -61 52 -63 56 -2 5 20 33 48 63 141 148 334 422 460
652 38 71 70 132 70 136 0 13 8 10 109 -41z"/>
<path fill="#ff0000" stroke="none" d="M1875 3513 c50 -17 115 -36 145 -43 30
-7 61 -14 68 -16 9 -3 0 -21 -25 -56 -47 -65 -58 -83 -81 -128 -9 -19 -19 -37
-22 -40 -3 -3 -18 -32 -34 -65 -16 -33 -37 -76 -47 -96 -11 -20 -19 -42 -19
-48 0 -8 202 -11 735 -11 404 0 735 -3 735 -7 0 -13 -41 -130 -80 -228 -4 -11
-14 -38 -23 -60 -8 -22 -31 -80 -50 -130 -20 -49 -42 -110 -50 -135 -9 -25
-25 -67 -36 -93 -12 -27 -21 -58 -21 -69 0 -24 -23 -22 -135 11 -38 11 -81 21
-95 21 -45 1 -50 11 -28 55 29 60 141 338 153 383 l6 22 -605 0 -605 0 -49
-97 c-96 -190 -146 -279 -251 -438 -95 -146 -81 -136 -149 -104 -60 29 -124
52 -179 64 -40 8 -41 21 -5 60 15 17 55 68 90 115 34 47 66 90 70 95 30 39
150 239 195 326 97 186 241 559 268 696 9 41 16 59 23 54 6 -5 52 -22 101 -38z"/>
<path fill="#ff0000" stroke="none" d="M907 378 c-3 -8 -6 -5 -6 6 -1 11 2 17
5 13 3 -3 4 -12 1 -19z"/>
</g>
</svg>