
<svg version="1.0" xmlns="http://www.w3.org/2000/svg"
 width="370.000000pt" height="370.000000pt" viewBox="0 0 370.000000 370.000000"
 preserveAspectRatio="xMidYMid meet">
<g transform="translate(0.000000,370.000000) scale(0.100000,-0.100000)"
fill="#000000" stroke="none"><path fill="#ffffff" stroke="none" d="M0 1850 l0 -1850 1850 0 1850 0 0 1850
0 1850 -1850 0 -1850 0 0 -1850z"/>
<path fill="#000000" stroke="none" d="M3055 1925 l0 -1585 -153 0 -152 0 7
143 c10 184 10 2790 0 2925 l-7 102 152 0 153 0 0 -1585z"/>
<path fill="#ff0000" stroke="none" d="M1222 3363 l728 -5 -8 -27 c-9 -35 -9
-898 1 -933 l7 -28 -588 0 -589 0 -7 -117 c-3 -65 -9 -191 -13 -280 l-6 -163
612 0 c482 0 611 -3 611 -12 0 -7 -5 -49 -10 -93 -21 -158 -39 -302 -50 -390
-6 -49 -17 -139 -26 -200 -8 -60 -19 -144 -25 -185 -27 -207 -52 -333 -75
-380 -34 -71 -146 -146 -259 -175 -101 -25 -402 -63 -536 -67 l-87 -3 -12 55
c-16 78 -47 164 -85 240 l-13 25 185 -4 c250 -5 429 13 482 47 60 39 100 113
111 208 5 43 16 133 25 199 22 166 34 266 45 360 5 44 12 99 16 123 l7 42
-599 0 -599 0 3 87 c1 49 7 140 13 203 6 63 13 247 16 408 l6 292 578 0 579 0
0 270 0 270 -605 -2 -605 -3 0 129 0 128 23 -7 c12 -4 349 -9 749 -12z"/>
</g>
</svg>