
<svg version="1.0" xmlns="http://www.w3.org/2000/svg"
 width="370.000000pt" height="370.000000pt" viewBox="0 0 370.000000 370.000000"
 preserveAspectRatio="xMidYMid meet">
<g transform="translate(0.000000,370.000000) scale(0.100000,-0.100000)"
fill="#000000" stroke="none"><path fill="#ffffff" stroke="none" d="M0 1850 l0 -1850 1850 0 1850 0 0 1850
0 1850 -1850 0 -1850 0 0 -1850z"/>
<path fill="#000000" stroke="none" d="M2463 3384 l-6 -157 446 5 447 5 0
-121 0 -121 -445 4 -445 3 0 -141 0 -141 395 0 396 0 -8 -92 c-10 -119 -10
-939 0 -995 l7 -43 -325 0 -325 0 32 -57 c173 -314 419 -524 760 -653 l87 -33
-88 -86 c-49 -47 -108 -112 -131 -143 l-42 -58 -42 32 c-355 276 -509 446
-668 743 l-49 90 5 -490 c3 -269 9 -514 14 -543 l8 -52 -144 0 -144 0 6 32 c3
18 8 265 12 548 l6 515 -77 -125 c-144 -236 -317 -443 -512 -612 -109 -95
-249 -198 -269 -198 -6 0 -27 26 -44 58 -18 31 -66 90 -108 130 -58 57 -72 76
-61 83 8 5 18 9 22 9 21 0 220 108 301 163 171 115 410 380 518 575 l40 72
-284 0 -283 0 0 565 0 565 378 0 377 0 0 141 0 141 -380 -4 -380 -3 0 122 0
121 381 -5 381 -6 -6 119 c-4 65 -9 136 -12 157 l-6 37 136 0 135 0 -6 -156z"/>
<path fill="#000000" stroke="none" d="M550 1900 l0 -1530 -122 0 -123 0 0
1530 0 1530 123 0 122 0 0 -1530z"/>
<path fill="#000000" stroke="none" d="M1047 2293 c70 -96 169 -254 209 -332
69 -137 100 -338 70 -464 -53 -224 -203 -350 -498 -418 -104 -24 -128 -21
-128 13 0 37 -31 149 -61 218 l-28 65 112 6 c169 9 259 56 311 161 76 152 -15
376 -280 695 -35 42 -62 79 -59 81 4 5 238 38 282 41 16 1 34 -17 70 -66z"/>
<path fill="#ffffff" stroke="none" d="M1720 2390 l0 -130 250 0 250 0 0 130
0 130 -250 0 -250 0 0 -130z"/>
<path fill="#ffffff" stroke="none" d="M2460 2390 l0 -130 265 0 265 0 0 130
0 130 -265 0 -265 0 0 -130z"/>
<path fill="#ffffff" stroke="none" d="M1720 1925 l0 -135 250 0 250 0 0 135
0 135 -250 0 -250 0 0 -135z"/>
<path fill="#ffffff" stroke="none" d="M2460 1925 l0 -135 265 0 265 0 0 135
0 135 -265 0 -265 0 0 -135z"/>
<path fill="#ff0000" stroke="none" d="M1410 3413 c0 -4 -9 -27 -21 -52 -11
-25 -24 -55 -29 -66 -4 -11 -20 -47 -35 -80 -15 -33 -31 -69 -35 -80 -5 -11
-19 -45 -33 -75 -13 -30 -41 -98 -62 -150 -20 -52 -43 -108 -50 -125 -27 -62
-35 -82 -70 -175 -20 -52 -47 -121 -61 -153 -13 -32 -24 -65 -24 -73 0 -8 -8
-14 -17 -14 -16 0 -16 -2 -3 -11 11 -7 5 -8 -22 -3 -20 3 -42 2 -49 -2 -17
-10 -54 -15 -108 -15 -25 0 -50 -3 -55 -8 -6 -5 -18 -6 -27 -2 -15 5 -14 12 9
61 57 126 72 159 111 248 61 139 179 428 202 493 11 32 18 63 14 69 -4 6 -94
10 -246 10 l-239 0 0 105 0 105 425 0 c234 0 425 -3 425 -7z"/>
<path fill="#ff0000" stroke="none" d="M307 3268 c-3 -7 -5 -2 -5 12 0 14 2
19 5 13 2 -7 2 -19 0 -25z"/>
<path fill="#ff0000" stroke="none" d="M3267 2994 c-3 -3 -12 -4 -19 -1 -8 3
-5 6 6 6 11 1 17 -2 13 -5z"/>
<path fill="#ff0000" stroke="none" d="M307 493 c-3 -10 -5 -4 -5 12 0 17 2
24 5 18 2 -7 2 -21 0 -30z"/>
</g>
</svg>