
<svg version="1.0" xmlns="http://www.w3.org/2000/svg"
 width="370.000000pt" height="370.000000pt" viewBox="0 0 370.000000 370.000000"
 preserveAspectRatio="xMidYMid meet">
<g transform="translate(0.000000,370.000000) scale(0.100000,-0.100000)"
fill="#000000" stroke="none"><path fill="#ffffff" stroke="none" d="M0 1850 l0 -1850 1850 0 1850 0 0 1850
0 1850 -1850 0 -1850 0 0 -1850z"/>
<path fill="#000000" stroke="none" d="M686 3393 c180 -114 529 -376 522 -391
-5 -12 -195 -192 -202 -192 -4 0 -64 47 -134 104 -132 107 -295 228 -420 311
l-73 48 38 40 c55 57 152 137 167 137 6 0 52 -26 102 -57z"/>
<path fill="#000000" stroke="none" d="M423 2614 c158 -80 563 -322 619 -371
16 -14 13 -20 -41 -83 -32 -37 -72 -88 -90 -113 l-32 -47 -117 79 c-153 102
-284 180 -462 276 -80 43 -147 80 -149 81 -2 2 37 47 88 100 50 53 91 100 91
105 0 15 18 10 93 -27z"/>
<path fill="#000000" stroke="none" d="M2323 2103 c493 -3 897 -7 897 -9 0 -1
-18 -58 -41 -126 -121 -366 -300 -685 -546 -979 -46 -54 -83 -100 -83 -103 0
-8 156 -95 250 -139 161 -76 309 -119 548 -159 72 -13 132 -25 132 -28 0 -3
-19 -18 -41 -35 -57 -42 -157 -150 -177 -191 -8 -19 -23 -34 -32 -34 -27 0
-226 59 -321 95 -175 67 -383 178 -513 274 -30 23 -60 41 -66 41 -6 0 -50 -23
-97 -51 -110 -64 -310 -165 -449 -224 -102 -44 -434 -160 -439 -153 -1 2 -15
26 -31 53 -16 28 -59 81 -97 119 -38 37 -67 69 -65 70 2 2 37 11 78 20 91 22
308 86 410 122 169 59 470 198 477 220 2 5 -25 43 -59 84 -174 213 -302 477
-378 785 l-27 110 -142 -1 -141 -1 0 129 0 130 28 -6 c15 -4 431 -10 925 -13z"/>
<path fill="#000000" stroke="none" d="M1009 1761 c31 -27 84 -66 118 -88 l62
-39 -91 -164 c-260 -476 -433 -811 -508 -985 -24 -55 -47 -104 -51 -108 -4 -5
-31 8 -60 28 -30 20 -105 62 -166 92 l-113 55 58 67 c179 204 329 449 541 886
59 121 116 239 126 263 10 23 20 42 23 42 2 0 30 -22 61 -49z"/>
<path fill="#ffffff" stroke="none" d="M1916 1871 c-6 -9 56 -197 99 -300 78
-189 192 -375 283 -465 l50 -48 78 92 c98 115 187 246 258 381 57 108 130 274
141 322 l7 27 -455 0 c-251 0 -458 -4 -461 -9z"/>
<path fill="#ff0000" stroke="none" d="M1862 3571 c26 -10 115 -34 200 -53
l56 -13 -74 -149 c-41 -82 -74 -150 -74 -152 0 -2 257 -4 571 -4 l571 0 -6
-27 c-3 -16 -10 -50 -16 -78 -5 -27 -21 -104 -36 -170 -14 -66 -30 -142 -36
-170 -22 -113 -27 -134 -48 -230 -12 -55 -30 -118 -39 -141 -23 -52 -73 -109
-108 -122 -53 -21 -231 -42 -351 -42 l-121 0 -6 38 c-4 20 -13 64 -20 97 -8
33 -16 76 -19 95 l-6 35 164 -3 165 -3 29 28 c29 27 36 47 72 208 5 22 21 88
35 146 14 59 25 109 25 113 0 3 -200 6 -444 6 l-444 0 -43 -102 c-51 -122
-189 -399 -209 -418 -3 -3 -18 -25 -34 -50 -37 -57 -148 -199 -173 -222 -18
-17 -21 -16 -54 6 -18 13 -73 42 -122 65 -95 46 -95 44 -42 103 111 122 240
315 307 458 9 19 34 73 56 120 99 212 161 395 207 613 6 29 25 34 67 18z"/>
<path fill="#ff0000" stroke="none" d="M1718 2103 c-10 -2 -28 -2 -40 0 -13 2
-5 4 17 4 22 1 32 -1 23 -4z"/>
</g>
</svg>