
<svg version="1.0" xmlns="http://www.w3.org/2000/svg"
 width="370.000000pt" height="370.000000pt" viewBox="0 0 370.000000 370.000000"
 preserveAspectRatio="xMidYMid meet">
<g transform="translate(0.000000,370.000000) scale(0.100000,-0.100000)"
fill="#000000" stroke="none"><path fill="#ffffff" stroke="none" d="M0 1850 l0 -1850 1850 0 1850 0 0 1850
0 1850 -1850 0 -1850 0 0 -1850z"/>
<path fill="#000000" stroke="none" d="M3146 2528 c-3 -46 -9 -506 -12 -1023
-6 -897 -7 -942 -26 -992 -25 -69 -73 -107 -168 -137 -88 -28 -231 -54 -313
-58 l-59 -3 -29 79 c-15 43 -46 111 -68 151 l-40 72 135 7 c185 9 233 19 266
55 35 39 40 77 36 296 l-3 180 -424 3 -424 2 6 -395 7 -395 -156 0 -156 0 6
27 c12 57 26 365 26 561 l0 202 -420 0 -419 0 -11 -42 c-46 -180 -93 -306
-163 -438 -53 -101 -176 -292 -226 -350 l-29 -35 -34 31 c-56 51 -110 90 -168
119 -30 15 -57 29 -59 31 -2 2 23 32 55 66 181 190 296 402 358 658 61 255 77
431 83 914 l5 409 47 43 46 43 1169 1 1169 0 -7 -82z"/>
<path fill="#ffffff" stroke="none" d="M990 2185 l0 -185 380 0 380 0 0 185 0
185 -380 0 -380 0 0 -185z"/>
<path fill="#ffffff" stroke="none" d="M2020 2185 l0 -185 423 2 422 3 3 183
2 182 -425 0 -425 0 0 -185z"/>
<path fill="#ffffff" stroke="none" d="M980 1728 c0 -56 -16 -247 -26 -310
l-6 -38 401 0 401 0 0 200 0 200 -385 0 -385 0 0 -52z"/>
<path fill="#ffffff" stroke="none" d="M2020 1580 l0 -200 425 0 425 0 -2 198
-3 197 -422 3 -423 2 0 -200z"/>
<path fill="#ff0000" stroke="none" d="M1354 3585 c17 -13 73 -46 124 -73 l91
-48 -37 -40 c-21 -21 -56 -61 -77 -89 -22 -27 -42 -52 -46 -55 -3 -3 -18 -22
-33 -42 l-28 -38 671 0 c369 0 671 -3 671 -6 0 -5 -49 -74 -60 -84 -4 -3 -35
-45 -71 -95 -35 -49 -72 -99 -81 -109 -10 -11 -18 -23 -18 -27 0 -4 -6 -14
-14 -22 -8 -8 -27 -32 -43 -54 -15 -22 -52 -75 -82 -117 l-55 -76 -138 0 -139
0 43 63 c23 34 79 115 125 180 46 65 83 120 83 122 0 3 -235 5 -522 5 l-522 0
-91 -93 c-112 -116 -264 -257 -276 -257 -5 0 -9 -6 -9 -14 0 -8 -5 -18 -12
-22 -7 -5 -8 -3 -2 7 4 8 -7 1 -26 -15 -19 -16 -34 -33 -33 -38 2 -4 -3 -7
-10 -5 -6 1 -11 -4 -10 -10 2 -7 -1 -12 -6 -10 -5 1 -33 -20 -62 -48 -30 -27
-74 -66 -99 -85 -25 -19 -47 -37 -50 -40 -3 -4 -16 -14 -29 -23 -23 -16 -25
-15 -56 26 -34 44 -154 157 -167 157 -19 0 -5 19 23 30 47 20 299 190 387 262
111 91 256 239 337 344 129 168 143 186 217 304 75 120 77 123 84 143 8 22 9
22 48 -8z"/>
<path fill="#ff0000" stroke="none" d="M3147 2488 c-3 -7 -5 -2 -5 12 0 14 2
19 5 13 2 -7 2 -19 0 -25z"/>
<path fill="#ff0000" stroke="none" d="M3137 2097 c-2 -23 -3 -1 -3 48 0 50 1
68 3 42 2 -26 2 -67 0 -90z"/>
<path fill="#ff0000" stroke="none" d="M717 1808 c-3 -8 -6 -5 -6 6 -1 11 2
17 5 13 3 -3 4 -12 1 -19z"/>
</g>
</svg>