
<svg version="1.0" xmlns="http://www.w3.org/2000/svg"
 width="370.000000pt" height="370.000000pt" viewBox="0 0 370.000000 370.000000"
 preserveAspectRatio="xMidYMid meet">
<g transform="translate(0.000000,370.000000) scale(0.100000,-0.100000)"
fill="#000000" stroke="none"><path fill="#ffffff" stroke="none" d="M0 1850 l0 -1850 1850 0 1850 0 0 1850
0 1850 -1850 0 -1850 0 0 -1850z"/>
<path fill="#000000" stroke="none" d="M2537 3393 l-2 -218 95 2 c52 2 121 5
153 8 l57 6 0 -114 0 -115 -155 6 -155 5 0 -262 0 -261 54 0 54 0 79 133 c146
243 255 466 312 637 33 99 30 97 97 58 57 -33 143 -75 212 -105 23 -10 31 -18
25 -26 -5 -7 -32 -42 -61 -78 -28 -36 -100 -145 -161 -243 -61 -97 -140 -220
-176 -272 l-65 -96 285 4 285 3 0 -110 0 -110 -353 3 -353 4 -29 -44 c-15 -23
-68 -98 -117 -165 l-88 -123 347 0 346 0 -7 -85 c-8 -111 -8 -1339 0 -1450 l7
-85 -132 0 -131 0 0 145 0 145 -350 0 -350 0 0 -135 0 -135 -136 0 -136 0 6
53 c22 187 39 1127 19 1127 -3 0 -14 -6 -22 -14 -33 -29 -225 -156 -235 -156
-6 0 -19 18 -30 39 -10 22 -43 72 -73 111 -30 39 -53 72 -51 73 2 1 28 10 58
20 60 20 238 118 313 173 l47 34 0 70 0 70 84 0 84 0 88 93 c49 51 118 126
153 166 l65 73 -422 -3 -422 -4 0 110 0 110 310 -3 310 -4 0 258 0 257 -225
-5 -225 -5 0 114 0 115 48 -6 c26 -3 128 -8 226 -12 l179 -7 -6 222 -7 221
140 0 140 0 -3 -217z"/>
<path fill="#000000" stroke="none" d="M915 3320 c325 0 612 3 638 6 l47 7 0
-114 0 -114 -207 3 -208 4 -31 -38 c-47 -60 -236 -314 -271 -365 l-31 -45 20
-45 c102 -223 207 -480 217 -531 88 -431 115 -697 108 -1072 -4 -294 -11 -346
-56 -434 -40 -79 -144 -150 -334 -228 l-81 -33 -23 60 c-21 56 -74 157 -110
206 -15 22 -14 23 11 23 47 0 177 31 231 55 29 13 60 34 69 47 48 73 68 239
64 522 l-3 209 -44 -74 c-73 -124 -199 -308 -289 -424 -98 -126 -251 -305
-261 -305 -3 0 -23 27 -43 59 -21 32 -59 82 -85 111 -42 47 -45 53 -29 62 31
17 148 122 212 189 157 167 376 506 468 725 l25 61 -29 112 c-16 62 -33 117
-36 123 -3 5 -30 -30 -58 -79 -29 -48 -72 -118 -96 -154 -51 -75 -362 -478
-370 -478 -3 -1 -16 27 -29 62 -13 34 -44 93 -69 132 l-45 70 54 45 c201 168
378 376 506 595 l30 50 -25 93 c-14 50 -29 92 -34 92 -5 0 -92 -80 -194 -177
-102 -98 -189 -179 -194 -181 -12 -4 -144 238 -134 247 5 4 62 42 127 85 192
126 369 313 489 517 74 125 108 112 -277 108 l-335 -4 0 114 0 114 62 -7 c34
-3 328 -6 653 -6z"/>
<path fill="#ffffff" stroke="none" d="M2260 1535 l0 -185 350 0 350 0 0 185
0 185 -350 0 -350 0 0 -185z"/>
<path fill="#ffffff" stroke="none" d="M2260 975 l0 -185 350 0 350 0 0 185 0
185 -350 0 -350 0 0 -185z"/>
<path fill="#ff0000" stroke="none" d="M2267 3478 c-3 -8 -6 -5 -6 6 -1 11 2
17 5 13 3 -3 4 -12 1 -19z"/>
<path fill="#ff0000" stroke="none" d="M858 3313 c-42 -2 -114 -2 -160 0 -46
1 -11 3 77 3 88 0 125 -2 83 -3z"/>
<path fill="#ff0000" stroke="none" d="M1168 3313 c-43 -2 -113 -2 -155 0 -43
1 -8 3 77 3 85 0 120 -2 78 -3z"/>
<path fill="#ff0000" stroke="none" d="M798 3113 c-43 -2 -113 -2 -155 0 -43
1 -8 3 77 3 85 0 120 -2 78 -3z"/>
<path fill="#ff0000" stroke="none" d="M1323 3113 c-23 -2 -64 -2 -90 0 -26 2
-7 3 42 3 50 0 71 -1 48 -3z"/>
<path fill="#ff0000" stroke="none" d="M287 3104 c-3 -3 -12 -4 -19 -1 -8 3
-5 6 6 6 11 1 17 -2 13 -5z"/>
<path fill="#ff0000" stroke="none" d="M1488 2425 l41 -27 -42 -41 c-41 -40
-127 -156 -194 -262 -88 -139 -84 -131 -72 -159 7 -14 16 -26 21 -26 4 0 8 -4
8 -9 0 -10 288 -444 336 -507 31 -40 30 -45 -9 -71 -18 -12 -62 -52 -98 -88
l-66 -65 -18 48 c-38 99 -130 290 -203 422 -26 46 -35 74 -33 98 2 25 -1 32
-9 27 -9 -5 -10 -1 -5 14 3 11 3 26 -1 33 -5 7 -7 29 -6 48 2 28 1 32 -8 20
-9 -12 -10 -9 -6 13 4 15 4 32 0 38 -3 5 -7 35 -9 67 -2 31 -8 58 -13 60 -6 2
-8 12 -5 22 3 11 1 20 -4 20 -17 0 -1 53 26 90 25 33 45 63 103 155 27 44 83
143 106 189 l15 28 52 -55 c29 -31 71 -67 93 -82z"/>
<path fill="#ff0000" stroke="none" d="M2202 2453 c-40 -2 -103 -2 -140 0 -37
2 -4 3 73 3 77 0 107 -2 67 -3z"/>
<path fill="#ff0000" stroke="none" d="M3093 2453 c-34 -2 -93 -2 -130 0 -37
2 -9 3 62 3 72 0 102 -1 68 -3z"/>
<path fill="#ff0000" stroke="none" d="M1747 2244 c-3 -3 -12 -4 -19 -1 -8 3
-5 6 6 6 11 1 17 -2 13 -5z"/>
<path fill="#ff0000" stroke="none" d="M977 1268 c-2 -35 -3 -7 -3 62 0 69 1
97 3 63 2 -35 2 -91 0 -125z"/>
<path fill="#ff0000" stroke="none" d="M1197 808 c-3 -7 -5 -2 -5 12 0 14 2
19 5 13 2 -7 2 -19 0 -25z"/>
</g>
</svg>