
<svg version="1.0" xmlns="http://www.w3.org/2000/svg"
 width="370.000000pt" height="370.000000pt" viewBox="0 0 370.000000 370.000000"
 preserveAspectRatio="xMidYMid meet">
<g transform="translate(0.000000,370.000000) scale(0.100000,-0.100000)"
fill="#000000" stroke="none"><path fill="#ffffff" stroke="none" d="M0 1850 l0 -1850 1850 0 1850 0 0 1850
0 1850 -1850 0 -1850 0 0 -1850z"/>
<path fill="#000000" stroke="none" d="M2875 3523 c10 -16 62 -87 116 -160
104 -140 105 -143 32 -143 -20 0 -83 -7 -142 -15 -58 -8 -140 -20 -181 -25
-77 -11 -192 -31 -315 -55 -38 -8 -113 -16 -165 -20 -118 -7 -340 -41 -353
-54 -10 -10 -1 -2431 9 -2568 l6 -73 -167 0 -167 0 7 37 c3 21 9 611 12 1312
l5 1273 -49 -6 c-72 -9 -272 -24 -409 -32 l-121 -6 -6 -482 c-14 -977 -82
-1397 -297 -1828 -65 -130 -174 -323 -189 -332 -3 -2 -38 17 -77 44 -46 30
-104 58 -162 76 l-90 28 50 56 c187 208 316 512 428 1005 15 68 39 234 52 370
16 165 16 1044 0 1200 -6 60 -10 110 -9 111 1 1 155 7 342 13 800 26 1361 112
1710 261 50 21 95 39 101 39 7 1 20 -11 29 -26z"/>
<path fill="#ff0000" stroke="none" d="M2559 2958 c22 -360 48 -640 71 -763 5
-27 14 -79 20 -115 22 -124 79 -357 112 -455 63 -189 225 -523 278 -575 3 -3
12 -18 20 -33 8 -16 23 -39 35 -51 11 -12 33 -40 49 -62 16 -21 76 -85 133
-142 87 -85 101 -103 86 -109 -54 -21 -187 -138 -220 -194 -10 -16 -22 -29
-27 -29 -17 0 -82 77 -162 190 -40 58 -78 110 -84 117 -5 7 -10 14 -10 16 0 2
-24 44 -54 93 -61 102 -226 438 -226 460 0 3 -6 20 -13 37 -44 103 -121 384
-146 537 -7 41 -19 109 -26 150 -19 102 -32 211 -45 360 -41 479 -50 710 -27
710 8 0 7 4 -3 11 -11 7 -5 8 23 3 23 -4 37 -2 37 4 0 6 9 8 20 5 11 -3 20 -1
20 4 0 5 16 7 36 5 26 -3 35 -1 30 7 -6 8 0 10 18 5 17 -4 26 -2 26 6 0 6 4 9
9 6 4 -3 13 -92 20 -198z"/>
<path fill="#ff0000" stroke="none" d="M717 2868 c-3 -7 -5 -2 -5 12 0 14 2
19 5 13 2 -7 2 -19 0 -25z"/>
<path fill="#ff0000" stroke="none" d="M717 2183 c-3 -10 -5 -4 -5 12 0 17 2
24 5 18 2 -7 2 -21 0 -30z"/>
</g>
</svg>