
<svg version="1.0" xmlns="http://www.w3.org/2000/svg"
 width="370.000000pt" height="370.000000pt" viewBox="0 0 370.000000 370.000000"
 preserveAspectRatio="xMidYMid meet">
<g transform="translate(0.000000,370.000000) scale(0.100000,-0.100000)"
fill="#000000" stroke="none"><path fill="#ffffff" stroke="none" d="M0 1850 l0 -1850 1850 0 1850 0 0 1850
0 1850 -1850 0 -1850 0 0 -1850z"/>
<path fill="#000000" stroke="none" d="M1752 3467 c21 -3 -184 -312 -314 -476
-205 -257 -565 -525 -985 -735 -73 -36 -138 -66 -145 -66 -8 0 -22 17 -33 37
-25 47 -133 183 -146 183 -5 0 -9 4 -9 9 0 5 24 14 53 21 214 50 521 211 747
393 146 117 410 395 410 432 0 4 -178 5 -395 2 l-395 -6 0 108 0 107 598 -3
c328 -2 605 -5 614 -6z"/>
<path fill="#000000" stroke="none" d="M3105 3304 c28 -25 76 -66 108 -91 31
-25 57 -49 57 -52 0 -3 -39 -30 -87 -60 -95 -60 -259 -179 -340 -247 l-51 -44
-106 66 c-58 37 -106 69 -106 73 0 3 29 25 64 48 105 69 261 199 333 278 38
41 70 75 73 75 3 -1 28 -21 55 -46z"/>
<path fill="#000000" stroke="none" d="M695 3074 c83 -69 160 -136 173 -148
l23 -23 -93 -74 c-51 -42 -99 -79 -106 -83 -8 -5 -49 30 -120 102 -59 60 -131
129 -160 153 l-53 44 88 77 c48 42 90 77 93 77 3 1 73 -56 155 -125z"/>
<path fill="#000000" stroke="none" d="M2772 2233 c-5 -387 -22 -367 310 -366
119 0 238 4 264 8 43 6 46 5 39 -12 -8 -19 -40 -137 -50 -186 l-6 -28 -348 3
-348 3 -36 25 c-21 14 -47 45 -60 70 -21 42 -22 60 -25 288 l-3 242 -180 0
-179 0 0 -109 c0 -256 -67 -418 -229 -552 -66 -55 -240 -179 -251 -179 -4 0
-14 15 -21 33 -17 40 -84 114 -122 134 l-30 15 52 28 c138 76 240 170 286 264
50 104 58 162 53 389 l-5 207 447 0 446 0 -4 -277z"/>
<path fill="#000000" stroke="none" d="M1193 2413 l338 -6 -7 -66 c-10 -87
-10 -485 0 -583 l8 -78 -390 0 -390 0 -7 -87 c-4 -49 -10 -121 -14 -161 -4
-40 -5 -75 -2 -77 2 -3 168 -5 368 -5 l363 0 -4 -22 c-8 -36 -24 -181 -36
-323 -26 -310 -58 -456 -116 -529 -60 -74 -183 -118 -447 -156 -73 -11 -149
-20 -169 -20 -35 0 -38 2 -48 43 -25 98 -43 155 -66 211 l-24 58 32 -6 c17 -3
94 -9 172 -12 289 -13 340 25 385 293 11 66 23 151 27 187 l7 66 -373 0 -373
0 7 78 c11 125 24 336 31 495 l7 147 394 0 394 0 0 176 0 177 -225 -5 -225 -5
0 115 c0 114 0 114 23 108 12 -4 174 -9 360 -13z"/>
<path fill="#000000" stroke="none" d="M3059 1534 c7 -7 -69 -193 -127 -309
-56 -115 -141 -250 -199 -321 l-34 -42 178 -123 c201 -139 357 -252 390 -282
l22 -20 -60 -36 c-34 -20 -89 -62 -124 -93 l-62 -57 -29 30 c-73 77 -488 384
-505 373 -5 -3 -47 -34 -94 -69 -164 -124 -411 -253 -612 -320 -125 -42 -137
-43 -152 -7 -17 40 -61 105 -104 151 -40 44 -40 44 38 56 119 20 306 87 475
173 110 55 250 140 250 152 0 3 -40 27 -88 55 -123 71 -365 204 -376 208 -11
4 123 197 136 197 4 0 119 -61 253 -136 243 -136 245 -137 266 -118 44 40 163
236 184 302 l7 23 -386 -3 -386 -3 0 115 0 115 567 -3 c313 -2 570 -6 572 -8z"/>
<path fill="#ff0000" stroke="none" d="M2074 3500 c45 -90 123 -208 148 -223
13 -9 34 2 105 53 99 71 185 142 255 208 l46 45 34 -38 c18 -21 59 -60 90 -86
l58 -48 -58 -32 c-31 -18 -59 -35 -62 -38 -3 -4 -76 -53 -162 -111 -87 -57
-158 -110 -158 -116 0 -11 18 -29 109 -108 52 -44 103 -76 112 -70 5 3 8 0 7
-8 -2 -7 5 -12 14 -12 10 1 16 -2 13 -6 -5 -9 33 -26 48 -22 5 1 6 -2 2 -8 -6
-9 8 -14 28 -11 5 1 6 -3 3 -8 -6 -9 31 -27 47 -23 5 1 6 -2 2 -8 -6 -10 5
-13 35 -11 10 0 11 -1 3 -5 -23 -10 -14 -21 30 -35 23 -7 53 -19 67 -26 14 -7
31 -13 38 -13 7 0 20 -4 30 -9 35 -19 366 -111 397 -111 8 0 26 -5 40 -10 l26
-10 -49 -58 c-27 -31 -64 -83 -83 -114 -18 -32 -39 -58 -46 -58 -56 0 -510
183 -564 227 -8 7 -18 13 -22 13 -7 0 -199 120 -207 129 -3 3 -23 19 -45 36
-92 68 -285 258 -370 365 -53 67 -151 224 -199 319 -28 55 -26 70 14 71 8 1
47 12 85 25 39 13 77 24 85 24 9 0 31 -33 54 -79z"/>
<path fill="#ff0000" stroke="none" d="M737 3474 c-3 -3 -12 -4 -19 -1 -8 3
-5 6 6 6 11 1 17 -2 13 -5z"/>
<path fill="#ff0000" stroke="none" d="M753 3263 c-7 -2 -19 -2 -25 0 -7 3 -2
5 12 5 14 0 19 -2 13 -5z"/>
<path fill="#ff0000" stroke="none" d="M1023 2413 c-7 -2 -19 -2 -25 0 -7 3
-2 5 12 5 14 0 19 -2 13 -5z"/>
<path fill="#ff0000" stroke="none" d="M2957 1864 c-3 -3 -12 -4 -19 -1 -8 3
-5 6 6 6 11 1 17 -2 13 -5z"/>
<path fill="#ff0000" stroke="none" d="M3173 1863 c-7 -2 -19 -2 -25 0 -7 3
-2 5 12 5 14 0 19 -2 13 -5z"/>
<path fill="#ff0000" stroke="none" d="M467 1673 c-3 -10 -5 -2 -5 17 0 19 2
27 5 18 2 -10 2 -26 0 -35z"/>
</g>
</svg>