
<svg version="1.0" xmlns="http://www.w3.org/2000/svg"
 width="370.000000pt" height="370.000000pt" viewBox="0 0 370.000000 370.000000"
 preserveAspectRatio="xMidYMid meet">
<g transform="translate(0.000000,370.000000) scale(0.100000,-0.100000)"
fill="#000000" stroke="none"><path fill="#ffffff" stroke="none" d="M0 1850 l0 -1850 1850 0 1850 0 0 1850
0 1850 -1850 0 -1850 0 0 -1850z"/>
<path fill="#000000" stroke="none" d="M1135 3513 c9 -85 35 -242 47 -287 l10
-39 333 5 334 6 3 -122 3 -121 -862 0 -863 0 0 120 0 120 380 -3 c209 -3 380
-2 380 1 0 4 -18 78 -40 166 -22 88 -40 162 -40 165 0 3 17 6 38 7 28 0 190
23 264 38 4 0 9 -25 13 -56z"/>
<path fill="#000000" stroke="none" d="M1645 2440 l0 -340 -640 0 -640 0 0
340 0 340 640 0 640 0 0 -340z"/>
<path fill="#000000" stroke="none" d="M3086 2513 c-16 -317 -68 -694 -128
-928 -39 -154 -127 -416 -162 -484 l-16 -31 78 -77 c43 -43 116 -104 161 -137
100 -71 280 -164 381 -195 41 -13 77 -25 79 -27 3 -2 -33 -43 -80 -92 -46 -48
-101 -107 -121 -132 l-36 -45 -128 87 c-160 108 -312 230 -428 342 l-88 87
-92 -89 c-50 -48 -127 -116 -171 -151 -74 -60 -451 -316 -479 -327 -7 -3 -17
6 -23 18 -16 34 -101 130 -153 173 -25 20 -46 40 -47 44 -2 3 30 19 70 35 113
44 332 161 442 234 96 63 236 187 276 243 l19 27 -41 93 c-104 239 -164 426
-227 699 -61 266 -61 239 -3 362 28 58 54 108 58 111 4 2 29 8 55 11 44 7 48
5 52 -16 3 -13 21 -118 41 -234 57 -334 128 -584 215 -755 l23 -44 29 75 c110
284 147 497 203 1183 l7 77 120 0 121 0 -7 -137z"/>
<path fill="#000000" stroke="none" d="M962 1863 l678 -5 0 -113 0 -113 -27
-7 c-59 -14 -214 -96 -330 -174 l-123 -82 0 -64 0 -65 28 5 c15 3 70 12 122
20 52 9 177 32 278 51 101 20 185 35 186 33 2 -2 -2 -33 -10 -69 -7 -36 -14
-88 -14 -116 l0 -51 -92 -12 c-122 -16 -379 -58 -445 -72 l-51 -12 -4 -236
c-3 -233 -3 -237 -30 -294 -24 -51 -33 -60 -82 -83 -30 -13 -105 -36 -168 -50
-62 -13 -122 -27 -134 -29 -19 -4 -24 4 -43 68 -12 39 -36 109 -55 154 l-33
83 114 0 c63 0 123 4 133 10 29 15 40 65 47 208 l6 135 -53 -7 c-97 -13 -393
-83 -478 -114 -56 -20 -85 -26 -88 -18 -6 18 -94 280 -94 282 0 1 37 5 83 9
171 14 391 36 541 56 l89 11 -6 78 c-4 43 -15 103 -25 134 l-18 55 45 25 c25
13 102 57 171 96 l125 71 -483 -3 -482 -3 0 114 c0 113 0 113 23 106 12 -4
327 -9 699 -12z"/>
<path fill="#ffffff" stroke="none" d="M610 2430 l0 -120 385 0 385 0 0 120 0
120 -385 0 -385 0 0 -120z"/>
<path fill="#ff0000" stroke="none" d="M2322 3571 c40 -16 191 -60 231 -67 33
-6 50 -27 29 -36 -10 -4 -57 -102 -76 -158 -8 -25 -34 -97 -56 -160 -23 -63
-48 -135 -56 -160 -9 -25 -22 -59 -30 -77 -8 -17 -14 -34 -14 -38 0 -10 1059
0 1083 10 16 7 17 -3 17 -120 0 -117 -1 -127 -17 -119 -27 11 -1123 18 -1134
7 -6 -6 -19 -43 -29 -84 -11 -41 -27 -99 -36 -129 -9 -30 -17 -66 -18 -80 0
-14 -7 -30 -15 -36 -8 -6 -11 -16 -7 -22 4 -7 3 -12 -2 -12 -14 0 -73 -130
-66 -142 4 -6 3 -8 -3 -5 -6 4 -21 -15 -34 -41 -24 -49 -102 -190 -126 -230
l-14 -23 -42 44 c-38 41 -130 110 -158 119 -7 2 7 31 32 68 24 36 50 74 56 85
15 23 112 221 124 250 4 11 14 36 22 55 67 159 116 316 182 580 48 193 53 214
75 335 39 210 37 204 82 186z"/>
<path fill="#ff0000" stroke="none" d="M1733 3193 c-7 -2 -19 -2 -25 0 -7 3
-2 5 12 5 14 0 19 -2 13 -5z"/>
<path fill="#ff0000" stroke="none" d="M327 2954 c-3 -3 -12 -4 -19 -1 -8 3
-5 6 6 6 11 1 17 -2 13 -5z"/>
<path fill="#ff0000" stroke="none" d="M1633 2953 c-7 -2 -21 -2 -30 0 -10 3
-4 5 12 5 17 0 24 -2 18 -5z"/>
<path fill="#ff0000" stroke="none" d="M1387 2378 c-2 -35 -3 -9 -3 57 0 66 1
94 3 63 2 -32 2 -86 0 -120z"/>
<path fill="#ff0000" stroke="none" d="M483 1863 c-7 -2 -21 -2 -30 0 -10 3
-4 5 12 5 17 0 24 -2 18 -5z"/>
</g>
</svg>