
<svg version="1.0" xmlns="http://www.w3.org/2000/svg"
 width="370.000000pt" height="370.000000pt" viewBox="0 0 370.000000 370.000000"
 preserveAspectRatio="xMidYMid meet">
<g transform="translate(0.000000,370.000000) scale(0.100000,-0.100000)"
fill="#000000" stroke="none"><path fill="#ffffff" stroke="none" d="M0 1850 l0 -1850 1850 0 1850 0 0 1850
0 1850 -1850 0 -1850 0 0 -1850z"/>
<path fill="#000000" stroke="none" d="M3220 2114 l0 -146 -77 6 c-43 3 -207
8 -365 12 l-288 6 0 -617 0 -617 418 8 c229 4 437 8 462 8 l45 1 3 -143 3
-142 -103 7 c-134 10 -2912 10 -3045 0 l-103 -7 0 146 0 146 38 -6 c20 -4 475
-9 1010 -12 l972 -6 0 616 0 616 -550 0 -550 0 0 125 0 125 873 1 c745 1 948
4 1220 17 l37 2 0 -146z"/>
<path fill="#ff0000" stroke="none" d="M2863 3502 c9 -21 17 -42 17 -46 0 -12
52 -118 78 -160 29 -46 23 -55 -49 -65 -30 -5 -112 -18 -184 -30 -71 -11 -164
-26 -205 -32 -41 -5 -113 -16 -160 -24 -47 -8 -124 -19 -172 -25 -49 -6 -125
-15 -170 -21 -46 -5 -130 -16 -188 -24 -58 -8 -152 -19 -210 -25 -58 -6 -159
-17 -225 -25 -66 -8 -153 -17 -194 -20 -41 -3 -85 -8 -98 -11 l-23 -6 0 -1109
0 -1109 -140 0 -140 0 -1 1093 c0 600 -4 1148 -8 1217 -4 69 -7 126 -7 126 1
1 100 7 221 13 233 12 371 23 498 40 42 6 116 15 165 21 48 6 125 18 172 26
47 8 150 25 230 38 152 26 337 64 430 90 30 8 89 24 130 35 41 11 104 32 140
45 36 14 68 25 71 25 3 1 13 -16 22 -37z"/>
<path fill="#ff0000" stroke="none" d="M3373 773 c-7 -2 -19 -2 -25 0 -7 3 -2
5 12 5 14 0 19 -2 13 -5z"/>
<path fill="#ff0000" stroke="none" d="M523 763 c-13 -2 -35 -2 -50 0 -16 2
-5 4 22 4 28 0 40 -2 28 -4z"/>
<path fill="#ff0000" stroke="none" d="M3018 763 c-21 -2 -55 -2 -75 0 -21 2
-4 4 37 4 41 0 58 -2 38 -4z"/>
</g>
</svg>