
<svg version="1.0" xmlns="http://www.w3.org/2000/svg"
 width="370.000000pt" height="370.000000pt" viewBox="0 0 370.000000 370.000000"
 preserveAspectRatio="xMidYMid meet">
<g transform="translate(0.000000,370.000000) scale(0.100000,-0.100000)"
fill="#000000" stroke="none"><path fill="#ffffff" stroke="none" d="M0 1850 l0 -1850 1850 0 1850 0 0 1850
0 1850 -1850 0 -1850 0 0 -1850z"/>
<path fill="#000000" stroke="none" d="M2758 2283 l37 -18 3 -113 3 -112 -73
7 c-40 3 -228 7 -418 7 l-345 1 0 -280 0 -280 415 2 c228 1 457 5 508 8 l92 6
0 -132 0 -131 -32 6 c-18 3 -248 9 -511 12 l-477 7 2 -319 3 -319 165 -3 c175
-3 899 14 1013 25 l67 6 0 -148 0 -148 -57 7 c-271 29 -346 31 -1468 31 -632
0 -1189 -3 -1237 -8 l-88 -7 0 131 0 132 73 -6 c39 -4 336 -10 660 -13 l587
-7 0 323 0 323 -477 -6 c-263 -4 -495 -10 -515 -13 l-38 -7 0 133 0 132 83 -6
c45 -3 277 -8 515 -12 l432 -6 0 288 0 287 -392 -7 c-216 -3 -405 -9 -420 -12
l-27 -6 -3 113 -3 114 37 20 c36 20 55 20 943 18 855 -1 907 -2 943 -20z"/>
<path fill="#ff0000" stroke="none" d="M1740 3545 c14 -7 68 -29 120 -49 156
-61 156 -61 115 -92 -14 -10 -25 -27 -25 -36 0 -38 176 -264 306 -393 190
-189 349 -302 584 -415 136 -66 154 -74 220 -97 30 -11 71 -26 90 -32 19 -7
64 -21 100 -31 36 -10 79 -23 95 -28 17 -6 43 -13 58 -17 l28 -6 -35 -48 c-45
-63 -93 -156 -109 -212 -15 -50 -22 -51 -97 -17 -103 47 -249 120 -305 153
-72 41 -107 59 -120 59 -5 1 -16 7 -23 14 -8 7 -18 10 -23 7 -5 -4 -9 -2 -9 3
0 5 -15 16 -32 23 -18 7 -56 28 -85 46 -29 18 -56 33 -62 33 -5 0 -11 3 -13 8
-1 4 -26 22 -53 39 -28 18 -59 40 -70 50 -11 10 -45 37 -75 59 -108 82 -328
319 -362 392 -6 12 -15 22 -20 22 -4 0 -8 4 -8 9 0 4 -20 39 -45 76 -24 37
-52 87 -62 111 -21 51 -36 55 -52 16 -6 -15 -23 -41 -36 -56 -14 -16 -25 -32
-25 -36 0 -3 -8 -15 -18 -26 -10 -10 -31 -37 -47 -59 -116 -155 -377 -433
-489 -520 -21 -16 -46 -37 -55 -45 -9 -9 -53 -41 -99 -73 -45 -32 -82 -63 -82
-68 0 -6 -4 -7 -10 -4 -5 3 -10 1 -10 -5 0 -6 -4 -8 -10 -5 -5 3 -10 1 -10 -5
0 -6 -4 -9 -9 -6 -14 9 -42 -5 -34 -17 4 -6 1 -7 -6 -3 -7 5 -20 1 -29 -8 -27
-26 -115 -82 -285 -182 -154 -91 -158 -93 -168 -71 -5 12 -15 31 -22 42 -39
65 -63 102 -74 113 -7 7 -13 17 -13 21 0 5 -13 22 -30 39 -16 18 -30 36 -30
41 0 4 26 16 58 26 31 10 61 21 67 26 5 5 16 9 24 9 27 0 343 163 349 181 2 5
8 9 13 9 11 0 145 87 173 113 11 9 23 17 27 17 4 0 14 6 21 13 7 7 31 27 53
43 127 93 286 248 397 385 79 99 188 260 234 349 16 30 31 57 34 60 3 3 13 22
23 43 18 41 27 42 87 12z"/>
<path fill="#ff0000" stroke="none" d="M1063 2303 c-7 -2 -19 -2 -25 0 -7 3
-2 5 12 5 14 0 19 -2 13 -5z"/>
<path fill="#ff0000" stroke="none" d="M727 1504 c-3 -3 -12 -4 -19 -1 -8 3
-5 6 6 6 11 1 17 -2 13 -5z"/>
<path fill="#ff0000" stroke="none" d="M447 644 c-3 -3 -12 -4 -19 -1 -8 3 -5
6 6 6 11 1 17 -2 13 -5z"/>
<path fill="#ff0000" stroke="none" d="M2967 644 c-3 -3 -12 -4 -19 -1 -8 3
-5 6 6 6 11 1 17 -2 13 -5z"/>
<path fill="#ff0000" stroke="none" d="M922 633 c-40 -2 -103 -2 -140 0 -37 2
-4 3 73 3 77 0 107 -2 67 -3z"/>
<path fill="#ff0000" stroke="none" d="M2668 633 c-26 -2 -71 -2 -100 0 -29 2
-8 3 47 3 55 0 79 -1 53 -3z"/>
</g>
</svg>