
<svg version="1.0" xmlns="http://www.w3.org/2000/svg"
 width="370.000000pt" height="370.000000pt" viewBox="0 0 370.000000 370.000000"
 preserveAspectRatio="xMidYMid meet">
<g transform="translate(0.000000,370.000000) scale(0.100000,-0.100000)"
fill="#000000" stroke="none"><path fill="#ffffff" stroke="none" d="M0 1850 l0 -1850 1850 0 1850 0 0 1850
0 1850 -1850 0 -1850 0 0 -1850z"/>
<path fill="#000000" stroke="none" d="M2522 2123 c-9 -103 -9 -1578 1 -1710
l7 -103 -165 0 -165 0 7 88 c10 114 10 1635 0 1730 l-7 72 165 0 165 0 -8 -77z"/>
<path fill="#000000" stroke="none" d="M1195 2170 c50 -5 114 -10 143 -10 l52
0 -5 -102 c-28 -531 -92 -878 -209 -1140 -85 -191 -263 -410 -478 -589 l-59
-49 -42 49 c-57 66 -119 120 -194 168 l-62 39 67 38 c265 152 459 362 545 591
73 195 97 366 104 732 6 292 6 293 27 288 11 -3 62 -9 111 -15z"/>
<path fill="#ff0000" stroke="none" d="M1787 3503 c78 -26 143 -50 143 -53 0
-3 -16 -22 -35 -43 -19 -21 -35 -43 -35 -48 0 -6 17 -32 38 -57 20 -26 44 -55
52 -66 100 -127 380 -401 501 -489 24 -17 53 -40 63 -49 11 -10 23 -18 27 -18
4 0 14 -6 21 -13 12 -12 97 -66 191 -121 18 -10 64 -34 102 -53 39 -19 79 -39
90 -45 41 -23 215 -81 336 -112 l127 -32 -30 -35 c-70 -83 -115 -158 -148
-249 -7 -19 -16 -38 -19 -42 -16 -19 -323 110 -449 189 -29 18 -57 33 -62 33
-6 0 -10 4 -10 8 0 5 -10 14 -23 19 -29 14 -215 154 -282 213 -152 135 -355
350 -480 510 -36 47 -72 92 -78 100 -7 8 -28 36 -46 63 -19 26 -38 47 -42 47
-4 0 -31 -33 -60 -72 -30 -40 -56 -75 -59 -78 -3 -3 -18 -23 -35 -45 -16 -22
-34 -45 -40 -51 -13 -15 -32 -39 -75 -94 -19 -25 -41 -52 -50 -60 -8 -8 -40
-44 -70 -80 -135 -160 -395 -419 -575 -571 -22 -19 -42 -37 -45 -40 -5 -6 -58
-46 -147 -112 -24 -17 -43 -34 -43 -39 0 -4 -5 -8 -11 -8 -11 0 -79 -48 -91
-65 -4 -5 -9 -7 -11 -5 -2 3 -20 28 -40 56 -20 28 -72 85 -116 126 -57 55 -76
79 -68 87 6 6 14 11 18 11 16 0 314 185 374 232 213 168 354 296 470 428 51
58 179 219 230 290 22 30 48 64 57 74 10 11 18 23 18 27 0 4 6 14 13 21 36 38
187 297 187 321 0 3 4 17 10 31 10 29 -11 33 207 -41z"/>
<path fill="#ff0000" stroke="none" d="M710 796 c0 -2 -8 -10 -17 -17 -16 -13
-17 -12 -4 4 13 16 21 21 21 13z"/>
</g>
</svg>