
<svg version="1.0" xmlns="http://www.w3.org/2000/svg"
 width="370.000000pt" height="370.000000pt" viewBox="0 0 370.000000 370.000000"
 preserveAspectRatio="xMidYMid meet">
<g transform="translate(0.000000,370.000000) scale(0.100000,-0.100000)"
fill="#000000" stroke="none"><path fill="#ffffff" stroke="none" d="M0 1850 l0 -1850 1850 0 1850 0 0 1850
0 1850 -1850 0 -1850 0 0 -1850z"/>
<path fill="#000000" stroke="none" d="M1667 3460 c98 -119 267 -328 305 -376
5 -8 -14 -26 -59 -55 -38 -24 -99 -66 -138 -93 -38 -27 -71 -44 -72 -39 -17
51 -178 273 -323 446 -45 54 -81 99 -79 101 2 1 27 15 54 31 60 34 145 95 164
119 8 9 17 15 21 14 4 -2 61 -68 127 -148z"/>
<path fill="#000000" stroke="none" d="M1678 2764 l1192 -6 0 -117 0 -117 -47
-23 c-196 -95 -436 -296 -1268 -1063 -24 -23 -32 -25 -45 -14 -8 7 -57 45
-108 85 -51 41 -92 77 -90 81 2 5 82 79 178 165 96 87 200 181 230 209 30 28
105 96 165 151 92 84 363 333 415 383 13 12 -118 13 -957 10 l-973 -3 0 138 0
139 58 -6 c31 -3 594 -9 1250 -12z"/>
<path fill="#ff0000" stroke="none" d="M467 2774 c-3 -3 -12 -4 -19 -1 -8 3
-5 6 6 6 11 1 17 -2 13 -5z"/>
<path fill="#ff0000" stroke="none" d="M813 2763 c-24 -2 -62 -2 -85 0 -24 2
-5 4 42 4 47 0 66 -2 43 -4z"/>
<path fill="#ff0000" stroke="none" d="M1325 1560 c4 -6 11 -7 17 -4 7 4 8 2
4 -4 -7 -11 32 -38 47 -34 5 1 6 -2 2 -7 -6 -10 34 -37 48 -33 5 1 6 -2 2 -7
-7 -12 29 -33 40 -23 5 4 5 2 1 -5 -3 -6 -2 -14 4 -18 15 -9 12 -18 -14 -45
-30 -32 -240 -228 -277 -259 -16 -13 -29 -29 -29 -35 0 -13 164 -124 230 -156
240 -115 457 -170 810 -206 245 -24 881 -12 1156 22 l51 6 -38 -78 c-40 -82
-63 -146 -74 -207 l-6 -39 -482 5 c-265 2 -529 9 -587 16 -268 28 -367 43
-450 66 -25 7 -65 18 -90 25 -135 37 -288 111 -460 224 -185 121 -182 120
-257 161 -35 19 -75 11 -128 -25 -52 -36 -144 -126 -225 -220 -36 -41 -77 -87
-92 -103 -15 -16 -34 -38 -42 -49 -14 -20 -17 -18 -90 56 -41 42 -79 76 -85
76 -5 0 -16 6 -23 13 -7 7 -23 17 -36 22 -22 10 -19 14 65 96 48 47 117 109
153 139 36 30 67 58 70 61 4 4 65 49 185 136 25 18 74 45 121 68 45 21 284
218 404 332 46 43 64 51 75 33z"/>
</g>
</svg>