
<svg version="1.0" xmlns="http://www.w3.org/2000/svg"
 width="370.000000pt" height="370.000000pt" viewBox="0 0 370.000000 370.000000"
 preserveAspectRatio="xMidYMid meet">
<g transform="translate(0.000000,370.000000) scale(0.100000,-0.100000)"
fill="#000000" stroke="none"><path fill="#ffffff" stroke="none" d="M0 1850 l0 -1850 1850 0 1850 0 0 1850
0 1850 -1850 0 -1850 0 0 -1850z"/>
<path fill="#000000" stroke="none" d="M1757 2499 l82 -132 -28 -76 c-164
-445 -391 -838 -694 -1204 -173 -209 -466 -490 -703 -674 l-40 -32 -50 76
c-27 42 -84 108 -128 148 l-79 73 54 28 c180 90 378 241 559 423 159 160 272
301 415 516 172 260 319 532 460 853 32 72 61 132 64 132 4 0 43 -59 88 -131z"/>
<path fill="#ff0000" stroke="none" d="M1285 3474 c241 -188 492 -434 576
-564 31 -47 59 -92 62 -100 4 -8 16 -30 28 -49 27 -44 130 -248 167 -331 16
-36 42 -92 56 -124 15 -32 52 -120 83 -195 122 -299 185 -421 310 -601 104
-149 280 -333 423 -444 47 -36 90 -70 97 -75 17 -15 211 -134 263 -161 76 -41
76 -36 2 -109 -78 -76 -123 -138 -158 -217 l-24 -55 -58 42 c-77 57 -176 133
-182 140 -3 3 -36 33 -75 66 -132 112 -318 309 -401 424 -43 58 -144 216 -144
225 0 2 -11 22 -25 43 -40 64 -167 322 -230 466 -7 17 -23 53 -35 80 -12 28
-27 61 -32 75 -10 24 -23 55 -46 110 -9 21 -28 70 -94 242 -6 15 -15 25 -21
21 -6 -3 -7 -1 -3 5 9 14 -18 55 -28 44 -4 -4 -7 -2 -6 3 5 22 -1 36 -12 29
-7 -4 -8 -3 -4 4 9 14 -18 55 -28 44 -4 -4 -7 -2 -6 3 5 22 -1 36 -12 29 -7
-4 -8 -3 -4 4 9 14 -18 55 -28 44 -4 -4 -7 -2 -6 3 5 22 -1 36 -12 29 -6 -4
-8 -3 -4 4 7 11 -35 88 -82 151 -160 213 -361 394 -527 475 -33 16 -61 31 -63
32 -2 1 42 47 97 102 54 55 102 110 106 122 4 14 11 18 18 12 7 -4 35 -26 62
-48z"/>
</g>
</svg>