
<svg version="1.0" xmlns="http://www.w3.org/2000/svg"
 width="370.000000pt" height="370.000000pt" viewBox="0 0 370.000000 370.000000"
 preserveAspectRatio="xMidYMid meet">
<g transform="translate(0.000000,370.000000) scale(0.100000,-0.100000)"
fill="#000000" stroke="none"><path fill="#ffffff" stroke="none" d="M0 1850 l0 -1850 1850 0 1850 0 0 1850
0 1850 -1850 0 -1850 0 0 -1850z"/>
<path fill="#000000" stroke="none" d="M2369 3501 l74 -1 -7 -47 c-20 -149
-27 -279 -34 -654 -4 -229 -4 -467 0 -530 22 -334 173 -780 365 -1078 130
-202 334 -423 536 -580 104 -82 122 -101 93 -101 -22 0 -126 -100 -176 -169
-37 -50 -46 -58 -59 -48 -44 32 -150 128 -209 187 -296 295 -497 632 -646
1080 -19 58 -35 103 -35 100 -1 -3 -18 -54 -40 -115 -146 -417 -400 -813 -730
-1140 l-101 -100 -17 25 c-32 47 -121 135 -162 160 -22 14 -41 28 -41 31 0 3
45 43 100 89 460 380 730 916 832 1650 9 70 13 252 13 680 l0 585 85 -12 c47
-6 118 -12 159 -12z"/>
<path fill="#000000" stroke="none" d="M1646 2869 c77 -17 140 -33 142 -34 2
-2 -11 -47 -28 -102 -18 -54 -56 -204 -86 -333 -55 -236 -111 -460 -118 -467
-2 -2 -41 5 -87 16 -46 10 -106 22 -134 26 -27 4 -53 9 -56 11 -4 2 7 50 23
106 84 298 146 564 169 721 8 54 17 87 24 87 7 0 75 -14 151 -31z"/>
<path fill="#000000" stroke="none" d="M3007 2863 c37 -15 106 -37 153 -49 47
-12 84 -25 83 -30 -1 -5 -20 -51 -43 -102 -64 -147 -114 -290 -235 -669 l-27
-82 -76 33 c-42 18 -99 38 -127 46 -27 7 -53 16 -58 20 -4 3 13 62 39 131 101
275 214 649 214 712 0 22 -3 22 77 -10z"/>
<path fill="#ff0000" stroke="none" d="M1055 3430 c28 -13 86 -38 130 -57 93
-40 90 -38 76 -55 -40 -46 -141 -235 -251 -468 l-45 -95 0 -1208 0 -1207 -135
0 -135 0 3 965 c2 531 0 965 -5 965 -4 -1 -34 -41 -66 -90 -52 -80 -143 -207
-157 -220 -3 -3 -23 -30 -45 -60 -22 -30 -45 -61 -52 -68 -7 -7 -19 -23 -28
-34 -14 -22 -15 -21 -57 22 -23 24 -68 62 -99 84 l-57 41 89 105 c177 208 328
439 468 715 83 163 161 330 161 344 0 5 8 24 17 43 9 18 19 40 23 48 8 20 56
175 70 228 9 35 14 41 28 33 9 -5 40 -19 67 -31z"/>
<path fill="#ff0000" stroke="none" d="M2397 2453 c-2 -16 -4 -3 -4 27 0 30 2
43 4 28 2 -16 2 -40 0 -55z"/>
<path fill="#ff0000" stroke="none" d="M2397 2333 c-3 -10 -5 -4 -5 12 0 17 2
24 5 18 2 -7 2 -21 0 -30z"/>
</g>
</svg>