
<svg version="1.0" xmlns="http://www.w3.org/2000/svg"
 width="370.000000pt" height="370.000000pt" viewBox="0 0 370.000000 370.000000"
 preserveAspectRatio="xMidYMid meet">
<g transform="translate(0.000000,370.000000) scale(0.100000,-0.100000)"
fill="#000000" stroke="none"><path fill="#ffffff" stroke="none" d="M0 1850 l0 -1850 1850 0 1850 0 0 1850
0 1850 -1850 0 -1850 0 0 -1850z"/>
<path fill="#000000" stroke="none" d="M2601 3251 c52 -32 127 -75 166 -96 69
-37 72 -40 59 -60 -34 -52 -124 -221 -249 -470 -202 -401 -316 -599 -480 -830
-180 -255 -416 -505 -644 -684 l-53 -41 0 189 0 190 108 108 c187 187 437 522
576 770 72 129 162 321 231 488 55 135 159 419 170 468 4 15 11 27 15 27 4 0
50 -26 101 -59z"/>
<path fill="#000000" stroke="none" d="M1100 1081 l0 -169 -92 -55 c-139 -81
-294 -165 -476 -256 -142 -71 -163 -79 -168 -64 -29 86 -101 200 -171 271 -20
21 -16 30 19 37 48 10 240 72 327 106 123 49 328 154 446 228 61 39 111 70
113 71 1 0 2 -76 2 -169z"/>
<path fill="#ff0000" stroke="none" d="M1585 3464 c16 -22 41 -53 55 -69 33
-40 61 -76 176 -225 52 -69 103 -134 112 -145 22 -26 62 -82 62 -87 0 -2 -20
-14 -45 -28 -25 -14 -45 -28 -45 -32 0 -5 -6 -8 -13 -8 -7 0 -24 -11 -39 -25
-15 -14 -31 -25 -37 -25 -5 0 -11 -4 -13 -8 -1 -4 -20 -21 -40 -36 -35 -26
-38 -27 -45 -10 -33 90 -261 427 -376 558 -19 22 -33 45 -30 50 2 6 25 28 51
49 26 21 71 60 101 87 l55 49 20 -28 c12 -16 34 -46 51 -67z"/>
<path fill="#ff0000" stroke="none" d="M1402 1750 c-3 -1023 -8 -955 78 -997
44 -22 55 -22 450 -24 387 -2 407 -1 450 18 25 11 53 29 62 39 42 47 81 188
113 406 l6 37 47 -27 c51 -30 150 -72 222 -95 31 -9 46 -20 48 -33 3 -20 -68
-275 -86 -310 -5 -11 -23 -45 -38 -77 -48 -97 -114 -155 -223 -195 -41 -15
-105 -17 -581 -17 -571 0 -580 1 -680 51 -58 29 -103 76 -132 139 l-23 50 -5
950 c-4 523 -10 958 -14 968 -8 16 3 17 150 17 l159 0 -3 -900z"/>
<path fill="#ff0000" stroke="none" d="M2890 2360 c3 -3 25 -30 50 -60 25 -30
47 -57 50 -60 11 -11 127 -157 154 -195 16 -22 32 -42 36 -45 3 -3 35 -45 70
-95 36 -49 67 -92 70 -95 10 -9 130 -198 130 -204 0 -3 -5 -6 -11 -6 -18 0
-139 -88 -194 -141 l-51 -49 -43 67 c-100 157 -156 238 -163 241 -4 2 -8 8 -8
13 0 8 -96 148 -109 159 -4 3 -15 18 -24 33 -10 16 -24 36 -32 45 -7 9 -51 64
-96 122 -46 58 -91 114 -101 124 -23 26 -23 28 10 56 15 13 64 57 110 97 l83
72 32 -37 c18 -20 34 -39 37 -42z"/>
<path fill="#ff0000" stroke="none" d="M640 2354 c74 -26 136 -48 137 -49 2
-1 -9 -31 -23 -66 -15 -35 -33 -82 -41 -104 -9 -22 -19 -49 -24 -60 -5 -11
-52 -153 -105 -315 -53 -162 -102 -311 -109 -330 -7 -19 -19 -54 -26 -77 -6
-24 -14 -43 -15 -43 -3 0 -70 25 -174 65 -19 8 -53 20 -75 27 -22 7 -41 13
-43 14 -2 1 1 10 6 21 39 75 134 348 227 648 15 50 31 101 35 115 5 14 21 67
36 118 22 72 32 92 44 88 8 -2 76 -26 150 -52z"/>
</g>
</svg>