
<svg version="1.0" xmlns="http://www.w3.org/2000/svg"
 width="370.000000pt" height="370.000000pt" viewBox="0 0 370.000000 370.000000"
 preserveAspectRatio="xMidYMid meet">
<g transform="translate(0.000000,370.000000) scale(0.100000,-0.100000)"
fill="#000000" stroke="none"><path fill="#ffffff" stroke="none" d="M0 1850 l0 -1850 1850 0 1850 0 0 1850
0 1850 -1850 0 -1850 0 0 -1850z"/>
<path fill="#000000" stroke="none" d="M3105 2918 l0 -538 -1052 0 -1053 0 0
-147 c0 -151 -22 -495 -40 -638 -54 -414 -188 -775 -419 -1128 -50 -75 -94
-137 -98 -137 -5 0 -38 21 -74 48 -36 26 -103 65 -150 87 -46 22 -86 41 -88
43 -3 1 22 31 55 65 284 293 430 646 489 1182 26 241 38 792 26 1259 -5 236
-8 433 -5 438 3 4 546 7 1207 6 l1202 -3 0 -537z"/>
<path fill="#ffffff" stroke="none" d="M1000 2920 l0 -280 895 0 895 0 0 280
0 280 -895 0 -895 0 0 -280z"/>
<path fill="#ff0000" stroke="none" d="M2502 3453 c-331 -2 -873 -2 -1205 0
-331 1 -60 2 603 2 663 0 934 -1 602 -2z"/>
<path fill="#ff0000" stroke="none" d="M697 3318 c-2 -13 -4 -5 -4 17 -1 22 1
32 4 23 2 -10 2 -28 0 -40z"/>
<path fill="#ff0000" stroke="none" d="M2797 2778 c-1 -79 -3 -15 -3 142 0
157 2 221 3 143 2 -79 2 -207 0 -285z"/>
<path fill="#ff0000" stroke="none" d="M3107 3103 c-2 -16 -4 -3 -4 27 0 30 2
43 4 28 2 -16 2 -40 0 -55z"/>
<path fill="#ff0000" stroke="none" d="M3107 2428 c-3 -7 -5 -2 -5 12 0 14 2
19 5 13 2 -7 2 -19 0 -25z"/>
<path fill="#ff0000" stroke="none" d="M1775 2153 c-4 -10 -10 -188 -13 -395
-6 -438 -19 -397 118 -347 47 17 96 34 110 39 43 14 161 65 320 137 142 64
337 166 392 204 14 11 28 19 31 19 10 0 262 172 269 183 7 12 48 -18 48 -36 0
-18 73 -112 136 -174 35 -35 62 -63 61 -63 -1 0 -27 -9 -57 -21 -30 -11 -80
-29 -111 -39 -49 -16 -107 -38 -184 -70 -152 -64 -190 -81 -380 -170 -33 -16
-89 -42 -125 -58 -76 -35 -354 -151 -390 -163 -14 -4 -68 -23 -120 -42 l-95
-33 -3 -177 c-3 -201 4 -227 71 -281 l39 -31 501 -3 c327 -2 514 0 537 7 49
15 85 49 115 109 27 54 55 186 55 260 0 42 14 54 36 32 14 -14 137 -59 225
-82 l75 -20 -7 -52 c-8 -59 -44 -199 -61 -236 -46 -104 -96 -172 -153 -211
-87 -60 -96 -60 -815 -57 -711 4 -706 4 -791 61 -43 29 -95 97 -110 145 -9 27
-14 244 -19 782 -4 410 -10 757 -15 773 l-7 27 162 0 c151 0 162 -1 155 -17z"/>
<path fill="#ff0000" stroke="none" d="M697 2038 c-3 -7 -5 -2 -5 12 0 14 2
19 5 13 2 -7 2 -19 0 -25z"/>
</g>
</svg>