
<svg version="1.0" xmlns="http://www.w3.org/2000/svg"
 width="370.000000pt" height="370.000000pt" viewBox="0 0 370.000000 370.000000"
 preserveAspectRatio="xMidYMid meet">
<g transform="translate(0.000000,370.000000) scale(0.100000,-0.100000)"
fill="#000000" stroke="none"><path fill="#ffffff" stroke="none" d="M0 1850 l0 -1850 1850 0 1850 0 0 1850
0 1850 -1850 0 -1850 0 0 -1850z"/>
<path fill="#000000" stroke="none" d="M1410 3540 c124 -31 119 -27 80 -58
-49 -37 -190 -174 -190 -184 0 -4 295 -8 655 -8 360 0 655 -3 655 -6 0 -3 -33
-45 -73 -92 -91 -108 -177 -216 -247 -307 l-53 -70 398 -5 398 -5 -4 -105 c-5
-144 -1 -590 6 -617 l5 -23 -1236 0 -1236 0 8 292 7 292 -68 -58 c-118 -100
-105 -98 -179 -29 -35 33 -91 77 -125 97 -33 21 -61 39 -61 41 0 2 35 22 78
45 361 195 758 555 922 837 l35 60 70 -38 c38 -21 108 -47 155 -59z"/>
<path fill="#000000" stroke="none" d="M2751 1926 c43 -40 99 -87 124 -102 25
-16 45 -31 45 -34 0 -3 -22 -17 -48 -31 -56 -32 -275 -187 -329 -234 l-38 -33
29 -54 c65 -119 195 -297 276 -379 74 -76 98 -93 190 -137 118 -57 185 -80
342 -118 l108 -27 -61 -60 c-45 -45 -71 -83 -102 -148 -49 -103 -30 -102 -202
-18 -154 75 -286 163 -386 257 -122 114 -265 313 -356 494 -24 48 -47 88 -51
88 -4 0 -41 -20 -82 -45 -40 -25 -76 -42 -80 -38 -4 4 -30 52 -58 105 l-52 96
88 48 c190 103 311 191 437 320 66 67 122 122 124 123 2 1 39 -32 82 -73z"/>
<path fill="#000000" stroke="none" d="M1610 1633 l71 -88 -68 -64 c-160 -150
-476 -332 -743 -429 -263 -95 -452 -162 -454 -162 -2 0 -17 29 -35 64 -21 43
-52 84 -96 125 -36 33 -65 62 -65 65 0 2 21 7 47 10 27 4 80 13 118 21 500
101 736 206 1070 479 44 36 81 65 82 66 1 0 34 -39 73 -87z"/>
<path fill="#000000" stroke="none" d="M1840 1248 c25 -61 46 -114 48 -118 3
-9 -215 -161 -343 -237 -198 -120 -522 -270 -900 -420 -104 -42 -193 -77 -196
-79 -4 -2 -23 18 -43 44 -20 26 -66 77 -102 115 -41 42 -60 69 -52 71 7 2 58
14 113 26 281 62 500 139 760 266 253 123 452 253 605 393 30 27 57 50 60 50
3 1 25 -49 50 -111z"/>
<path fill="#ffffff" stroke="none" d="M1089 3073 c-23 -27 -228 -202 -270
-230 -22 -14 -39 -27 -39 -29 0 -2 253 -4 563 -4 l564 0 34 53 c18 28 61 86
94 127 34 42 65 81 69 88 6 9 -107 12 -497 12 -458 0 -506 -2 -518 -17z"/>
<path fill="#ffffff" stroke="none" d="M860 2435 l0 -175 335 0 334 0 36 64
c34 62 105 217 119 264 l7 22 -415 0 -416 0 0 -175z"/>
<path fill="#ffffff" stroke="none" d="M1941 2548 c-13 -35 -47 -114 -77 -175
l-53 -113 470 0 469 0 0 175 0 175 -393 0 -392 0 -24 -62z"/>
<path fill="#ff0000" stroke="none" d="M3027 2598 c-3 -7 -5 -2 -5 12 0 14 2
19 5 13 2 -7 2 -19 0 -25z"/>
<path fill="#ff0000" stroke="none" d="M577 2263 c-3 -10 -5 -2 -5 17 0 19 2
27 5 18 2 -10 2 -26 0 -35z"/>
<path fill="#ff0000" stroke="none" d="M3027 2233 c-3 -10 -5 -4 -5 12 0 17 2
24 5 18 2 -7 2 -21 0 -30z"/>
<path fill="#ff0000" stroke="none" d="M1660 2042 c0 -4 -11 -16 -25 -26 -14
-10 -25 -26 -25 -34 0 -8 26 -43 58 -76 83 -89 163 -178 197 -222 32 -40 86
-106 95 -114 3 -3 16 -20 29 -38 12 -18 27 -29 33 -26 6 4 8 2 5 -4 -9 -14 3
-43 14 -36 5 3 6 -3 2 -12 -4 -12 -3 -15 6 -10 6 4 10 3 9 -1 -4 -13 54 -133
61 -128 4 2 7 -4 8 -13 1 -9 6 -57 12 -107 30 -240 24 -466 -14 -565 -30 -79
-40 -100 -47 -100 -5 0 -8 -5 -8 -11 0 -33 -190 -159 -241 -159 -7 0 -26 -4
-43 -9 -77 -24 -251 -61 -284 -61 -6 0 -18 21 -25 48 -8 26 -31 86 -51 135
-20 48 -36 89 -36 92 0 3 39 5 87 5 179 0 321 42 367 109 44 64 60 140 60 300
1 107 -2 145 -12 149 -6 2 -10 8 -6 13 3 5 0 9 -6 9 -6 0 -8 5 -5 10 8 13 -4
52 -15 45 -4 -3 -8 1 -7 8 1 31 -4 48 -12 43 -5 -3 -9 0 -8 7 1 31 -4 48 -12
43 -5 -3 -9 0 -8 7 1 34 -4 48 -15 41 -7 -4 -8 -3 -4 5 4 6 -12 41 -38 81 -25
38 -46 72 -46 76 0 15 -42 64 -51 58 -5 -3 -8 -2 -7 3 4 14 -23 54 -33 48 -5
-4 -8 -3 -7 2 5 13 -28 53 -37 45 -5 -4 -5 -1 0 7 10 17 -117 141 -145 141
-11 0 -86 -33 -167 -74 -128 -64 -259 -126 -328 -156 -133 -58 -433 -147 -445
-132 -3 4 -23 33 -44 65 -22 32 -61 78 -88 102 -27 24 -45 46 -40 49 5 3 29 8
53 12 45 6 208 43 309 69 145 38 230 66 308 101 29 13 54 24 57 24 9 0 222
125 250 147 29 22 38 23 198 23 92 0 167 -3 167 -8z"/>
<path fill="#ff0000" stroke="none" d="M2720 1955 c13 -14 21 -25 18 -25 -2 0
-15 11 -28 25 -13 14 -21 25 -18 25 2 0 15 -11 28 -25z"/>
</g>
</svg>