
<svg version="1.0" xmlns="http://www.w3.org/2000/svg"
 width="370.000000pt" height="370.000000pt" viewBox="0 0 370.000000 370.000000"
 preserveAspectRatio="xMidYMid meet">
<g transform="translate(0.000000,370.000000) scale(0.100000,-0.100000)"
fill="#000000" stroke="none"><path fill="#ffffff" stroke="none" d="M0 1850 l0 -1850 1850 0 1850 0 0 1850
0 1850 -1850 0 -1850 0 0 -1850z"/>
<path fill="#000000" stroke="none" d="M2265 1580 l0 -720 -152 0 -153 0 0
105 0 105 -465 0 -465 0 0 -135 0 -135 -155 0 -155 0 7 43 c10 55 10 1222 0
1355 l-8 102 773 0 773 0 0 -720z"/>
<path fill="#ffffff" stroke="none" d="M1030 1685 l0 -355 465 0 465 0 0 355
0 355 -465 0 -465 0 0 -355z"/>
<path fill="#ff0000" stroke="none" d="M1127 3581 c94 -46 128 -62 210 -93
l62 -25 -35 -34 c-50 -47 -100 -117 -165 -227 -30 -51 -62 -105 -71 -120 -9
-15 -17 -30 -17 -34 -1 -5 478 -8 1064 -8 l1065 0 0 -97 c0 -54 -7 -240 -15
-413 -8 -173 -20 -421 -25 -550 -6 -129 -17 -327 -25 -440 -8 -113 -19 -279
-25 -370 -26 -412 -42 -525 -88 -645 -21 -56 -77 -122 -120 -144 -78 -39 -276
-78 -504 -99 l-87 -8 -7 56 c-8 71 -37 185 -60 235 -10 22 -21 47 -25 56 -7
15 16 16 238 15 241 -1 245 -1 263 21 38 47 69 208 90 463 6 74 18 203 25 285
25 272 55 951 55 1238 l0 167 -988 0 -988 0 -54 -77 c-30 -43 -77 -106 -104
-139 -28 -34 -64 -78 -81 -99 -16 -21 -34 -43 -40 -49 -5 -6 -35 -40 -65 -76
-30 -36 -60 -71 -67 -78 -7 -7 -29 -34 -50 -60 -21 -26 -42 -52 -48 -58 -5 -6
-21 -25 -34 -41 l-25 -29 -50 51 c-61 60 -74 70 -154 119 -34 22 -62 40 -62
41 0 2 23 20 52 40 322 232 708 786 844 1213 9 28 20 52 24 52 5 0 44 -17 87
-39z"/>
<path fill="#ff0000" stroke="none" d="M737 1918 c-2 -18 -4 -4 -4 32 0 36 2
50 4 33 2 -18 2 -48 0 -65z"/>
<path fill="#ff0000" stroke="none" d="M737 973 c-2 -16 -4 -5 -4 22 0 28 2
40 4 28 2 -13 2 -35 0 -50z"/>
</g>
</svg>