
<svg version="1.0" xmlns="http://www.w3.org/2000/svg"
 width="370.000000pt" height="370.000000pt" viewBox="0 0 370.000000 370.000000"
 preserveAspectRatio="xMidYMid meet">
<g transform="translate(0.000000,370.000000) scale(0.100000,-0.100000)"
fill="#000000" stroke="none"><path fill="#ffffff" stroke="none" d="M0 1850 l0 -1850 1850 0 1850 0 0 1850
0 1850 -1850 0 -1850 0 0 -1850z"/>
<path fill="#000000" stroke="none" d="M2455 3551 c-8 -26 -24 -259 -25 -355
l0 -78 365 4 365 3 0 -133 0 -133 -77 5 c-43 3 -207 8 -365 12 l-288 6 0 -238
0 -237 448 6 c246 4 457 10 470 13 l22 6 0 -135 0 -134 -502 4 -503 4 96 -93
c247 -239 524 -375 947 -463 17 -4 32 -9 32 -12 0 -2 -20 -28 -45 -56 -44 -50
-125 -195 -125 -223 0 -28 -25 -23 -153 31 -285 122 -571 293 -751 450 -83 73
-220 220 -294 316 l-37 48 -266 1 -267 0 -41 -69 c-161 -272 -413 -498 -809
-725 -138 -79 -332 -180 -337 -174 -1 2 -18 35 -39 73 -20 39 -63 100 -96 137
-33 36 -60 69 -60 72 0 3 7 6 15 6 29 0 242 83 361 141 136 66 282 156 406
250 93 71 233 209 262 259 l19 33 -477 -5 -476 -5 0 134 0 135 22 -6 c13 -4
229 -9 481 -13 l457 -6 0 238 0 237 -292 -6 c-161 -4 -323 -9 -361 -12 l-67
-6 0 134 0 133 361 -4 362 -3 -7 178 c-4 99 -9 196 -12 217 l-6 37 157 0 157
0 -6 -37 c-3 -21 -9 -118 -12 -215 l-7 -178 353 0 353 0 -7 225 -7 225 156 0
c148 0 156 -1 150 -19z"/>
<path fill="#ffffff" stroke="none" d="M1460 2645 l0 -235 350 0 350 0 0 235
0 235 -350 0 -350 0 0 -235z"/>
<path fill="#ff0000" stroke="none" d="M2437 3328 c-3 -8 -6 -5 -6 6 -1 11 2
17 5 13 3 -3 4 -12 1 -19z"/>
<path fill="#ff0000" stroke="none" d="M868 2873 c-21 -2 -57 -2 -80 0 -24 2
-7 4 37 4 44 0 63 -2 43 -4z"/>
<path fill="#ff0000" stroke="none" d="M2813 2873 c-24 -2 -62 -2 -85 0 -24 2
-5 4 42 4 47 0 66 -2 43 -4z"/>
<path fill="#ff0000" stroke="none" d="M498 2413 c-10 -2 -26 -2 -35 0 -10 3
-2 5 17 5 19 0 27 -2 18 -5z"/>
<path fill="#ff0000" stroke="none" d="M3113 2413 c-7 -2 -21 -2 -30 0 -10 3
-4 5 12 5 17 0 24 -2 18 -5z"/>
<path fill="#ff0000" stroke="none" d="M433 2163 c-7 -2 -19 -2 -25 0 -7 3 -2
5 12 5 14 0 19 -2 13 -5z"/>
<path fill="#ff0000" stroke="none" d="M3183 2163 c-7 -2 -19 -2 -25 0 -7 3
-2 5 12 5 14 0 19 -2 13 -5z"/>
<path fill="#ff0000" stroke="none" d="M1853 1673 c-2 -142 -4 -451 -6 -688
-2 -300 -7 -441 -15 -466 -17 -49 -72 -111 -123 -137 -24 -12 -80 -31 -124
-43 -75 -20 -110 -27 -226 -45 l-47 -6 -16 55 c-9 30 -16 58 -16 62 0 12 -53
140 -60 145 -3 3 -9 13 -13 22 -5 15 9 17 153 20 152 3 159 4 185 28 l26 24
-3 643 -3 643 145 0 145 0 -2 -257z"/>
<path fill="#ff0000" stroke="none" d="M1126 1365 l121 -61 -99 -149 c-55 -83
-105 -158 -113 -167 -7 -9 -18 -25 -24 -36 -6 -11 -17 -26 -23 -34 -7 -7 -45
-56 -84 -108 -40 -53 -90 -116 -112 -140 -22 -25 -49 -56 -60 -69 l-19 -25
-79 65 c-44 36 -96 76 -116 88 -21 12 -38 25 -38 28 0 3 44 49 99 103 138 137
275 329 371 521 21 40 35 57 43 52 7 -4 66 -35 133 -68z"/>
<path fill="#ff0000" stroke="none" d="M2829 1388 c40 -68 55 -92 61 -98 9 -8
60 -89 60 -94 0 -6 82 -139 90 -146 3 -3 16 -25 29 -50 12 -25 43 -81 67 -126
l43 -80 -132 -67 -132 -67 -12 27 c-63 139 -81 176 -119 241 -24 40 -44 76
-44 78 0 8 -55 89 -62 92 -5 2 -8 8 -8 13 0 5 -29 52 -65 103 l-64 94 122 65
c67 36 125 65 129 66 3 1 20 -23 37 -51z"/>
<path fill="#ff0000" stroke="none" d="M2338 1288 c28 -57 71 -148 97 -202 25
-55 59 -127 75 -160 52 -112 90 -196 90 -199 0 -2 -28 -16 -62 -31 -35 -16
-91 -41 -126 -57 -35 -16 -67 -29 -71 -29 -5 0 -13 12 -19 28 -61 164 -136
339 -223 519 -33 67 -59 126 -59 131 0 5 22 17 48 26 27 8 78 29 113 46 35 16
69 30 75 30 7 0 34 -46 62 -102z"/>
</g>
</svg>