
<svg version="1.0" xmlns="http://www.w3.org/2000/svg"
 width="370.000000pt" height="370.000000pt" viewBox="0 0 370.000000 370.000000"
 preserveAspectRatio="xMidYMid meet">
<g transform="translate(0.000000,370.000000) scale(0.100000,-0.100000)"
fill="#000000" stroke="none"><path fill="#ffffff" stroke="none" d="M0 1850 l0 -1850 1850 0 1850 0 0 1850
0 1850 -1850 0 -1850 0 0 -1850z"/>
<path fill="#000000" stroke="none" d="M2556 3468 c-3 -57 -8 -217 -12 -355
l-6 -253 408 0 409 0 0 -815 0 -815 -132 0 -133 0 0 125 0 125 -276 0 -277 0
6 -532 c4 -293 9 -548 13 -565 l6 -33 -147 0 -147 0 6 38 c3 20 9 274 12 564
l7 528 -277 0 -276 0 0 -150 0 -150 -137 0 -138 0 0 840 0 840 410 2 410 3 -3
245 c-1 135 -5 293 -8 353 l-6 107 147 0 147 0 -6 -102z"/>
<path fill="#ffffff" stroke="none" d="M1740 2170 l0 -480 275 0 275 0 0 480
0 480 -275 0 -275 0 0 -480z"/>
<path fill="#ffffff" stroke="none" d="M2540 2170 l0 -480 275 0 275 0 0 480
0 480 -275 0 -275 0 0 -480z"/>
<path fill="#ff0000" stroke="none" d="M967 3485 c-26 -187 -28 -334 -25
-1655 3 -762 8 -1395 12 -1408 l8 -22 -146 0 -146 0 8 47 c9 62 9 3008 0 3051
l-7 32 151 0 151 0 -6 -45z"/>
<path fill="#ff0000" stroke="none" d="M2557 3483 c-3 -10 -5 -4 -5 12 0 17 2
24 5 18 2 -7 2 -21 0 -30z"/>
<path fill="#ff0000" stroke="none" d="M1241 2753 c70 -155 189 -456 189 -478
0 -4 -183 -93 -199 -97 -13 -3 -22 16 -86 192 -15 41 -33 89 -40 105 -46 108
-88 229 -80 232 6 2 46 24 90 48 44 24 85 44 92 45 7 0 22 -21 34 -47z"/>
<path fill="#ff0000" stroke="none" d="M385 2750 c28 -5 71 -12 98 -15 54 -7
53 -3 37 -130 -5 -44 -14 -127 -20 -185 -12 -108 -33 -263 -50 -361 -6 -30
-10 -68 -10 -83 0 -15 -5 -47 -11 -71 l-11 -43 -46 13 c-41 11 -99 23 -191 41
-25 5 -25 7 -2 109 55 243 84 423 107 678 5 64 7 68 27 63 12 -3 45 -10 72
-16z"/>
</g>
</svg>