
<svg version="1.0" xmlns="http://www.w3.org/2000/svg"
 width="370.000000pt" height="370.000000pt" viewBox="0 0 370.000000 370.000000"
 preserveAspectRatio="xMidYMid meet">
<g transform="translate(0.000000,370.000000) scale(0.100000,-0.100000)"
fill="#000000" stroke="none"><path fill="#ffffff" stroke="none" d="M0 1850 l0 -1850 1850 0 1850 0 0 1850
0 1850 -1850 0 -1850 0 0 -1850z"/>
<path fill="#000000" stroke="none" d="M2006 3508 c-3 -24 -9 -226 -13 -451
l-6 -407 29 10 c16 5 250 73 519 150 270 78 498 143 509 147 17 5 18 1 13 -43
-28 -253 -47 -443 -57 -569 -25 -339 -64 -720 -81 -780 -15 -53 -52 -125 -83
-163 -48 -56 -184 -108 -401 -152 -149 -30 -149 -30 -163 31 -7 28 -30 98 -53
155 -23 58 -39 107 -38 108 2 2 76 8 164 14 174 12 219 22 251 57 39 42 52
114 79 415 14 162 30 345 36 406 6 61 9 118 7 126 -2 12 -67 -3 -328 -73 -179
-48 -343 -93 -364 -99 l-39 -12 6 -611 c4 -337 10 -640 13 -674 l7 -63 -164 0
-164 0 3 630 c3 381 0 630 -5 630 -8 0 -236 -61 -285 -76 -17 -5 -18 6 -18
130 l0 135 68 20 c37 11 105 30 152 43 l85 24 0 492 0 492 164 0 164 0 -7 -42z"/>
<path fill="#ff0000" stroke="none" d="M2007 3498 c-3 -8 -6 -5 -6 6 -1 11 2
17 5 13 3 -3 4 -12 1 -19z"/>
<path fill="#ff0000" stroke="none" d="M1034 2790 c-6 -355 -5 -410 7 -410 14
0 130 31 249 66 30 9 61 18 68 20 9 3 12 -27 12 -125 l0 -128 -102 -27 c-57
-14 -119 -31 -138 -37 -19 -6 -48 -14 -65 -18 l-30 -7 0 -629 c0 -693 -2 -668
63 -737 68 -72 18 -69 995 -66 l876 3 30 29 c17 16 35 43 40 60 14 47 39 199
50 305 6 51 12 96 15 98 2 2 30 -9 63 -25 89 -46 212 -92 246 -92 22 0 22 -40
1 -123 -8 -34 -20 -80 -25 -102 -52 -210 -108 -316 -183 -349 -120 -52 -199
-56 -1173 -56 -938 0 -979 2 -1070 48 -59 31 -122 97 -150 159 -51 110 -52
134 -53 782 l0 603 -32 -5 c-37 -6 -52 -10 -220 -61 -64 -19 -125 -39 -135
-44 -10 -5 -30 -12 -44 -15 -25 -6 -27 -4 -39 51 -7 31 -21 90 -32 131 -10 40
-17 74 -16 75 2 1 41 12 88 24 196 52 269 72 345 94 l80 24 -2 384 c0 212 -4
413 -7 448 l-7 62 151 0 151 0 -7 -410z"/>
<path fill="#ff0000" stroke="none" d="M1697 2673 c-1 -60 -3 -11 -3 107 0
118 2 167 3 108 2 -60 2 -156 0 -215z"/>
<path fill="#ff0000" stroke="none" d="M1697 1883 c-1 -76 -3 -14 -3 137 0
151 2 213 3 138 2 -76 2 -200 0 -275z"/>
<path fill="#ff0000" stroke="none" d="M2333 1553 c-7 -2 -19 -2 -25 0 -7 3
-2 5 12 5 14 0 19 -2 13 -5z"/>
<path fill="#ff0000" stroke="none" d="M2007 1088 c-3 -7 -5 -2 -5 12 0 14 2
19 5 13 2 -7 2 -19 0 -25z"/>
</g>
</svg>