
<svg version="1.0" xmlns="http://www.w3.org/2000/svg"
 width="370.000000pt" height="370.000000pt" viewBox="0 0 370.000000 370.000000"
 preserveAspectRatio="xMidYMid meet">
<g transform="translate(0.000000,370.000000) scale(0.100000,-0.100000)"
fill="#000000" stroke="none"><path fill="#ffffff" stroke="none" d="M0 1850 l0 -1850 1850 0 1850 0 0 1850
0 1850 -1850 0 -1850 0 0 -1850z"/>
<path fill="#000000" stroke="none" d="M1064 3526 c60 -26 129 -51 152 -57 24
-6 44 -13 44 -15 0 -2 -13 -27 -28 -56 -34 -64 -115 -258 -212 -508 l-72 -185
4 -1198 3 -1197 -140 0 -141 0 4 942 4 943 -65 -100 c-93 -144 -195 -291 -245
-352 l-43 -53 -34 40 c-37 44 -79 86 -138 138 l-38 32 64 73 c100 114 174 217
259 360 214 359 367 731 465 1133 16 65 32 113 38 110 5 -2 59 -25 119 -50z"/>
<path fill="#000000" stroke="none" d="M2754 3261 c131 -168 236 -312 235
-326 0 -10 -249 -190 -253 -183 -1 2 -17 30 -36 63 -47 86 -158 252 -224 334
-31 38 -56 74 -56 78 0 4 30 28 65 51 36 24 84 61 107 83 24 21 45 38 48 38 3
0 54 -62 114 -138z"/>
<path fill="#ff0000" stroke="none" d="M1910 3500 c41 -5 96 -12 121 -15 l46
-6 7 -321 c3 -176 11 -366 17 -422 6 -55 14 -160 18 -233 4 -73 10 -135 13
-138 3 -4 35 0 70 8 34 9 92 20 128 27 36 6 81 15 100 20 19 5 82 19 140 30
170 33 508 117 569 141 27 11 37 2 46 -41 3 -14 12 -45 19 -70 8 -25 17 -58
19 -75 3 -16 9 -38 12 -47 6 -15 1 -18 -30 -18 -20 0 -55 -4 -78 -9 -45 -10
-178 -36 -267 -52 -30 -6 -82 -17 -115 -24 -33 -7 -89 -19 -125 -25 -64 -11
-100 -18 -193 -40 -26 -5 -93 -19 -148 -30 -56 -11 -105 -23 -110 -26 -10 -6
-7 -31 18 -154 8 -41 19 -91 23 -110 3 -19 12 -51 18 -70 6 -19 16 -55 23 -80
6 -25 22 -79 35 -120 14 -41 29 -91 35 -110 6 -19 16 -48 24 -65 7 -16 17 -41
22 -55 19 -49 118 -245 125 -248 4 -2 8 -8 8 -13 0 -47 246 -313 363 -393 58
-39 76 -46 116 -46 51 0 56 5 79 75 14 43 41 180 48 249 3 33 9 55 12 49 11
-17 173 -89 232 -104 30 -7 57 -14 59 -15 1 -2 -4 -24 -12 -51 -8 -26 -20 -68
-27 -93 -28 -103 -75 -232 -108 -299 -74 -148 -172 -175 -379 -106 -48 16
-173 86 -204 115 -9 8 -38 33 -65 55 -69 58 -153 148 -229 245 -36 47 -72 93
-80 102 -58 71 -182 335 -239 508 -13 41 -29 86 -34 100 -5 14 -15 45 -22 70
-7 25 -18 65 -25 90 -25 85 -80 311 -91 373 -3 20 -10 40 -15 42 -4 3 -39 -2
-76 -11 -37 -9 -84 -20 -103 -24 -19 -4 -57 -13 -85 -20 -42 -10 -161 -37
-255 -56 -14 -3 -47 -13 -73 -21 -56 -17 -72 -13 -80 19 -6 26 -52 175 -62
199 -7 17 5 20 198 50 90 13 203 34 377 69 25 5 64 12 88 15 l42 7 0 66 c0 37
-4 114 -10 172 -5 58 -14 179 -20 270 -6 91 -17 246 -25 345 -8 99 -16 219
-17 268 l-3 87 30 0 c17 0 64 -4 105 -10z"/>
<path fill="#ff0000" stroke="none" d="M677 568 c-2 -13 -4 -5 -4 17 -1 22 1
32 4 23 2 -10 2 -28 0 -40z"/>
<path fill="#ff0000" stroke="none" d="M957 563 c-3 -10 -5 -2 -5 17 0 19 2
27 5 18 2 -10 2 -26 0 -35z"/>
</g>
</svg>