
<svg version="1.0" xmlns="http://www.w3.org/2000/svg"
 width="370.000000pt" height="370.000000pt" viewBox="0 0 370.000000 370.000000"
 preserveAspectRatio="xMidYMid meet">
<g transform="translate(0.000000,370.000000) scale(0.100000,-0.100000)"
fill="#000000" stroke="none"><path fill="#ffffff" stroke="none" d="M0 1850 l0 -1850 1850 0 1850 0 0 1850
0 1850 -1850 0 -1850 0 0 -1850z"/>
<path fill="#000000" stroke="none" d="M842 2135 l-4 -415 114 5 c285 14 546
25 566 25 21 0 22 -3 22 -120 l0 -119 -32 -5 c-18 -3 -175 -12 -348 -21 -173
-9 -376 -20 -450 -25 -74 -6 -142 -10 -150 -10 -13 0 -15 68 -15 550 l0 550
150 0 150 0 -3 -415z"/>
<path fill="#000000" stroke="none" d="M2883 2423 c-10 -153 -11 -906 0 -1045
l9 -108 -146 0 -146 0 0 129 c0 72 -3 132 -7 134 -5 2 -82 0 -173 -4 -91 -3
-261 -10 -377 -14 l-213 -7 0 115 c0 66 4 118 10 122 5 3 133 10 282 15 150 5
320 12 377 16 l104 6 -7 317 c-4 174 -9 344 -12 379 l-6 62 157 0 157 0 -9
-117z"/>
<path fill="#ff0000" stroke="none" d="M1838 3478 c-3 -46 -7 -161 -7 -256
l-1 -173 748 3 c411 2 755 7 765 12 16 8 17 -2 17 -125 l0 -134 -765 3 -764 4
0 -1024 c0 -1009 1 -1023 21 -1058 51 -88 65 -90 589 -90 476 0 491 1 559 50
48 34 104 177 125 320 3 25 8 57 11 72 l5 27 62 -40 c65 -42 171 -95 213 -105
31 -8 36 -17 25 -46 -5 -13 -26 -70 -46 -128 -78 -221 -134 -306 -227 -341
-110 -42 -138 -44 -778 -44 l-615 0 -65 31 c-78 37 -130 93 -148 158 -9 35
-12 304 -12 1132 l0 1086 -680 -3 -680 -4 0 132 0 133 33 -8 c17 -4 322 -7
677 -7 l645 0 3 145 c1 80 -1 193 -6 253 l-8 107 156 0 155 0 -7 -82z"/>
<path fill="#ff0000" stroke="none" d="M547 2438 c-3 -7 -5 -2 -5 12 0 14 2
19 5 13 2 -7 2 -19 0 -25z"/>
<path fill="#ff0000" stroke="none" d="M1973 1753 c-7 -2 -19 -2 -25 0 -7 3
-2 5 12 5 14 0 19 -2 13 -5z"/>
<path fill="#ff0000" stroke="none" d="M1443 1743 c-7 -2 -19 -2 -25 0 -7 3
-2 5 12 5 14 0 19 -2 13 -5z"/>
<path fill="#ff0000" stroke="none" d="M547 1538 c-3 -8 -6 -5 -6 6 -1 11 2
17 5 13 3 -3 4 -12 1 -19z"/>
<path fill="#ff0000" stroke="none" d="M627 1454 c-3 -3 -12 -4 -19 -1 -8 3
-5 6 6 6 11 1 17 -2 13 -5z"/>
</g>
</svg>