
<svg version="1.0" xmlns="http://www.w3.org/2000/svg"
 width="370.000000pt" height="370.000000pt" viewBox="0 0 370.000000 370.000000"
 preserveAspectRatio="xMidYMid meet">
<g transform="translate(0.000000,370.000000) scale(0.100000,-0.100000)"
fill="#000000" stroke="none"><path fill="#ffffff" stroke="none" d="M0 1850 l0 -1850 1850 0 1850 0 0 1850
0 1850 -1850 0 -1850 0 0 -1850z"/>
<path fill="#000000" stroke="none" d="M2619 3230 l703 0 -6 -52 c-7 -59 -19
-287 -41 -798 -8 -190 -20 -439 -25 -555 -5 -115 -16 -372 -25 -570 -8 -198
-17 -387 -20 -420 -18 -181 -90 -320 -190 -366 -44 -19 -204 -58 -390 -94
-124 -24 -134 -23 -135 17 0 31 -51 171 -88 243 -20 38 -38 73 -40 76 -1 3 80
9 180 13 275 11 322 25 363 111 28 56 30 75 45 425 6 129 17 366 25 525 8 160
19 394 25 520 6 127 15 311 20 410 6 99 10 204 10 233 l0 52 -320 0 -320 0 0
-182 c0 -473 -56 -933 -154 -1253 -124 -412 -256 -623 -610 -984 -94 -95 -192
-191 -218 -213 l-48 -40 -46 41 c-52 46 -104 77 -187 111 -31 13 -57 27 -57
30 0 4 21 22 48 40 249 175 514 438 633 630 136 216 248 525 293 800 43 265
56 449 56 774 l0 249 -295 -6 -295 -6 0 126 0 126 203 -6 c111 -4 519 -7 906
-7z"/>
<path fill="#ff0000" stroke="none" d="M914 3443 c-4 -10 -9 -229 -12 -486
l-4 -469 59 7 c32 3 96 12 143 20 47 7 123 18 170 24 47 7 118 17 158 23 40 6
75 9 77 6 3 -3 10 -53 15 -112 5 -59 12 -111 15 -115 5 -10 -16 -13 -205 -31
-63 -6 -159 -18 -213 -26 -54 -8 -118 -14 -142 -14 -82 0 -75 48 -75 -521 0
-385 3 -509 12 -509 20 0 355 218 486 317 46 35 85 63 88 63 2 0 4 -6 4 -14 0
-8 24 -62 54 -120 l54 -105 -56 -33 c-55 -31 -117 -70 -137 -86 -5 -4 -35 -23
-65 -42 -30 -19 -56 -38 -58 -42 -2 -5 -8 -8 -12 -8 -12 0 -381 -250 -527
-356 -13 -9 -30 -22 -40 -29 -15 -11 -23 -3 -67 72 -28 47 -65 101 -81 121
l-31 35 32 31 c40 40 77 100 92 152 9 30 12 181 12 533 0 461 -1 491 -17 491
-10 0 -52 -4 -93 -10 -41 -5 -120 -14 -175 -20 -55 -6 -121 -13 -146 -16 l-47
-6 -7 49 c-3 26 -9 83 -13 125 l-8 77 86 5 c47 3 161 14 254 23 l168 17 -4
480 c-3 265 -8 489 -12 499 -8 16 2 17 134 17 132 0 142 -1 134 -17z"/>
<path fill="#ff0000" stroke="none" d="M1673 2993 c-7 -2 -21 -2 -30 0 -10 3
-4 5 12 5 17 0 24 -2 18 -5z"/>
<path fill="#ff0000" stroke="none" d="M3277 2388 c-3 -8 -6 -5 -6 6 -1 11 2
17 5 13 3 -3 4 -12 1 -19z"/>
<path fill="#ff0000" stroke="none" d="M3267 2158 c-3 -8 -6 -5 -6 6 -1 11 2
17 5 13 3 -3 4 -12 1 -19z"/>
<path fill="#ff0000" stroke="none" d="M3257 1948 c-3 -7 -5 -2 -5 12 0 14 2
19 5 13 2 -7 2 -19 0 -25z"/>
<path fill="#ff0000" stroke="none" d="M2977 1768 c-3 -8 -6 -5 -6 6 -1 11 2
17 5 13 3 -3 4 -12 1 -19z"/>
<path fill="#ff0000" stroke="none" d="M2967 1578 c-3 -8 -6 -5 -6 6 -1 11 2
17 5 13 3 -3 4 -12 1 -19z"/>
</g>
</svg>