
<svg version="1.0" xmlns="http://www.w3.org/2000/svg"
 width="370.000000pt" height="370.000000pt" viewBox="0 0 370.000000 370.000000"
 preserveAspectRatio="xMidYMid meet">
<g transform="translate(0.000000,370.000000) scale(0.100000,-0.100000)"
fill="#000000" stroke="none"><path fill="#ffffff" stroke="none" d="M0 1850 l0 -1850 1850 0 1850 0 0 1850
0 1850 -1850 0 -1850 0 0 -1850z"/>
<path fill="#000000" stroke="none" d="M2048 3567 l123 -12 3 -470 c3 -258 7
-493 11 -521 l7 -51 77 14 c42 8 265 52 496 98 231 46 421 82 423 80 1 -1 9
-47 17 -101 8 -55 18 -114 21 -131 4 -23 2 -34 -7 -37 -8 -2 -93 -16 -189 -31
-96 -15 -278 -47 -405 -71 -402 -75 -405 -76 -405 -95 0 -10 13 -109 29 -221
31 -211 79 -449 109 -538 l18 -52 96 129 c155 208 306 454 357 583 8 19 16 37
17 39 2 2 42 -33 89 -77 46 -44 103 -93 125 -109 22 -15 40 -32 40 -36 0 -10
-296 -401 -469 -620 -69 -88 -130 -165 -135 -172 -19 -26 169 -337 256 -424
77 -78 153 -101 196 -61 36 33 52 74 92 234 21 83 42 150 47 149 5 -1 47 -25
94 -55 46 -29 108 -64 137 -77 29 -14 52 -30 52 -36 0 -30 -95 -289 -140 -381
-60 -123 -115 -183 -198 -214 -109 -41 -195 -14 -343 108 -138 113 -289 298
-376 459 l-39 72 -95 -80 c-114 -98 -260 -206 -393 -289 -103 -65 -296 -170
-312 -170 -5 0 -18 17 -29 38 -11 20 -57 74 -101 119 l-82 81 61 22 c231 84
581 306 746 474 l74 75 -31 103 c-63 207 -114 448 -152 714 -12 82 -23 154
-25 160 -2 8 -35 4 -107 -12 -57 -13 -174 -38 -261 -55 -178 -36 -171 -38
-181 42 -4 27 -18 82 -31 121 -13 40 -23 73 -22 74 1 0 70 11 152 23 143 21
403 69 415 76 3 2 3 45 -1 97 -6 83 -21 477 -34 881 l-4 147 32 -1 c18 0 87
-6 155 -12z"/>
<path fill="#000000" stroke="none" d="M2660 3389 c142 -114 294 -254 368
-337 l63 -71 -93 -93 -93 -93 -90 94 c-49 52 -165 161 -258 244 l-167 150 48
51 c26 28 63 70 82 94 18 23 35 42 36 42 2 0 49 -36 104 -81z"/>
<path fill="#ff0000" stroke="none" d="M2178 3499 l-3 -44 -5 52 c-3 29 -1 48
3 44 5 -5 7 -28 5 -52z"/>
<path fill="#ff0000" stroke="none" d="M992 3124 l-3 -405 196 3 195 3 0 -118
0 -119 -195 8 -195 7 0 -276 0 -276 58 27 c31 15 101 51 156 80 54 29 100 51
103 49 2 -3 8 -34 13 -70 5 -35 14 -77 20 -92 10 -27 0 -55 -20 -55 -4 0 -47
-23 -96 -51 -49 -28 -122 -68 -161 -87 l-73 -36 -1 -541 c0 -576 -5 -643 -48
-720 -25 -43 -41 -58 -86 -79 -63 -30 -159 -47 -342 -62 l-82 -6 -6 38 c-8 49
-47 177 -69 227 l-16 37 164 0 c183 0 193 3 215 69 7 23 11 176 11 467 0 356
-2 434 -13 434 -8 0 -40 -13 -73 -29 -32 -16 -122 -59 -199 -96 -77 -37 -143
-70 -148 -72 -4 -2 -13 10 -19 29 -6 18 -31 72 -55 121 -44 87 -47 107 -14
107 26 0 320 108 378 139 22 11 79 36 116 50 l27 11 0 331 0 332 -240 -6 -240
-6 0 117 0 117 242 -3 241 -3 -6 383 c-4 211 -10 393 -13 406 l-6 22 143 0
144 0 -3 -406z"/>
<path fill="#ff0000" stroke="none" d="M1877 3093 c-3 -10 -5 -4 -5 12 0 17 2
24 5 18 2 -7 2 -21 0 -30z"/>
<path fill="#ff0000" stroke="none" d="M2177 2783 c-3 -10 -5 -2 -5 17 0 19 2
27 5 18 2 -10 2 -26 0 -35z"/>
</g>
</svg>