
<svg version="1.0" xmlns="http://www.w3.org/2000/svg"
 width="370.000000pt" height="370.000000pt" viewBox="0 0 370.000000 370.000000"
 preserveAspectRatio="xMidYMid meet">
<g transform="translate(0.000000,370.000000) scale(0.100000,-0.100000)"
fill="#000000" stroke="none"><path fill="#ffffff" stroke="none" d="M0 1850 l0 -1850 1850 0 1850 0 0 1850
0 1850 -1850 0 -1850 0 0 -1850z"/>
<path fill="#000000" stroke="none" d="M1694 3590 c27 -6 91 -13 142 -17 52
-3 94 -7 94 -9 0 -2 -11 -37 -25 -77 -13 -40 -45 -188 -70 -328 -25 -140 -48
-265 -51 -278 l-5 -24 653 7 c359 3 670 9 691 12 l37 6 0 -112 c0 -112 0 -112
-22 -105 -13 3 -332 9 -710 12 l-686 6 -61 -121 c-34 -67 -61 -124 -61 -127 0
-4 389 -5 865 -3 l865 3 0 -102 0 -102 -467 6 -466 6 19 -32 c28 -48 146 -156
226 -208 182 -118 440 -202 703 -228 39 -4 73 -9 78 -12 4 -2 -11 -25 -34 -51
-38 -44 -109 -154 -109 -170 0 -4 -7 -17 -15 -29 l-15 -22 -93 25 c-146 39
-276 91 -468 185 -172 85 -181 91 -291 193 -62 58 -120 117 -128 130 -8 14
-44 68 -80 120 l-65 95 -321 1 -321 0 -99 -101 c-261 -266 -733 -604 -996
-713 l-36 -16 -27 45 c-29 51 -104 114 -179 152 l-51 26 45 15 c287 92 430
161 690 335 118 78 320 237 320 251 0 6 -188 7 -470 3 l-470 -6 0 102 0 102
551 0 551 0 59 115 c32 63 58 119 59 124 0 10 -950 0 -988 -10 -22 -6 -22 -6
-22 105 l0 111 98 -7 c53 -4 297 -7 542 -7 l444 -1 8 35 c26 123 68 538 68
683 0 23 3 27 23 22 12 -3 44 -10 71 -15z"/>
<path fill="#000000" stroke="none" d="M2735 3465 c66 -33 122 -61 125 -63 2
-2 -18 -21 -45 -44 -28 -22 -126 -117 -219 -211 l-168 -171 -104 54 c-57 30
-104 57 -104 60 1 3 21 28 46 55 92 101 246 288 280 340 27 41 40 52 52 47 10
-4 71 -34 137 -67z"/>
<path fill="#000000" stroke="none" d="M1228 3205 c2 -2 -17 -14 -41 -28 -44
-26 -157 -139 -157 -158 0 -17 -20 -9 -53 22 -50 49 -132 110 -259 193 -65 43
-118 81 -117 84 0 4 44 46 97 93 l97 86 215 -145 c118 -80 216 -146 218 -147z"/>
<path fill="#ff0000" stroke="none" d="M758 2673 c-10 -2 -26 -2 -35 0 -10 3
-2 5 17 5 19 0 27 -2 18 -5z"/>
<path fill="#ff0000" stroke="none" d="M2898 2673 c-10 -2 -26 -2 -35 0 -10 3
-2 5 17 5 19 0 27 -2 18 -5z"/>
<path fill="#ff0000" stroke="none" d="M467 2664 c-3 -3 -12 -4 -19 -1 -8 3
-5 6 6 6 11 1 17 -2 13 -5z"/>
<path fill="#ff0000" stroke="none" d="M3157 2664 c-3 -3 -12 -4 -19 -1 -8 3
-5 6 6 6 11 1 17 -2 13 -5z"/>
<path fill="#ff0000" stroke="none" d="M2348 1966 l27 -31 -30 25 c-17 14 9
-14 57 -61 102 -100 105 -92 -55 -109 -51 -6 -128 -15 -172 -20 -44 -6 -109
-14 -145 -18 l-65 -7 -3 -129 -3 -129 426 5 425 5 0 -102 0 -102 -425 5 -425
5 0 -132 0 -132 660 3 660 3 0 -100 0 -100 -658 4 -659 3 -6 -154 c-10 -211
-38 -291 -114 -323 -52 -22 -226 -56 -325 -64 -73 -5 -88 -4 -88 8 0 27 -34
126 -65 187 l-31 61 136 6 c74 4 148 9 163 13 45 10 56 40 64 158 l6 108 -726
-3 -727 -4 0 100 0 100 725 -3 725 -3 0 132 0 132 -495 -5 -495 -5 0 102 0
102 495 -5 495 -5 0 112 0 112 -47 -6 c-27 -3 -86 -12 -133 -20 -47 -7 -125
-19 -175 -25 -49 -6 -118 -15 -151 -20 -97 -16 -104 -14 -104 18 0 16 -8 55
-19 88 -18 58 -23 94 -12 91 3 -1 62 4 131 11 69 7 172 17 230 23 58 5 155 17
215 25 61 8 144 19 185 25 126 17 297 47 390 69 67 16 108 9 138 -24z"/>
</g>
</svg>