
<svg version="1.0" xmlns="http://www.w3.org/2000/svg"
 width="370.000000pt" height="370.000000pt" viewBox="0 0 370.000000 370.000000"
 preserveAspectRatio="xMidYMid meet">
<g transform="translate(0.000000,370.000000) scale(0.100000,-0.100000)"
fill="#000000" stroke="none"><path fill="#ffffff" stroke="none" d="M0 1850 l0 -1850 1850 0 1850 0 0 1850
0 1850 -1850 0 -1850 0 0 -1850z"/>
<path fill="#000000" stroke="none" d="M1932 3505 c-2 -11 -6 -246 -9 -522
l-6 -503 -148 0 -149 0 0 464 c0 254 -3 491 -6 525 l-7 62 164 -3 c158 -3 164
-4 161 -23z"/>
<path fill="#000000" stroke="none" d="M761 3328 c229 -276 479 -591 479 -605
0 -5 -13 -17 -29 -26 -17 -10 -79 -53 -140 -96 l-109 -78 -85 126 c-99 145
-190 261 -323 412 -52 59 -94 109 -94 112 0 2 29 21 64 42 35 20 92 63 127 96
35 32 66 58 69 59 3 0 22 -19 41 -42z"/>
<path fill="#000000" stroke="none" d="M2853 3296 c45 -30 112 -69 150 -87 37
-18 67 -36 67 -40 0 -3 -14 -24 -31 -45 -17 -22 -118 -160 -224 -309 -106
-148 -201 -281 -212 -295 l-21 -24 -53 41 c-30 23 -89 60 -131 83 -43 23 -78
44 -78 46 0 2 27 38 60 79 121 153 265 375 344 533 20 39 39 72 42 72 3 0 43
-24 87 -54z"/>
<path fill="#ff0000" stroke="none" d="M1927 3313 c-3 -10 -5 -4 -5 12 0 17 2
24 5 18 2 -7 2 -21 0 -30z"/>
<path fill="#ff0000" stroke="none" d="M1920 2383 l0 -95 598 5 c328 3 607 8
620 12 l22 7 0 -128 0 -129 -620 3 -620 3 0 -267 0 -266 718 5 c394 2 727 8
740 12 l22 7 0 -128 0 -129 -740 4 -741 3 3 -486 3 -486 -159 0 -158 0 6 48
c3 26 8 244 12 486 l7 438 -747 -3 -746 -4 0 129 c0 118 1 128 18 120 9 -4
344 -9 745 -12 l727 -4 0 266 0 267 -625 -3 -625 -3 0 129 0 128 23 -7 c12 -4
293 -10 625 -12 l603 -5 -3 98 -3 99 148 -3 147 -3 0 -96z"/>
</g>
</svg>