
<svg version="1.0" xmlns="http://www.w3.org/2000/svg"
 width="370.000000pt" height="370.000000pt" viewBox="0 0 370.000000 370.000000"
 preserveAspectRatio="xMidYMid meet">
<g transform="translate(0.000000,370.000000) scale(0.100000,-0.100000)"
fill="#000000" stroke="none"><path fill="#ffffff" stroke="none" d="M0 1850 l0 -1850 1850 0 1850 0 0 1850
0 1850 -1850 0 -1850 0 0 -1850z"/>
<path fill="#000000" stroke="none" d="M2642 3105 c-3 -342 -2 -475 6 -475 10
0 131 37 492 151 69 21 129 39 134 39 4 0 6 -267 3 -592 -5 -609 -9 -668 -49
-780 -22 -63 -73 -123 -129 -156 -53 -30 -222 -92 -252 -92 -9 0 -19 17 -26
45 -6 25 -29 87 -51 137 -22 51 -38 93 -37 93 1 1 40 7 86 13 141 20 175 52
191 182 11 96 14 820 3 820 -5 0 -89 -24 -188 -53 l-180 -53 1 -727 1 -727
-127 0 -127 0 5 695 c3 404 1 695 -4 695 -5 0 -91 -21 -191 -46 l-183 -47 0
-741 c1 -784 2 -804 47 -830 40 -24 92 -28 458 -33 415 -6 472 -1 526 44 54
46 86 136 110 309 7 49 13 91 15 93 2 2 27 -18 56 -44 29 -26 88 -68 131 -93
42 -24 77 -51 77 -58 0 -22 -28 -135 -51 -204 -51 -156 -106 -222 -217 -257
-52 -16 -105 -18 -597 -18 -483 0 -546 2 -596 17 -83 26 -136 69 -167 136
l-27 57 -3 783 -3 782 -22 -5 c-12 -3 -65 -16 -117 -29 -52 -12 -96 -22 -98
-20 -6 4 -32 247 -28 252 3 2 62 16 133 31 l128 27 -2 387 -1 387 128 0 128 0
-6 -359 -5 -359 167 38 c92 21 179 41 193 45 l26 6 -5 505 -5 504 127 0 127 0
-5 -475z"/>
<path fill="#000000" stroke="none" d="M478 3156 c29 -8 94 -20 145 -27 50 -6
94 -13 95 -15 2 -1 -14 -47 -36 -101 -36 -90 -61 -180 -92 -323 -19 -87 -38
-149 -127 -415 -46 -137 -85 -255 -87 -261 -3 -8 -47 4 -128 33 -68 25 -128
47 -135 49 -7 2 3 35 28 95 93 214 190 567 234 849 9 58 18 111 20 118 5 15
18 15 83 -2z"/>
<path fill="#ff0000" stroke="none" d="M1145 3518 c-4 -18 -9 -205 -12 -416
l-4 -383 175 3 176 3 0 -118 0 -118 -175 7 -175 7 0 -352 0 -352 23 7 c12 4
107 49 212 100 104 52 190 94 190 94 0 0 -1 -53 -1 -117 -1 -114 -2 -117 -25
-126 -45 -17 -143 -61 -341 -155 l-58 -27 3 -643 2 -642 -129 0 c-118 0 -128
1 -120 18 12 27 18 1162 6 1162 -24 0 -395 -171 -511 -235 -41 -23 -45 -23
-56 -7 -15 22 -95 214 -95 227 0 6 48 30 108 54 59 23 116 46 127 51 11 5 74
27 140 49 66 22 152 52 190 67 39 14 78 28 88 31 16 5 17 33 17 399 l0 394
-174 0 c-121 0 -177 4 -182 12 -4 6 -3 8 3 5 13 -8 27 58 17 75 -5 7 -3 8 6 3
10 -6 11 -2 6 19 -5 20 -4 26 5 20 8 -5 10 1 7 20 -3 14 -1 26 4 26 6 0 7 7 4
16 -3 8 -2 12 4 9 6 -3 10 -1 10 4 0 7 50 11 145 11 l145 0 -1 333 c0 182 -4
369 -7 415 l-7 82 133 0 134 0 -7 -32z"/>
<path fill="#ff0000" stroke="none" d="M3277 2023 c-1 -148 -2 -27 -2 267 0
294 1 415 2 268 2 -148 2 -388 0 -535z"/>
</g>
</svg>