
<svg version="1.0" xmlns="http://www.w3.org/2000/svg"
 width="370.000000pt" height="370.000000pt" viewBox="0 0 370.000000 370.000000"
 preserveAspectRatio="xMidYMid meet">
<g transform="translate(0.000000,370.000000) scale(0.100000,-0.100000)"
fill="#000000" stroke="none"><path fill="#ffffff" stroke="none" d="M0 1850 l0 -1850 1850 0 1850 0 0 1850
0 1850 -1850 0 -1850 0 0 -1850z"/>
<path fill="#000000" stroke="none" d="M3090 3248 l0 -113 -1114 3 -1113 3 0
-656 0 -655 1164 0 1165 0 -6 -47 c-9 -81 -25 -287 -41 -538 -26 -405 -48
-549 -102 -663 -40 -84 -74 -114 -188 -161 -73 -31 -229 -63 -372 -77 -59 -5
-73 -4 -73 7 0 35 -56 186 -96 254 l-43 77 37 -6 c163 -24 400 -11 460 26 37
23 67 74 82 142 13 61 37 352 45 546 3 85 8 172 11 193 l6 37 -1026 0 -1026 0
0 -35 0 -35 -141 0 -140 0 7 143 c11 187 11 1425 1 1550 l-8 97 1063 1 c897 2
1247 6 1421 17 l27 2 0 -112z"/>
<path fill="#000000" stroke="none" d="M2429 1328 c7 -51 28 -169 47 -263 19
-93 34 -175 34 -180 0 -6 -55 -23 -122 -38 -131 -28 -137 -27 -138 23 0 14 -9
63 -20 110 -46 196 -59 258 -65 316 l-7 60 94 28 c51 15 98 29 103 31 6 2 22
4 36 4 24 1 26 -2 38 -91z"/>
<path fill="#000000" stroke="none" d="M536 1357 c32 -13 95 -34 139 -46 44
-13 82 -25 84 -27 2 -2 -12 -27 -31 -56 -56 -83 -109 -197 -192 -410 -43 -109
-80 -198 -82 -198 -3 0 -27 11 -54 25 -27 14 -84 39 -127 56 -43 17 -79 32
-81 34 -2 2 20 44 48 94 56 97 134 282 190 449 19 56 37 102 41 102 3 0 32
-10 65 -23z"/>
<path fill="#000000" stroke="none" d="M1843 1263 c10 -49 39 -169 64 -268 62
-244 58 -225 37 -225 -11 0 -62 -12 -114 -26 -52 -14 -104 -28 -116 -30 -19
-5 -22 3 -42 123 -13 70 -39 191 -58 268 -20 77 -38 149 -41 160 -4 18 8 23
109 51 62 17 120 32 128 33 12 1 20 -21 33 -86z"/>
<path fill="#000000" stroke="none" d="M1265 1263 c3 -38 15 -131 25 -208 23
-171 42 -346 38 -349 -2 -1 -55 -10 -118 -19 -64 -9 -123 -19 -131 -22 -14 -5
-17 11 -23 117 -4 67 -18 181 -31 253 -13 71 -26 158 -30 191 l-7 62 74 12
c71 12 161 26 185 29 7 1 14 -24 18 -66z"/>
<path fill="#ff0000" stroke="none" d="M1950 2974 l0 -167 448 5 c246 3 455 9
465 13 16 7 17 -2 17 -102 l0 -109 -72 7 c-40 4 -250 8 -465 8 l-393 1 0 -155
0 -155 403 1 c221 0 435 4 475 8 l72 7 0 -103 0 -103 -475 0 -475 0 0 -145 0
-145 -130 0 -130 0 0 145 0 145 -415 0 -415 0 0 95 0 95 415 0 415 0 0 155 0
155 -415 0 -415 0 0 93 0 92 412 0 413 0 3 163 2 162 130 0 130 0 0 -166z"/>
</g>
</svg>