
<svg version="1.0" xmlns="http://www.w3.org/2000/svg"
 width="370.000000pt" height="370.000000pt" viewBox="0 0 370.000000 370.000000"
 preserveAspectRatio="xMidYMid meet">
<g transform="translate(0.000000,370.000000) scale(0.100000,-0.100000)"
fill="#000000" stroke="none"><path fill="#ffffff" stroke="none" d="M0 1850 l0 -1850 1850 0 1850 0 0 1850
0 1850 -1850 0 -1850 0 0 -1850z"/>
<path fill="#000000" stroke="none" d="M2976 1928 c-3 -35 -8 -358 -12 -718
-3 -408 -10 -668 -16 -690 -12 -42 -50 -94 -83 -116 -38 -25 -122 -52 -224
-73 -109 -23 -293 -53 -295 -49 -1 2 -7 28 -13 59 -10 47 -28 99 -79 225 -4 7
45 13 153 17 186 8 225 16 243 55 7 15 15 71 18 125 l4 97 -876 0 -876 0 0
-270 0 -270 -137 0 -138 0 0 835 0 835 1169 0 1168 0 -6 -62z"/>
<path fill="#ffffff" stroke="none" d="M920 1660 l0 -120 880 0 880 0 0 120 0
120 -880 0 -880 0 0 -120z"/>
<path fill="#ffffff" stroke="none" d="M920 1195 l0 -135 880 0 880 0 0 135 0
135 -880 0 -880 0 0 -135z"/>
<path fill="#ff0000" stroke="none" d="M3153 3358 c-10 -69 -10 -1037 0 -1105
l8 -53 -1348 0 -1348 0 0 605 0 605 1348 0 1348 0 -8 -52z"/>
<path fill="#ffffff" stroke="none" d="M730 3050 l0 -140 465 0 465 0 0 140 0
140 -465 0 -465 0 0 -140z"/>
<path fill="#ffffff" stroke="none" d="M1920 3050 l0 -140 483 2 482 3 3 138
3 137 -486 0 -485 0 0 -140z"/>
<path fill="#ffffff" stroke="none" d="M730 2565 l0 -145 465 0 465 0 0 145 0
145 -465 0 -465 0 0 -145z"/>
<path fill="#ffffff" stroke="none" d="M1920 2565 l0 -145 485 0 485 0 0 145
0 145 -485 0 -485 0 0 -145z"/>
</g>
</svg>