
<svg version="1.0" xmlns="http://www.w3.org/2000/svg"
 width="370.000000pt" height="370.000000pt" viewBox="0 0 370.000000 370.000000"
 preserveAspectRatio="xMidYMid meet">
<g transform="translate(0.000000,370.000000) scale(0.100000,-0.100000)"
fill="#000000" stroke="none"><path fill="#ffffff" stroke="none" d="M0 1850 l0 -1850 1850 0 1850 0 0 1850
0 1850 -1850 0 -1850 0 0 -1850z"/>
<path fill="#000000" stroke="none" d="M2034 1642 c174 -272 484 -543 916
-802 131 -79 364 -193 450 -221 36 -12 67 -23 69 -25 2 -1 -27 -33 -64 -71
-60 -61 -158 -187 -168 -216 -5 -17 -97 24 -273 125 -315 179 -530 338 -762
562 -210 204 -399 438 -389 481 13 54 79 211 94 223 9 6 32 12 50 12 30 0 37
-6 77 -68z"/>
<path fill="#ff0000" stroke="none" d="M1945 3493 c-4 -10 -10 -150 -13 -311
l-5 -293 582 3 581 3 0 -129 0 -128 -22 7 c-13 3 -273 9 -579 12 l-556 6 -6
-48 c-4 -26 -7 -187 -7 -358 l0 -309 683 5 c375 3 692 8 705 12 l22 7 0 -131
0 -131 -672 -2 c-370 -2 -694 -2 -720 -1 -47 1 -67 -15 -51 -39 4 -7 1 -8 -7
-3 -10 6 -12 3 -8 -13 4 -13 0 -23 -9 -26 -9 -4 -13 -14 -10 -26 3 -11 1 -20
-3 -20 -12 0 -31 -60 -23 -73 4 -6 1 -7 -7 -2 -9 6 -10 2 -5 -15 4 -14 3 -20
-3 -16 -5 3 -17 -11 -26 -32 -9 -20 -28 -55 -41 -77 -14 -22 -28 -47 -32 -55
-4 -8 -11 -19 -15 -25 -5 -5 -32 -44 -61 -85 -85 -124 -173 -223 -289 -327
-59 -52 -235 -183 -247 -183 -6 0 -11 -4 -11 -10 0 -5 -5 -10 -10 -10 -6 0
-29 -12 -53 -27 -42 -27 -216 -114 -292 -148 -22 -9 -63 -28 -90 -41 -28 -13
-54 -24 -58 -24 -5 0 -32 -11 -60 -24 -29 -13 -83 -35 -122 -49 -38 -14 -77
-27 -85 -31 -11 -4 -23 10 -42 52 -15 31 -53 88 -84 125 -45 54 -54 71 -43 78
8 5 20 9 27 9 56 1 447 151 604 233 200 104 467 322 582 477 22 30 43 57 46
60 26 23 148 246 162 296 3 10 9 27 13 37 7 16 -28 17 -659 17 l-666 0 0 131
0 131 28 -7 c15 -3 325 -9 689 -12 l661 -5 7 53 c4 30 7 189 8 354 l2 300
-530 0 c-291 -1 -551 -4 -578 -8 l-47 -7 0 128 0 127 581 -3 582 -3 -5 293
c-3 161 -9 301 -13 311 -7 16 4 17 150 17 146 0 157 -1 150 -17z"/>
</g>
</svg>