
<svg version="1.0" xmlns="http://www.w3.org/2000/svg"
 width="370.000000pt" height="370.000000pt" viewBox="0 0 370.000000 370.000000"
 preserveAspectRatio="xMidYMid meet">
<g transform="translate(0.000000,370.000000) scale(0.100000,-0.100000)"
fill="#000000" stroke="none"><path fill="#ffffff" stroke="none" d="M0 1850 l0 -1850 1850 0 1850 0 0 1850
0 1850 -1850 0 -1850 0 0 -1850z"/>
<path fill="#000000" stroke="none" d="M1169 3586 c53 -19 136 -46 185 -60 49
-14 91 -28 94 -30 2 -3 -15 -27 -38 -53 -47 -53 -175 -244 -209 -312 l-22 -43
1025 3 1026 4 0 -119 0 -119 -72 7 c-40 4 -531 9 -1090 12 l-1017 5 -37 -57
c-110 -172 -332 -476 -457 -627 l-48 -58 -30 25 c-45 38 -147 92 -209 111 -30
9 -61 19 -69 21 -8 3 23 42 85 107 200 207 405 484 579 782 74 127 158 303
180 378 9 31 19 57 22 57 3 0 49 -15 102 -34z"/>
<path fill="#ff0000" stroke="none" d="M2130 2583 l0 -296 443 7 c243 3 454 9
470 12 l27 6 0 -116 0 -116 -470 6 -470 7 0 -338 0 -337 650 4 650 4 0 -114
c0 -105 -1 -114 -17 -106 -10 4 -303 9 -652 12 l-634 4 5 -461 5 -461 -150 0
-149 0 7 23 c3 12 9 219 12 461 l6 438 -834 -5 c-459 -2 -844 -8 -856 -12 -23
-7 -23 -7 -23 109 l0 117 330 -7 331 -7 -3 436 -3 437 528 0 528 0 -3 295 -3
295 138 0 137 0 0 -297z"/>
<path fill="#ff0000" stroke="none" d="M2778 2873 c-32 -2 -86 -2 -120 0 -35
2 -9 3 57 3 66 0 94 -1 63 -3z"/>
<path fill="#ffffff" stroke="none" d="M1070 1755 l0 -335 395 0 395 0 0 335
0 335 -395 0 -395 0 0 -335z"/>
</g>
</svg>