
<svg version="1.0" xmlns="http://www.w3.org/2000/svg"
 width="370.000000pt" height="370.000000pt" viewBox="0 0 370.000000 370.000000"
 preserveAspectRatio="xMidYMid meet">
<g transform="translate(0.000000,370.000000) scale(0.100000,-0.100000)"
fill="#000000" stroke="none"><path fill="#ffffff" stroke="none" d="M0 1850 l0 -1850 1850 0 1850 0 0 1850
0 1850 -1850 0 -1850 0 0 -1850z"/>
<path fill="#000000" stroke="none" d="M2643 3383 c339 -3 617 -7 617 -9 0 -1
-6 -64 -14 -140 -8 -77 -22 -287 -30 -469 -30 -610 -36 -650 -110 -748 -45
-60 -167 -120 -321 -157 -66 -17 -122 -30 -125 -30 -3 0 -11 30 -18 66 -15 77
-50 157 -97 218 l-33 43 137 6 c75 3 154 11 176 19 79 26 92 85 115 543 5 110
13 255 16 323 l7 122 -195 0 -195 0 -7 -102 c-15 -225 -53 -423 -116 -603 -61
-173 -232 -484 -327 -594 l-29 -33 -66 50 c-60 45 -158 92 -192 92 -30 0 -21
17 45 89 132 142 275 382 329 552 40 123 80 392 80 531 0 21 -1 21 -205 15
l-205 -7 0 122 0 121 73 -6 c39 -4 350 -10 690 -14z"/>
<path fill="#000000" stroke="none" d="M1230 2339 l0 -72 290 8 290 7 0 -110
0 -111 -291 6 -292 6 8 -191 7 -192 -147 0 -147 0 6 38 c3 20 9 106 12 191 l7
154 -367 -5 -366 -5 0 109 0 109 370 -7 370 -7 0 71 0 72 125 0 125 0 0 -71z"/>
<path fill="#000000" stroke="none" d="M1691 1805 c24 -9 96 -30 159 -46 63
-17 121 -32 128 -34 9 -4 4 -18 -18 -50 -29 -43 -90 -176 -90 -197 0 -6 280
-9 760 -6 l760 3 0 -115 0 -115 -646 3 -647 4 39 -47 c66 -81 195 -194 303
-266 273 -182 499 -250 944 -285 l77 -6 -41 -46 c-53 -61 -94 -142 -109 -219
l-12 -60 -132 28 c-353 76 -583 162 -821 309 -183 112 -348 278 -496 497 -27
40 -51 73 -53 73 -2 0 -24 -36 -50 -80 -242 -417 -543 -609 -1278 -814 -69
-20 -133 -36 -141 -36 -7 0 -24 23 -38 52 -26 57 -79 129 -142 195 -47 49 -49
48 83 63 253 28 479 80 637 146 260 107 398 205 546 389 l81 100 -45 3 c-24 2
-299 2 -612 0 l-567 -3 0 115 0 115 651 -4 c358 -1 655 1 659 5 11 11 46 189
55 277 4 37 8 67 10 67 1 0 22 -7 46 -15z"/>
<path fill="#ff0000" stroke="none" d="M1232 3398 l-3 -181 263 6 c145 3 271
9 281 12 16 7 17 -2 17 -105 0 -103 -1 -112 -17 -105 -10 3 -136 9 -280 12
l-263 6 0 -158 0 -158 260 6 260 7 0 -103 0 -102 -260 3 -260 3 0 -70 0 -71
-125 0 -125 0 0 71 0 70 -290 -3 -290 -3 0 102 0 102 290 -6 290 -6 0 158 0
158 -313 -6 c-172 -3 -320 -9 -330 -12 -15 -7 -17 3 -17 105 0 102 2 112 17
105 10 -3 159 -9 332 -12 l314 -6 -7 181 -6 182 132 0 133 0 -3 -182z"/>
<path fill="#ff0000" stroke="none" d="M1977 3394 c-3 -3 -12 -4 -19 -1 -8 3
-5 6 6 6 11 1 17 -2 13 -5z"/>
<path fill="#ff0000" stroke="none" d="M977 1993 c-2 -16 -4 -5 -4 22 0 28 2
40 4 28 2 -13 2 -35 0 -50z"/>
<path fill="#ff0000" stroke="none" d="M423 1473 c-7 -2 -19 -2 -25 0 -7 3 -2
5 12 5 14 0 19 -2 13 -5z"/>
<path fill="#ff0000" stroke="none" d="M3253 1473 c-7 -2 -19 -2 -25 0 -7 3
-2 5 12 5 14 0 19 -2 13 -5z"/>
</g>
</svg>