
<svg version="1.0" xmlns="http://www.w3.org/2000/svg"
 width="370.000000pt" height="370.000000pt" viewBox="0 0 370.000000 370.000000"
 preserveAspectRatio="xMidYMid meet">
<g transform="translate(0.000000,370.000000) scale(0.100000,-0.100000)"
fill="#000000" stroke="none"><path fill="#ffffff" stroke="none" d="M0 1850 l0 -1850 1850 0 1850 0 0 1850
0 1850 -1850 0 -1850 0 0 -1850z"/>
<path fill="#000000" stroke="none" d="M1149 3530 l666 0 -3 -1437 c-1 -926
-6 -1456 -13 -1489 -20 -103 -84 -163 -224 -208 -81 -26 -309 -75 -316 -68 -3
4 -21 54 -39 112 -18 58 -45 130 -61 161 l-28 56 162 7 c199 8 223 15 237 64
6 24 10 470 10 1301 l0 1263 -502 -6 c-277 -3 -549 -9 -605 -12 l-103 -6 0
138 0 137 77 -7 c42 -3 376 -6 742 -6z"/>
<path fill="#000000" stroke="none" d="M3440 3502 c0 -4 -36 -99 -81 -212 -44
-113 -120 -306 -169 -430 -49 -124 -122 -307 -163 -407 l-74 -181 70 -89 c160
-201 295 -439 337 -593 47 -170 45 -359 -5 -468 -52 -114 -132 -183 -291 -251
-85 -37 -260 -91 -294 -91 -10 0 -21 21 -32 60 -21 69 -64 146 -119 212 -21
26 -39 51 -39 56 0 5 40 12 90 15 328 24 460 126 421 326 -40 205 -194 495
-370 699 -50 57 -70 87 -63 95 15 19 115 266 187 462 90 243 195 543 195 555
0 6 -119 10 -325 10 l-325 0 0 -1500 0 -1500 -145 0 -145 0 7 113 c10 147 10
2811 0 2990 l-8 137 671 0 c368 0 670 -3 670 -8z"/>
<path fill="#ff0000" stroke="none" d="M2107 3423 c-3 -10 -5 -4 -5 12 0 17 2
24 5 18 2 -7 2 -21 0 -30z"/>
<path fill="#ff0000" stroke="none" d="M1042 3010 l-3 -280 251 0 250 0 0
-115 0 -115 -250 0 -250 0 0 -260 0 -260 250 0 250 0 0 -120 0 -120 -254 0
c-291 0 -261 12 -271 -110 -16 -210 -58 -386 -133 -565 -58 -138 -154 -301
-280 -475 -75 -103 -88 -120 -126 -163 -10 -12 -25 -32 -33 -44 -14 -21 -14
-21 -59 22 -25 24 -54 47 -64 50 -11 4 -20 10 -20 14 0 5 -15 15 -33 22 -17 7
-51 24 -75 37 l-44 25 49 40 c54 46 191 182 242 240 107 124 218 346 266 535
41 166 53 224 60 301 l7 74 -178 -7 c-99 -3 -214 -9 -256 -12 l-78 -7 0 139 0
139 83 -7 c45 -3 162 -7 260 -7 l177 -1 0 262 0 261 -240 -6 -240 -7 0 134 0
133 43 -8 c23 -4 131 -11 240 -15 l197 -7 0 276 0 276 -37 4 c-21 2 39 4 132
5 l170 2 -3 -280z"/>
<path fill="#ff0000" stroke="none" d="M2107 318 c-3 -7 -5 -2 -5 12 0 14 2
19 5 13 2 -7 2 -19 0 -25z"/>
</g>
</svg>