
<svg version="1.0" xmlns="http://www.w3.org/2000/svg"
 width="370.000000pt" height="370.000000pt" viewBox="0 0 370.000000 370.000000"
 preserveAspectRatio="xMidYMid meet">
<g transform="translate(0.000000,370.000000) scale(0.100000,-0.100000)"
fill="#000000" stroke="none"><path fill="#ffffff" stroke="none" d="M0 1850 l0 -1850 1850 0 1850 0 0 1850
0 1850 -1850 0 -1850 0 0 -1850z"/>
<path fill="#000000" stroke="none" d="M1710 2375 c0 -3 -18 -37 -40 -76 l-40
-71 845 3 845 4 0 -108 0 -108 -417 7 -417 7 25 -34 c126 -178 457 -379 813
-494 l116 -37 -59 -57 c-57 -55 -122 -145 -135 -188 -4 -13 -13 -23 -19 -23
-19 0 -344 162 -421 209 l-69 43 5 -571 5 -571 -139 0 -138 0 0 90 0 90 -635
0 -635 0 0 -85 0 -85 -137 0 -138 0 3 595 c2 327 1 595 -2 595 -3 0 -36 -22
-73 -48 -91 -65 -245 -158 -372 -225 l-104 -54 -77 77 c-42 42 -91 86 -109 96
-17 10 -31 21 -31 24 0 3 42 21 93 39 195 73 505 251 672 386 90 73 235 206
235 216 0 13 -504 11 -673 -2 -78 -6 -155 -12 -172 -13 l-30 -1 -3 116 -3 115
533 -4 533 -4 49 76 48 76 134 0 c74 0 134 -2 134 -5z"/>
<path fill="#ffffff" stroke="none" d="M1390 1912 c-63 -65 -143 -141 -178
-170 l-63 -52 636 0 636 0 -26 33 c-56 68 -163 214 -191 259 l-29 48 -335 0
-335 0 -115 -118z"/>
<path fill="#ffffff" stroke="none" d="M1200 1350 l0 -140 635 0 635 0 0 140
0 140 -635 0 -635 0 0 -140z"/>
<path fill="#ffffff" stroke="none" d="M1200 855 l0 -145 635 0 635 0 0 145 0
145 -635 0 -635 0 0 -145z"/>
<path fill="#ff0000" stroke="none" d="M1810 3545 c87 -24 141 -35 175 -35 39
0 41 -2 21 -33 -18 -27 -44 -107 -56 -167 -5 -25 -13 -56 -16 -69 l-7 -23 604
4 c332 3 612 8 622 13 16 7 17 -2 17 -107 l0 -113 -633 3 -632 4 -12 -33 c-11
-32 -63 -241 -63 -255 0 -3 275 -4 610 -2 l610 3 0 -100 0 -100 -639 3 -639 3
-17 -43 c-9 -24 -24 -58 -32 -75 l-15 -33 -124 0 c-68 0 -124 2 -124 4 0 2 14
33 30 69 17 37 30 69 30 72 0 3 -200 4 -445 3 l-445 -3 0 101 0 100 479 -4
479 -5 15 49 c8 27 20 69 25 94 23 100 32 139 32 146 0 3 -270 5 -600 3 l-600
-4 0 114 c0 113 0 113 23 106 12 -4 288 -9 612 -12 l591 -5 12 118 c7 66 12
145 12 177 l0 57 28 -6 c15 -3 47 -12 72 -19z"/>
<path fill="#ff0000" stroke="none" d="M287 2068 c-2 -35 -3 -9 -3 57 0 66 1
94 3 63 2 -32 2 -86 0 -120z"/>
</g>
</svg>