
<svg version="1.0" xmlns="http://www.w3.org/2000/svg"
 width="370.000000pt" height="370.000000pt" viewBox="0 0 370.000000 370.000000"
 preserveAspectRatio="xMidYMid meet">
<g transform="translate(0.000000,370.000000) scale(0.100000,-0.100000)"
fill="#000000" stroke="none"><path fill="#ffffff" stroke="none" d="M0 1850 l0 -1850 1850 0 1850 0 0 1850
0 1850 -1850 0 -1850 0 0 -1850z"/>
<path fill="#000000" stroke="none" d="M1248 1506 c75 -58 192 -165 192 -177
0 -11 -602 -659 -825 -887 l-172 -176 -122 114 -122 114 28 21 c266 193 667
616 895 945 34 50 64 90 66 90 2 0 29 -20 60 -44z"/>
<path fill="#000000" stroke="none" d="M3010 857 c173 -175 315 -320 315 -322
0 -2 -62 -54 -138 -115 l-139 -112 -16 24 c-22 31 -234 281 -292 343 -25 28
-82 88 -125 135 -44 47 -175 183 -292 304 -117 120 -213 221 -213 225 0 3 26
25 58 49 31 23 84 66 117 96 l60 54 175 -181 c96 -100 317 -325 490 -500z"/>
<path fill="#ff0000" stroke="none" d="M2885 2530 l0 -820 -1095 0 -1095 0 0
820 0 820 1095 0 1095 0 0 -820z"/>
<path fill="#ffffff" stroke="none" d="M990 2535 l0 -585 800 0 800 0 0 585 0
585 -800 0 -800 0 0 -585z"/>
</g>
</svg>