
<svg version="1.0" xmlns="http://www.w3.org/2000/svg"
 width="370.000000pt" height="370.000000pt" viewBox="0 0 370.000000 370.000000"
 preserveAspectRatio="xMidYMid meet">
<g transform="translate(0.000000,370.000000) scale(0.100000,-0.100000)"
fill="#000000" stroke="none"><path fill="#ffffff" stroke="none" d="M0 1850 l0 -1850 1850 0 1850 0 0 1850
0 1850 -1850 0 -1850 0 0 -1850z"/>
<path fill="#000000" stroke="none" d="M780 2195 l0 -245 471 0 472 0 -7 43
c-17 98 -46 356 -46 400 l0 47 135 0 135 0 0 -44 c0 -53 26 -296 41 -384 l11
-64 594 4 594 3 0 -134 0 -134 -72 6 c-40 4 -297 10 -570 13 -460 7 -498 6
-498 -9 0 -30 87 -280 126 -362 52 -111 123 -223 197 -312 137 -166 443 -384
539 -383 39 1 104 36 131 72 32 41 56 127 64 226 3 39 8 72 11 72 3 0 39 -20
81 -43 42 -24 110 -57 151 -72 41 -16 79 -32 83 -36 10 -7 -67 -198 -114 -285
-100 -185 -160 -224 -339 -224 -211 0 -411 87 -611 267 -272 245 -472 590
-573 993 l-23 95 -492 3 -491 2 0 -465 c0 -256 3 -465 6 -465 11 0 414 211
531 278 136 78 126 79 139 -18 3 -30 15 -79 26 -110 10 -30 21 -62 24 -70 4
-11 -18 -26 -83 -54 -244 -109 -692 -347 -847 -452 l-48 -32 -61 81 c-33 45
-75 100 -94 121 l-33 40 35 28 c19 16 48 57 65 92 58 116 59 144 60 989 l0
767 140 0 140 0 0 -245z"/>
<path fill="#ff0000" stroke="none" d="M2955 2915 l0 -475 -1227 0 -1228 0 0
423 c0 232 -3 446 -6 475 l-7 52 1234 0 1234 0 0 -475z"/>
<path fill="#ff0000" stroke="none" d="M2828 1703 c-21 -2 -57 -2 -80 0 -24 2
-7 4 37 4 44 0 63 -2 43 -4z"/>
<path fill="#ff0000" stroke="none" d="M3107 1694 c-3 -3 -12 -4 -19 -1 -8 3
-5 6 6 6 11 1 17 -2 13 -5z"/>
<path fill="#ffffff" stroke="none" d="M770 2920 l0 -260 950 0 950 0 0 260 0
260 -950 0 -950 0 0 -260z"/>
</g>
</svg>