
<svg version="1.0" xmlns="http://www.w3.org/2000/svg"
 width="370.000000pt" height="370.000000pt" viewBox="0 0 370.000000 370.000000"
 preserveAspectRatio="xMidYMid meet">
<g transform="translate(0.000000,370.000000) scale(0.100000,-0.100000)"
fill="#000000" stroke="none"><path fill="#ffffff" stroke="none" d="M0 1850 l0 -1850 1850 0 1850 0 0 1850
0 1850 -1850 0 -1850 0 0 -1850z"/>
<path fill="#000000" stroke="none" d="M770 1340 c3 -289 9 -532 14 -540 20
-33 53 -63 86 -76 30 -13 165 -15 952 -14 950 1 974 2 1051 41 72 38 106 119
126 307 5 46 11 86 14 88 3 3 23 -6 45 -21 47 -31 203 -99 249 -110 18 -3 35
-10 37 -13 6 -10 -74 -223 -113 -301 -54 -109 -95 -157 -164 -191 -127 -62
-101 -61 -1265 -58 -995 3 -1060 4 -1107 21 -70 26 -123 64 -162 118 -62 86
-63 102 -63 721 l0 559 148 -3 147 -3 5 -525z"/>
<path fill="#ff0000" stroke="none" d="M2873 3263 c-10 -36 -10 -1445 0 -1500
l7 -43 -150 0 -150 0 0 115 0 115 -910 0 -910 0 0 -40 0 -40 -145 0 -145 0 0
710 0 710 1205 0 1205 0 -7 -27z"/>
<path fill="#ff0000" stroke="none" d="M767 1133 c-1 -136 -2 -27 -2 242 0
270 1 381 2 248 2 -133 2 -353 0 -490z"/>
<path fill="#ffffff" stroke="none" d="M760 2610 l0 -430 908 2 907 3 0 425 0
425 -907 3 -908 2 0 -430z"/>
</g>
</svg>