
<svg version="1.0" xmlns="http://www.w3.org/2000/svg"
 width="370.000000pt" height="370.000000pt" viewBox="0 0 370.000000 370.000000"
 preserveAspectRatio="xMidYMid meet">
<g transform="translate(0.000000,370.000000) scale(0.100000,-0.100000)"
fill="#000000" stroke="none"><path fill="#ffffff" stroke="none" d="M0 1850 l0 -1850 1850 0 1850 0 0 1850
0 1850 -1850 0 -1850 0 0 -1850z"/>
<path fill="#000000" stroke="none" d="M2553 3510 c-18 -131 -23 -278 -23
-626 l0 -417 350 5 350 5 0 -135 0 -134 -27 6 c-16 3 -173 9 -350 12 l-323 7
0 -753 0 -753 413 7 c226 4 429 9 450 12 l37 6 0 -133 0 -134 -1045 0 -1045 0
0 134 0 134 48 -7 c26 -3 228 -9 450 -12 l402 -7 0 753 0 753 -317 -7 c-175
-3 -335 -9 -355 -12 l-38 -7 0 135 0 136 355 -6 355 -5 0 424 c0 389 -6 501
-30 614 -1 6 -2 13 -1 18 0 4 79 6 174 5 146 -3 172 -5 170 -18z"/>
<path fill="#ff0000" stroke="none" d="M2247 2628 c-1 -90 -3 -19 -3 157 0
176 2 249 3 163 2 -86 2 -230 0 -320z"/>
<path fill="#ff0000" stroke="none" d="M1345 1980 l0 -1060 -132 0 -133 0 0
135 0 135 -280 0 -280 0 0 -275 0 -275 -146 0 -146 0 9 203 c10 248 11 2084 1
2150 l-8 47 558 0 557 0 0 -1060z"/>
<path fill="#ff0000" stroke="none" d="M1687 2474 c-3 -3 -12 -4 -19 -1 -8 3
-5 6 6 6 11 1 17 -2 13 -5z"/>
<path fill="#ff0000" stroke="none" d="M3117 2474 c-3 -3 -12 -4 -19 -1 -8 3
-5 6 6 6 11 1 17 -2 13 -5z"/>
<path fill="#ff0000" stroke="none" d="M2247 1108 c-1 -205 -2 -38 -2 372 0
410 1 577 2 373 2 -205 2 -541 0 -745z"/>
<path fill="#ff0000" stroke="none" d="M1467 484 c-3 -3 -12 -4 -19 -1 -8 3
-5 6 6 6 11 1 17 -2 13 -5z"/>
<path fill="#ffffff" stroke="none" d="M520 2115 l0 -695 280 0 280 0 0 695 0
695 -280 0 -280 0 0 -695z"/>
</g>
</svg>