
<svg version="1.0" xmlns="http://www.w3.org/2000/svg"
 width="370.000000pt" height="370.000000pt" viewBox="0 0 370.000000 370.000000"
 preserveAspectRatio="xMidYMid meet">
<g transform="translate(0.000000,370.000000) scale(0.100000,-0.100000)"
fill="#000000" stroke="none"><path fill="#ffffff" stroke="none" d="M0 1850 l0 -1850 1850 0 1850 0 0 1850
0 1850 -1850 0 -1850 0 0 -1850z"/>
<path fill="#000000" stroke="none" d="M1994 2118 c91 -432 272 -755 555 -990
256 -212 530 -352 797 -406 l86 -17 -32 -40 c-68 -85 -190 -306 -190 -344 0
-15 0 -15 -72 13 -321 120 -688 402 -953 729 -222 275 -385 624 -465 997 -33
153 -44 140 118 140 l139 0 17 -82z"/>
<path fill="#ff0000" stroke="none" d="M3055 2720 l0 -730 -142 0 -143 0 0
105 0 105 -884 0 -883 0 -7 -46 c-3 -26 -6 -82 -6 -126 0 -118 -21 -291 -62
-513 -10 -52 -53 -231 -78 -320 -17 -61 -70 -200 -90 -237 -6 -10 -10 -22 -10
-28 0 -15 -129 -289 -160 -340 -5 -8 -37 -62 -71 -119 -34 -58 -70 -114 -80
-125 -10 -11 -21 -28 -25 -38 -3 -10 -10 -18 -15 -18 -5 0 -9 -7 -9 -16 0 -15
-56 31 -217 180 l-42 39 49 54 c77 84 162 208 229 332 33 63 61 117 61 121 0
3 10 26 21 51 36 72 69 166 109 304 78 268 96 402 121 913 12 235 7 1113 -7
1160 l-6 22 1173 0 1174 0 0 -730z"/>
<path fill="#ffffff" stroke="none" d="M1000 2835 l0 -375 885 0 885 0 0 375
0 375 -885 0 -885 0 0 -375z"/>
</g>
</svg>