
<svg version="1.0" xmlns="http://www.w3.org/2000/svg"
 width="370.000000pt" height="370.000000pt" viewBox="0 0 370.000000 370.000000"
 preserveAspectRatio="xMidYMid meet">
<g transform="translate(0.000000,370.000000) scale(0.100000,-0.100000)"
fill="#000000" stroke="none"><path fill="#ffffff" stroke="none" d="M0 1850 l0 -1850 1850 0 1850 0 0 1850
0 1850 -1850 0 -1850 0 0 -1850z"/>
<path fill="#000000" stroke="none" d="M2670 2165 l0 -926 88 6 c48 3 159 10
247 15 88 6 203 13 256 16 l96 7 6 -48 c4 -26 7 -81 7 -121 l0 -74 -34 0 c-41
0 -489 -27 -593 -36 l-73 -6 0 -359 0 -359 -148 0 -147 0 4 355 3 356 -23 -5
c-13 -3 -85 -8 -159 -11 -144 -7 -703 -39 -960 -55 -335 -22 -863 -68 -972
-86 -43 -7 -40 -15 -63 145 -24 167 -53 147 224 155 131 4 288 11 348 16 59 5
221 14 358 20 138 6 390 17 560 25 171 8 369 17 440 20 72 3 158 8 192 11 l62
6 -1 692 c0 380 0 798 0 929 l2 237 140 0 140 0 0 -925z"/>
<path fill="#ff0000" stroke="none" d="M1815 3325 c787 0 1445 3 1463 7 l32 8
0 -128 0 -127 -1075 3 -1075 2 0 -235 0 -235 615 0 615 0 0 -110 0 -110 -615
0 -615 0 0 -260 0 -260 615 2 615 3 0 -117 0 -118 -615 0 -615 0 0 -233 0
-233 -57 -11 c-32 -5 -95 -8 -140 -5 l-83 4 0 960 0 959 -295 -3 -295 -3 0
127 0 128 48 -8 c26 -4 691 -7 1477 -7z"/>
<path fill="#ff0000" stroke="none" d="M1917 1204 c-3 -3 -12 -4 -19 -1 -8 3
-5 6 6 6 11 1 17 -2 13 -5z"/>
<path fill="#ff0000" stroke="none" d="M1727 1194 c-3 -3 -12 -4 -19 -1 -8 3
-5 6 6 6 11 1 17 -2 13 -5z"/>
<path fill="#ff0000" stroke="none" d="M3227 1034 c-3 -3 -12 -4 -19 -1 -8 3
-5 6 6 6 11 1 17 -2 13 -5z"/>
<path fill="#ff0000" stroke="none" d="M2387 798 c-2 -35 -3 -7 -3 62 0 69 1
97 3 63 2 -35 2 -91 0 -125z"/>
</g>
</svg>