
<svg version="1.0" xmlns="http://www.w3.org/2000/svg"
 width="370.000000pt" height="370.000000pt" viewBox="0 0 370.000000 370.000000"
 preserveAspectRatio="xMidYMid meet">
<g transform="translate(0.000000,370.000000) scale(0.100000,-0.100000)"
fill="#000000" stroke="none"><path fill="#ffffff" stroke="none" d="M0 1850 l0 -1850 1850 0 1850 0 0 1850
0 1850 -1850 0 -1850 0 0 -1850z"/>
<path fill="#000000" stroke="none" d="M810 1391 l0 -598 23 -33 c40 -60 77
-74 217 -82 578 -31 1107 -34 1540 -7 195 13 232 22 277 71 26 27 65 104 87
171 18 55 46 205 46 251 0 60 8 60 133 2 65 -30 145 -62 177 -72 45 -13 60
-22 60 -36 0 -35 -82 -263 -128 -358 -75 -153 -193 -252 -337 -280 -112 -21
-647 -32 -1300 -26 -891 8 -941 12 -1022 97 -71 75 -67 38 -73 807 l-5 692
153 0 152 0 0 -599z"/>
<path fill="#ff0000" stroke="none" d="M1873 3350 l1077 0 -7 -42 c-10 -55
-10 -1492 -1 -1535 l8 -33 -160 0 -160 0 0 125 0 125 -1054 0 -1055 0 -5 53
c-3 28 -7 87 -9 130 l-4 77 1064 0 1063 0 0 420 0 420 -1090 -2 -1090 -3 0
139 0 139 173 -6 c94 -4 657 -7 1250 -7z"/>
<path fill="#ff0000" stroke="none" d="M1598 653 c-10 -2 -26 -2 -35 0 -10 3
-2 5 17 5 19 0 27 -2 18 -5z"/>
<path fill="#ff0000" stroke="none" d="M2228 653 c-10 -2 -26 -2 -35 0 -10 3
-2 5 17 5 19 0 27 -2 18 -5z"/>
<path fill="#ff0000" stroke="none" d="M937 404 c-3 -3 -12 -4 -19 -1 -8 3 -5
6 6 6 11 1 17 -2 13 -5z"/>
<path fill="#ff0000" stroke="none" d="M2737 404 c-3 -3 -12 -4 -19 -1 -8 3
-5 6 6 6 11 1 17 -2 13 -5z"/>
</g>
</svg>