
<svg version="1.0" xmlns="http://www.w3.org/2000/svg"
 width="370.000000pt" height="370.000000pt" viewBox="0 0 370.000000 370.000000"
 preserveAspectRatio="xMidYMid meet">
<g transform="translate(0.000000,370.000000) scale(0.100000,-0.100000)"
fill="#000000" stroke="none"><path fill="#ffffff" stroke="none" d="M0 1850 l0 -1850 1850 0 1850 0 0 1850
0 1850 -1850 0 -1850 0 0 -1850z"/>
<path fill="#000000" stroke="none" d="M1766 2933 c-3 -32 -10 -121 -16 -198
-65 -868 -208 -1340 -527 -1735 -161 -199 -462 -454 -767 -651 l-40 -25 -65
70 c-36 38 -100 95 -143 126 l-76 57 141 70 c404 200 702 476 883 818 129 243
205 514 255 904 15 122 39 449 39 539 l0 82 161 0 161 0 -6 -57z"/>
<path fill="#ff0000" stroke="none" d="M1834 3222 l1378 -3 -6 -42 c-14 -90
-38 -542 -56 -1017 -6 -157 -15 -375 -20 -485 -6 -110 -10 -243 -10 -295 0
-132 -28 -553 -41 -620 -21 -104 -64 -201 -113 -251 -29 -30 -159 -99 -188
-99 -7 0 -30 -6 -53 -14 -49 -17 -161 -39 -347 -68 l-88 -14 0 22 c0 31 -26
113 -71 227 -21 53 -39 98 -39 100 0 1 73 2 163 2 186 0 324 18 370 49 39 27
70 89 85 169 12 64 34 450 52 922 6 149 17 403 25 565 8 162 17 368 20 458 l6
162 -1240 -2 -1241 -3 0 129 c0 119 1 128 18 120 9 -5 637 -10 1396 -12z"/>
</g>
</svg>