
<svg version="1.0" xmlns="http://www.w3.org/2000/svg"
 width="370.000000pt" height="370.000000pt" viewBox="0 0 370.000000 370.000000"
 preserveAspectRatio="xMidYMid meet">
<g transform="translate(0.000000,370.000000) scale(0.100000,-0.100000)"
fill="#000000" stroke="none"><path fill="#ffffff" stroke="none" d="M0 1850 l0 -1850 1850 0 1850 0 0 1850
0 1850 -1850 0 -1850 0 0 -1850z"/>
<path fill="#000000" stroke="none" d="M1905 3525 c13 -49 41 -142 62 -205
l38 -115 646 -3 645 -2 0 -345 -1 -345 -142 0 -143 0 0 230 0 230 -1230 0
-1230 0 0 -265 0 -265 -143 0 -143 0 1 380 0 380 698 0 699 0 -8 33 c-5 25
-85 230 -110 282 -2 6 42 23 103 39 60 16 131 37 158 47 28 10 56 17 64 16 8
-1 22 -38 36 -92z"/>
<path fill="#000000" stroke="none" d="M1815 2655 c468 0 869 3 893 8 l42 7 0
-131 0 -132 -92 6 c-51 4 -235 10 -409 13 l-316 7 -139 -124 c-263 -235 -428
-339 -846 -530 -249 -115 -540 -240 -548 -237 -4 2 -40 50 -79 108 -39 58 -83
119 -97 137 l-26 32 44 11 c259 66 494 139 653 202 223 88 469 230 585 338
l55 51 -327 -4 -328 -3 0 128 0 128 43 -7 c23 -5 425 -8 892 -8z"/>
<path fill="#000000" stroke="none" d="M2969 2151 c72 -68 131 -127 131 -131
0 -3 -62 -35 -137 -70 -218 -103 -370 -211 -357 -254 43 -142 136 -347 205
-447 98 -145 321 -316 579 -444 41 -21 77 -39 79 -41 2 -2 -9 -14 -25 -26 -63
-49 -129 -116 -176 -180 l-50 -67 -74 50 c-292 197 -489 414 -627 694 -52 104
-127 306 -127 341 0 13 -6 12 -37 -6 -101 -61 -185 -102 -192 -94 -12 15 -95
204 -90 207 2 2 47 27 99 56 242 136 449 299 573 451 40 49 77 88 83 87 6 -1
70 -58 143 -126z"/>
<path fill="#000000" stroke="none" d="M1645 1783 c41 -48 75 -90 75 -93 0 -3
-15 -15 -33 -27 -17 -11 -77 -52 -132 -90 -376 -259 -838 -516 -1121 -623 -18
-7 -29 1 -72 58 -28 37 -76 92 -106 122 l-56 54 173 57 c398 131 665 261 987
480 63 43 133 94 155 113 22 20 43 35 47 36 4 0 41 -39 83 -87z"/>
<path fill="#000000" stroke="none" d="M1884 1392 c20 -57 33 -108 30 -113
-22 -37 -470 -352 -669 -471 -122 -73 -504 -278 -721 -386 l-141 -71 -55 67
c-30 37 -78 94 -106 128 l-51 60 97 34 c455 155 796 315 1089 509 185 122 315
221 418 314 38 35 62 51 67 43 3 -6 22 -58 42 -114z"/>
<path fill="#ff0000" stroke="none" d="M267 3028 c-3 -8 -6 -5 -6 6 -1 11 2
17 5 13 3 -3 4 -12 1 -19z"/>
<path fill="#ff0000" stroke="none" d="M2393 2973 c-337 -2 -889 -2 -1225 0
-337 1 -62 2 612 2 674 0 949 -1 613 -2z"/>
<path fill="#ff0000" stroke="none" d="M1178 2653 c-10 -2 -26 -2 -35 0 -10 3
-2 5 17 5 19 0 27 -2 18 -5z"/>
<path fill="#ff0000" stroke="none" d="M2493 2653 c-7 -2 -21 -2 -30 0 -10 3
-4 5 12 5 17 0 24 -2 18 -5z"/>
<path fill="#ff0000" stroke="none" d="M267 2618 c-3 -7 -5 -2 -5 12 0 14 2
19 5 13 2 -7 2 -19 0 -25z"/>
<path fill="#ff0000" stroke="none" d="M1781 2023 c63 -65 133 -143 154 -173
22 -30 44 -60 50 -66 5 -6 24 -34 40 -62 17 -29 36 -52 43 -52 7 0 11 -4 8 -9
-8 -12 19 -73 28 -64 4 4 4 -1 0 -11 -5 -13 -4 -17 4 -12 8 5 10 1 5 -10 -5
-13 -3 -15 7 -9 8 5 11 4 7 -2 -7 -11 16 -77 24 -69 2 2 5 -10 6 -27 1 -18 7
-59 13 -92 41 -240 58 -470 42 -591 -17 -124 -87 -240 -192 -316 -108 -78
-327 -162 -443 -170 l-48 -3 -25 75 c-25 74 -32 90 -72 180 l-20 45 127 6
c250 13 346 56 391 176 17 46 20 78 20 216 -1 196 -24 367 -50 367 -5 0 -6 10
-2 22 3 14 1 19 -6 14 -8 -5 -10 -2 -6 8 3 9 2 16 -4 16 -6 0 -8 10 -4 22 4
16 2 19 -8 13 -8 -5 -11 -4 -7 2 11 18 -10 69 -59 145 -26 40 -50 75 -54 78
-3 3 -16 19 -29 35 -12 17 -28 30 -34 30 -7 1 -11 5 -10 11 1 6 -12 26 -29 45
-17 19 -27 28 -23 20 6 -10 4 -12 -4 -7 -7 5 -10 10 -7 13 5 5 -57 90 -108
148 -38 42 -48 62 -36 70 6 4 7 11 4 17 -4 6 -3 8 3 5 6 -4 19 1 29 9 10 9 12
12 4 8 -9 -4 -12 -3 -7 2 5 5 16 9 25 9 9 0 16 6 15 13 -2 6 0 11 5 10 14 -3
42 14 36 23 -3 5 1 6 9 3 8 -3 19 2 26 10 19 22 31 13 162 -121z"/>
</g>
</svg>