
<svg version="1.0" xmlns="http://www.w3.org/2000/svg"
 width="370.000000pt" height="370.000000pt" viewBox="0 0 370.000000 370.000000"
 preserveAspectRatio="xMidYMid meet">
<g transform="translate(0.000000,370.000000) scale(0.100000,-0.100000)"
fill="#000000" stroke="none"><path fill="#ffffff" stroke="none" d="M0 1850 l0 -1850 1850 0 1850 0 0 1850
0 1850 -1850 0 -1850 0 0 -1850z"/>
<path fill="#000000" stroke="none" d="M2904 2363 c-10 -139 -10 -745 0 -885
l8 -108 -1081 0 -1081 0 0 120 0 120 925 0 925 0 0 310 0 310 -925 0 -925 0 0
120 0 120 1081 0 1081 0 -8 -107z"/>
<path fill="#ff0000" stroke="none" d="M3170 3238 l0 -123 -1210 3 -1210 4 0
-1216 0 -1216 1275 2 1275 3 0 -129 0 -128 -27 7 c-16 4 -656 10 -1423 12
l-1395 4 0 1445 0 1444 1230 3 c677 1 1287 3 1358 5 l127 2 0 -122z"/>
<path fill="#ff0000" stroke="none" d="M2907 1448 c-3 -8 -6 -5 -6 6 -1 11 2
17 5 13 3 -3 4 -12 1 -19z"/>
</g>
</svg>