
<svg version="1.0" xmlns="http://www.w3.org/2000/svg"
 width="370.000000pt" height="370.000000pt" viewBox="0 0 370.000000 370.000000"
 preserveAspectRatio="xMidYMid meet">
<g transform="translate(0.000000,370.000000) scale(0.100000,-0.100000)"
fill="#000000" stroke="none"><path fill="#ffffff" stroke="none" d="M0 1850 l0 -1850 1850 0 1850 0 0 1850
0 1850 -1850 0 -1850 0 0 -1850z"/>
<path fill="#000000" stroke="none" d="M2135 3579 c66 -6 121 -12 122 -13 1
-1 -2 -56 -7 -121 -11 -139 -13 -406 -3 -484 l6 -53 524 3 523 4 0 -130 0
-130 -521 4 -521 3 7 -98 c21 -325 63 -593 146 -938 l32 -129 43 69 c113 176
263 509 343 760 l36 112 94 -62 c51 -35 124 -78 162 -97 70 -34 78 -42 58 -55
-26 -15 -138 -202 -219 -365 -108 -214 -214 -401 -314 -551 l-75 -112 36 -66
c129 -233 328 -450 416 -454 29 -1 34 4 53 44 21 44 51 191 75 357 l11 83 37
-28 c51 -40 147 -96 209 -122 45 -19 53 -27 48 -44 -2 -12 -12 -61 -21 -111
-21 -118 -62 -273 -91 -348 -60 -153 -106 -190 -234 -191 -159 -1 -319 87
-463 252 -69 79 -194 263 -233 344 l-28 58 -130 -128 c-159 -156 -347 -307
-565 -453 l-163 -110 -33 48 c-18 27 -65 79 -105 116 l-71 66 73 37 c291 145
649 428 806 636 l43 56 -41 133 c-67 218 -137 553 -170 809 -12 95 -40 410
-40 453 l0 27 -605 0 -605 0 0 -473 c0 -606 -15 -839 -71 -1122 -49 -246 -139
-466 -271 -662 -27 -40 -51 -73 -54 -73 -4 0 -38 20 -78 44 -39 25 -101 59
-138 76 l-67 31 44 57 c124 161 194 302 249 505 86 313 106 554 106 1305 l0
562 731 0 731 0 -7 198 c-4 108 -10 260 -15 337 -4 77 -5 144 -2 148 2 5 20 6
41 3 20 -3 90 -11 156 -17z"/>
<path fill="#000000" stroke="none" d="M2772 3513 c112 -95 207 -181 313 -286
l79 -79 -34 -30 c-19 -17 -70 -62 -114 -101 l-79 -71 -19 25 c-102 128 -227
255 -423 431 -9 8 160 188 177 188 4 0 49 -35 100 -77z"/>
<path fill="#ff0000" stroke="none" d="M1937 3568 c-3 -8 -6 -5 -6 6 -1 11 2
17 5 13 3 -3 4 -12 1 -19z"/>
<path fill="#ff0000" stroke="none" d="M1957 3108 c-3 -7 -5 -2 -5 12 0 14 2
19 5 13 2 -7 2 -19 0 -25z"/>
<path fill="#ff0000" stroke="none" d="M1593 2903 c-199 -2 -527 -2 -730 0
-202 1 -39 2 362 2 402 0 567 -1 368 -2z"/>
<path fill="#ff0000" stroke="none" d="M2553 2903 c-57 -2 -149 -2 -205 0 -57
1 -11 3 102 3 113 0 159 -2 103 -3z"/>
<path fill="#ff0000" stroke="none" d="M1693 2663 c-166 -2 -440 -2 -610 0
-169 1 -33 2 302 2 336 0 474 -1 308 -2z"/>
<path fill="#ff0000" stroke="none" d="M2558 2663 c-54 -2 -142 -2 -195 0 -54
1 -10 3 97 3 107 0 151 -2 98 -3z"/>
<path fill="#ff0000" stroke="none" d="M1684 2143 c-6 -57 -24 -296 -39 -508
-9 -121 -20 -264 -25 -318 -6 -54 -10 -128 -10 -165 -1 -203 -56 -340 -153
-383 -80 -34 -233 -67 -369 -78 l-77 -6 -7 40 c-8 47 -25 96 -65 183 -16 35
-29 64 -29 65 0 1 53 2 118 2 111 1 225 17 265 37 11 5 27 28 37 51 36 81 45
178 66 685 l7 172 -311 0 -312 0 0 125 0 125 453 0 454 0 -3 -27z"/>
</g>
</svg>