
<svg version="1.0" xmlns="http://www.w3.org/2000/svg"
 width="370.000000pt" height="370.000000pt" viewBox="0 0 370.000000 370.000000"
 preserveAspectRatio="xMidYMid meet">
<g transform="translate(0.000000,370.000000) scale(0.100000,-0.100000)"
fill="#000000" stroke="none"><path fill="#ffffff" stroke="none" d="M0 1850 l0 -1850 1850 0 1850 0 0 1850
0 1850 -1850 0 -1850 0 0 -1850z"/>
<path fill="#000000" stroke="none" d="M888 3607 c16 -19 275 -528 271 -531
-25 -19 -264 -124 -269 -119 -4 5 -26 53 -50 108 -54 127 -121 261 -171 343
-21 35 -39 67 -39 71 0 3 28 21 63 38 34 18 87 48 117 67 64 40 64 40 78 23z"/>
<path fill="#000000" stroke="none" d="M2345 3558 c71 -28 193 -68 210 -68 17
0 20 -16 5 -25 -34 -21 -155 -286 -234 -514 l-36 -104 555 5 555 4 0 -133 0
-133 -37 4 c-21 3 -93 8 -159 11 l-122 5 -6 -52 c-3 -29 -8 -91 -12 -138 -36
-510 -152 -1001 -320 -1357 -16 -32 -15 -33 21 -77 121 -148 385 -317 615
-394 l80 -27 -36 -50 c-20 -28 -56 -91 -81 -142 l-44 -92 -71 30 c-230 95
-462 271 -638 486 l-35 42 -90 -81 c-163 -146 -358 -289 -555 -405 -141 -82
-124 -81 -156 -15 -16 31 -59 88 -96 127 -38 38 -68 70 -68 71 0 1 44 19 98
39 239 92 455 230 636 406 l60 57 -62 143 c-116 275 -205 535 -277 812 -21 81
-41 147 -44 147 -3 0 -18 -24 -34 -53 -15 -28 -41 -76 -58 -106 l-31 -53 -17
28 c-10 16 -57 66 -106 112 l-88 82 20 23 c104 116 280 506 388 862 35 115
115 437 130 520 10 55 11 57 53 39 20 -9 60 -25 87 -36z"/>
<path fill="#000000" stroke="none" d="M985 2865 c341 0 653 3 693 8 l72 7 0
-133 0 -132 -419 4 -418 3 -6 -328 c-16 -925 -142 -1405 -495 -1897 l-55 -77
-26 23 c-39 36 -141 110 -188 138 l-43 25 75 87 c189 220 287 427 384 812 57
223 81 518 81 976 l0 242 -235 -6 -235 -7 0 135 0 135 98 -7 c53 -5 376 -8
717 -8z"/>
<path fill="#ffffff" stroke="none" d="M2142 2484 l-63 -127 43 8 c24 5 59 9
78 9 32 1 35 -1 42 -39 58 -273 137 -565 197 -733 44 -121 105 -257 116 -257
24 0 124 339 164 560 41 220 96 679 85 697 -3 5 -139 8 -302 8 l-297 0 -63
-126z"/>
<path fill="#ff0000" stroke="none" d="M1647 2108 c-3 -18 -9 -125 -12 -238
-13 -485 -39 -931 -61 -1065 -32 -188 -54 -241 -126 -291 -63 -45 -274 -104
-371 -104 -34 0 -37 2 -48 43 -19 66 -38 125 -48 144 -4 10 -17 36 -28 58
l-20 40 69 -3 c88 -5 225 15 263 38 58 36 88 128 104 316 16 192 31 538 31
717 l0 157 -256 0 c-240 0 -256 1 -249 18 5 9 9 58 11 107 1 50 3 91 3 93 1 1
168 2 372 2 l371 0 -5 -32z"/>
</g>
</svg>