
<svg version="1.0" xmlns="http://www.w3.org/2000/svg"
 width="370.000000pt" height="370.000000pt" viewBox="0 0 370.000000 370.000000"
 preserveAspectRatio="xMidYMid meet">
<g transform="translate(0.000000,370.000000) scale(0.100000,-0.100000)"
fill="#000000" stroke="none"><path fill="#ffffff" stroke="none" d="M0 1850 l0 -1850 1850 0 1850 0 0 1850
0 1850 -1850 0 -1850 0 0 -1850z"/>
<path fill="#000000" stroke="none" d="M1950 2403 l0 -306 498 6 c273 4 507 9
520 13 l22 6 0 -132 0 -133 -77 7 c-42 3 -276 9 -520 13 l-443 6 0 -268 0
-268 673 6 c369 4 700 10 735 13 l62 7 0 -134 0 -134 -737 3 -736 4 6 -416 7
-416 -158 0 -159 0 5 416 5 415 -747 -3 -746 -3 0 134 0 134 63 -7 c34 -3 369
-9 745 -13 l682 -6 0 268 0 268 -472 -6 c-260 -4 -510 -10 -555 -14 l-83 -6 0
133 0 132 28 -6 c15 -3 264 -9 555 -13 l527 -6 0 306 0 307 150 0 150 0 0
-307z"/>
<path fill="#ff0000" stroke="none" d="M1239 3467 c33 -54 61 -100 61 -102 0
-2 26 -46 58 -97 65 -107 87 -147 81 -151 -2 -1 -62 -32 -133 -67 -101 -50
-131 -61 -134 -50 -12 34 -156 315 -163 318 -5 2 -9 8 -9 13 0 6 -17 33 -38
62 -57 77 -56 76 -27 87 49 19 150 70 185 94 41 27 28 39 119 -107z"/>
<path fill="#ff0000" stroke="none" d="M2535 3518 c50 -16 94 -33 98 -37 5 -5
-10 -26 -33 -47 -35 -33 -113 -137 -157 -209 -33 -55 -158 -270 -162 -278 -4
-11 891 -3 927 8 l22 7 0 -128 0 -129 -1450 0 -1450 0 0 129 0 128 22 -7 c40
-14 1668 -18 1668 -5 0 6 49 111 109 233 92 187 134 283 174 399 5 15 12 14
74 -9 37 -13 109 -38 158 -55z"/>
<path fill="#ff0000" stroke="none" d="M848 2103 c-10 -2 -26 -2 -35 0 -10 3
-2 5 17 5 19 0 27 -2 18 -5z"/>
<path fill="#ff0000" stroke="none" d="M2738 2103 c-10 -2 -26 -2 -35 0 -10 3
-2 5 17 5 19 0 27 -2 18 -5z"/>
<path fill="#ff0000" stroke="none" d="M618 1353 c-21 -2 -57 -2 -80 0 -24 2
-7 4 37 4 44 0 63 -2 43 -4z"/>
<path fill="#ff0000" stroke="none" d="M3048 1353 c-21 -2 -57 -2 -80 0 -24 2
-7 4 37 4 44 0 63 -2 43 -4z"/>
<path fill="#ff0000" stroke="none" d="M1647 418 c-3 -7 -5 -2 -5 12 0 14 2
19 5 13 2 -7 2 -19 0 -25z"/>
</g>
</svg>