
<svg version="1.0" xmlns="http://www.w3.org/2000/svg"
 width="370.000000pt" height="370.000000pt" viewBox="0 0 370.000000 370.000000"
 preserveAspectRatio="xMidYMid meet">
<g transform="translate(0.000000,370.000000) scale(0.100000,-0.100000)"
fill="#000000" stroke="none"><path fill="#ffffff" stroke="none" d="M0 1850 l0 -1850 1850 0 1850 0 0 1850
0 1850 -1850 0 -1850 0 0 -1850z"/>
<path fill="#000000" stroke="none" d="M1400 2050 l0 -190 385 0 385 0 0 190
0 190 160 0 160 0 0 -192 0 -191 444 6 c244 4 458 10 475 13 l31 7 0 -150 0
-149 -476 4 -476 5 4 -637 3 -636 -165 0 -165 0 3 635 4 635 -391 0 -391 0 -4
-22 c-2 -13 -10 -61 -16 -107 -22 -160 -88 -350 -171 -496 -114 -199 -303
-407 -507 -559 -146 -108 -132 -104 -194 -49 -57 50 -209 153 -227 153 -6 0
-11 5 -11 10 0 6 4 10 9 10 14 0 217 126 285 177 294 223 462 484 520 812 l14
73 -484 -4 -484 -4 0 149 0 150 31 -7 c17 -3 238 -9 490 -13 l459 -6 0 191 0
192 150 0 150 0 0 -190z"/>
<path fill="#ff0000" stroke="none" d="M2495 3533 c-4 -10 -9 -170 -12 -355
l-6 -338 304 1 c167 1 348 4 402 8 l97 6 0 -135 0 -135 -92 7 c-51 3 -231 7
-400 7 l-308 1 0 -175 0 -175 -150 0 -150 0 0 175 0 175 -390 0 -390 0 0 -175
0 -175 -145 0 -145 0 0 176 0 177 -372 -5 c-205 -3 -381 -9 -390 -13 -17 -7
-18 4 -18 135 0 131 1 142 18 135 9 -4 185 -10 390 -12 l372 -6 -1 234 c0 129
-4 285 -7 347 l-7 112 155 0 155 0 -3 -345 -3 -345 392 0 392 0 -6 355 -6 355
165 0 c154 0 166 -1 159 -17z"/>
<path fill="#ff0000" stroke="none" d="M473 1863 c-13 -2 -33 -2 -45 0 -13 2
-3 4 22 4 25 0 35 -2 23 -4z"/>
<path fill="#ff0000" stroke="none" d="M3143 1863 c-13 -2 -33 -2 -45 0 -13 2
-3 4 22 4 25 0 35 -2 23 -4z"/>
<path fill="#ff0000" stroke="none" d="M277 1584 c-3 -3 -12 -4 -19 -1 -8 3
-5 6 6 6 11 1 17 -2 13 -5z"/>
<path fill="#ff0000" stroke="none" d="M3313 1583 c-7 -2 -19 -2 -25 0 -7 3
-2 5 12 5 14 0 19 -2 13 -5z"/>
<path fill="#ff0000" stroke="none" d="M531 333 c13 -16 12 -17 -3 -4 -17 13
-22 21 -14 21 2 0 10 -8 17 -17z"/>
</g>
</svg>