
<svg version="1.0" xmlns="http://www.w3.org/2000/svg"
 width="370.000000pt" height="370.000000pt" viewBox="0 0 370.000000 370.000000"
 preserveAspectRatio="xMidYMid meet">
<g transform="translate(0.000000,370.000000) scale(0.100000,-0.100000)"
fill="#000000" stroke="none"><path fill="#ffffff" stroke="none" d="M0 1850 l0 -1850 1850 0 1850 0 0 1850
0 1850 -1850 0 -1850 0 0 -1850z"/>
<path fill="#000000" stroke="none" d="M2470 1740 l0 -120 -665 0 -665 0 0
120 0 120 665 0 665 0 0 -120z"/>
<path fill="#ff0000" stroke="none" d="M2752 3133 l-5 -376 362 5 361 6 0
-130 c0 -120 -1 -130 -17 -123 -10 4 -173 10 -361 13 l-344 5 4 -1097 3 -1096
-137 0 -138 0 0 155 0 155 -670 0 -670 0 0 -145 0 -145 -146 0 c-136 0 -146 1
-138 18 4 9 10 497 12 1085 l4 1067 -289 -1 c-158 0 -323 -4 -365 -7 l-78 -8
0 127 0 126 366 -5 366 -5 -4 349 c-3 192 -8 357 -13 367 -7 16 4 17 147 17
l154 0 -8 -77 c-3 -43 -7 -207 -7 -365 l-1 -288 671 0 671 0 -4 358 c-3 196
-8 365 -12 375 -8 16 3 17 141 17 l149 0 -4 -377z"/>
<path fill="#ffffff" stroke="none" d="M1141 1705 l0 -825 670 0 669 0 0 825
0 825 -669 0 -669 0 -1 -825z"/>
</g>
</svg>