
<svg version="1.0" xmlns="http://www.w3.org/2000/svg"
 width="370.000000pt" height="370.000000pt" viewBox="0 0 370.000000 370.000000"
 preserveAspectRatio="xMidYMid meet">
<g transform="translate(0.000000,370.000000) scale(0.100000,-0.100000)"
fill="#000000" stroke="none"><path fill="#ffffff" stroke="none" d="M0 1850 l0 -1850 1850 0 1850 0 0 1850
0 1850 -1850 0 -1850 0 0 -1850z"/>
<path fill="#000000" stroke="none" d="M2945 1995 l0 -615 -517 0 -518 0 0
-156 0 -156 733 5 c402 4 747 9 765 13 l32 6 0 -133 0 -134 -766 3 -767 4 5
-266 5 -266 -147 0 -146 0 12 88 c7 48 13 167 13 265 l1 179 -755 -4 -756 -3
3 130 3 130 30 -3 c17 -2 355 -5 753 -8 l722 -6 0 156 0 156 -516 0 -515 0 8
73 c10 94 10 991 0 1085 l-8 72 1163 0 1163 0 0 -615z"/>
<path fill="#ffffff" stroke="none" d="M910 2240 l0 -140 880 0 880 0 0 140 0
140 -880 0 -880 0 0 -140z"/>
<path fill="#ffffff" stroke="none" d="M910 1745 l0 -135 880 0 881 0 -3 133
-3 132 -877 3 -878 2 0 -135z"/>
<path fill="#ff0000" stroke="none" d="M1388 3473 c-3 -43 -7 -120 -7 -170
l-1 -93 406 0 405 0 -3 170 -3 170 140 0 141 0 -7 -72 c-4 -40 -8 -118 -8
-172 l-1 -99 445 5 445 6 0 -122 0 -121 -445 3 -445 4 1 -98 c0 -55 4 -123 8
-151 l7 -53 -138 0 -138 0 0 150 0 150 -405 0 -405 0 0 -150 0 -150 -132 0
-133 0 3 152 3 151 -430 -6 -431 -5 0 123 0 123 431 -6 430 -5 -3 172 -3 171
140 0 141 0 -8 -77z"/>
<path fill="#ff0000" stroke="none" d="M2947 2498 c-3 -8 -6 -5 -6 6 -1 11 2
17 5 13 3 -3 4 -12 1 -19z"/>
<path fill="#ff0000" stroke="none" d="M2947 1488 c-3 -8 -6 -5 -6 6 -1 11 2
17 5 13 3 -3 4 -12 1 -19z"/>
</g>
</svg>