
<svg version="1.0" xmlns="http://www.w3.org/2000/svg"
 width="370.000000pt" height="370.000000pt" viewBox="0 0 370.000000 370.000000"
 preserveAspectRatio="xMidYMid meet">
<g transform="translate(0.000000,370.000000) scale(0.100000,-0.100000)"
fill="#000000" stroke="none"><path fill="#ffffff" stroke="none" d="M0 1850 l0 -1850 1850 0 1850 0 0 1850
0 1850 -1850 0 -1850 0 0 -1850z"/>
<path fill="#000000" stroke="none" d="M1362 1237 c29 -24 97 -74 151 -112
l98 -68 -62 -34 c-99 -55 -243 -149 -389 -253 -175 -125 -294 -204 -404 -269
-93 -55 -287 -154 -290 -149 -18 30 -132 161 -170 193 -27 25 -48 46 -45 48 2
2 74 38 160 79 341 164 585 326 809 537 41 38 78 70 82 71 3 0 30 -20 60 -43z"/>
<path fill="#000000" stroke="none" d="M2578 1103 c321 -193 471 -291 634
-415 l117 -89 -115 -115 -115 -115 -132 98 c-257 190 -629 430 -845 543 l-63
33 49 51 c27 28 75 82 107 119 35 41 64 66 72 63 7 -3 138 -81 291 -173z"/>
<path fill="#ff0000" stroke="none" d="M2516 3443 c-4 -21 -9 -190 -13 -377
l-5 -339 356 5 356 5 0 -116 0 -116 -355 3 -355 2 0 -410 0 -411 450 3 450 3
0 -115 0 -115 -1610 0 -1610 0 0 115 0 115 480 -3 480 -2 0 410 0 410 -375 -2
-375 -3 0 116 0 116 375 -5 375 -5 -1 264 c-1 145 -4 310 -8 367 l-6 102 159
0 159 0 -7 -92 c-3 -51 -9 -216 -13 -365 l-6 -273 397 0 396 0 -1 273 c-1 149
-4 318 -8 375 l-6 102 164 0 163 0 -6 -37z"/>
<path fill="#ffffff" stroke="none" d="M1420 2100 l0 -410 395 0 395 0 0 410
0 410 -395 0 -395 0 0 -410z"/>
</g>
</svg>