
<svg version="1.0" xmlns="http://www.w3.org/2000/svg"
 width="370.000000pt" height="370.000000pt" viewBox="0 0 370.000000 370.000000"
 preserveAspectRatio="xMidYMid meet">
<g transform="translate(0.000000,370.000000) scale(0.100000,-0.100000)"
fill="#000000" stroke="none"><path fill="#ffffff" stroke="none" d="M0 1850 l0 -1850 1850 0 1850 0 0 1850
0 1850 -1850 0 -1850 0 0 -1850z"/>
<path fill="#000000" stroke="none" d="M1463 3460 c56 -16 265 -60 284 -60 2
0 -8 -19 -22 -42 -43 -71 -87 -160 -107 -218 -21 -62 -58 -194 -58 -210 0 -7
245 -10 741 -10 l741 0 -6 -27 c-4 -16 -10 -504 -13 -1085 l-6 -1058 -133 0
-134 0 0 965 0 965 -970 0 -970 0 0 -965 0 -965 -134 0 -133 0 -6 1058 c-3
581 -9 1069 -13 1085 l-6 27 385 0 384 0 6 38 c3 20 19 111 35 202 17 91 33
200 37 243 4 42 11 77 16 77 5 0 42 -9 82 -20z"/>
<path fill="#ff0000" stroke="none" d="M1560 1705 l0 -965 233 2 232 3 3 963
2 962 120 0 120 0 0 -966 0 -966 583 4 c320 3 590 8 600 12 16 8 17 -2 17
-120 l0 -129 -1665 0 -1665 0 0 125 0 125 83 -7 c45 -3 310 -7 590 -7 l507 -1
0 965 0 965 120 0 120 0 0 -965z"/>
<path fill="#ff0000" stroke="none" d="M537 2513 c-2 -16 -4 -3 -4 27 0 30 2
43 4 28 2 -16 2 -40 0 -55z"/>
<path fill="#ff0000" stroke="none" d="M3027 2513 c-2 -16 -4 -3 -4 27 0 30 2
43 4 28 2 -16 2 -40 0 -55z"/>
</g>
</svg>