
<svg version="1.0" xmlns="http://www.w3.org/2000/svg"
 width="370.000000pt" height="370.000000pt" viewBox="0 0 370.000000 370.000000"
 preserveAspectRatio="xMidYMid meet">
<g transform="translate(0.000000,370.000000) scale(0.100000,-0.100000)"
fill="#000000" stroke="none"><path fill="#ffffff" stroke="none" d="M0 1850 l0 -1850 1850 0 1850 0 0 1850
0 1850 -1850 0 -1850 0 0 -1850z"/>
<path fill="#000000" stroke="none" d="M2024 3466 c39 -30 97 -68 129 -86 31
-18 57 -35 57 -39 0 -3 -21 -23 -47 -44 -27 -21 -72 -66 -100 -100 -62 -73
-335 -468 -329 -475 7 -6 244 18 270 28 22 8 128 201 162 295 9 28 19 52 20
54 2 2 34 -17 71 -42 37 -24 94 -59 126 -77 57 -32 66 -43 47 -55 -16 -10
-148 -188 -245 -330 -130 -191 -200 -288 -287 -399 -43 -55 -77 -101 -75 -102
8 -8 357 51 357 61 0 5 -11 49 -24 98 l-25 87 27 14 c31 16 158 56 176 56 16
0 177 -525 164 -534 -10 -7 -209 -68 -212 -65 -2 2 -13 37 -25 77 -12 40 -28
75 -36 79 -45 17 -529 -80 -656 -132 -14 -5 -25 17 -63 119 -25 69 -46 132
-46 140 0 8 12 17 28 21 40 10 110 53 160 99 53 49 106 117 197 252 59 87 65
99 47 102 -11 2 -86 -13 -167 -32 -81 -20 -153 -36 -160 -36 -8 0 -21 24 -30
53 -10 28 -31 87 -47 131 l-30 78 55 57 c105 106 245 326 368 574 35 70 65
127 68 127 2 0 36 -24 75 -54z"/>
<path fill="#000000" stroke="none" d="M2936 3489 c31 -34 128 -97 186 -120
29 -11 55 -22 56 -24 2 -2 -29 -41 -68 -87 -40 -46 -131 -164 -202 -263 -71
-99 -140 -195 -155 -212 l-26 -33 140 0 140 0 80 143 c45 78 88 157 97 175 18
34 30 40 43 19 13 -22 114 -97 165 -123 26 -13 48 -28 48 -32 0 -4 -23 -30
-51 -57 -58 -57 -161 -191 -271 -350 -42 -60 -125 -175 -186 -255 -61 -80
-109 -147 -107 -149 6 -6 333 34 341 42 2 2 -10 41 -27 87 -43 119 -43 119 78
151 l102 27 15 -46 c9 -26 40 -137 71 -246 57 -205 57 -215 14 -216 -13 0
-122 -35 -170 -54 -12 -6 -18 5 -28 51 -8 32 -15 61 -17 64 -7 12 -295 -36
-478 -82 -43 -10 -84 -19 -91 -19 -6 0 -18 19 -25 43 -8 23 -29 78 -47 122
-37 90 -38 95 -19 95 30 0 147 126 251 269 61 84 111 156 113 160 4 11 -57 4
-228 -24 -74 -13 -136 -22 -137 -21 -2 1 -13 38 -26 82 -14 43 -32 99 -41 124
l-18 45 66 68 c36 37 98 116 137 175 72 108 192 343 226 440 10 28 20 52 24
52 3 0 14 -10 25 -21z"/>
<path fill="#000000" stroke="none" d="M1540 3248 l0 -116 -120 5 -120 6 0
-917 c0 -869 1 -917 18 -912 25 8 185 26 189 22 2 -2 0 -50 -4 -107 l-8 -104
-55 -7 c-30 -4 -75 -10 -99 -14 l-44 -6 7 -394 7 -394 -131 0 -130 0 7 365 c5
284 4 365 -6 365 -24 0 -448 -103 -576 -140 -72 -20 -159 -49 -195 -64 -36
-15 -69 -28 -73 -29 -10 -2 -107 294 -100 305 2 5 24 8 49 8 25 0 76 5 115 11
l69 12 0 1000 0 1000 -90 -5 -90 -5 0 116 0 116 690 0 690 0 0 -117z"/>
<path fill="#ffffff" stroke="none" d="M600 2905 l0 -235 230 0 230 0 0 235 0
235 -230 0 -230 0 0 -235z"/>
<path fill="#ffffff" stroke="none" d="M600 2190 l0 -260 230 0 230 0 0 260 0
260 -230 0 -230 0 0 -260z"/>
<path fill="#ffffff" stroke="none" d="M600 1455 c0 -205 3 -265 13 -265 12 0
327 46 402 59 l40 7 3 232 2 232 -230 0 -230 0 0 -265z"/>
<path fill="#ff0000" stroke="none" d="M1892 1490 l-5 -240 140 0 139 0 12
123 c7 67 12 175 12 240 l0 117 130 0 c117 0 130 -2 130 -17 0 -10 -7 -79 -15
-153 -8 -74 -20 -193 -26 -265 -12 -145 -31 -262 -50 -315 -33 -93 -117 -268
-139 -290 -3 -3 -17 -21 -31 -40 -37 -49 -145 -157 -204 -204 -28 -22 -54 -45
-60 -50 -5 -6 -28 -24 -50 -40 -22 -17 -42 -32 -45 -36 -3 -3 -21 -17 -40 -31
l-35 -26 -35 46 c-19 25 -37 48 -40 51 -16 16 -90 109 -90 114 0 3 33 21 73
39 166 77 295 181 373 303 40 62 104 201 104 224 0 6 -94 10 -237 10 l-238 0
0 340 0 340 116 0 116 0 -5 -240z"/>
<path fill="#ff0000" stroke="none" d="M2892 1490 l-5 -240 167 0 167 0 -3
240 -3 240 119 0 119 0 -6 -67 c-4 -38 -7 -213 -7 -390 l0 -323 -110 0 -110 0
0 50 0 50 -166 0 -166 0 4 -395 3 -395 -115 0 -115 0 0 735 0 735 116 0 116 0
-5 -240z"/>
<path fill="#ff0000" stroke="none" d="M143 1113 c-7 -2 -19 -2 -25 0 -7 3 -2
5 12 5 14 0 19 -2 13 -5z"/>
<path fill="#ff0000" stroke="none" d="M1307 573 c-3 -10 -5 -2 -5 17 0 19 2
27 5 18 2 -10 2 -26 0 -35z"/>
</g>
</svg>