
<svg version="1.0" xmlns="http://www.w3.org/2000/svg"
 width="370.000000pt" height="370.000000pt" viewBox="0 0 370.000000 370.000000"
 preserveAspectRatio="xMidYMid meet">
<g transform="translate(0.000000,370.000000) scale(0.100000,-0.100000)"
fill="#000000" stroke="none"><path fill="#ffffff" stroke="none" d="M0 1850 l0 -1850 1850 0 1850 0 0 1850
0 1850 -1850 0 -1850 0 0 -1850z"/>
<path fill="#000000" stroke="none" d="M1116 3478 c142 -192 286 -407 279
-419 -4 -5 -12 -9 -20 -9 -21 0 -125 -57 -182 -101 -29 -21 -56 -39 -61 -39
-5 0 -15 14 -22 31 -21 50 -170 287 -253 402 -42 59 -77 108 -77 110 0 2 28
22 63 45 34 23 82 59 107 81 25 22 48 40 53 41 4 0 55 -64 113 -142z"/>
<path fill="#000000" stroke="none" d="M2435 3595 c31 -13 106 -41 168 -60 62
-20 113 -38 115 -40 2 -1 -23 -43 -54 -91 -55 -85 -264 -484 -279 -533 l-7
-23 456 3 456 4 0 -132 0 -133 -47 8 c-63 9 -2803 9 -2866 0 l-47 -8 0 133 0
132 874 -3 873 -3 78 187 c76 185 177 473 190 547 9 44 16 45 90 12z"/>
<path fill="#000000" stroke="none" d="M3063 2146 c50 -35 115 -75 144 -89
l51 -26 -58 -88 c-32 -48 -129 -207 -217 -353 -88 -146 -181 -300 -208 -342
l-47 -77 -77 53 c-42 29 -98 66 -126 81 -27 16 -51 29 -53 30 -1 1 32 51 74
111 146 210 285 457 380 677 20 48 39 87 41 87 2 0 45 -29 96 -64z"/>
<path fill="#000000" stroke="none" d="M630 2158 c55 -87 187 -310 232 -393
93 -170 208 -393 208 -403 0 -6 -28 -28 -62 -48 -35 -21 -91 -58 -124 -81 -34
-24 -66 -43 -72 -43 -5 0 -17 23 -26 51 -56 170 -225 507 -362 720 l-43 68 72
40 c40 22 90 56 112 75 22 19 42 35 45 36 3 0 12 -10 20 -22z"/>
<path fill="#ff0000" stroke="none" d="M1520 1650 l0 -950 265 0 265 0 0 950
0 950 130 0 130 0 0 -951 0 -951 513 5 c281 4 529 9 550 13 l37 6 0 -121 0
-121 -1615 -2 -1615 -3 0 116 0 117 540 -6 540 -5 0 951 0 952 130 0 130 0 0
-950z"/>
</g>
</svg>