
<svg version="1.0" xmlns="http://www.w3.org/2000/svg"
 width="370.000000pt" height="370.000000pt" viewBox="0 0 370.000000 370.000000"
 preserveAspectRatio="xMidYMid meet">
<g transform="translate(0.000000,370.000000) scale(0.100000,-0.100000)"
fill="#000000" stroke="none"><path fill="#ffffff" stroke="none" d="M0 1850 l0 -1850 1850 0 1850 0 0 1850
0 1850 -1850 0 -1850 0 0 -1850z"/>
<path fill="#000000" stroke="none" d="M1200 2745 l0 -105 -280 0 -280 0 0
-905 0 -905 1160 0 1160 0 0 905 0 905 -295 0 -295 0 0 105 0 105 458 0 457 0
0 -1255 0 -1255 -162 0 -163 0 0 140 0 140 -1160 0 -1160 0 0 -140 0 -140
-165 0 -166 0 8 137 c10 179 10 2113 0 2261 l-7 112 445 0 445 0 0 -105z"/>
<path fill="#000000" stroke="none" d="M2080 2745 l0 -105 -300 0 -300 0 0
105 0 105 300 0 300 0 0 -105z"/>
<path fill="#ff0000" stroke="none" d="M2372 2735 l-3 -825 295 0 296 0 0
-100 0 -100 -295 0 -295 0 0 -435 0 -435 -145 0 -145 0 0 435 0 435 -300 0
-300 0 0 -435 0 -435 -135 0 -135 0 0 435 0 435 -285 0 -285 0 0 100 0 100
286 0 286 0 -6 753 c-3 413 -9 782 -12 820 l-6 67 157 0 157 0 -7 -37 c-4 -21
-9 -390 -12 -820 l-4 -783 301 0 301 0 -3 825 -3 825 150 0 150 0 -3 -825z"/>
<path fill="#ff0000" stroke="none" d="M3277 1237 c-1 -177 -2 -32 -2 323 0
355 1 500 2 322 2 -177 2 -467 0 -645z"/>
</g>
</svg>