
<svg version="1.0" xmlns="http://www.w3.org/2000/svg"
 width="370.000000pt" height="370.000000pt" viewBox="0 0 370.000000 370.000000"
 preserveAspectRatio="xMidYMid meet">
<g transform="translate(0.000000,370.000000) scale(0.100000,-0.100000)"
fill="#000000" stroke="none"><path fill="#ffffff" stroke="none" d="M0 1850 l0 -1850 1850 0 1850 0 0 1850
0 1850 -1850 0 -1850 0 0 -1850z"/>
<path fill="#000000" stroke="none" d="M1899 3525 c11 -25 45 -82 76 -126 30
-44 55 -81 55 -82 0 -1 -91 -3 -203 -4 -203 -2 -382 -11 -752 -38 -110 -8
-270 -19 -355 -24 -85 -6 -198 -13 -251 -17 l-96 -6 -33 53 c-18 30 -52 77
-76 105 l-44 51 372 6 c369 6 470 12 743 42 146 17 506 73 514 81 14 14 33 -2
50 -41z"/>
<path fill="#000000" stroke="none" d="M1953 3206 l119 -59 -49 -41 c-26 -22
-86 -79 -133 -127 l-85 -87 -118 57 -119 57 75 67 c41 37 99 96 128 132 29 36
55 64 58 63 3 -2 59 -30 124 -62z"/>
<path fill="#000000" stroke="none" d="M1267 3148 c82 -127 106 -169 102 -172
-2 -2 -26 -9 -54 -16 -27 -7 -76 -26 -109 -42 -32 -16 -59 -28 -60 -26 -1 2
-13 28 -28 58 -14 30 -49 87 -77 125 l-52 70 53 22 c29 13 73 33 98 47 25 13
50 24 56 25 7 0 39 -41 71 -91z"/>
<path fill="#000000" stroke="none" d="M585 3183 c34 -39 139 -192 134 -195
-2 -2 -44 -23 -94 -48 -49 -24 -92 -46 -95 -47 -3 -2 -16 17 -29 42 -13 24
-49 72 -80 106 -30 34 -51 64 -46 66 6 2 44 25 85 52 41 27 81 50 88 50 7 1
24 -11 37 -26z"/>
<path fill="#000000" stroke="none" d="M1153 2863 l708 -5 -3 -140 -3 -140
-130 -33 c-168 -43 -495 -162 -524 -190 -2 -3 4 -14 13 -24 17 -19 15 -20 -56
-56 -40 -20 -88 -46 -106 -57 l-33 -20 -41 48 c-23 27 -87 95 -142 151 -56 56
-101 107 -101 112 0 5 39 37 87 70 86 60 86 60 105 39 10 -11 44 -43 76 -70
l57 -50 98 40 c53 23 133 57 177 77 l80 36 -517 -4 -518 -3 0 119 0 119 33 -7
c17 -3 350 -9 740 -12z"/>
<path fill="#000000" stroke="none" d="M1942 1618 c-4 -1018 -5 -1045 -30
-1109 -39 -98 -115 -148 -294 -193 -162 -41 -165 -41 -173 -9 -14 56 -66 175
-95 218 -16 24 -30 46 -30 48 0 3 57 5 128 4 164 -2 178 2 205 61 22 47 22 53
25 705 l3 657 -556 0 -555 0 0 -815 0 -815 -132 0 -133 0 0 910 0 910 820 0
820 0 -3 -572z"/>
<path fill="#000000" stroke="none" d="M1090 1906 l83 -60 -44 -40 c-24 -23
-69 -63 -99 -89 l-55 -49 100 6 c55 3 131 6 168 6 l68 0 -42 61 c-22 33 -39
62 -37 64 1 1 40 28 85 59 l82 55 47 -67 c26 -37 77 -105 114 -152 36 -47 76
-99 88 -116 l22 -32 -76 -36 c-42 -20 -88 -45 -104 -56 -15 -11 -30 -20 -33
-20 -2 0 -17 19 -33 41 l-29 42 -150 -7 c-163 -8 -372 -22 -447 -32 -41 -5
-49 -3 -54 13 -3 10 -18 48 -34 86 l-28 67 26 14 c56 29 124 101 192 202 38
58 70 110 70 116 0 6 7 5 19 -3 10 -8 55 -41 101 -73z"/>
<path fill="#000000" stroke="none" d="M1528 1396 c6 -6 -51 -173 -83 -242
-18 -39 -56 -108 -86 -154 -43 -68 -50 -85 -39 -92 149 -87 195 -116 220 -137
l31 -26 -78 -77 -78 -77 -110 85 c-60 47 -115 87 -121 90 -6 3 -58 -26 -115
-64 -99 -66 -275 -162 -297 -162 -5 0 -21 19 -35 43 -14 23 -43 63 -66 88 -43
49 -43 59 -2 59 36 1 183 58 264 104 38 21 67 39 65 41 -9 9 -196 112 -225
124 -18 7 -33 16 -33 19 0 18 77 161 86 162 14 0 165 -74 254 -124 l64 -37 18
23 c20 26 88 152 88 163 0 4 -115 6 -255 3 l-255 -4 0 101 0 100 392 -3 c216
-2 394 -5 396 -6z"/>
<path fill="#ff0000" stroke="none" d="M2500 3488 c0 -13 -7 -58 -15 -101 -13
-68 -15 -264 -15 -1369 l0 -1291 21 -34 c12 -18 40 -44 63 -56 38 -20 58 -22
249 -25 145 -3 217 0 237 8 62 26 100 122 121 307 l12 112 56 -38 c76 -51 190
-101 232 -101 16 0 19 -4 14 -17 -4 -10 -18 -49 -30 -88 -54 -163 -96 -243
-169 -323 -35 -37 -65 -53 -145 -76 -80 -23 -532 -23 -634 0 -142 32 -205 87
-243 213 -11 38 -14 258 -15 1351 0 957 -4 1338 -13 1428 l-12 122 143 0 c142
0 143 0 143 -22z"/>
<path fill="#ff0000" stroke="none" d="M307 2028 c-3 -7 -5 -2 -5 12 0 14 2
19 5 13 2 -7 2 -19 0 -25z"/>
<path fill="#ff0000" stroke="none" d="M1137 1674 c-3 -3 -12 -4 -19 -1 -8 3
-5 6 6 6 11 1 17 -2 13 -5z"/>
<path fill="#ff0000" stroke="none" d="M1407 574 c-3 -3 -12 -4 -19 -1 -8 3
-5 6 6 6 11 1 17 -2 13 -5z"/>
<path fill="#ff0000" stroke="none" d="M307 478 c-3 -8 -6 -5 -6 6 -1 11 2 17
5 13 3 -3 4 -12 1 -19z"/>
</g>
</svg>