
<svg version="1.0" xmlns="http://www.w3.org/2000/svg"
 width="370.000000pt" height="370.000000pt" viewBox="0 0 370.000000 370.000000"
 preserveAspectRatio="xMidYMid meet">
<g transform="translate(0.000000,370.000000) scale(0.100000,-0.100000)"
fill="#000000" stroke="none"><path fill="#ffffff" stroke="none" d="M0 1850 l0 -1850 1850 0 1850 0 0 1850
0 1850 -1850 0 -1850 0 0 -1850z"/>
<path fill="#000000" stroke="none" d="M1976 3534 c-16 -42 -26 -343 -26 -818
l0 -518 725 4 725 3 0 -125 0 -125 -919 3 -919 4 -6 -119 c-25 -453 -143 -760
-394 -1025 -197 -207 -418 -343 -741 -458 l-104 -37 -94 141 c-52 77 -95 145
-96 149 -1 5 50 21 113 37 508 130 813 376 946 762 42 124 84 377 84 511 l0
40 -535 -5 -535 -5 0 126 0 126 726 -3 726 -4 -4 676 -3 676 169 0 c152 0 168
-2 162 -16z"/>
<path fill="#000000" stroke="none" d="M2910 3136 c47 -23 105 -50 129 -59
l43 -18 -49 -52 c-49 -52 -81 -96 -312 -427 -67 -96 -128 -183 -136 -193 -16
-22 -16 -21 -183 75 l-102 60 17 22 c214 272 322 444 411 659 l12 28 43 -26
c23 -15 80 -45 127 -69z"/>
<path fill="#000000" stroke="none" d="M981 2993 c123 -181 195 -291 263 -408
l44 -74 -105 -56 c-58 -31 -125 -69 -148 -85 l-43 -29 -52 92 c-63 112 -191
306 -294 446 -42 57 -76 106 -76 110 0 6 279 170 291 171 4 0 58 -75 120 -167z"/>
<path fill="#ff0000" stroke="none" d="M1647 3428 c-3 -8 -6 -5 -6 6 -1 11 2
17 5 13 3 -3 4 -12 1 -19z"/>
<path fill="#ff0000" stroke="none" d="M2270 1388 c0 -350 4 -577 10 -600 6
-20 24 -49 41 -65 47 -47 103 -55 359 -51 312 4 331 14 375 186 13 48 26 116
30 152 9 96 11 97 89 45 67 -44 187 -105 209 -105 35 -1 36 -16 4 -110 -43
-128 -126 -279 -177 -323 -80 -68 -100 -71 -525 -75 -412 -4 -489 2 -562 44
-52 30 -85 73 -107 138 -14 44 -16 124 -16 688 l0 638 135 0 135 0 0 -562z"/>
</g>
</svg>