
<svg version="1.0" xmlns="http://www.w3.org/2000/svg"
 width="370.000000pt" height="370.000000pt" viewBox="0 0 370.000000 370.000000"
 preserveAspectRatio="xMidYMid meet">
<g transform="translate(0.000000,370.000000) scale(0.100000,-0.100000)"
fill="#000000" stroke="none"><path fill="#ffffff" stroke="none" d="M0 1850 l0 -1850 1850 0 1850 0 0 1850
0 1850 -1850 0 -1850 0 0 -1850z"/>
<path fill="#000000" stroke="none" d="M1910 1425 l0 -645 486 0 487 0 -5 475
-4 475 140 0 141 0 0 -725 0 -725 -137 0 -138 0 0 130 0 130 -1252 0 -1253 0
0 605 0 605 149 0 148 0 -6 -27 c-4 -16 -9 -234 -13 -485 l-6 -458 497 0 496
0 0 645 0 645 135 0 135 0 0 -645z"/>
<path fill="#ff0000" stroke="none" d="M1908 3453 c-3 -43 -7 -318 -7 -610
l-1 -533 430 0 430 0 -1 373 c0 204 -4 405 -8 445 l-7 72 141 0 140 0 0 -560
0 -560 -1245 0 -1245 0 0 565 0 565 140 0 141 0 -8 -77 c-3 -43 -7 -246 -7
-450 l-1 -373 420 0 420 0 -2 610 -3 610 140 0 141 0 -8 -77z"/>
<path fill="#ff0000" stroke="none" d="M3157 408 c-3 -7 -5 -2 -5 12 0 14 2
19 5 13 2 -7 2 -19 0 -25z"/>
</g>
</svg>