
<svg version="1.0" xmlns="http://www.w3.org/2000/svg"
 width="370.000000pt" height="370.000000pt" viewBox="0 0 370.000000 370.000000"
 preserveAspectRatio="xMidYMid meet">
<g transform="translate(0.000000,370.000000) scale(0.100000,-0.100000)"
fill="#000000" stroke="none"><path fill="#ffffff" stroke="none" d="M0 1850 l0 -1850 1850 0 1850 0 0 1850
0 1850 -1850 0 -1850 0 0 -1850z"/>
<path fill="#000000" stroke="none" d="M1799 3360 l1146 0 0 -815 0 -815 -157
0 -158 0 0 130 0 130 -910 0 -910 0 0 135 0 135 910 0 910 0 0 416 0 416
-1042 -6 c-574 -3 -1067 -9 -1095 -12 l-53 -6 0 153 0 152 107 -6 c58 -4 622
-7 1252 -7z"/>
<path fill="#ff0000" stroke="none" d="M2947 3208 c-3 -7 -5 -2 -5 12 0 14 2
19 5 13 2 -7 2 -19 0 -25z"/>
<path fill="#ff0000" stroke="none" d="M800 1521 l0 -728 26 -39 c46 -68 91
-84 259 -89 72 -2 238 -9 370 -16 377 -18 1264 3 1340 33 54 20 113 87 145
164 33 79 70 249 70 320 0 24 2 44 4 44 3 0 47 -20 98 -44 95 -45 145 -65 211
-87 20 -7 37 -19 37 -26 0 -45 -113 -343 -147 -389 -13 -17 -23 -36 -23 -41 0
-6 -25 -36 -55 -66 -72 -72 -172 -120 -280 -135 -150 -21 -1077 -36 -1445 -23
-184 6 -398 11 -475 11 -77 1 -167 7 -200 14 -107 23 -177 85 -204 182 -7 26
-12 303 -15 819 -2 429 -7 790 -11 803 l-7 22 151 0 151 0 0 -729z"/>
<path fill="#ff0000" stroke="none" d="M2947 1868 c-3 -7 -5 -2 -5 12 0 14 2
19 5 13 2 -7 2 -19 0 -25z"/>
</g>
</svg>