
<svg version="1.0" xmlns="http://www.w3.org/2000/svg"
 width="370.000000pt" height="370.000000pt" viewBox="0 0 370.000000 370.000000"
 preserveAspectRatio="xMidYMid meet">
<g transform="translate(0.000000,370.000000) scale(0.100000,-0.100000)"
fill="#000000" stroke="none"><path fill="#ffffff" stroke="none" d="M0 1850 l0 -1850 1850 0 1850 0 0 1850
0 1850 -1850 0 -1850 0 0 -1850z"/>
<path fill="#000000" stroke="none" d="M2709 3585 c43 -21 178 -79 247 -105
l25 -10 -26 -27 c-40 -43 -129 -198 -216 -378 -44 -90 -79 -166 -79 -171 0 -4
138 -3 308 1 169 5 332 9 362 9 l55 1 3 -111 3 -112 -1088 -5 c-598 -3 -1097
-7 -1108 -8 -19 -4 -20 2 -23 124 l-3 128 68 -6 c182 -15 491 -25 810 -25
l352 0 61 158 c35 86 92 248 129 359 36 112 67 203 69 203 1 0 24 -11 51 -25z"/>
<path fill="#000000" stroke="none" d="M1828 3408 c134 -232 165 -288 161
-292 -2 -2 -24 -14 -49 -26 -25 -12 -73 -42 -107 -66 -34 -24 -64 -44 -67 -44
-2 0 -19 26 -37 58 -18 31 -77 131 -131 221 -96 159 -98 164 -81 184 19 22
190 137 203 137 4 0 53 -78 108 -172z"/>
<path fill="#000000" stroke="none" d="M789 3165 c64 -154 123 -290 130 -303
7 -13 11 -28 9 -34 -2 -5 -35 -20 -73 -33 -39 -12 -101 -34 -138 -48 -49 -19
-69 -23 -72 -14 -2 7 -49 138 -105 292 -56 154 -105 290 -107 302 -4 19 6 27
78 61 125 58 133 61 147 59 8 -1 66 -128 131 -282z"/>
<path fill="#000000" stroke="none" d="M907 2326 c0 0 -3 -104 -7 -231 -5
-126 -9 -436 -10 -689 l0 -458 33 -30 c76 -70 202 -140 334 -187 89 -31 270
-71 328 -71 28 0 86 -7 130 -15 134 -25 741 -39 1070 -26 253 11 616 41 679
57 l25 6 -29 -54 c-39 -71 -59 -128 -74 -208 l-12 -65 -500 -3 c-499 -3 -773
5 -1079 34 -371 34 -527 77 -802 219 -135 70 -190 84 -259 65 -53 -15 -140
-92 -257 -228 l-78 -90 -51 50 c-29 28 -85 75 -125 105 -40 31 -73 57 -73 59
0 2 62 45 137 95 76 51 186 126 245 168 l108 76 0 598 0 599 -205 -7 -205 -8
0 125 0 124 338 -4 c185 -2 338 -5 339 -6z"/>
<path fill="#ff0000" stroke="none" d="M1403 2903 c-7 -2 -19 -2 -25 0 -7 3
-2 5 12 5 14 0 19 -2 13 -5z"/>
<path fill="#ff0000" stroke="none" d="M3363 2903 c-13 -2 -35 -2 -50 0 -16 2
-5 4 22 4 28 0 40 -2 28 -4z"/>
<path fill="#ff0000" stroke="none" d="M1478 2673 c-10 -2 -28 -2 -40 0 -13 2
-5 4 17 4 22 1 32 -1 23 -4z"/>
<path fill="#ff0000" stroke="none" d="M2366 2608 c-3 -35 -8 -182 -11 -328
-3 -146 -8 -329 -11 -407 l-6 -143 287 0 286 0 -3 305 -3 305 129 0 c118 0
128 -1 121 -17 -11 -26 -18 -760 -8 -890 l8 -113 -122 0 -123 0 0 95 0 95
-302 -2 -301 -3 -17 -60 c-29 -100 -117 -282 -142 -293 -5 -2 -8 -8 -8 -13 0
-13 -34 -53 -125 -144 -98 -100 -170 -159 -302 -253 -86 -61 -108 -72 -143
-72 -30 0 -42 5 -47 18 -8 21 -84 141 -104 163 -8 8 -27 29 -42 45 l-28 31
100 32 c281 90 478 246 575 453 49 107 80 98 -336 98 l-363 0 0 420 0 420 132
0 132 0 -6 -310 -6 -310 251 0 c231 0 251 1 256 18 6 19 23 387 33 720 l6 202
125 0 124 0 -6 -62z"/>
<path fill="#ff0000" stroke="none" d="M907 2258 c-3 -7 -5 -2 -5 12 0 14 2
19 5 13 2 -7 2 -19 0 -25z"/>
<path fill="#ff0000" stroke="none" d="M2097 364 c-3 -3 -12 -4 -19 -1 -8 3
-5 6 6 6 11 1 17 -2 13 -5z"/>
<path fill="#ff0000" stroke="none" d="M2277 354 c-3 -3 -12 -4 -19 -1 -8 3
-5 6 6 6 11 1 17 -2 13 -5z"/>
</g>
</svg>