
<svg version="1.0" xmlns="http://www.w3.org/2000/svg"
 width="370.000000pt" height="370.000000pt" viewBox="0 0 370.000000 370.000000"
 preserveAspectRatio="xMidYMid meet">
<g transform="translate(0.000000,370.000000) scale(0.100000,-0.100000)"
fill="#000000" stroke="none"><path fill="#ffffff" stroke="none" d="M0 1850 l0 -1850 1850 0 1850 0 0 1850
0 1850 -1850 0 -1850 0 0 -1850z"/>
<path fill="#000000" stroke="none" d="M2466 3419 c76 -34 153 -68 171 -75
l32 -14 -54 -72 c-30 -40 -110 -181 -181 -321 -70 -137 -178 -337 -241 -444
l-113 -196 248 -251 c237 -242 358 -374 470 -517 29 -37 52 -71 52 -75 0 -5
-26 -25 -58 -46 -31 -20 -91 -66 -133 -101 l-77 -66 -68 97 c-138 194 -331
413 -513 579 -62 57 -117 103 -121 101 -4 -2 -38 -43 -76 -93 -223 -295 -456
-550 -717 -783 l-48 -43 -57 52 c-31 29 -90 74 -129 100 l-73 47 68 48 c170
122 557 544 756 827 l49 68 -88 92 c-268 281 -516 510 -751 695 l-91 72 72 72
c39 40 87 92 106 116 l35 43 179 -153 c260 -220 421 -363 583 -517 79 -75 147
-137 152 -139 10 -4 147 229 231 393 72 142 173 378 210 493 12 39 26 72 30
72 3 0 69 -28 145 -61z"/>
<path fill="#ff0000" stroke="none" d="M3305 1650 l0 -1220 -147 0 -148 0 0
95 0 95 -1340 0 -1339 0 7 33 c9 42 9 2062 0 2105 l-7 32 170 0 171 0 -7 -37
c-4 -21 -9 -444 -12 -940 l-4 -903 1181 0 1181 0 -3 980 -3 980 150 0 150 0 0
-1220z"/>
<path fill="#ff0000" stroke="none" d="M1721 2643 c13 -16 12 -17 -3 -4 -10 7
-18 15 -18 17 0 8 8 3 21 -13z"/>
</g>
</svg>