
<svg version="1.0" xmlns="http://www.w3.org/2000/svg"
 width="370.000000pt" height="370.000000pt" viewBox="0 0 370.000000 370.000000"
 preserveAspectRatio="xMidYMid meet">
<g transform="translate(0.000000,370.000000) scale(0.100000,-0.100000)"
fill="#000000" stroke="none"><path fill="#ffffff" stroke="none" d="M0 1850 l0 -1850 1850 0 1850 0 0 1850
0 1850 -1850 0 -1850 0 0 -1850z"/>
<path fill="#000000" stroke="none" d="M3017 3238 c-4 -95 -7 -606 -7 -1135
l0 -963 -150 0 -150 0 0 170 0 170 -915 0 -915 0 0 -170 0 -170 -138 0 -139 0
-6 1043 c-4 573 -10 1084 -13 1135 l-7 92 1223 0 1223 0 -6 -172z"/>
<path fill="#ffffff" stroke="none" d="M880 2880 l0 -310 915 0 915 0 0 310 0
310 -915 0 -915 0 0 -310z"/>
<path fill="#ffffff" stroke="none" d="M880 2025 l0 -315 915 0 915 0 0 315 0
315 -915 0 -915 0 0 -315z"/>
<path fill="#ff0000" stroke="none" d="M870 975 l0 -165 925 0 925 0 0 165 0
165 138 0 139 0 6 -362 c4 -200 10 -380 13 -401 l7 -37 -152 0 -151 0 0 130 0
130 -925 0 -925 0 0 -120 0 -120 -142 0 -141 0 6 197 c4 108 7 283 7 390 l0
193 135 0 135 0 0 -165z"/>
</g>
</svg>