
<svg version="1.0" xmlns="http://www.w3.org/2000/svg"
 width="370.000000pt" height="370.000000pt" viewBox="0 0 370.000000 370.000000"
 preserveAspectRatio="xMidYMid meet">
<g transform="translate(0.000000,370.000000) scale(0.100000,-0.100000)"
fill="#000000" stroke="none"><path fill="#ffffff" stroke="none" d="M0 1850 l0 -1850 1850 0 1850 0 0 1850
0 1850 -1850 0 -1850 0 0 -1850z"/>
<path fill="#000000" stroke="none" d="M1483 3361 c215 -245 586 -717 587
-747 0 -6 -21 -26 -47 -45 -27 -18 -82 -62 -124 -96 l-77 -62 -68 107 c-115
179 -306 428 -528 686 -42 49 -76 92 -76 95 0 3 21 21 48 38 26 18 74 57 107
87 33 31 63 55 67 56 3 0 53 -53 111 -119z"/>
<path fill="#000000" stroke="none" d="M2805 3390 c71 -15 151 -31 178 -35 26
-4 47 -11 47 -16 0 -4 -7 -34 -15 -66 -29 -111 -66 -350 -95 -623 -38 -351
-45 -403 -81 -586 -42 -220 -112 -444 -188 -605 l-21 -45 221 -225 c220 -222
433 -454 522 -568 l46 -59 -42 -28 c-54 -35 -168 -126 -186 -147 -21 -26 -33
-20 -74 38 -85 123 -274 341 -458 529 l-196 201 -142 -142 c-302 -302 -589
-513 -941 -690 l-145 -73 -20 27 c-11 14 -45 61 -77 102 -31 42 -72 93 -92
115 -20 21 -36 40 -36 41 0 2 30 13 68 25 366 120 709 327 967 585 300 300
453 651 525 1210 39 300 60 570 67 823 5 224 8 252 22 247 9 -3 74 -19 146
-35z"/>
<path fill="#ff0000" stroke="none" d="M762 2120 c-2 -623 1 -980 7 -980 21 0
501 469 654 640 37 41 67 69 67 63 0 -6 6 -18 13 -25 7 -7 22 -28 32 -45 11
-18 48 -66 82 -107 l63 -74 -43 -33 c-23 -19 -44 -36 -47 -39 -3 -3 -25 -21
-50 -39 -25 -19 -55 -44 -66 -55 -12 -12 -32 -30 -45 -40 -49 -40 -97 -82
-199 -175 -187 -171 -282 -262 -471 -453 -102 -104 -188 -188 -191 -188 -3 0
-49 43 -102 97 -93 93 -96 97 -81 119 34 52 63 112 74 154 9 34 11 306 9 1103
l-3 1057 150 0 150 0 -3 -980z"/>
</g>
</svg>