
<svg version="1.0" xmlns="http://www.w3.org/2000/svg"
 width="370.000000pt" height="370.000000pt" viewBox="0 0 370.000000 370.000000"
 preserveAspectRatio="xMidYMid meet">
<g transform="translate(0.000000,370.000000) scale(0.100000,-0.100000)"
fill="#000000" stroke="none"><path fill="#ffffff" stroke="none" d="M0 1850 l0 -1850 1850 0 1850 0 0 1850
0 1850 -1850 0 -1850 0 0 -1850z"/>
<path fill="#000000" stroke="none" d="M2558 3244 l762 -6 0 -127 c-1 -126 -1
-126 -28 -146 -51 -37 -367 -290 -504 -403 l-138 -114 0 -215 0 -215 395 4
395 3 0 -133 0 -133 -67 6 c-38 3 -214 7 -393 8 l-325 2 -5 -580 c-6 -628 -5
-621 -63 -697 -40 -52 -73 -72 -181 -109 -90 -31 -331 -83 -350 -76 -6 3 -20
31 -30 63 -10 33 -36 100 -58 149 -22 50 -42 96 -45 103 -4 9 21 12 108 12
133 0 238 14 280 36 19 10 39 33 52 62 22 46 22 56 22 542 l0 495 -315 -3
c-173 -1 -350 -5 -392 -8 l-78 -6 0 134 0 135 391 -5 391 -5 -5 209 c-3 141
-9 226 -19 260 l-15 52 81 58 c143 103 296 226 405 324 95 85 103 95 81 99
-40 5 -1121 -8 -1162 -15 l-38 -6 0 132 0 132 43 -6 c23 -4 385 -9 805 -12z"/>
<path fill="#ff0000" stroke="none" d="M910 3545 c25 -8 80 -22 123 -32 49
-11 77 -22 77 -30 0 -8 -11 -35 -24 -61 -36 -73 -76 -204 -105 -347 -12 -59
-29 -130 -50 -211 -6 -23 -11 -53 -11 -68 l0 -26 345 0 345 0 0 -29 c0 -29 -4
-50 -36 -211 -8 -41 -19 -95 -24 -120 -22 -120 -33 -169 -45 -220 -8 -30 -20
-80 -26 -110 -6 -30 -17 -73 -24 -95 -7 -22 -19 -60 -25 -85 -41 -148 -132
-380 -206 -522 -13 -27 -24 -54 -24 -62 0 -12 71 -81 171 -167 13 -11 78 -71
144 -133 66 -62 137 -127 158 -145 20 -18 37 -36 37 -40 0 -3 -16 -17 -35 -30
-19 -13 -67 -56 -106 -95 l-71 -71 -25 30 c-98 116 -142 165 -257 282 -72 73
-137 135 -144 138 -15 6 -27 -6 -107 -101 -146 -175 -427 -446 -604 -584 -41
-32 -44 -33 -57 -16 -31 43 -132 141 -173 168 -14 10 -20 18 -14 18 44 0 363
240 499 375 93 92 255 292 253 312 -1 16 -464 342 -486 343 -13 1 -53 38 -53
49 0 6 4 19 9 29 70 129 271 767 271 858 0 24 0 24 -117 23 -65 0 -153 -4
-195 -7 l-78 -8 0 121 0 121 101 -8 c56 -5 158 -7 228 -6 l126 3 12 55 c7 30
20 91 28 135 9 44 22 112 30 150 7 39 18 102 24 140 6 39 18 112 26 164 8 52
15 107 15 123 0 31 4 32 100 3z"/>
<path fill="#ff0000" stroke="none" d="M2387 2063 c-2 -27 -3 -5 -3 47 0 52 1
74 3 48 2 -27 2 -69 0 -95z"/>
<path fill="#ff0000" stroke="none" d="M1753 2023 c-7 -2 -19 -2 -25 0 -7 3
-2 5 12 5 14 0 19 -2 13 -5z"/>
<path fill="#ff0000" stroke="none" d="M3347 2024 c-3 -3 -12 -4 -19 -1 -8 3
-5 6 6 6 11 1 17 -2 13 -5z"/>
<path fill="#ff0000" stroke="none" d="M2123 1773 c-29 -2 -77 -2 -105 0 -29
2 -6 3 52 3 58 0 81 -1 53 -3z"/>
<path fill="#ff0000" stroke="none" d="M3137 1773 c-20 -2 -52 -2 -70 0 -17 2
0 4 38 4 39 0 53 -2 32 -4z"/>
<path fill="#ff0000" stroke="none" d="M2387 838 c-3 -7 -5 -2 -5 12 0 14 2
19 5 13 2 -7 2 -19 0 -25z"/>
<path fill="#ffffff" stroke="none" d="M860 2513 c-6 -27 -18 -68 -26 -93 -7
-25 -25 -85 -40 -135 -14 -49 -30 -103 -35 -120 -5 -16 -38 -118 -74 -226 -36
-108 -65 -200 -65 -205 0 -5 19 -22 43 -36 45 -29 47 -31 210 -144 59 -42 113
-74 120 -71 14 5 97 169 97 190 0 7 4 17 9 22 25 27 133 395 171 585 5 25 16
74 24 110 8 36 17 89 21 118 l7 52 -225 0 -224 0 -13 -47z"/>
</g>
</svg>