
<svg version="1.0" xmlns="http://www.w3.org/2000/svg"
 width="370.000000pt" height="370.000000pt" viewBox="0 0 370.000000 370.000000"
 preserveAspectRatio="xMidYMid meet">
<g transform="translate(0.000000,370.000000) scale(0.100000,-0.100000)"
fill="#000000" stroke="none"><path fill="#ffffff" stroke="none" d="M0 1850 l0 -1850 1850 0 1850 0 0 1850
0 1850 -1850 0 -1850 0 0 -1850z"/>
<path fill="#000000" stroke="none" d="M1875 3493 c20 -49 62 -164 94 -257
l56 -169 560 7 c308 3 595 9 638 13 l77 6 0 -134 0 -134 -782 0 -781 0 -54
-130 c-67 -162 -194 -420 -269 -544 -66 -110 -295 -404 -398 -509 -134 -139
-325 -298 -538 -451 l-87 -62 -83 83 c-46 46 -100 92 -120 103 -21 11 -38 22
-38 25 0 3 28 19 62 35 133 65 370 237 559 407 99 89 239 247 320 363 119 168
260 435 318 598 l31 89 -590 -4 -590 -3 0 134 0 134 83 -7 c113 -9 1300 -21
1320 -13 14 5 13 16 -12 89 -32 92 -48 132 -91 221 -17 33 -30 64 -30 67 0 4
35 20 78 35 42 16 109 43 147 61 39 18 73 33 76 33 4 1 24 -38 44 -86z"/>
<path fill="#ff0000" stroke="none" d="M367 3084 c-3 -3 -12 -4 -19 -1 -8 3
-5 6 6 6 11 1 17 -2 13 -5z"/>
<path fill="#ff0000" stroke="none" d="M3217 3084 c-3 -3 -12 -4 -19 -1 -8 3
-5 6 6 6 11 1 17 -2 13 -5z"/>
<path fill="#ff0000" stroke="none" d="M1905 2478 c49 -156 155 -377 258 -544
88 -141 75 -133 133 -83 97 85 361 356 423 434 34 44 68 87 75 95 6 9 29 41
50 73 l38 57 26 -33 c14 -17 68 -76 121 -129 53 -54 90 -98 84 -98 -10 0 -131
-75 -143 -89 -3 -3 -27 -24 -55 -46 -27 -22 -77 -65 -109 -95 -33 -30 -93 -86
-135 -125 -41 -38 -125 -118 -185 -177 -127 -123 -124 -104 -32 -232 65 -93
89 -119 236 -267 111 -111 262 -232 355 -283 17 -9 62 -35 100 -56 39 -22 80
-44 92 -50 12 -5 50 -22 85 -38 35 -16 74 -33 86 -37 l24 -7 -24 -16 c-63 -44
-127 -109 -183 -183 l-42 -57 -44 29 c-68 44 -311 213 -323 224 -6 6 -29 23
-51 39 -22 17 -42 32 -45 36 -3 3 -30 25 -60 50 -113 91 -220 206 -383 410 -7
8 -37 51 -67 95 -30 44 -58 82 -61 85 -16 15 -203 342 -251 440 -52 106 -140
312 -159 370 -4 14 -17 50 -28 79 -16 43 -18 57 -8 63 6 5 47 28 89 53 42 25
79 49 83 55 10 16 12 13 30 -42z"/>
<path fill="#ff0000" stroke="none" d="M1358 800 c7 0 141 92 227 156 11 8 79
57 150 110 72 52 142 104 156 114 l27 20 5 -23 c2 -12 12 -49 22 -82 37 -132
47 -176 42 -188 -4 -10 -137 -106 -235 -169 -41 -27 -47 -31 -202 -139 -80
-56 -147 -104 -150 -108 -3 -3 -30 -25 -60 -47 -30 -23 -64 -51 -75 -61 -26
-25 -75 -57 -79 -52 -2 2 -17 24 -32 49 -36 57 -81 117 -112 151 l-24 27 24
38 c47 76 49 97 46 627 -2 392 0 497 10 497 6 0 13 5 13 10 1 6 2 14 3 19 0 5
5 13 10 18 5 5 6 2 2 -7 -4 -8 1 -4 12 10 11 13 20 29 19 34 -1 6 4 10 11 11
16 0 33 26 25 39 -3 5 -1 6 5 2 12 -7 44 33 36 45 -2 4 1 11 7 15 8 5 10 2 5
-7 -4 -8 1 -3 12 11 11 13 18 29 15 34 -3 5 -1 6 5 2 11 -7 38 32 34 47 -1 5
2 6 8 2 5 -3 13 2 18 12 4 10 8 -260 10 -599 1 -340 6 -618 10 -618z"/>
</g>
</svg>