
<svg version="1.0" xmlns="http://www.w3.org/2000/svg"
 width="370.000000pt" height="370.000000pt" viewBox="0 0 370.000000 370.000000"
 preserveAspectRatio="xMidYMid meet">
<g transform="translate(0.000000,370.000000) scale(0.100000,-0.100000)"
fill="#000000" stroke="none"><path fill="#ffffff" stroke="none" d="M0 1850 l0 -1850 1850 0 1850 0 0 1850
0 1850 -1850 0 -1850 0 0 -1850z"/>
<path fill="#000000" stroke="none" d="M2956 2920 l0 -480 -508 0 -508 0 0
-44 c0 -53 26 -296 41 -384 l11 -64 594 4 594 3 0 -134 0 -134 -72 6 c-40 4
-297 10 -570 13 -460 7 -498 6 -498 -9 0 -30 87 -280 126 -362 52 -111 123
-223 197 -312 137 -166 443 -384 539 -383 39 1 104 36 131 72 32 41 56 127 64
225 3 40 8 73 11 73 3 0 39 -20 81 -43 42 -24 110 -57 151 -72 41 -16 79 -32
83 -36 10 -7 -67 -198 -114 -285 -100 -185 -160 -224 -339 -224 -211 0 -411
87 -611 267 -272 245 -472 590 -573 993 l-23 95 -492 3 -491 2 0 120 0 120
471 0 472 0 -7 43 c-17 98 -46 356 -46 400 l0 47 -583 0 -584 0 -6 413 c-4
226 -10 442 -14 480 l-6 67 1239 0 1239 0 1 -480z"/>
<path fill="#ffffff" stroke="none" d="M780 2920 l0 -250 945 0 945 0 0 250 0
250 -945 0 -945 0 0 -250z"/>
<path fill="#ff0000" stroke="none" d="M772 1610 c-1 -518 1 -840 7 -840 21 0
435 215 584 303 l77 46 0 -37 c0 -36 27 -149 49 -204 9 -25 8 -28 -32 -46 -23
-11 -78 -37 -122 -57 -109 -50 -265 -128 -350 -174 -38 -20 -90 -48 -115 -61
-25 -13 -47 -26 -50 -29 -3 -4 -18 -13 -35 -21 -16 -8 -79 -45 -140 -82 -60
-38 -112 -68 -115 -68 -3 0 -18 19 -35 43 -33 47 -35 50 -97 126 l-43 53 42
44 c48 49 66 85 88 169 13 51 15 175 15 867 l0 808 138 0 137 0 -3 -840z"/>
<path fill="#ff0000" stroke="none" d="M2828 1703 c-21 -2 -57 -2 -80 0 -24 2
-7 4 37 4 44 0 63 -2 43 -4z"/>
<path fill="#ff0000" stroke="none" d="M3107 1694 c-3 -3 -12 -4 -19 -1 -8 3
-5 6 6 6 11 1 17 -2 13 -5z"/>
</g>
</svg>