
<svg version="1.0" xmlns="http://www.w3.org/2000/svg"
 width="370.000000pt" height="370.000000pt" viewBox="0 0 370.000000 370.000000"
 preserveAspectRatio="xMidYMid meet">
<g transform="translate(0.000000,370.000000) scale(0.100000,-0.100000)"
fill="#000000" stroke="none"><path fill="#ffffff" stroke="none" d="M0 1850 l0 -1850 1850 0 1850 0 0 1850
0 1850 -1850 0 -1850 0 0 -1850z"/>
<path fill="#000000" stroke="none" d="M1926 3541 c33 -22 107 -65 167 -96 59
-31 107 -58 107 -59 0 -2 -33 -28 -72 -59 -40 -30 -105 -88 -145 -129 -79 -80
-255 -297 -251 -308 6 -15 336 -349 416 -421 l83 -74 -63 -42 c-35 -23 -91
-67 -126 -98 -35 -32 -67 -54 -71 -49 -4 5 -43 54 -87 109 -95 120 -325 353
-451 457 l-91 76 134 154 c150 170 231 286 324 461 34 64 63 117 65 117 1 0
29 -18 61 -39z"/>
<path fill="#000000" stroke="none" d="M2814 3526 c41 -29 113 -73 160 -97 47
-24 85 -47 83 -51 -1 -3 -76 -82 -167 -175 -91 -92 -196 -203 -234 -246 -68
-76 -69 -78 -50 -96 10 -10 93 -86 184 -169 91 -82 197 -182 235 -222 65 -66
69 -73 51 -83 -46 -29 -174 -128 -205 -161 -19 -20 -40 -36 -45 -35 -6 0 -36
34 -66 76 -123 169 -308 372 -469 516 l-74 66 85 98 c194 224 270 332 378 531
30 56 56 102 57 102 1 0 36 -24 77 -54z"/>
<path fill="#000000" stroke="none" d="M1898 2071 c47 -6 87 -13 89 -15 3 -2
-2 -17 -10 -33 -30 -58 -66 -185 -77 -275 -6 -51 -19 -154 -29 -228 l-19 -135
27 -40 c14 -22 82 -96 151 -166 138 -138 270 -234 441 -320 209 -105 334 -148
604 -209 36 -8 391 -70 402 -70 3 0 -25 -33 -62 -72 -59 -65 -135 -192 -135
-227 0 -16 -8 -15 -134 19 -569 151 -1019 409 -1293 744 -37 45 -72 87 -78 94
-9 10 -24 -6 -68 -70 -175 -258 -419 -442 -832 -631 -205 -93 -516 -199 -523
-177 -12 33 -93 142 -157 209 l-77 80 34 5 c209 31 265 41 338 57 212 48 404
133 605 267 192 128 304 251 382 420 96 208 139 404 158 707 l7 111 85 -18
c47 -9 124 -21 171 -27z"/>
<path fill="#000000" stroke="none" d="M2840 1826 c74 -31 148 -60 163 -65
l28 -10 -51 -63 c-63 -78 -133 -191 -234 -375 l-78 -142 -42 21 c-22 12 -87
40 -144 62 -56 23 -103 45 -103 49 -1 4 44 88 99 185 100 177 170 314 191 373
7 19 16 29 23 25 7 -3 74 -30 148 -60z"/>
<path fill="#000000" stroke="none" d="M927 1788 c78 -34 143 -66 143 -70 0
-5 -17 -30 -38 -57 -47 -60 -121 -178 -237 -379 -49 -84 -93 -155 -98 -159 -5
-3 -21 4 -36 15 -37 27 -156 85 -208 102 l-43 13 20 31 c137 208 280 462 308
545 9 25 16 32 28 27 10 -4 82 -34 161 -68z"/>
<path fill="#ff0000" stroke="none" d="M1183 3398 c59 -29 59 -29 40 -51 -17
-20 -105 -114 -198 -213 -54 -56 -169 -183 -194 -214 -12 -14 -31 -36 -43 -49
-22 -22 -22 -24 -4 -37 11 -7 31 -24 45 -36 15 -13 56 -48 91 -78 108 -91 150
-130 256 -234 l102 -99 -67 -45 c-36 -25 -73 -52 -82 -61 -8 -9 -32 -27 -52
-41 -20 -14 -37 -28 -37 -32 0 -21 -24 -2 -62 50 -24 31 -47 62 -53 68 -5 6
-23 29 -40 50 -73 94 -304 328 -406 411 l-57 46 63 66 c35 36 80 86 100 111
21 25 40 47 44 50 42 32 248 324 301 427 l31 62 82 -60 c45 -34 108 -74 140
-91z"/>
<path fill="#ff0000" stroke="none" d="M1540 856 c0 -2 -8 -10 -17 -17 -16
-13 -17 -12 -4 4 13 16 21 21 21 13z"/>
</g>
</svg>