
<svg version="1.0" xmlns="http://www.w3.org/2000/svg"
 width="370.000000pt" height="370.000000pt" viewBox="0 0 370.000000 370.000000"
 preserveAspectRatio="xMidYMid meet">
<g transform="translate(0.000000,370.000000) scale(0.100000,-0.100000)"
fill="#000000" stroke="none"><path fill="#ffffff" stroke="none" d="M0 1850 l0 -1850 1850 0 1850 0 0 1850
0 1850 -1850 0 -1850 0 0 -1850z"/>
<path fill="#000000" stroke="none" d="M3022 3521 c21 -32 74 -99 118 -150
l81 -91 -73 0 c-129 0 -505 -28 -783 -59 -148 -16 -324 -35 -390 -41 -66 -7
-160 -18 -210 -25 -103 -16 -300 -29 -765 -51 -179 -8 -361 -19 -405 -24 -86
-9 -95 -7 -95 18 0 9 -20 65 -43 123 l-44 106 356 7 c902 16 1494 78 2066 215
66 16 127 29 135 29 8 1 32 -25 52 -57z"/>
<path fill="#000000" stroke="none" d="M2604 2890 c30 -23 104 -67 166 -99
l112 -58 -39 -16 c-199 -80 -516 -258 -968 -542 -77 -49 -255 -157 -395 -241
-140 -84 -262 -158 -270 -163 -10 -6 -3 -8 25 -5 22 2 240 13 485 24 245 11
534 25 643 30 109 6 237 10 285 10 l87 1 -50 46 c-27 25 -109 92 -182 148
l-131 102 75 39 c41 21 95 53 119 71 26 20 49 31 57 27 85 -50 787 -661 787
-685 0 -4 -21 -19 -47 -35 -27 -15 -86 -54 -132 -87 l-83 -60 -57 64 c-31 35
-78 85 -106 112 l-50 48 -140 -6 c-77 -3 -221 -10 -320 -15 -99 -5 -239 -12
-312 -16 l-132 -7 -3 -501 c-3 -370 -7 -511 -16 -539 -7 -20 -30 -55 -50 -76
-30 -31 -54 -44 -122 -65 -76 -22 -274 -64 -385 -81 l-40 -6 -23 82 c-12 44
-40 117 -62 160 -22 44 -40 81 -40 83 0 2 84 5 188 8 209 5 233 11 266 68 20
33 21 53 24 444 2 224 0 412 -5 417 -9 9 -533 -5 -768 -21 -88 -7 -213 -18
-279 -26 -65 -8 -119 -14 -121 -12 -4 6 -95 279 -95 287 0 5 28 11 63 15 305
32 546 138 1047 462 102 66 220 142 262 169 153 99 526 369 622 452 22 18 43
33 48 33 5 0 33 -18 62 -40z"/>
<path fill="#000000" stroke="none" d="M2815 1196 c265 -193 405 -302 490
-380 l70 -65 -115 -115 -114 -116 -121 119 c-159 158 -289 265 -522 430 l-102
72 68 64 c37 36 81 83 96 105 16 23 33 39 39 37 6 -3 101 -70 211 -151z"/>
<path fill="#000000" stroke="none" d="M1008 1287 c29 -21 91 -63 138 -92 l84
-53 -47 -27 c-71 -42 -218 -155 -300 -232 -70 -67 -377 -348 -420 -386 l-22
-20 -63 58 c-35 31 -89 73 -120 92 l-58 36 103 70 c191 131 392 317 550 509
47 58 84 95 91 91 6 -4 35 -24 64 -46z"/>
<path fill="#ff0000" stroke="none" d="M928 3333 c-10 -2 -26 -2 -35 0 -10 3
-2 5 17 5 19 0 27 -2 18 -5z"/>
<path fill="#ff0000" stroke="none" d="M1828 3089 c41 -27 78 -49 83 -49 24 0
3 -21 -58 -61 -38 -24 -70 -46 -73 -49 -3 -3 -23 -19 -45 -35 -22 -16 -54 -41
-71 -55 -17 -14 -48 -38 -69 -55 -21 -16 -43 -35 -49 -40 -6 -6 -36 -30 -66
-55 -30 -25 -57 -47 -60 -50 -3 -3 -44 -34 -92 -70 -48 -36 -87 -68 -88 -72 0
-5 153 -8 339 -8 213 0 342 -4 346 -10 3 -6 -1 -7 -9 -4 -9 3 -16 2 -16 -2 0
-5 -14 -15 -30 -22 -17 -8 -28 -18 -24 -23 3 -5 2 -8 -3 -7 -16 4 -53 -14 -47
-23 3 -5 2 -9 -3 -8 -20 3 -34 -2 -28 -11 4 -6 3 -10 -2 -9 -20 3 -34 -2 -28
-11 3 -6 -1 -7 -9 -4 -9 3 -16 2 -16 -2 0 -5 -14 -15 -30 -22 -17 -8 -28 -18
-24 -23 3 -5 2 -9 -3 -8 -18 3 -34 -1 -30 -8 3 -5 -52 -6 -121 -5 -162 5 -542
-22 -679 -47 -39 -8 -41 -7 -46 18 -3 14 -12 49 -20 76 -25 82 -47 165 -47
174 0 5 29 12 64 16 119 12 238 62 364 152 94 66 287 263 351 358 30 44 62 84
70 89 8 5 39 8 68 7 31 -1 53 2 53 8 0 22 79 -4 148 -50z"/>
<path fill="#ff0000" stroke="none" d="M1177 3114 c-3 -3 -12 -4 -19 -1 -8 3
-5 6 6 6 11 1 17 -2 13 -5z"/>
<path fill="#ff0000" stroke="none" d="M987 3104 c-3 -3 -12 -4 -19 -1 -8 3
-5 6 6 6 11 1 17 -2 13 -5z"/>
<path fill="#ff0000" stroke="none" d="M797 3094 c-3 -3 -12 -4 -19 -1 -8 3
-5 6 6 6 11 1 17 -2 13 -5z"/>
<path fill="#ff0000" stroke="none" d="M2063 1803 c-7 -2 -19 -2 -25 0 -7 3
-2 5 12 5 14 0 19 -2 13 -5z"/>
<path fill="#ff0000" stroke="none" d="M1647 1784 c-3 -3 -12 -4 -19 -1 -8 3
-5 6 6 6 11 1 17 -2 13 -5z"/>
<path fill="#ff0000" stroke="none" d="M2167 1584 c-3 -3 -12 -4 -19 -1 -8 3
-5 6 6 6 11 1 17 -2 13 -5z"/>
<path fill="#ff0000" stroke="none" d="M1648 1573 c-10 -2 -28 -2 -40 0 -13 2
-5 4 17 4 22 1 32 -1 23 -4z"/>
<path fill="#ff0000" stroke="none" d="M1293 1563 c-7 -2 -19 -2 -25 0 -7 3
-2 5 12 5 14 0 19 -2 13 -5z"/>
<path fill="#ff0000" stroke="none" d="M3020 655 c13 -14 21 -25 18 -25 -2 0
-15 11 -28 25 -13 14 -21 25 -18 25 2 0 15 -11 28 -25z"/>
<path fill="#ff0000" stroke="none" d="M3090 585 c19 -19 32 -35 29 -35 -3 0
-20 16 -39 35 -19 19 -32 35 -29 35 3 0 20 -16 39 -35z"/>
</g>
</svg>