
<svg version="1.0" xmlns="http://www.w3.org/2000/svg"
 width="370.000000pt" height="370.000000pt" viewBox="0 0 370.000000 370.000000"
 preserveAspectRatio="xMidYMid meet">
<g transform="translate(0.000000,370.000000) scale(0.100000,-0.100000)"
fill="#000000" stroke="none"><path fill="#ffffff" stroke="none" d="M0 1850 l0 -1850 1850 0 1850 0 0 1850
0 1850 -1850 0 -1850 0 0 -1850z"/>
<path fill="#000000" stroke="none" d="M2112 3582 c40 -16 119 -41 175 -57 70
-19 100 -32 94 -39 -20 -25 -271 -537 -271 -553 0 -7 1227 5 1288 13 l42 6 0
-136 0 -135 -230 6 c-194 5 -230 4 -230 -8 -1 -41 -32 -313 -49 -430 -55 -368
-160 -711 -308 -998 -24 -46 -43 -91 -43 -98 0 -26 222 -237 310 -295 123 -81
287 -158 447 -208 l139 -43 -86 -86 c-59 -59 -92 -101 -106 -134 -24 -59 -19
-60 -209 33 -230 111 -403 237 -587 427 l-87 89 -83 -79 c-160 -154 -459 -378
-695 -521 l-62 -38 -69 68 c-38 38 -99 87 -135 109 -37 22 -66 43 -67 46 0 4
21 14 48 24 154 58 382 189 547 314 98 75 325 291 325 310 0 5 -24 69 -54 143
-113 279 -197 528 -286 851 -24 86 -47 157 -50 157 -3 0 -25 -37 -49 -83 -54
-102 -144 -254 -169 -285 l-18 -24 -75 50 c-41 27 -88 56 -106 65 -17 9 -34
21 -37 26 -3 5 33 70 80 146 219 350 471 929 565 1303 13 50 25 92 26 92 1 0
35 -13 75 -28z"/>
<path fill="#000000" stroke="none" d="M1253 3453 c-10 -128 -10 -2762 0
-2960 l7 -153 -137 0 -138 0 0 1605 0 1605 138 0 137 0 -7 -97z"/>
<path fill="#ffffff" stroke="none" d="M1933 2548 c-40 -78 -71 -143 -69 -145
2 -2 52 3 112 10 60 8 110 13 112 12 2 -1 14 -56 27 -121 53 -254 183 -643
278 -830 l23 -46 43 93 c126 271 205 628 245 1107 l6 62 -353 0 -352 0 -72
-142z"/>
<path fill="#ff0000" stroke="none" d="M525 3018 c-13 -56 -18 -1488 -5 -1488
6 0 30 4 53 9 23 5 71 14 107 20 36 6 114 20 173 31 59 11 115 20 123 20 11 0
14 -19 14 -98 l0 -97 -57 -13 c-32 -7 -78 -19 -103 -26 -25 -8 -65 -19 -90
-26 -25 -7 -58 -17 -75 -21 -94 -27 -327 -109 -363 -128 -12 -6 -23 -11 -27
-11 -3 0 -37 48 -75 108 l-70 107 23 20 c40 34 74 88 86 137 12 52 15 1259 3
1406 l-7 82 148 0 149 0 -7 -32z"/>
<path fill="#ff0000" stroke="none" d="M3327 2684 c-3 -3 -12 -4 -19 -1 -8 3
-5 6 6 6 11 1 17 -2 13 -5z"/>
<path fill="#ff0000" stroke="none" d="M1257 428 c-3 -8 -6 -5 -6 6 -1 11 2
17 5 13 3 -3 4 -12 1 -19z"/>
</g>
</svg>