
<svg version="1.0" xmlns="http://www.w3.org/2000/svg"
 width="370.000000pt" height="370.000000pt" viewBox="0 0 370.000000 370.000000"
 preserveAspectRatio="xMidYMid meet">
<g transform="translate(0.000000,370.000000) scale(0.100000,-0.100000)"
fill="#000000" stroke="none"><path fill="#ffffff" stroke="none" d="M0 1850 l0 -1850 1850 0 1850 0 0 1850
0 1850 -1850 0 -1850 0 0 -1850z"/>
<path fill="#000000" stroke="none" d="M1522 3488 c-9 -123 -9 -2933 1 -3066
l7 -103 -142 3 -143 3 5 160 c3 88 5 383 5 655 l0 495 -202 3 -203 2 0 -37 c0
-66 -20 -325 -31 -403 -30 -218 -82 -359 -207 -550 -62 -95 -201 -280 -211
-280 -3 0 -37 27 -76 60 -38 33 -105 79 -147 103 l-78 44 58 45 c137 108 256
256 312 388 55 130 94 320 106 509 l7 114 -187 -6 -186 -6 0 132 0 132 526 -3
526 -4 -5 814 c-4 447 -9 830 -13 851 l-6 37 146 0 146 0 -8 -92z"/>
<path fill="#000000" stroke="none" d="M2662 3388 c-4 -101 -7 -336 -7 -523
l0 -340 305 1 c168 1 356 5 418 8 l112 7 0 -133 0 -133 -420 3 -420 4 0 -732
0 -733 325 5 325 4 0 -133 0 -134 -77 8 c-101 10 -1225 10 -1325 0 l-78 -8 0
135 0 135 285 -6 285 -6 0 733 0 732 -370 -4 -370 -3 0 133 0 134 73 -6 c39
-3 205 -7 367 -8 l295 -3 -1 417 c-1 229 -4 465 -8 523 l-7 105 151 0 150 0
-8 -182z"/>
<path fill="#ff0000" stroke="none" d="M638 3298 c-5 -24 -11 -202 -15 -395
l-6 -353 317 0 316 0 0 -110 0 -110 -445 0 -445 0 7 28 c10 35 10 919 0 955
l-7 27 143 0 144 0 -9 -42z"/>
<path fill="#ff0000" stroke="none" d="M2387 3203 c-2 -16 -4 -3 -4 27 0 30 2
43 4 28 2 -16 2 -40 0 -55z"/>
<path fill="#ff0000" stroke="none" d="M1987 824 c-3 -3 -12 -4 -19 -1 -8 3
-5 6 6 6 11 1 17 -2 13 -5z"/>
<path fill="#ff0000" stroke="none" d="M1247 368 c-3 -8 -6 -5 -6 6 -1 11 2
17 5 13 3 -3 4 -12 1 -19z"/>
</g>
</svg>