
<svg version="1.0" xmlns="http://www.w3.org/2000/svg"
 width="370.000000pt" height="370.000000pt" viewBox="0 0 370.000000 370.000000"
 preserveAspectRatio="xMidYMid meet">
<g transform="translate(0.000000,370.000000) scale(0.100000,-0.100000)"
fill="#000000" stroke="none"><path fill="#ffffff" stroke="none" d="M0 1850 l0 -1850 1850 0 1850 0 0 1850
0 1850 -1850 0 -1850 0 0 -1850z"/>
<path fill="#000000" stroke="none" d="M3010 3289 l0 -121 -42 6 c-24 4 -458
9 -965 12 l-923 6 0 -132 0 -132 838 6 c460 3 856 8 880 12 l42 6 0 -132 0
-132 -47 6 c-27 3 -423 9 -880 12 l-833 6 0 -141 0 -142 880 3 880 3 0 -120 0
-120 -880 3 -880 4 0 -157 0 -157 1105 4 1105 3 0 -120 0 -120 -1427 0 c-786
0 -1465 -4 -1510 -9 l-83 -8 0 132 0 132 276 -7 276 -8 -4 757 -3 756 1015 3
c558 1 1052 3 1098 5 l82 2 0 -121z"/>
<path fill="#ff0000" stroke="none" d="M1077 2998 c-2 -35 -3 -7 -3 62 0 69 1
97 3 63 2 -35 2 -91 0 -125z"/>
<path fill="#ff0000" stroke="none" d="M1077 2498 c-1 -40 -3 -10 -3 67 0 77
1 110 3 73 2 -37 2 -100 0 -140z"/>
<path fill="#ff0000" stroke="none" d="M1077 1968 c-1 -46 -3 -11 -3 77 0 88
2 125 3 83 2 -42 2 -114 0 -160z"/>
<path fill="#ff0000" stroke="none" d="M960 1195 c0 -322 3 -465 11 -465 5 0
54 17 107 39 53 21 124 49 157 61 33 13 74 29 90 36 17 7 73 29 125 49 52 20
104 41 115 45 46 20 98 40 105 40 6 0 15 -28 40 -130 4 -19 13 -50 18 -68 13
-38 10 -40 -93 -70 -65 -19 -162 -52 -210 -72 -11 -4 -40 -16 -65 -25 -183
-72 -349 -159 -507 -267 l-72 -49 -22 43 c-21 42 -119 208 -140 238 -9 12 -4
27 20 65 17 28 40 80 51 116 18 61 20 97 20 473 l0 406 125 0 125 0 0 -465z"/>
<path fill="#ff0000" stroke="none" d="M1944 1545 c32 -63 62 -115 67 -115 5
0 9 -5 9 -11 0 -12 85 -135 111 -161 10 -10 30 -33 44 -53 15 -19 36 -35 46
-35 20 0 191 86 239 120 15 11 31 20 35 20 7 0 288 185 370 244 52 38 65 43
65 26 0 -11 117 -210 129 -220 3 -3 12 -13 20 -22 12 -16 10 -19 -15 -29 -16
-6 -47 -14 -69 -19 -121 -26 -269 -81 -420 -156 -173 -87 -205 -105 -205 -120
0 -7 17 -26 38 -41 20 -15 39 -30 42 -33 7 -7 51 -35 97 -61 208 -119 359
-163 680 -199 99 -12 102 -13 90 -33 -7 -12 -17 -27 -23 -33 -6 -7 -28 -48
-49 -91 -21 -43 -42 -86 -46 -95 -5 -10 -9 -25 -9 -34 0 -19 -36 -16 -130 12
-30 8 -68 19 -85 24 -104 28 -300 111 -410 173 -73 41 -258 171 -339 237 -71
58 -215 205 -260 264 -84 113 -238 380 -303 529 l-13 27 118 0 118 0 58 -115z"/>
</g>
</svg>