
<svg version="1.0" xmlns="http://www.w3.org/2000/svg"
 width="370.000000pt" height="370.000000pt" viewBox="0 0 370.000000 370.000000"
 preserveAspectRatio="xMidYMid meet">
<g transform="translate(0.000000,370.000000) scale(0.100000,-0.100000)"
fill="#000000" stroke="none"><path fill="#ffffff" stroke="none" d="M0 1850 l0 -1850 1850 0 1850 0 0 1850
0 1850 -1850 0 -1850 0 0 -1850z"/>
<path fill="#000000" stroke="none" d="M1197 3498 c100 -125 213 -288 213
-308 0 -6 -8 -14 -17 -17 -10 -4 -62 -31 -116 -60 -54 -29 -102 -51 -106 -49
-4 3 -49 66 -99 140 -51 74 -117 165 -147 202 -31 37 -54 71 -53 75 4 11 200
137 215 138 6 1 56 -54 110 -121z"/>
<path fill="#000000" stroke="none" d="M2481 3576 c58 -24 120 -47 137 -51 18
-3 32 -10 32 -14 0 -4 -23 -46 -51 -92 -28 -46 -84 -150 -125 -231 l-74 -148
-135 0 c-74 0 -135 2 -135 4 0 2 14 34 31 72 35 76 144 356 174 447 11 31 24
57 30 57 5 0 58 -20 116 -44z"/>
<path fill="#000000" stroke="none" d="M2933 1593 c-10 -89 -10 -1162 0 -1230
l8 -53 -151 0 -150 0 0 90 0 90 -840 0 -840 0 0 -95 0 -95 -137 0 -138 0 0
680 0 680 1128 0 1128 0 -8 -67z"/>
<path fill="#ffffff" stroke="none" d="M960 1310 l0 -110 840 0 840 0 0 110 0
110 -840 0 -840 0 0 -110z"/>
<path fill="#ffffff" stroke="none" d="M960 845 l0 -125 840 0 840 0 0 125 0
125 -840 0 -840 0 0 -125z"/>
<path fill="#ff0000" stroke="none" d="M2825 3041 l380 -1 0 -575 0 -575
-1425 0 -1425 0 -1 575 -1 575 889 0 c488 0 888 3 888 8 0 4 71 4 157 0 87 -3
329 -6 538 -7z"/>
<path fill="#ffffff" stroke="none" d="M630 2465 l0 -355 505 0 505 0 0 355 0
355 -505 0 -505 0 0 -355z"/>
<path fill="#ff0000" stroke="none" d="M1156 2635 c117 -167 224 -341 213
-348 -2 -1 -44 -23 -94 -47 -49 -24 -92 -47 -95 -51 -15 -22 -33 -6 -68 62
-33 63 -151 242 -172 259 -15 13 -70 89 -70 97 0 4 37 33 82 63 46 30 89 61
97 68 7 7 17 12 22 10 4 -2 43 -52 85 -113z"/>
<path fill="#ffffff" stroke="none" d="M1920 2465 l0 -355 505 0 505 0 0 355
0 355 -505 0 -505 0 0 -355z"/>
<path fill="#ff0000" stroke="none" d="M2540 2667 c88 -59 107 -76 94 -85 -5
-4 -25 -27 -45 -52 -20 -25 -47 -56 -59 -70 -31 -35 -150 -218 -150 -230 0 -5
-3 -10 -8 -10 -4 0 -16 -16 -26 -35 -17 -30 -21 -33 -35 -22 -20 17 -140 87
-149 87 -4 0 -15 7 -25 14 -16 12 -13 20 40 110 32 53 65 109 73 124 8 15 18
29 21 32 3 3 34 53 68 112 l63 108 31 -16 c18 -9 66 -39 107 -67z"/>
</g>
</svg>