
<svg version="1.0" xmlns="http://www.w3.org/2000/svg"
 width="370.000000pt" height="370.000000pt" viewBox="0 0 370.000000 370.000000"
 preserveAspectRatio="xMidYMid meet">
<g transform="translate(0.000000,370.000000) scale(0.100000,-0.100000)"
fill="#000000" stroke="none"><path fill="#ffffff" stroke="none" d="M0 1850 l0 -1850 1850 0 1850 0 0 1850
0 1850 -1850 0 -1850 0 0 -1850z"/>
<path fill="#000000" stroke="none" d="M1950 3553 c7 -37 23 -99 34 -137 l22
-71 672 -3 672 -2 -5 -23 c-7 -30 -11 -324 -6 -412 l5 -70 -147 -3 -147 -3 0
151 0 150 -1240 0 -1240 0 0 -155 0 -155 -151 0 c-133 0 -150 2 -145 16 3 8
11 55 18 104 9 70 9 119 -1 224 -7 73 -15 143 -18 155 l-5 21 696 0 c595 0
696 2 696 14 0 8 -13 53 -30 99 -16 47 -30 90 -30 95 0 9 68 27 230 61 25 5
59 9 76 10 30 1 31 0 44 -66z"/>
<path fill="#ff0000" stroke="none" d="M2930 2938 c0 -13 -6 -57 -14 -98 -8
-42 -16 -108 -18 -148 -2 -39 -7 -72 -11 -72 -4 0 -8 -21 -8 -47 0 -90 -3
-122 -10 -118 -11 7 -19 -22 -19 -66 0 -22 -4 -70 -10 -107 -5 -37 -12 -88
-15 -114 l-6 -48 -1058 0 -1057 0 8 63 c26 208 31 258 31 312 0 41 2 52 7 35
4 -14 8 40 9 120 0 80 4 182 7 228 l7 82 1078 0 1079 0 0 -22z"/>
<path fill="#ff0000" stroke="none" d="M3377 2444 c-3 -3 -12 -4 -19 -1 -8 3
-5 6 6 6 11 1 17 -2 13 -5z"/>
<path fill="#ffffff" stroke="none" d="M1025 2770 c-3 -5 -8 -52 -10 -103 -3
-52 -7 -101 -11 -111 -3 -9 -3 -27 0 -41 4 -14 2 -25 -2 -25 -5 0 -12 -33 -15
-72 -4 -40 -9 -85 -13 -100 l-6 -28 346 0 c224 0 346 4 346 10 0 6 49 10 126
10 81 0 123 -4 119 -10 -4 -7 108 -10 329 -10 309 0 336 1 345 18 20 38 43
157 38 198 -2 25 0 47 5 50 6 4 8 24 5 45 -3 22 -1 39 3 39 5 0 11 19 15 43 3
23 8 54 11 70 l6 27 -816 0 c-528 0 -817 -3 -821 -10z"/>
<path fill="#000000" stroke="none" d="M1986 2743 c-3 -16 -8 -45 -12 -65 l-6
-38 330 0 330 0 -5 -42 c-3 -24 -8 -65 -12 -93 l-6 -50 -335 -5 -335 -5 -13
-72 -14 -73 -123 0 c-67 0 -124 2 -127 5 -3 4 -2 23 2 43 4 20 10 52 14 70 l6
32 -340 0 c-265 0 -340 3 -340 13 0 6 5 49 11 94 l12 83 351 2 350 3 8 40 c19
94 4 85 139 85 l121 0 -6 -27z"/>
<path fill="#000000" stroke="none" d="M757 2636 c2 -1 -18 -180 -20 -182 -1
-1 -116 -4 -254 -6 l-253 -5 0 102 0 102 263 -5 c144 -2 263 -5 264 -6z"/>
<path fill="#000000" stroke="none" d="M3460 2547 l0 -104 -292 5 c-161 2
-293 5 -294 6 -1 0 4 42 10 91 l11 90 225 5 c124 3 251 7 283 8 l57 2 0 -103z"/>
<path fill="#000000" stroke="none" d="M2904 1893 c-10 -108 -10 -849 0 -955
l8 -88 -174 -1 c-166 0 -172 -1 -149 -17 33 -23 310 -175 509 -279 l162 -85
-41 -46 c-22 -26 -63 -75 -91 -109 l-50 -61 -126 80 c-156 99 -311 186 -464
261 l-118 57 75 92 74 93 -787 6 c-433 3 -845 7 -917 8 l-130 1 0 560 0 560
1113 0 1114 0 -8 -77z"/>
<path fill="#000000" stroke="none" d="M1224 723 c47 -60 86 -110 86 -113 0
-3 -109 -52 -242 -109 -132 -57 -316 -136 -407 -177 -91 -40 -166 -72 -166
-71 -1 1 -36 53 -79 115 -50 73 -72 114 -64 116 225 72 509 191 655 276 65 38
121 69 125 69 3 1 45 -47 92 -106z"/>
<path fill="#ffffff" stroke="none" d="M980 1720 l0 -70 815 0 815 0 0 70 0
70 -815 0 -815 0 0 -70z"/>
<path fill="#ffffff" stroke="none" d="M980 1410 l0 -70 815 0 815 0 0 70 0
70 -815 0 -815 0 0 -70z"/>
<path fill="#ffffff" stroke="none" d="M980 1100 l0 -70 815 0 815 0 0 70 0
70 -815 0 -815 0 0 -70z"/>
<path fill="#ff0000" stroke="none" d="M3337 3158 c-3 -8 -6 -5 -6 6 -1 11 2
17 5 13 3 -3 4 -12 1 -19z"/>
<path fill="#ff0000" stroke="none" d="M3337 2958 c-3 -8 -6 -5 -6 6 -1 11 2
17 5 13 3 -3 4 -12 1 -19z"/>
</g>
</svg>