
<svg version="1.0" xmlns="http://www.w3.org/2000/svg"
 width="370.000000pt" height="370.000000pt" viewBox="0 0 370.000000 370.000000"
 preserveAspectRatio="xMidYMid meet">
<g transform="translate(0.000000,370.000000) scale(0.100000,-0.100000)"
fill="#000000" stroke="none"><path fill="#ffffff" stroke="none" d="M0 1850 l0 -1850 1850 0 1850 0 0 1850
0 1850 -1850 0 -1850 0 0 -1850z"/>
<path fill="#000000" stroke="none" d="M1758 2938 c170 -182 342 -382 342
-396 0 -4 -25 -22 -55 -40 -30 -18 -79 -56 -110 -84 -31 -28 -57 -49 -58 -47
-2 2 -24 34 -50 71 -71 101 -198 250 -325 380 -63 64 -112 121 -111 127 3 8
189 171 195 171 1 0 78 -82 172 -182z"/>
<path fill="#000000" stroke="none" d="M498 2290 l175 0 -7 -92 c-10 -150 12
-135 -204 -142 -103 -3 -211 -8 -239 -10 l-53 -5 0 131 0 131 77 -7 c42 -3
155 -6 251 -6z"/>
<path fill="#000000" stroke="none" d="M3430 2171 l0 -129 -97 4 c-54 2 -173
7 -265 10 l-168 6 1 47 c1 25 4 75 8 111 l6 65 195 5 c107 3 223 7 258 8 l62
2 0 -129z"/>
<path fill="#000000" stroke="none" d="M2627 2243 c-3 -21 -9 -71 -13 -110
l-7 -73 -834 0 -835 0 6 55 c3 30 9 80 12 110 l6 55 835 0 836 0 -6 -37z"/>
<path fill="#000000" stroke="none" d="M1806 1757 c115 -118 233 -241 261
-274 l52 -60 -71 -59 c-39 -32 -86 -76 -104 -98 -21 -24 -38 -36 -43 -30 -5 5
-46 56 -91 114 -46 58 -159 181 -252 274 l-170 169 49 41 c26 22 68 62 93 88
25 26 50 47 56 48 6 0 105 -96 220 -213z"/>
<path fill="#ff0000" stroke="none" d="M2948 3288 c-3 -73 -11 -250 -17 -393
-6 -143 -15 -325 -21 -405 -6 -80 -11 -190 -10 -245 0 -55 -4 -147 -10 -205
-10 -107 -35 -474 -45 -655 -3 -55 -8 -131 -12 -169 l-6 -69 236 6 237 6 0
-112 0 -113 -77 8 c-43 3 -151 7 -239 7 -177 1 -174 2 -174 -61 0 -17 -6 -56
-14 -87 -7 -31 -19 -83 -26 -116 -28 -128 -96 -225 -183 -264 -84 -36 -127
-47 -282 -70 -38 -6 -100 -15 -136 -21 -92 -14 -99 -13 -99 11 0 39 -32 134
-67 197 l-35 62 84 0 c121 1 279 17 341 35 58 17 84 39 111 95 18 37 46 155
46 196 l0 24 -993 0 -992 0 7 88 c8 113 23 277 43 477 22 226 43 494 49 625 0
19 4 37 8 40 6 5 28 287 48 625 6 99 17 272 25 385 9 113 15 211 15 218 0 9
226 12 1098 12 l1097 0 -7 -132z"/>
<path fill="#ff0000" stroke="none" d="M3333 2293 c-7 -2 -19 -2 -25 0 -7 3
-2 5 12 5 14 0 19 -2 13 -5z"/>
<path fill="#ffffff" stroke="none" d="M1002 3023 c-7 -109 -17 -265 -22 -348
-6 -82 -12 -207 -15 -278 -2 -70 -7 -132 -10 -137 -3 -5 -3 -27 0 -47 5 -30 4
-35 -5 -23 -9 12 -11 4 -7 -37 2 -29 0 -56 -5 -61 -6 -6 -14 -68 -18 -138 -5
-71 -13 -178 -19 -239 -10 -102 -22 -259 -37 -477 l-6 -88 851 0 850 0 5 33
c3 17 11 118 17 222 6 105 15 262 20 350 5 88 12 216 16 285 3 69 7 141 8 161
1 20 5 40 7 45 3 5 6 34 6 64 1 30 6 168 12 305 6 138 14 330 17 428 l6 177
-830 0 -829 0 -12 -197z"/>
</g>
</svg>