
<svg version="1.0" xmlns="http://www.w3.org/2000/svg"
 width="370.000000pt" height="370.000000pt" viewBox="0 0 370.000000 370.000000"
 preserveAspectRatio="xMidYMid meet">
<g transform="translate(0.000000,370.000000) scale(0.100000,-0.100000)"
fill="#000000" stroke="none"><path fill="#ffffff" stroke="none" d="M0 1850 l0 -1850 1850 0 1850 0 0 1850
0 1850 -1850 0 -1850 0 0 -1850z"/>
<path fill="#ff0000" stroke="none" d="M3252 3403 c-9 -64 -9 -2942 1 -3015
l7 -58 -145 0 -145 0 0 135 0 135 -1170 0 -1170 0 0 -135 0 -135 -137 0 -138
0 0 1560 0 1560 1452 0 1453 0 -8 -47z"/>
<path fill="#ffffff" stroke="none" d="M630 2030 l0 -1200 1170 0 1170 0 0
1200 0 1200 -1170 0 -1170 0 0 -1200z"/>
<path fill="#000000" stroke="none" d="M1945 2828 l0 -233 280 2 c154 1 326 5
383 8 l102 6 0 -131 0 -132 -22 6 c-13 3 -186 9 -386 13 l-363 6 3 -721 3
-722 -149 0 -149 0 7 53 c8 69 20 1043 13 1037 -3 -3 -35 -54 -72 -114 -113
-187 -220 -328 -435 -575 -69 -80 -128 -149 -132 -154 -3 -6 -40 21 -84 62
-42 39 -97 84 -122 98 l-45 27 43 35 c210 171 412 401 552 628 52 83 178 324
178 339 0 8 -575 -4 -632 -12 l-38 -6 0 132 0 132 128 -6 c70 -3 246 -7 392
-8 l265 -3 -2 175 c-2 96 -5 201 -8 233 l-6 57 148 0 148 0 0 -232z"/>
<path fill="#000000" stroke="none" d="M2255 2078 c32 -35 94 -101 139 -148
74 -77 241 -257 342 -368 21 -24 39 -48 39 -52 0 -4 -27 -28 -60 -52 -33 -25
-85 -68 -117 -96 l-56 -52 -78 107 c-108 148 -260 329 -376 447 -95 98 -96
100 -75 115 12 8 56 48 97 88 41 40 78 73 81 73 3 0 32 -28 64 -62z"/>
<path fill="#ff0000" stroke="none" d="M1228 2363 c-10 -2 -26 -2 -35 0 -10 3
-2 5 17 5 19 0 27 -2 18 -5z"/>
<path fill="#ff0000" stroke="none" d="M2478 2363 c-10 -2 -26 -2 -35 0 -10 3
-2 5 17 5 19 0 27 -2 18 -5z"/>
<path fill="#ff0000" stroke="none" d="M1060 1616 c0 -2 -8 -10 -17 -17 -16
-13 -17 -12 -4 4 13 16 21 21 21 13z"/>
</g>
</svg>