
<svg version="1.0" xmlns="http://www.w3.org/2000/svg"
 width="370.000000pt" height="370.000000pt" viewBox="0 0 370.000000 370.000000"
 preserveAspectRatio="xMidYMid meet">
<g transform="translate(0.000000,370.000000) scale(0.100000,-0.100000)"
fill="#000000" stroke="none"><path fill="#ffffff" stroke="none" d="M0 1850 l0 -1850 1850 0 1850 0 0 1850
0 1850 -1850 0 -1850 0 0 -1850z"/>
<path fill="#000000" stroke="none" d="M1943 3484 l-6 -125 746 3 747 3 0
-100 0 -100 -745 4 -745 3 0 -92 0 -93 560 8 560 7 0 -106 0 -106 -207 7
c-269 10 -1808 10 -2115 0 l-238 -7 0 106 0 106 585 -8 585 -7 0 93 0 92 -740
-4 -740 -3 0 100 0 100 741 -3 740 -3 -6 83 c-3 46 -8 102 -11 126 l-5 42 150
0 150 0 -6 -126z"/>
<path fill="#000000" stroke="none" d="M1500 2375 l0 -105 -130 0 -130 0 0
105 0 105 130 0 130 0 0 -105z"/>
<path fill="#000000" stroke="none" d="M2340 2375 l0 -105 -125 0 -125 0 0
105 0 105 125 0 125 0 0 -105z"/>
<path fill="#000000" stroke="none" d="M2955 1395 l0 -565 -1175 0 -1175 0 0
565 0 565 1175 0 1175 0 0 -565z"/>
<path fill="#000000" stroke="none" d="M2455 785 c698 -225 833 -270 842 -279
2 -2 -11 -28 -30 -57 -19 -30 -47 -86 -63 -125 l-28 -70 -116 47 c-119 48
-533 201 -762 281 l-67 23 34 55 c19 30 44 79 56 108 12 28 22 52 23 52 0 0
51 -16 111 -35z"/>
<path fill="#000000" stroke="none" d="M1364 738 c25 -35 63 -83 86 -106 22
-24 40 -47 40 -52 0 -5 -21 -13 -47 -19 -27 -5 -252 -78 -502 -161 -249 -83
-455 -150 -456 -148 -1 2 -14 30 -29 62 -14 32 -42 81 -62 109 -37 52 -35 66
11 67 34 0 293 68 425 112 130 42 346 131 421 172 24 14 49 25 56 25 6 1 32
-27 57 -61z"/>
<path fill="#ffffff" stroke="none" d="M880 1700 l0 -80 900 0 900 0 0 80 0
80 -900 0 -900 0 0 -80z"/>
<path fill="#ffffff" stroke="none" d="M880 1390 l0 -80 900 0 900 0 0 80 0
80 -900 0 -900 0 0 -80z"/>
<path fill="#ffffff" stroke="none" d="M880 1090 l0 -70 900 0 900 0 0 70 0
70 -900 0 -900 0 0 -70z"/>
<path fill="#ff0000" stroke="none" d="M653 2793 c-7 -2 -21 -2 -30 0 -10 3
-4 5 12 5 17 0 24 -2 18 -5z"/>
<path fill="#ff0000" stroke="none" d="M2953 2793 c-7 -2 -19 -2 -25 0 -7 3
-2 5 12 5 14 0 19 -2 13 -5z"/>
<path fill="#ff0000" stroke="none" d="M3195 2380 l0 -270 -1405 0 -1405 0 0
270 0 270 1405 0 1405 0 0 -270z"/>
<path fill="#ffffff" stroke="none" d="M632 2378 l3 -113 1145 0 1145 0 3 113
3 112 -1151 0 -1151 0 3 -112z"/>
</g>
</svg>