
<svg version="1.0" xmlns="http://www.w3.org/2000/svg"
 width="370.000000pt" height="370.000000pt" viewBox="0 0 370.000000 370.000000"
 preserveAspectRatio="xMidYMid meet">
<g transform="translate(0.000000,370.000000) scale(0.100000,-0.100000)"
fill="#000000" stroke="none"><path fill="#ffffff" stroke="none" d="M0 1850 l0 -1850 1850 0 1850 0 0 1850
0 1850 -1850 0 -1850 0 0 -1850z"/>
<path fill="#000000" stroke="none" d="M2420 3533 c63 -26 117 -47 119 -49 2
-2 -23 -36 -56 -76 -32 -40 -90 -113 -128 -162 l-68 -89 501 5 502 6 0 -119 0
-119 -107 8 c-120 8 -2409 10 -2708 2 l-190 -5 -3 117 -3 118 446 -7 c245 -3
445 -3 445 0 0 10 -100 216 -135 278 l-32 56 56 18 c31 11 91 33 133 51 56 23
80 29 86 20 17 -20 172 -313 172 -323 0 -5 -44 -30 -97 -56 l-98 -46 377 0
377 -1 112 225 112 224 36 -15 c20 -9 88 -36 151 -61z"/>
<path fill="#000000" stroke="none" d="M1270 1300 c0 -38 -89 -217 -167 -335
-158 -238 -369 -445 -612 -595 l-78 -48 -49 49 c-26 27 -78 70 -116 96 -37 27
-67 51 -68 54 0 4 28 22 63 39 301 156 577 412 744 689 l48 81 117 0 118 0 0
-30z"/>
<path fill="#000000" stroke="none" d="M2557 1253 c139 -180 308 -333 491
-446 73 -45 232 -127 247 -127 1 0 19 -7 40 -16 l37 -15 -74 -72 c-58 -56
-128 -140 -165 -196 -1 -2 -39 18 -85 44 -238 137 -470 360 -647 624 -56 83
-161 260 -161 272 0 5 57 9 128 9 l129 0 60 -77z"/>
<path fill="#ff0000" stroke="none" d="M287 2998 c-2 -35 -3 -9 -3 57 0 66 1
94 3 63 2 -32 2 -86 0 -120z"/>
<path fill="#ff0000" stroke="none" d="M558 3163 c-10 -2 -26 -2 -35 0 -10 3
-2 5 17 5 19 0 27 -2 18 -5z"/>
<path fill="#ff0000" stroke="none" d="M3093 3163 c-7 -2 -19 -2 -25 0 -7 3
-2 5 12 5 14 0 19 -2 13 -5z"/>
<path fill="#ff0000" stroke="none" d="M1520 2785 l0 -155 240 0 240 0 0 155
0 155 120 0 120 0 0 -155 0 -155 355 0 355 0 0 -265 0 -266 210 3 210 3 0
-117 0 -117 -210 6 -210 6 0 -276 0 -277 -349 0 -349 0 -6 -22 c-8 -32 -6
-835 2 -931 l8 -77 -136 0 -136 0 8 78 c3 42 7 274 7 515 l1 437 -240 0 -240
0 1 -432 c0 -238 4 -470 7 -515 l7 -83 -135 0 -136 0 7 68 c5 37 8 271 8 521
l1 454 -237 -7 c-131 -3 -298 -9 -370 -12 l-133 -7 0 119 0 119 370 -3 370 -3
0 167 0 166 -545 -4 -545 -4 0 116 0 115 545 -3 545 -2 0 166 0 167 -370 -5
-370 -6 0 115 c0 106 1 115 18 108 9 -4 176 -10 370 -13 l352 -5 0 157 0 156
120 0 120 0 0 -155z"/>
<path fill="#ffffff" stroke="none" d="M1520 2265 l0 -165 240 0 240 0 0 165
0 165 -240 0 -240 0 0 -165z"/>
<path fill="#ffffff" stroke="none" d="M2240 2265 l0 -165 230 0 230 0 0 165
0 165 -230 0 -230 0 0 -165z"/>
<path fill="#ffffff" stroke="none" d="M1520 1715 l0 -165 240 0 240 0 0 165
0 165 -240 0 -240 0 0 -165z"/>
<path fill="#ffffff" stroke="none" d="M2240 1715 l0 -165 230 0 230 0 0 165
0 165 -230 0 -230 0 0 -165z"/>
</g>
</svg>