
<svg version="1.0" xmlns="http://www.w3.org/2000/svg"
 width="370.000000pt" height="370.000000pt" viewBox="0 0 370.000000 370.000000"
 preserveAspectRatio="xMidYMid meet">
<g transform="translate(0.000000,370.000000) scale(0.100000,-0.100000)"
fill="#000000" stroke="none"><path fill="#ffffff" stroke="none" d="M0 1850 l0 -1850 1850 0 1850 0 0 1850
0 1850 -1850 0 -1850 0 0 -1850z"/>
<path fill="#000000" stroke="none" d="M1906 3523 c-2 -16 -8 -72 -11 -125
l-7 -98 502 0 502 0 -6 -37 c-4 -21 -9 -105 -12 -187 l-7 -149 224 6 c123 4
241 10 262 13 l37 7 0 -123 0 -122 -261 7 -262 8 7 -154 c3 -85 8 -171 12
-191 l6 -38 -501 0 -501 0 0 -35 0 -35 -110 0 -110 0 0 36 0 37 -480 -5 -480
-6 0 120 0 120 33 -6 c17 -3 233 -9 480 -12 l447 -7 0 88 0 88 -620 -5 -620
-6 0 121 0 120 53 -7 c28 -3 307 -9 620 -13 l567 -6 0 83 0 83 -462 -7 c-255
-3 -478 -9 -495 -12 l-33 -6 0 132 0 132 28 -6 c71 -16 308 -26 620 -26 l344
0 -7 93 c-3 50 -8 107 -11 125 l-5 32 131 0 132 0 -6 -27z"/>
<path fill="#ffffff" stroke="none" d="M1890 3010 l0 -80 368 2 367 3 3 78 3
77 -371 0 -370 0 0 -80z"/>
<path fill="#ffffff" stroke="none" d="M1890 2635 l0 -85 370 0 370 0 0 85 0
85 -370 0 -370 0 0 -85z"/>
<path fill="#ff0000" stroke="none" d="M703 2713 c-7 -2 -21 -2 -30 0 -10 3
-4 5 12 5 17 0 24 -2 18 -5z"/>
<path fill="#ff0000" stroke="none" d="M3183 2713 c-7 -2 -21 -2 -30 0 -10 3
-4 5 12 5 17 0 24 -2 18 -5z"/>
<path fill="#ff0000" stroke="none" d="M761 2100 l-3 -160 176 0 176 0 0 135
0 135 126 0 127 0 -7 -37 c-3 -21 -6 -118 -6 -215 l0 -178 -295 0 -295 0 0
-125 0 -125 455 0 455 0 0 365 0 365 110 0 110 0 0 -365 0 -365 490 0 490 0 0
110 0 110 -330 0 -330 0 0 198 c0 108 -3 214 -6 235 l-7 37 127 0 126 0 0
-135 0 -135 212 0 211 0 -6 145 -6 145 132 0 132 0 0 -965 0 -965 -131 0 -131
0 5 310 5 310 -212 0 -211 0 1 -207 c0 -115 4 -232 8 -260 l7 -53 -128 0 -128
0 0 365 0 365 330 0 330 0 0 95 0 95 -491 0 -491 0 3 -515 4 -515 -115 0 -115
0 3 515 3 515 -463 -2 -462 -3 -6 -25 c-4 -14 -10 -55 -13 -92 l-6 -68 314 0
315 0 0 -365 0 -365 -128 0 -128 0 7 53 c4 28 8 145 8 260 l1 207 -228 0 -227
0 -13 -42 c-26 -83 -169 -346 -194 -356 -4 -2 -8 -8 -8 -14 0 -5 -6 -15 -12
-23 -7 -7 -35 -43 -63 -78 -30 -39 -55 -63 -61 -59 -7 4 -42 34 -80 67 -37 33
-73 65 -80 70 -10 8 1 25 49 75 81 85 116 136 171 251 52 109 67 150 105 280
51 173 53 198 49 697 l-3 462 125 0 125 0 -4 -160z"/>
</g>
</svg>