
<svg version="1.0" xmlns="http://www.w3.org/2000/svg"
 width="370.000000pt" height="370.000000pt" viewBox="0 0 370.000000 370.000000"
 preserveAspectRatio="xMidYMid meet">
<g transform="translate(0.000000,370.000000) scale(0.100000,-0.100000)"
fill="#000000" stroke="none"><path fill="#ffffff" stroke="none" d="M0 1850 l0 -1850 1850 0 1850 0 0 1850
0 1850 -1850 0 -1850 0 0 -1850z"/>
<path fill="#000000" stroke="none" d="M1635 3313 c23 -62 82 -180 107 -216
12 -16 17 -32 12 -37 -16 -14 -533 -103 -842 -145 -132 -18 -228 -25 -347 -25
l-165 0 0 104 0 104 88 7 c451 34 772 103 1032 223 47 22 88 38 91 36 3 -2 14
-25 24 -51z"/>
<path fill="#ff0000" stroke="none" d="M2627 3123 l602 -6 -7 -31 c-9 -42 -9
-2564 0 -2643 l8 -63 -150 0 -150 0 0 180 0 180 -1115 0 -1115 0 0 -170 0
-170 -150 0 -150 0 8 48 c4 26 7 586 7 1244 l0 1198 143 0 142 0 0 -405 0
-405 440 0 440 0 0 -115 0 -115 -440 0 -440 0 0 -450 0 -450 1115 0 1115 0 0
450 0 450 -460 0 -460 0 0 115 0 115 460 0 460 0 0 416 0 417 -452 -6 c-249
-3 -463 -9 -475 -12 l-23 -7 0 127 c0 127 0 127 23 121 12 -4 293 -9 624 -13z"/>
</g>
</svg>