
<svg version="1.0" xmlns="http://www.w3.org/2000/svg"
 width="370.000000pt" height="370.000000pt" viewBox="0 0 370.000000 370.000000"
 preserveAspectRatio="xMidYMid meet">
<g transform="translate(0.000000,370.000000) scale(0.100000,-0.100000)"
fill="#000000" stroke="none"><path fill="#ffffff" stroke="none" d="M0 1850 l0 -1850 1850 0 1850 0 0 1850
0 1850 -1850 0 -1850 0 0 -1850z"/>
<path fill="#000000" stroke="none" d="M2592 3313 c-2 -131 -7 -242 -11 -246
-7 -6 -233 -39 -237 -34 -1 1 -4 118 -6 260 l-4 257 131 0 130 0 -3 -237z"/>
<path fill="#000000" stroke="none" d="M885 3509 c77 -12 142 -24 143 -25 2
-1 -7 -31 -21 -66 -24 -62 -36 -105 -116 -443 -23 -93 -44 -180 -47 -192 l-6
-23 311 0 312 0 -6 -42 c-3 -24 -12 -110 -20 -193 -23 -236 -33 -313 -65 -502
-43 -256 -111 -543 -165 -692 l-15 -45 130 -124 c71 -68 130 -128 130 -134 0
-11 -114 -150 -154 -187 l-26 -25 -17 24 c-27 39 -158 194 -177 209 -9 8 -18
12 -19 10 -2 -2 -32 -44 -67 -94 -102 -144 -242 -308 -420 -489 l-166 -169
-100 74 c-54 41 -120 88 -146 104 -27 17 -48 33 -48 36 0 4 42 30 93 58 227
126 442 318 566 507 39 59 71 113 71 119 0 16 -51 62 -155 141 -106 81 -171
122 -301 190 -60 31 -110 58 -112 59 -1 1 9 32 23 69 27 73 101 312 135 441
49 182 100 394 100 415 0 21 -1 22 -112 16 -62 -4 -149 -8 -193 -9 l-80 -2 -3
127 -3 126 220 -5 220 -6 5 24 c47 202 106 598 106 708 0 42 1 43 28 38 15 -3
90 -16 167 -28z"/>
<path fill="#000000" stroke="none" d="M2580 2445 l0 -385 -120 0 -120 0 0
380 0 379 63 4 c34 2 88 4 120 5 l57 2 0 -385z"/>
<path fill="#000000" stroke="none" d="M2583 1173 c4 -373 10 -720 13 -771 l7
-92 -134 0 -134 0 3 677 2 678 -69 -140 c-120 -245 -248 -443 -412 -640 -105
-124 -272 -299 -362 -377 l-68 -59 -66 60 c-36 33 -96 81 -134 107 l-68 47 80
46 c168 97 285 202 436 390 156 193 287 407 388 633 56 126 24 114 311 116
l201 2 6 -677z"/>
<path fill="#ffffff" stroke="none" d="M771 2503 c-5 -21 -19 -81 -31 -133
-56 -245 -112 -463 -139 -550 -21 -64 -27 -98 -20 -105 5 -5 98 -69 207 -141
144 -96 199 -128 205 -119 13 24 77 267 102 390 22 110 49 280 89 572 9 61 16
114 16 117 0 3 -94 6 -210 6 l-209 0 -10 -37z"/>
<path fill="#ff0000" stroke="none" d="M2587 3118 c-2 -29 -3 -8 -3 47 0 55 1
79 3 53 2 -26 2 -71 0 -100z"/>
<path fill="#ff0000" stroke="none" d="M3179 3101 c18 -39 39 -75 47 -82 8 -6
14 -16 14 -22 0 -5 16 -32 35 -58 l35 -49 -123 0 c-68 0 -159 -4 -203 -9 -43
-6 -131 -14 -194 -20 -63 -6 -158 -15 -210 -21 -100 -11 -161 -15 -325 -23
-55 -2 -152 -8 -217 -12 l-116 -8 -6 -41 c-5 -31 -25 -565 -26 -688 0 -17 42
-18 746 -18 l746 0 -6 -132 c-3 -73 -8 -221 -12 -328 -9 -326 -31 -592 -53
-643 -30 -69 -49 -80 -206 -121 -67 -17 -211 -48 -233 -50 -13 -1 -30 37 -59
128 -3 10 -18 44 -33 75 l-27 56 151 6 c83 3 152 7 154 7 2 1 12 21 22 44 15
33 20 66 20 138 0 53 4 165 9 250 5 85 12 203 16 262 l6 107 -746 -1 c-410 0
-747 1 -748 3 -3 5 7 231 23 524 6 121 10 307 8 413 l-3 192 60 0 c56 0 264
16 520 40 61 6 133 10 160 10 37 0 46 2 35 10 -11 7 -1 8 33 4 31 -5 47 -3 47
4 0 7 11 9 29 6 17 -4 63 1 103 9 40 8 102 21 138 27 94 18 301 68 308 74 3 3
15 6 27 6 17 0 29 -15 54 -69z"/>
<path fill="#ff0000" stroke="none" d="M247 2774 c-3 -3 -12 -4 -19 -1 -8 3
-5 6 6 6 11 1 17 -2 13 -5z"/>
<path fill="#ff0000" stroke="none" d="M553 2763 c-18 -2 -48 -2 -65 0 -18 2
-4 4 32 4 36 0 50 -2 33 -4z"/>
<path fill="#ff0000" stroke="none" d="M2587 757 c-2 -23 -3 -1 -3 48 0 50 1
68 3 42 2 -26 2 -67 0 -90z"/>
<path fill="#ff0000" stroke="none" d="M2597 408 c-3 -7 -5 -2 -5 12 0 14 2
19 5 13 2 -7 2 -19 0 -25z"/>
</g>
</svg>