
<svg version="1.0" xmlns="http://www.w3.org/2000/svg"
 width="370.000000pt" height="370.000000pt" viewBox="0 0 370.000000 370.000000"
 preserveAspectRatio="xMidYMid meet">
<g transform="translate(0.000000,370.000000) scale(0.100000,-0.100000)"
fill="#000000" stroke="none"><path fill="#ffffff" stroke="none" d="M0 1850 l0 -1850 1850 0 1850 0 0 1850
0 1850 -1850 0 -1850 0 0 -1850z"/>
<path fill="#000000" stroke="none" d="M2985 3110 l0 -330 -432 0 -433 0 0 90
0 90 310 0 310 0 0 149 0 149 -1065 0 -1065 0 0 -149 0 -149 325 0 325 0 0
-90 0 -90 -461 0 -460 0 7 48 c10 61 10 502 0 565 l-7 47 1323 0 1323 0 0
-330z"/>
<path fill="#ff0000" stroke="none" d="M357 3238 c-2 -13 -4 -5 -4 17 -1 22 1
32 4 23 2 -10 2 -28 0 -40z"/>
<path fill="#ff0000" stroke="none" d="M1500 1955 c0 -1420 -3 -1347 55 -1373
16 -8 80 -12 170 -12 l145 0 0 1345 0 1345 125 0 125 0 0 -400 0 -400 508 0
507 0 0 -617 c0 -340 3 -633 7 -650 l8 -33 -515 0 -515 0 0 -295 0 -295 449 0
c555 0 533 -5 565 134 8 39 20 105 26 146 6 41 12 76 14 78 2 2 12 -1 23 -6
58 -30 96 -44 166 -62 44 -10 81 -21 83 -23 10 -9 -28 -155 -65 -252 -32 -85
-86 -143 -156 -168 -46 -16 -116 -17 -922 -17 -831 0 -873 1 -915 19 -116 50
-128 93 -128 464 l0 277 -518 0 -517 0 9 123 c13 163 13 923 1 1065 l-10 112
517 0 518 0 0 400 0 400 120 0 120 0 0 -1305z"/>
<path fill="#ff0000" stroke="none" d="M357 2938 c-2 -13 -4 -5 -4 17 -1 22 1
32 4 23 2 -10 2 -28 0 -40z"/>
<path fill="#ffffff" stroke="none" d="M480 2110 l0 -180 390 0 390 0 0 180 0
180 -390 0 -390 0 0 -180z"/>
<path fill="#ffffff" stroke="none" d="M2120 2110 l0 -180 380 0 380 0 0 180
0 180 -380 0 -380 0 0 -180z"/>
<path fill="#ffffff" stroke="none" d="M480 1555 l0 -195 390 0 390 0 0 195 0
195 -390 0 -390 0 0 -195z"/>
<path fill="#ffffff" stroke="none" d="M2120 1555 l0 -195 380 0 380 0 0 195
0 195 -380 0 -380 0 0 -195z"/>
</g>
</svg>