
<svg version="1.0" xmlns="http://www.w3.org/2000/svg"
 width="370.000000pt" height="370.000000pt" viewBox="0 0 370.000000 370.000000"
 preserveAspectRatio="xMidYMid meet">
<g transform="translate(0.000000,370.000000) scale(0.100000,-0.100000)"
fill="#000000" stroke="none"><path fill="#ffffff" stroke="none" d="M0 1850 l0 -1850 1850 0 1850 0 0 1850
0 1850 -1850 0 -1850 0 0 -1850z"/>
<path fill="#000000" stroke="none" d="M2002 3502 c25 -64 57 -150 69 -191
l24 -74 585 7 c322 3 609 9 638 12 l52 7 0 -117 0 -117 -147 7 c-82 4 -677 8
-1323 8 l-1175 1 -6 -740 c-9 -1162 -26 -1267 -298 -1839 l-61 -129 -78 80
c-42 44 -97 96 -122 115 l-45 36 21 23 c74 83 161 247 209 393 106 325 132
672 122 1616 -4 305 -10 574 -13 598 l-7 42 657 0 c361 0 656 4 656 8 0 4 -24
72 -54 150 -52 138 -53 142 -32 146 77 16 168 40 206 56 25 10 52 18 60 19 10
1 30 -37 62 -117z"/>
<path fill="#000000" stroke="none" d="M1360 1604 l0 -207 265 5 265 5 0 -117
0 -117 -265 5 -265 5 0 -257 c0 -141 3 -256 8 -256 4 1 122 43 262 94 l255 93
6 -61 c4 -33 9 -90 10 -124 l4 -64 -161 -53 c-188 -63 -343 -130 -508 -222
l-118 -66 -23 29 c-29 35 -115 187 -115 201 0 6 17 28 38 49 23 23 48 63 60
97 22 57 22 69 22 612 l0 555 130 0 130 0 0 -206z"/>
<path fill="#000000" stroke="none" d="M2360 1535 c0 -151 3 -275 8 -275 20 0
117 31 200 63 139 54 299 140 418 223 59 41 108 73 109 72 2 -2 29 -37 62 -78
33 -41 85 -103 117 -137 37 -40 53 -64 45 -66 -8 -2 -64 -16 -125 -31 -60 -14
-204 -57 -320 -94 -115 -38 -278 -88 -362 -113 l-153 -43 3 -188 c3 -208 7
-221 79 -263 31 -18 55 -20 286 -23 275 -4 319 2 364 47 31 32 43 67 66 206 9
55 18 101 19 103 1 2 32 -17 69 -43 37 -25 103 -63 147 -83 91 -43 89 -31 31
-168 -57 -137 -106 -203 -178 -239 l-60 -30 -429 -3 c-366 -2 -436 0 -475 13
-74 25 -118 62 -148 124 l-28 56 -3 610 c-1 335 0 615 2 622 4 10 37 13 131
13 l125 0 0 -275z"/>
<path fill="#ff0000" stroke="none" d="M457 3188 c-3 -8 -6 -5 -6 6 -1 11 2
17 5 13 3 -3 4 -12 1 -19z"/>
<path fill="#ff0000" stroke="none" d="M1562 2855 l-3 -195 281 0 280 0 0 195
0 195 125 0 125 0 0 -195 0 -195 408 0 408 0 -9 -72 c-4 -40 -7 -232 -5 -426
l3 -352 -405 -1 c-546 -1 -1621 -1 -1852 0 l-188 1 0 100 0 100 295 0 295 0 0
225 0 225 -295 0 -295 0 0 100 0 100 295 0 296 0 -3 195 -3 195 125 0 125 0
-3 -195z"/>
<path fill="#ff0000" stroke="none" d="M467 2888 c-2 -13 -4 -3 -4 22 0 25 2
35 4 23 2 -13 2 -33 0 -45z"/>
<path fill="#ff0000" stroke="none" d="M467 1833 c-3 -10 -5 -4 -5 12 0 17 2
24 5 18 2 -7 2 -21 0 -30z"/>
<path fill="#ffffff" stroke="none" d="M1560 2235 l0 -225 280 0 280 0 0 225
0 225 -280 0 -280 0 0 -225z"/>
<path fill="#ffffff" stroke="none" d="M2370 2235 l0 -225 280 0 280 0 0 225
0 225 -280 0 -280 0 0 -225z"/>
</g>
</svg>