
<svg version="1.0" xmlns="http://www.w3.org/2000/svg"
 width="370.000000pt" height="370.000000pt" viewBox="0 0 370.000000 370.000000"
 preserveAspectRatio="xMidYMid meet">
<g transform="translate(0.000000,370.000000) scale(0.100000,-0.100000)"
fill="#000000" stroke="none"><path fill="#ffffff" stroke="none" d="M0 1850 l0 -1850 1850 0 1850 0 0 1850
0 1850 -1850 0 -1850 0 0 -1850z"/>
<path fill="#000000" stroke="none" d="M1692 3631 c2 -6 62 -80 133 -166 72
-86 131 -160 132 -163 2 -4 -14 -15 -35 -25 -21 -10 -68 -41 -103 -68 l-64
-49 -20 27 c-11 15 -42 56 -69 92 -27 36 -80 100 -118 142 l-68 77 97 71 c102
73 109 77 115 62z"/>
<path fill="#000000" stroke="none" d="M1780 3145 c701 0 1314 4 1363 8 l87 8
0 -103 0 -103 -1450 0 -1450 0 0 103 0 103 88 -8 c48 -4 661 -8 1362 -8z"/>
<path fill="#ff0000" stroke="none" d="M533 2953 c-7 -2 -21 -2 -30 0 -10 3
-4 5 12 5 17 0 24 -2 18 -5z"/>
<path fill="#ff0000" stroke="none" d="M3018 2953 c-10 -2 -26 -2 -35 0 -10 3
-2 5 17 5 19 0 27 -2 18 -5z"/>
<path fill="#ff0000" stroke="none" d="M1620 2777 c85 -60 157 -111 159 -113
1 -1 -7 -13 -19 -26 -12 -13 -29 -35 -38 -50 -9 -16 -20 -28 -24 -28 -4 0 -16
-16 -25 -35 l-18 -35 -40 36 c-45 41 -187 143 -235 171 -108 60 -108 44 8 190
30 39 4 51 232 -110z"/>
<path fill="#ff0000" stroke="none" d="M2264 2853 c23 -21 61 -54 85 -73 80
-63 77 -61 63 -67 -7 -2 -19 -11 -26 -19 -8 -8 -17 -14 -21 -14 -9 0 -145
-102 -202 -151 -55 -49 -83 -72 -178 -144 l-65 -50 3 -318 2 -317 -110 0 -110
0 0 380 0 380 62 0 c55 0 66 4 110 36 95 72 192 179 285 316 29 43 55 77 57
78 2 0 22 -17 45 -37z"/>
<path fill="#ff0000" stroke="none" d="M3117 2713 c34 -46 90 -104 122 -125
l23 -17 -38 -6 c-149 -22 -183 -29 -219 -40 -35 -11 -40 -15 -37 -40 4 -36
121 -263 176 -339 65 -92 163 -184 252 -238 l52 -31 -57 -38 c-31 -21 -76 -57
-101 -80 l-44 -41 -98 101 c-54 56 -98 106 -98 112 0 5 -3 9 -8 9 -4 0 -27 30
-52 68 -25 37 -47 69 -50 72 -32 33 -137 282 -155 368 -8 39 -22 47 -59 32
-16 -6 -60 -15 -100 -20 -118 -17 -106 9 -106 -236 0 -118 4 -214 9 -214 4 0
73 27 152 59 l144 59 21 -61 c12 -34 26 -75 32 -90 10 -24 9 -29 -6 -33 -9 -3
-33 -12 -52 -19 -19 -8 -66 -23 -105 -35 -80 -24 -234 -87 -314 -129 l-55 -28
-35 51 c-19 28 -37 53 -41 56 -3 3 -16 20 -29 38 l-22 32 30 26 c63 52 66 71
65 361 l0 262 55 11 c57 11 111 20 236 41 103 17 267 62 375 102 52 20 98 36
102 36 4 1 20 -16 35 -36z"/>
<path fill="#ff0000" stroke="none" d="M1363 2607 c-4 -6 -10 -161 -13 -344
l-5 -331 -31 -39 c-17 -21 -42 -44 -56 -50 -36 -18 -160 -44 -245 -52 l-72 -6
-12 50 c-7 27 -22 74 -35 104 -13 29 -24 57 -24 62 0 5 47 9 104 9 57 0 112 3
121 6 37 15 45 56 45 244 l0 181 -157 -3 -158 -3 -2 -30 c-9 -103 -59 -269
-111 -370 -21 -38 -39 -72 -42 -75 -3 -3 -20 -25 -37 -48 -36 -50 -91 -109
-154 -167 -79 -71 -74 -70 -111 -44 -18 13 -39 29 -45 35 -7 7 -38 27 -68 44
-30 17 -55 33 -55 35 0 2 25 18 57 36 64 37 174 142 220 209 40 59 86 154 102
210 7 25 17 58 22 74 5 16 9 44 9 63 l0 34 -165 -3 -165 -3 0 95 0 95 545 -3
c430 -2 544 -5 538 -15z"/>
<path fill="#ff0000" stroke="none" d="M2962 1693 c-4 -27 -7 -351 -7 -720 l0
-673 -133 0 -134 0 6 48 c13 102 26 323 26 450 l0 132 -870 0 -870 0 -5 -27
c-6 -26 -13 -46 -46 -118 -21 -47 -92 -156 -134 -205 -84 -98 -235 -238 -301
-280 -22 -14 -25 -12 -58 26 -19 22 -60 58 -90 79 -31 21 -56 42 -56 46 0 4
41 31 90 59 50 28 96 57 103 63 6 7 30 25 52 41 195 143 268 345 269 741 1 99
-2 217 -7 263 l-7 82 129 0 129 0 -6 -105 -5 -105 842 0 841 0 0 125 0 125
125 0 125 0 -8 -47z"/>
<path fill="#ffffff" stroke="none" d="M1026 1293 c-3 -16 -8 -63 -12 -105
l-6 -78 856 0 857 0 -3 103 -3 102 -842 3 -841 2 -6 -27z"/>
</g>
</svg>