
<svg version="1.0" xmlns="http://www.w3.org/2000/svg"
 width="370.000000pt" height="370.000000pt" viewBox="0 0 370.000000 370.000000"
 preserveAspectRatio="xMidYMid meet">
<g transform="translate(0.000000,370.000000) scale(0.100000,-0.100000)"
fill="#000000" stroke="none"><path fill="#ffffff" stroke="none" d="M0 1850 l0 -1850 1850 0 1850 0 0 1850
0 1850 -1850 0 -1850 0 0 -1850z"/>
<path fill="#000000" stroke="none" d="M1670 3600 c90 -17 166 -30 167 -30 2
0 -15 -27 -37 -60 -23 -33 -62 -103 -87 -155 l-46 -95 -143 0 -142 0 9 33 c14
52 59 297 59 324 0 22 3 24 28 19 15 -4 101 -20 192 -36z"/>
<path fill="#000000" stroke="none" d="M3350 2206 c69 -59 126 -110 128 -114
1 -4 -26 -20 -61 -35 -95 -41 -163 -90 -384 -274 -111 -93 -262 -209 -335
-258 -73 -50 -191 -135 -263 -191 -428 -330 -600 -432 -1108 -653 -268 -117
-512 -214 -823 -326 l-91 -33 -18 41 c-27 64 -91 144 -146 183 -27 20 -49 40
-49 44 0 5 19 11 43 15 101 16 409 99 588 159 531 177 920 384 1415 752 323
240 370 274 503 369 146 104 323 275 395 382 44 64 51 71 65 59 9 -8 72 -62
141 -120z"/>
<path fill="#ff0000" stroke="none" d="M2844 3233 c-4 -10 -9 -301 -12 -648
-3 -529 -6 -631 -18 -638 -8 -5 -11 -13 -8 -19 4 -6 2 -8 -4 -4 -6 3 -15 -1
-20 -10 -5 -9 -13 -16 -18 -16 -21 -1 -33 -11 -27 -22 3 -6 3 -8 -2 -4 -11 10
-47 -11 -40 -23 4 -5 3 -9 -2 -8 -17 3 -29 -2 -53 -22 -14 -11 -19 -17 -11
-13 9 4 12 3 8 -3 -4 -6 -18 -13 -31 -15 -25 -5 -25 -4 -28 71 l-3 76 -732 3
-733 2 0 -150 0 -150 643 -1 c353 -1 646 -1 650 0 5 1 6 -3 2 -9 -3 -6 -10 -8
-14 -5 -5 2 -17 -3 -27 -11 -10 -9 -13 -12 -5 -8 9 5 12 3 7 -5 -4 -6 -12 -9
-17 -6 -5 3 -19 -3 -31 -14 -12 -12 -26 -21 -30 -21 -5 0 -6 -5 -3 -10 4 -6 3
-10 -2 -9 -17 4 -43 -14 -36 -25 3 -6 3 -8 -2 -4 -12 11 -47 -11 -39 -25 4 -7
4 -9 -1 -5 -11 10 -47 -11 -40 -23 4 -5 3 -9 -2 -8 -15 4 -43 -13 -37 -22 3
-5 2 -9 -3 -8 -13 3 -43 -12 -39 -20 2 -3 -403 -6 -900 -6 l-904 0 0 134 c0
115 2 132 15 127 9 -3 135 -9 281 -12 l266 -7 -3 806 -4 807 1009 0 c956 0
1008 -1 1000 -17z"/>
<path fill="#ff0000" stroke="none" d="M2830 1078 c0 -374 -3 -532 -12 -562
-16 -56 -51 -109 -87 -135 -56 -40 -131 -62 -356 -101 -153 -27 -155 -27 -155
13 0 44 -48 177 -89 245 -17 29 -31 54 -31 55 0 1 90 2 199 2 187 0 201 1 228
21 49 36 52 61 52 442 1 329 0 352 -16 352 -14 0 -11 5 10 18 15 10 24 22 20
26 -5 4 -3 7 2 6 21 -5 36 0 30 10 -4 6 -3 10 2 9 20 -3 34 2 28 11 -4 6 -3
10 2 9 21 -4 34 2 27 13 -4 6 -3 8 3 5 13 -8 75 37 65 47 -4 4 -2 7 3 6 21 -5
36 0 30 10 -3 6 1 7 9 4 11 -4 16 0 16 11 0 9 5 13 10 10 6 -4 10 -191 10
-527z"/>
<path fill="#ffffff" stroke="none" d="M1110 2875 l0 -175 733 2 732 3 3 173
2 172 -735 0 -735 0 0 -175z"/>
<path fill="#ffffff" stroke="none" d="M1110 2320 l0 -170 733 2 732 3 0 165
0 165 -732 3 -733 2 0 -170z"/>
</g>
</svg>