
<svg version="1.0" xmlns="http://www.w3.org/2000/svg"
 width="370.000000pt" height="370.000000pt" viewBox="0 0 370.000000 370.000000"
 preserveAspectRatio="xMidYMid meet">
<g transform="translate(0.000000,370.000000) scale(0.100000,-0.100000)"
fill="#000000" stroke="none"><path fill="#ffffff" stroke="none" d="M0 1850 l0 -1850 1850 0 1850 0 0 1850
0 1850 -1850 0 -1850 0 0 -1850z"/>
<path fill="#000000" stroke="none" d="M2466 1843 c49 -71 175 -243 281 -384
158 -211 426 -601 521 -760 l22 -36 -83 -49 c-45 -27 -110 -70 -145 -96 -35
-27 -67 -46 -72 -43 -5 3 -23 31 -41 63 -172 304 -425 671 -751 1085 l-111
141 24 15 c13 9 75 55 139 103 63 48 118 87 121 88 4 0 46 -57 95 -127z"/>
<path fill="#000000" stroke="none" d="M1259 1932 c46 -36 167 -110 249 -151
l63 -32 -77 -112 c-230 -333 -510 -728 -600 -847 -104 -138 -267 -332 -322
-384 l-31 -29 -48 40 c-26 22 -94 74 -150 115 l-102 75 126 124 c278 276 520
591 712 929 63 111 131 261 131 290 0 16 9 12 49 -18z"/>
<path fill="#ff0000" stroke="none" d="M1705 3396 c33 -44 84 -111 113 -150
28 -39 58 -78 65 -86 6 -8 21 -28 31 -45 11 -16 23 -34 28 -40 21 -26 78 -118
78 -126 0 -5 5 -9 10 -9 6 0 10 -5 10 -11 0 -6 11 -25 25 -43 14 -18 25 -37
25 -43 0 -5 -19 -18 -42 -28 -49 -21 -124 -64 -185 -107 -24 -16 -47 -27 -52
-24 -5 4 -20 27 -32 54 -53 109 -271 446 -322 497 -7 6 -23 28 -37 48 -14 20
-29 37 -34 37 -4 0 23 21 60 47 38 25 94 66 124 90 42 33 57 40 65 30 6 -7 37
-48 70 -91z"/>
<path fill="#ff0000" stroke="none" d="M580 2580 c102 -5 675 -9 1275 -9 981
0 1312 6 1458 25 l47 7 0 -154 0 -154 -1550 0 -1550 0 0 154 0 154 68 -7 c37
-4 150 -11 252 -16z"/>
</g>
</svg>