
<svg version="1.0" xmlns="http://www.w3.org/2000/svg"
 width="370.000000pt" height="370.000000pt" viewBox="0 0 370.000000 370.000000"
 preserveAspectRatio="xMidYMid meet">
<g transform="translate(0.000000,370.000000) scale(0.100000,-0.100000)"
fill="#000000" stroke="none"><path fill="#ffffff" stroke="none" d="M0 1850 l0 -1850 1850 0 1850 0 0 1850
0 1850 -1850 0 -1850 0 0 -1850z"/>
<path fill="#000000" stroke="none" d="M2507 2750 l504 0 -8 -72 c-4 -40 -7
-280 -7 -533 0 -253 3 -493 7 -532 l8 -73 -535 0 -536 0 0 -181 0 -182 693 7
c380 3 718 9 750 12 l57 6 0 -133 0 -134 -751 3 -752 3 5 -330 4 -331 -166 0
-166 0 4 331 5 330 -732 -3 -731 -3 0 134 0 134 77 -7 c43 -3 372 -9 731 -12
l652 -7 0 181 0 182 -507 0 -508 0 0 605 0 605 475 3 c261 2 576 2 699 0 123
-1 451 -3 728 -3z"/>
<path fill="#ffffff" stroke="none" d="M920 2390 l0 -150 880 0 880 0 0 150 0
150 -880 0 -880 0 0 -150z"/>
<path fill="#ffffff" stroke="none" d="M920 1890 l0 -140 880 0 880 0 0 140 0
140 -880 0 -880 0 0 -140z"/>
<path fill="#ff0000" stroke="none" d="M1850 3415 l0 -146 690 3 690 3 0 -110
0 -110 -690 3 -690 3 0 -151 0 -150 -145 0 -145 0 0 248 c0 137 -3 317 -7 400
l-6 152 151 0 152 0 0 -145z"/>
<path fill="#ff0000" stroke="none" d="M273 1193 c-7 -2 -19 -2 -25 0 -7 3 -2
5 12 5 14 0 19 -2 13 -5z"/>
<path fill="#ff0000" stroke="none" d="M3377 1194 c-3 -3 -12 -4 -19 -1 -8 3
-5 6 6 6 11 1 17 -2 13 -5z"/>
</g>
</svg>