
<svg version="1.0" xmlns="http://www.w3.org/2000/svg"
 width="370.000000pt" height="370.000000pt" viewBox="0 0 370.000000 370.000000"
 preserveAspectRatio="xMidYMid meet">
<g transform="translate(0.000000,370.000000) scale(0.100000,-0.100000)"
fill="#000000" stroke="none"><path fill="#ffffff" stroke="none" d="M0 1850 l0 -1850 1850 0 1850 0 0 1850
0 1850 -1850 0 -1850 0 0 -1850z"/>
<path fill="#000000" stroke="none" d="M2960 3385 c0 -24 -4 -122 -10 -217 -5
-95 -14 -281 -20 -413 -5 -132 -13 -293 -16 -357 l-6 -118 -141 0 -140 0 6
168 c18 459 27 671 32 715 l6 47 -825 0 -824 0 -6 -77 c-8 -96 -22 -321 -36
-593 -6 -113 -13 -215 -16 -227 -4 -23 -7 -23 -145 -23 l-140 0 6 93 c25 386
45 718 50 807 3 58 8 135 11 173 l6 67 1104 0 1104 0 0 -45z"/>
<path fill="#000000" stroke="none" d="M930 2014 c0 -25 -5 -98 -10 -162 -23
-259 -50 -616 -50 -653 l0 -39 845 0 845 0 0 57 c0 31 4 118 10 192 5 75 14
215 20 311 6 96 13 212 16 258 l6 82 139 0 139 0 0 -56 c0 -31 -4 -120 -10
-198 -5 -77 -14 -220 -20 -316 -5 -96 -13 -210 -16 -254 l-6 -79 231 5 231 4
0 -116 0 -115 -238 3 -238 4 -13 -93 c-14 -98 -51 -240 -77 -297 -22 -47 -70
-99 -118 -127 -67 -39 -268 -83 -497 -110 l-57 -6 -6 55 c-5 35 -24 89 -55
149 l-47 94 166 6 c299 12 355 37 394 174 8 26 17 72 20 101 l7 52 -997 0
-996 0 5 33 c3 17 8 61 12 97 3 36 14 157 25 270 17 180 34 369 56 643 l6 77
139 0 139 0 0 -46z"/>
<path fill="#000000" stroke="none" d="M1806 1757 c115 -118 233 -241 261
-274 l52 -60 -71 -59 c-39 -32 -86 -76 -104 -98 -21 -24 -38 -36 -43 -30 -5 5
-46 56 -91 114 -46 58 -159 181 -252 274 l-170 169 49 41 c26 22 68 62 93 88
25 26 50 47 56 48 6 0 105 -96 220 -213z"/>
<path fill="#ff0000" stroke="none" d="M2253 3213 c-227 -2 -599 -2 -825 0
-227 1 -42 2 412 2 454 0 639 -1 413 -2z"/>
<path fill="#ff0000" stroke="none" d="M737 3158 c-3 -8 -6 -5 -6 6 -1 11 2
17 5 13 3 -3 4 -12 1 -19z"/>
<path fill="#ff0000" stroke="none" d="M2947 3098 c-3 -8 -6 -5 -6 6 -1 11 2
17 5 13 3 -3 4 -12 1 -19z"/>
<path fill="#ff0000" stroke="none" d="M1706 2977 c65 -67 148 -156 184 -197
36 -41 67 -77 70 -80 7 -7 103 -122 118 -142 12 -15 9 -19 -20 -34 -18 -9 -35
-20 -38 -23 -3 -3 -31 -25 -62 -49 -32 -23 -58 -47 -58 -52 0 -6 -7 -10 -15
-10 -8 0 -15 4 -15 8 0 5 -8 17 -18 28 -10 10 -27 35 -39 54 -12 19 -32 46
-45 60 -13 14 -41 47 -62 74 -22 27 -49 58 -60 70 -91 94 -248 267 -245 269
16 11 120 97 144 119 17 16 33 28 36 28 3 0 60 -55 125 -123z"/>
<path fill="#ff0000" stroke="none" d="M2657 2958 c-3 -8 -6 -5 -6 6 -1 11 2
17 5 13 3 -3 4 -12 1 -19z"/>
<path fill="#ff0000" stroke="none" d="M1755 2279 c693 -1 1353 2 1468 6 l207
8 0 -119 0 -119 -1625 0 -1625 0 0 119 0 119 158 -7 c86 -3 724 -7 1417 -7z"/>
<path fill="#ff0000" stroke="none" d="M2867 1558 c-3 -8 -6 -5 -6 6 -1 11 2
17 5 13 3 -3 4 -12 1 -19z"/>
<path fill="#ff0000" stroke="none" d="M2847 1248 c-3 -8 -6 -5 -6 6 -1 11 2
17 5 13 3 -3 4 -12 1 -19z"/>
</g>
</svg>