
<svg version="1.0" xmlns="http://www.w3.org/2000/svg"
 width="370.000000pt" height="370.000000pt" viewBox="0 0 370.000000 370.000000"
 preserveAspectRatio="xMidYMid meet">
<g transform="translate(0.000000,370.000000) scale(0.100000,-0.100000)"
fill="#000000" stroke="none"><path fill="#ffffff" stroke="none" d="M0 1850 l0 -1850 1850 0 1850 0 0 1850
0 1850 -1850 0 -1850 0 0 -1850z"/>
<path fill="#000000" stroke="none" d="M943 3481 c41 -17 114 -41 162 -55 48
-14 90 -27 92 -29 2 -2 -17 -37 -41 -78 -36 -59 -186 -402 -186 -424 0 -3 196
-5 436 -5 l436 0 -6 -27 c-3 -16 -15 -84 -26 -153 -109 -656 -285 -1094 -607
-1508 -228 -293 -456 -507 -747 -701 l-98 -65 -32 39 c-50 64 -105 112 -163
142 -29 15 -53 30 -52 33 0 3 44 27 97 53 212 104 403 248 602 453 126 129
235 266 281 351 l24 45 -106 101 c-87 84 -260 227 -351 292 -21 14 -19 16 50
87 39 40 81 85 92 100 l21 28 217 -174 c119 -96 219 -173 223 -170 11 6 105
243 128 319 42 145 121 478 121 511 0 2 -142 4 -315 4 l-314 0 -65 -127 c-133
-262 -251 -444 -405 -625 l-92 -108 -72 73 c-40 39 -89 83 -109 97 l-37 24 77
81 c165 172 265 314 372 526 113 225 191 444 285 812 16 59 29 107 31 107 2 0
37 -13 77 -29z"/>
<path fill="#ff0000" stroke="none" d="M2357 3418 c-10 -145 -3 -2996 7 -3026
l8 -22 -148 0 -149 0 0 1580 0 1580 145 0 145 0 -8 -112z"/>
<path fill="#ff0000" stroke="none" d="M2715 2484 c44 -53 91 -108 105 -123
14 -14 45 -51 70 -81 25 -30 61 -73 81 -95 52 -57 145 -171 229 -281 25 -32
47 -61 51 -64 11 -10 149 -207 149 -214 0 -3 -19 -18 -42 -33 -24 -15 -74 -52
-111 -82 -37 -29 -69 -52 -71 -50 -1 2 -32 49 -67 104 -35 55 -69 106 -76 113
-7 8 -18 23 -25 35 -13 25 -165 227 -182 242 -6 6 -30 36 -54 67 -23 32 -50
65 -60 75 -10 10 -36 40 -58 68 -21 27 -55 68 -75 90 -20 22 -62 69 -93 104
l-57 64 23 25 c30 32 160 131 173 131 6 0 46 -43 90 -95z"/>
</g>
</svg>