
<svg version="1.0" xmlns="http://www.w3.org/2000/svg"
 width="370.000000pt" height="370.000000pt" viewBox="0 0 370.000000 370.000000"
 preserveAspectRatio="xMidYMid meet">
<g transform="translate(0.000000,370.000000) scale(0.100000,-0.100000)"
fill="#000000" stroke="none"><path fill="#ffffff" stroke="none" d="M0 1850 l0 -1850 1850 0 1850 0 0 1850
0 1850 -1850 0 -1850 0 0 -1850z"/>
<path fill="#000000" stroke="none" d="M2532 2600 l-4 -950 44 5 c24 3 128 14
231 25 226 24 388 45 520 67 54 8 100 13 103 10 6 -6 36 -258 32 -263 -4 -3
-622 -70 -792 -86 l-138 -12 3 -538 4 -538 -159 0 -158 0 7 531 8 531 -49 -6
c-27 -3 -161 -18 -299 -31 -137 -14 -315 -32 -395 -40 -170 -18 -532 -56 -815
-85 -110 -11 -234 -24 -275 -29 -41 -5 -102 -12 -136 -16 l-61 -6 -6 53 c-4
29 -7 92 -7 140 l0 87 33 5 c17 3 82 8 142 11 61 4 216 15 345 26 129 11 289
24 355 29 66 5 246 21 400 34 154 14 334 30 400 36 66 6 167 15 225 20 58 6
113 10 124 10 18 0 18 29 15 965 l-4 965 155 0 155 0 -3 -950z"/>
<path fill="#ff0000" stroke="none" d="M2227 3293 c-3 -10 -5 -4 -5 12 0 17 2
24 5 18 2 -7 2 -21 0 -30z"/>
<path fill="#ff0000" stroke="none" d="M1213 3198 c97 -70 336 -245 367 -271
8 -7 40 -30 70 -52 30 -21 57 -42 60 -45 3 -3 23 -19 45 -36 22 -16 46 -35 54
-42 8 -7 24 -20 37 -29 l23 -15 -59 -50 c-33 -27 -60 -53 -60 -56 0 -4 -15
-22 -33 -41 -17 -19 -39 -45 -48 -58 l-16 -24 -64 53 c-35 29 -66 55 -69 58
-3 3 -26 22 -52 43 -26 21 -53 43 -60 50 -11 10 -167 136 -228 184 -18 14 -96
78 -125 101 -11 10 -38 30 -60 47 -82 61 -83 47 13 156 48 53 91 98 95 98 5 1
54 -32 110 -71z"/>
<path fill="#ff0000" stroke="none" d="M870 2469 c3 -3 30 -22 60 -41 103 -66
555 -388 558 -398 2 -5 -14 -29 -36 -52 -70 -75 -86 -93 -116 -131 -16 -20
-33 -37 -38 -37 -7 0 -174 124 -248 183 -8 7 -55 41 -105 77 -49 35 -99 72
-109 82 -11 10 -23 18 -27 18 -4 0 -14 6 -21 13 -7 8 -34 26 -58 42 -25 15
-47 31 -50 34 -3 4 -35 26 -73 50 -76 49 -78 36 13 141 31 36 67 77 79 92 l23
27 72 -47 c39 -26 73 -50 76 -53z"/>
<path fill="#ff0000" stroke="none" d="M2227 728 c-2 -18 -4 -4 -4 32 0 36 2
50 4 33 2 -18 2 -48 0 -65z"/>
</g>
</svg>